<?xml version="1.0" encoding="utf-8"?>
<!-- Generator: Adobe Illustrator 17.0.0, SVG Export Plug-In . SVG Version: 6.00 Build 0)  -->
<!DOCTYPE svg PUBLIC "-//W3C//DTD SVG 1.1//EN" "http://www.w3.org/Graphics/SVG/1.1/DTD/svg11.dtd">
<svg version="1.1" id="Слой_1" xmlns="http://www.w3.org/2000/svg" xmlns:xlink="http://www.w3.org/1999/xlink" x="0px" y="0px"
	 width="300px" height="50px" viewBox="0 0 300 50" enable-background="new 0 0 300 50" xml:space="preserve">
<g>
	<g>
		<path fill="#010101" d="M53.728,42H16v-7.658h4.009l9.92-29.35h9.766l9.972,29.35h4.061V42z M40.569,34.342l-5.757-18.351
			l-5.757,18.351H40.569z"/>
		<path fill="#010101" d="M90.788,42h-9.304V18.87L66.012,42h-8.378V4.992h9.304v22.616l16.14-22.616h7.71V42z"/>
		<path fill="#010101" d="M135.094,42h-9.098v-4.369c-2.57,3.564-6.306,5.346-11.206,5.346c-5.346,0-9.681-1.902-13.004-5.705
			c-3.29-3.701-4.934-8.31-4.934-13.827c0-5.482,1.665-10.108,4.995-13.878c3.33-3.77,7.62-5.654,12.873-5.654
			c4.84,0,8.564,1.696,11.174,5.089V4.992h9.201V42z M126.151,23.65c0-3.084-0.995-5.748-2.981-7.993
			c-1.988-2.244-4.49-3.367-7.504-3.367c-2.981,0-5.432,1.148-7.351,3.444c-1.85,2.159-2.775,4.729-2.775,7.71
			c0,3.016,0.959,5.62,2.878,7.813c2.021,2.295,4.489,3.443,7.402,3.443c2.844,0,5.294-1.148,7.35-3.443
			C125.156,29.064,126.151,26.528,126.151,23.65z"/>
		<path fill="#010101" d="M173.234,42h-9.355l-8.225-25.137L147.441,42h-9.211l13.057-37.008h8.789L173.234,42z"/>
		<path fill="#010101" d="M213.584,23.29c0,5.895-1.937,10.691-5.809,14.392c-3.735,3.53-8.447,5.295-14.135,5.295
			c-5.654,0-10.332-1.765-14.033-5.295c-3.906-3.7-5.859-8.497-5.859-14.392c0-5.688,1.971-10.383,5.911-14.083
			c3.769-3.563,8.43-5.346,13.981-5.346c5.584,0,10.279,1.782,14.084,5.346C211.631,12.907,213.584,17.603,213.584,23.29z
			 M183.206,23.496c0,3.256,0.925,5.877,2.775,7.864c1.884,2.092,4.438,3.137,7.659,3.137c3.221,0,5.773-1.045,7.658-3.137
			c1.851-1.986,2.775-4.607,2.775-7.864c0-3.255-0.934-5.928-2.801-8.019c-1.868-2.089-4.412-3.135-7.633-3.135
			c-3.222,0-5.766,1.046-7.633,3.135C184.139,17.568,183.206,20.241,183.206,23.496z"/>
		<path fill="#010101" d="M239.489,12.702h-10.64V42h-9.304V4.992h19.943V12.702z"/>
		<path fill="#010101" d="M277.731,42h-9.304V18.87L252.956,42h-8.378V4.992h9.303v22.616l16.141-22.616h7.71V42z"/>
	</g>
</g>
</svg>
