<svg width="150" height="310" xmlns="http://www.w3.org/2000/svg">

 <g>
  <title>background</title>
  <rect fill="none" id="canvas_background" height="312" width="152" y="-1" x="-1"/>
 </g>
 <g>
  <title>Layer 1</title>
  <g id="svg_1">
   <path id="svg_2" d="m90.05484,181.238571c-0.940002,6.140991 0.906006,12.078003 1.385986,18.113007c0.292023,3.671997 1.128998,7.299988 1.721008,10.946991c-1.112,0.265991 -2.227997,0.764008 -3.320007,-0.059998c-0.651978,-0.60199 -0.948975,-1.368988 -1.024994,-2.234009c-0.049988,-1.020996 -0.050995,-2.043976 0.102997,-3.04599c0.093994,-0.386993 0.221008,-0.78299 0.253021,-1.10199c-0.002014,0.095978 -0.042023,0.072998 -0.040009,0.154999c-0.149994,0.675995 -0.388,1.234985 -0.660004,1.806c-1.095001,1.970001 -3.306,3.220001 -3.51001,5.716003c-0.578003,1.55899 -1.721985,2.746002 -2.668976,4.069977c-0.258011,0.507996 -0.558014,0.985016 -0.889008,1.447021c-5.179001,3.80899 -8.478012,9.669983 -14.138,12.957977c-0.807007,0.341003 -1.609009,0.695007 -2.520004,0.598022c-0.584,-0.151001 -1.081013,-0.450012 -1.505009,-0.874023c-1.259003,-1.547974 0.872013,-3.470978 -0.552994,-5.001984c2.035007,-13.778015 2.931004,-27.653992 3.539005,-41.554016c0.862,-2.720001 0.174988,-5.560974 0.651001,-8.309998c0.156998,-0.537994 0.391998,-1.040985 0.692001,-1.513977c2.592987,-3.22702 4.109985,-7.348022 7.931,-9.558014c2.937988,-0.27301 4.845993,-2.549988 7.307999,-3.740997c3.540009,-1.712997 6.200989,-1.313004 6.792999,3.256989c-0.001007,0.563995 -0.04599,1.125015 -0.136993,1.682022c-1.231018,3.196976 -3.471008,5.755997 -5.393005,8.514999c-0.843018,0.791992 -1.971008,0.96698 -2.993011,1.369995c-0.394989,1.184998 1.350006,0.71698 1.283997,1.653992c0.516022,1.542999 -0.203003,2.850006 -0.780991,4.186005c-0.235001,0.320984 -0.501999,0.772003 -0.837997,0.800995c-9.177002,0.79599 -10.128006,6.988007 -9.766998,14.381989c0.338989,6.949005 -1.587006,13.730011 -1.906998,20.167999c-0.528,1.186005 0.597,0.907013 -0.189011,0.786011c-0.112,-0.016998 -0.084,-0.201996 0.080002,-0.556c3.115005,-6.705994 8.677002,-11.755005 12.270004,-18.152985c2.247009,-4.001007 4.628998,-7.822021 3.84201,-12.769012c-0.322021,-2.024994 0.47699,-3.911987 2.556,-4.92099c0.95697,-0.193024 1.78598,0.004974 2.424988,0.78299z" fill="#353535"/>
   <path id="svg_3" d="m90.651825,209.852554c0.924011,-0.343994 1.779999,-0.299988 2.51001,0.445984c0.960999,8.537018 1.923004,17.073029 2.884003,25.610016c0.572998,1.143005 0.402985,2.203003 -0.355011,3.199005c-2.230011,0.71698 -4.139984,1.867981 -5.700012,3.690002c-1.367981,1.597992 -2.756989,3.393982 -5.330994,2.876984c-0.575989,-0.165985 -1.084991,-0.450989 -1.535004,-0.848999c-0.572998,-0.666992 -0.866974,-1.442993 -0.889984,-2.312988c-0.009003,-1.141998 0.69101,-2.238007 0.229004,-3.434021c-0.174011,-0.467987 -0.231018,-0.939972 -0.239014,-1.429993c-0.035004,-1.393005 0.626007,-2.497986 1.424011,-3.549988c1.96698,-1.869019 3.714996,-3.876007 4.240997,-6.541992c-6.860001,4.42099 -10.156998,11.901001 -15.632004,17.431976c-1.916992,1.937012 -3.319992,4.391022 -6.253006,5.042999c-0.603989,-0.029999 -1.166992,-0.185974 -1.700989,-0.470001c-0.759007,-0.567993 -1.176014,-1.330994 -1.299015,-2.258972c-0.033997,-0.581024 0.011002,-1.162018 0.117004,-1.734009c0.544998,-1.612 0.881001,-3.282013 1.282001,-4.937012c5.032013,-8.86499 13.569,-14.859009 19.091019,-23.343994c1.880981,-2.888977 3.082977,-6.59198 7.156982,-7.434998z" fill="#1D1D1D"/>
   <path id="svg_4" d="m97.73584,255.359573c0.949005,6.583969 1.764008,13.173996 2.239014,19.822006c0.131989,1.852966 -0.087006,3.132996 -1.234009,4.148987c-5.540009,4.903015 -8.921021,11.348022 -12.748016,17.481018c-5.151993,2.56897 -3.885986,-1.825989 -4.51799,-4.15802c0.087006,-0.544006 0.263,-1.062012 0.526001,-1.547974c0.948013,-0.976013 1.781998,-2.038025 2.354996,-3.289001c2.125,-2.471008 4.339996,-4.863037 6.386993,-7.400024c-3.281982,3.945007 -6.863983,7.651978 -9.54599,12.075012c-1.076996,1.775024 -2.391998,3.23999 -4.817001,2.335022c-1.938995,-1.53302 -1.186005,-3.736023 -1.423004,-5.693054c-0.078995,-1.164978 -0.386993,-2.294983 -0.526001,-3.453003c0.662003,-3.264954 3.074005,-5.390991 5.03801,-7.838989c5.303009,-6.612 10.815002,-13.094971 14.169006,-21.026001c0.488983,-1.155991 1.264984,-1.987991 2.578003,-2.17598c0.599976,0.041992 1.10199,0.292999 1.519989,0.720001z" fill="#161616"/>
   <path id="svg_5" d="m76.843826,285.780579c-0.005997,1.419006 -0.011993,2.838989 -0.01799,4.257996c0.263,1.714966 -1.950012,3.234009 -0.407013,5.026978c0.193008,0.080017 0.393005,0.182983 0.600006,0.257019c0.229004,-0.036987 0.449997,-0.044983 0.677994,-0.072998c1.923004,-0.725037 2.197006,-3.937012 4.998001,-3.289001c1.097015,1.617981 0.04599,4.695984 3.296997,4.848999c-1.518982,2.76001 -3,5.541992 -4.569992,8.27301c-1.065994,1.85498 -2.244995,1.846008 -3.666,0.201965c-3.197998,-3.69696 -5.757996,-7.899963 -8.513992,-11.867981c-2.851013,-4.104004 -5.969013,-7.880005 -9.494007,-11.263c-1.902008,-1.825989 -3.35701,-3.583984 -3.95401,-6.090027c2.239014,-1.425964 3.312012,-3.506958 3.435013,-6.120972c-0.314011,-0.789001 -0.628006,-1.578979 -0.942001,-2.369019c1.006989,-1.333984 0.149002,-3.296997 1.516998,-4.51001c4.257008,-1.950989 5.950993,-6.630981 9.677006,-9.135971c0.386993,-0.208008 0.820999,-0.317017 1.248001,-0.391998c0.383987,-0.143005 0.801987,-0.181 1.224991,-0.212006c0.210999,-0.083008 0.423004,-0.108002 0.630005,-0.184998c3.882996,-2.506989 5.022003,-7.759003 9.613007,-9.498016c0.569977,0.035004 1.065002,0.241028 1.470978,0.646027c0.482025,0.030975 0.963013,0.061981 1.445007,0.092987c1.783997,2.832001 -0.074982,4.967987 -1.549988,6.985992c-4.439011,6.072983 -9.072006,11.999985 -13.741013,17.900986c-2.360001,2.983032 -6.026997,5.82605 -4.194,10.395996c1.791,4.466003 5.789001,5.513 10.19101,5.540039c0.358994,0.003967 0.69899,0.349976 1.024994,0.578003z" fill="#343434"/>
   <path id="svg_6" d="m65.308823,45.531555c15.23999,-5.210007 38.171982,0.300003 46.447006,11.162003c12.706993,16.677994 13.608971,37.014999 2.367981,53.37999c-1.130005,0.320999 -1.832001,-0.266998 -2.40799,-1.125992c-1.147003,-2.783997 0.707001,-4.971008 1.523987,-7.34201c4.486023,-13.024994 4.887024,-25.492996 -3.230988,-37.622986c-6.174988,-9.227005 -14.701996,-13.654007 -25.298004,-14.751007c-4.737991,-0.490005 -9.535004,-0.404007 -14.306992,-0.313995c-1.987,0.037003 -4.031006,0.455002 -5.362,-1.613007c-0.263,-0.644989 -0.171997,-1.234985 0.266998,-1.772995z" fill="#3D3D3D"/>
   <path id="svg_7" d="m65.308823,45.531555c0.013992,0.453995 0.026993,0.90799 0.041,1.362c0.263,2.835999 -1.828007,3.709 -3.875004,4.509995c-14.382004,5.628998 -20.709,16.85701 -22.025009,31.591003c-0.237991,1.630005 -1.36499,2.630997 -2.524994,3.606995c-3.273003,1.639999 -3.790001,4.184006 -2.283012,7.289001c1.66201,3.423996 1.062012,6.439011 -1.435989,9.189011c-0.728012,0.574997 -1.499998,0.872986 -2.395002,0.373993c-3.111008,-7.593002 -2.977005,-14.938995 1.609999,-21.977005c1.64299,-2.521988 2.229996,-5.449997 2.972,-8.302994c3.466011,-13.322006 12.534004,-21.451004 24.711006,-26.697006c1.649002,-0.709991 3.408005,-0.96698 5.205006,-0.944992z" fill="#343434"/>
   <path id="svg_8" d="m30.810827,103.454559c0.481003,-0.516998 0.962006,-1.033005 1.443007,-1.550003c2.153992,-0.733002 3.207993,0.839005 4.523003,2.048004c2.955002,2.718002 5.453995,5.882996 7.345993,9.315002c4.557999,8.263992 12.514999,10.307007 20.702015,11.817001c3.662994,0.675003 7.477997,0.58699 11.14299,1.567001c1.203003,1.067993 2.494003,2.099991 1.854004,4.013c-7.125992,0.160004 -14.48,1.063995 -21.246998,-1.240997c-12.687012,-4.320999 -21.437019,-13.084 -25.764013,-25.969009z" fill="#535353"/>
   <path id="svg_9" d="m60.353832,264.034546c-0.688995,1.179993 -1.377991,2.361023 -2.067993,3.541016c0.042999,-5.14801 -1.055008,-10.171021 0.669998,-15.474014c1.419998,-4.366974 1.097992,-9.371979 1.136993,-14.097992c0.03801,-4.631989 1.354004,-8.924988 2.598007,-13.27298c1.046997,1.384979 1.091995,2.996979 1.046997,4.628998c1.354008,2.192993 1.465,4.791992 2.348011,7.140991c0.126999,0.501007 0.174988,1.01001 0.153,1.524994c-0.624008,1.802002 -2.446003,3.407013 -0.920013,5.567017c0.278,1.039001 -0.00499,1.932983 -0.709,2.71698l0.052002,-0.084991c-0.672993,0.765991 -1.039997,1.550995 -0.149994,2.414001c0.367004,0.006012 0.733994,0.013 1.100998,0.022003c1.919006,1.925995 0.311005,3.475983 -0.494003,5.164001c-0.809998,1.699005 -2.498997,3.055008 -2.127003,5.235001c-0.063004,1.372986 0.26001,2.786011 -0.42099,4.094971c-0.57402,0.710022 -1.323013,0.976013 -2.21701,0.880005z" fill="#232323"/>
   <path id="svg_10" d="m87.955841,163.299576c-0.282013,-0.51001 -0.666992,-1.492004 -0.830994,-1.455994c-1.782013,0.385986 -4.82901,0.59198 -5.065002,1.492981c-1.088013,4.154022 -3.681,2.489014 -6.024002,2.14801c-1.73201,-2.196014 0.369995,-3.634003 1.052002,-5.350998c0.584,-1.487 3.600998,-2.737 0.416,-4.56601c-1.084,-0.238998 -2.221008,-0.259995 -3.125,-1.002991c-0.960999,-0.865997 -1.367004,-1.912003 -1.05101,-3.195007c0.924011,-1.662994 2.822006,-0.44899 4.003006,-1.354996c1.005997,-0.100998 1.945999,0.024994 2.701004,0.787003c2.320999,2.166 5.224991,0.386993 7.757004,1.147003c1.41098,0.571991 0.751984,2.896988 2.630981,3.084c-0.179016,2.946991 3.432007,7.033997 -2.463989,8.266998z" fill="#707070"/>
   <path id="svg_11" d="m77.82283,130.664566c-1.139999,-0.904007 -2.539001,-1.100998 -3.889999,-1.428009c0.018005,-2.987991 2.319,-3.43399 4.453003,-3.709991c11.790009,-1.524002 21.950989,-5.964996 29.334991,-15.729004c1.282013,-1.694992 3.149994,-2.362 5.209015,-0.988998c0.39798,0.421997 0.79599,0.843994 1.194,1.266006c-8.706024,12.848999 -20.963013,19.434998 -36.30101,20.589996z" fill="#696969"/>
   <path id="svg_12" d="m77.331833,150.014557c-1.003006,1.002991 -2.387009,0.903 -3.615997,1.252991c-0.239014,0.339005 -0.432999,0.703003 -0.590012,1.087997c-0.10199,0.408005 -0.25,0.797012 -0.445999,1.171005c-0.125,0.173004 -0.248993,0.343002 -0.375992,0.518997c-0.240997,0.376007 -0.45401,0.761002 -0.634003,1.169006c-0.697998,1.321991 -0.778,2.705002 -0.457001,4.140991c-1.360001,3.152008 0.904007,6.563019 -0.708008,9.692993c-0.54599,1.952026 -0.602997,4.072021 -2.003998,5.720001l0.100998,-0.090973c-5.148991,1.177979 -1.802994,-3.591003 -3.419998,-4.886017c-0.837997,-5.624985 0.104004,-11.367996 -1.222996,-16.981995c-0.425995,-1.803009 0.741001,-2.902008 2.702,-3.014999c3.565994,-0.203995 7.125,-0.366989 10.671005,0.220001z" fill="#191919"/>
   <path id="svg_13" d="m90.05484,181.238571c-0.895996,0.022003 -1.791016,0.042999 -2.687012,0.063995c-0.261993,0.048004 -0.523987,0.097015 -0.785004,0.147003c-1.580994,0.424011 -3.159973,0.966003 -4.777985,0.131012c-0.742004,-0.449005 -1.268005,-1.056 -1.388,-1.950012c0.410995,-1.144012 0.822998,-2.289001 1.235001,-3.432983c-0.612,-0.572021 -1.645996,-0.871002 -1.328995,-2.046021c0.962997,-0.575989 1.925995,-1.152008 2.889984,-1.727997c0.391022,-0.307983 0.809021,-0.572998 1.251007,-0.799011c0.701996,-0.254974 1.381989,-0.559998 2.029999,-0.935974c1.281006,-0.835999 2.268005,-2.266022 4.075989,-2.046997c2.200012,0.732971 0.759003,2.987976 1.765015,4.222992c-0.01001,0.777985 -0.019989,1.556 -0.028992,2.334991c-0.184998,0.102997 -0.369995,0.205994 -0.554993,0.30899c-0.004028,0.212006 -0.008026,0.423004 -0.012024,0.63501c0.178009,0.114014 0.356995,0.22699 0.536011,0.339996c0.483002,2.156006 0.024994,3.872009 -2.220001,4.755005z" fill="#101010"/>
   <path id="svg_14" d="m87.955841,163.299576c2.924011,-2.509003 2.067993,-5.501999 1.089996,-8.51001c-0.389008,-0.653992 -0.470001,-1.429993 -0.82901,-2.095993c-2.082001,-0.128006 -4.165985,-0.229996 -6.244995,-0.393997c-0.93399,-0.074005 -1.960999,-0.137009 -1.938995,-1.498001c4.858002,0.895996 9.679993,0.483002 14.692993,-0.763c-2.985992,5.015991 -2.203003,10.356003 -3.130005,15.361984c0.494019,1.142029 0.601013,2.202026 -0.629974,2.980011c-2.46701,0.186005 -2.358002,-1.997009 -3.113007,-3.384995c0.033997,-0.56601 0.069,-1.131027 0.102997,-1.695999z" fill="#101010"/>
   <path id="svg_15" d="m45.05682,31.974556c-3.459,-0.876999 -3.770004,-3.932999 -5.208008,-6.199005c-1.919998,-3.023994 -1.535995,-7.370995 -5.586006,-9.242996c-1.065994,-0.493004 -0.841003,-2.223 0.225006,-3.031998c1.05899,-0.805 1.842003,0.190994 2.388008,0.963997c1.018997,1.441002 2.075989,2.896004 2.817993,4.485001c1.976013,4.232002 3.002014,8.860001 5.363007,13.025002z" fill="#424242"/>
   <path id="svg_16" d="m72.40683,23.482552c-3.990997,-7.142998 -2.201004,-14.902 -2.335999,-22.455994c3.003998,7.247993 1.414993,14.986 2.335999,22.455994z" fill="#515151"/>
   <path id="svg_17" d="m20.915823,55.622559c-4.669998,-3.664993 -9.314012,-7.36499 -14.035005,-10.962997c-0.944,-0.720001 -1.451996,-1.520004 -0.863998,-2.438995c0.807999,-1.262009 1.537994,-0.190002 2.345993,0.317993c5.20601,3.27301 9.218004,7.916 13.794008,11.908005c0.207993,1.048004 -0.052002,1.602005 -1.240997,1.175995z" fill="#2A2A2A"/>
   <path id="svg_18" d="m97.73584,255.36055c-0.432007,-0.049011 -0.86499,-0.096985 -1.296997,-0.145996c-4.990997,-3.819 -5.847992,-12.165009 -1.712006,-16.677002c0.440002,-0.876007 0.878998,-1.752014 1.319,-2.627991c1.345978,6.415009 2.520996,12.846008 1.690002,19.450989z" fill="#404040"/>
   <path id="svg_19" d="m106.510834,6.613556c-0.631012,5.854996 -4.123016,10.552002 -6.53299,15.686996c0.034973,-6.095001 2.790985,-11.089996 6.53299,-15.686996z" fill="#4D4D4D"/>
   <path id="svg_20" d="m134.54483,37.708557c5.109985,-6.553001 8.700012,-9.966003 12.509003,-11.567009c-2.937012,5.092995 -6.787994,8.565994 -10.917999,11.790001c-0.601013,0.430008 -1.131012,0.356018 -1.591003,-0.222992z" fill="#494949"/>
   <path id="svg_21" d="m59.228832,269.94458c0.831009,0.928955 1.798004,-0.118042 3.115997,0.333008c-1.712997,2.617981 -2.242996,6.145996 -6.550995,5.787964c0.358994,-2.481995 1.589996,-4.473999 3.434998,-6.120972z" fill="#949494"/>
   <path id="svg_22" d="m65.181824,169.79155c0.977997,0.812012 1.007996,1.968018 1.060989,3.084015c0.074005,1.580994 1.238007,1.641998 2.359009,1.802002c-2.184006,2.444977 -0.680008,5.918976 -2.372009,8.5c0.193024,-4.503998 -1.533981,-8.859009 -1.047989,-13.386017z" fill="#A0A0A0"/>
   <path id="svg_23" d="m90.405823,167.968552c0.397003,-0.855988 0.792999,-1.712006 1.190002,-2.567993c1.386993,2.375 1.018982,4.923981 0.738007,7.462982c-0.664001,-1.186981 -1.328003,-2.375 -1.992004,-3.561981c-0.296997,-0.311005 -0.386017,-0.612 -0.268005,-0.904022c0.115997,-0.287964 0.22702,-0.430969 0.332001,-0.428986z" fill="#353535"/>
   <path id="svg_24" d="m20.915823,55.622559c0.414001,-0.391998 0.828003,-0.783997 1.242004,-1.175995c1.210999,0.764999 3.292999,1.893005 2.141998,3.089005c-1.255005,1.304001 -2.483002,-0.74501 -3.384003,-1.91301z" fill="#727272"/>
   <path id="svg_25" d="m134.54483,37.708557c0.529999,0.07399 1.059998,0.147995 1.591003,0.223007c-0.908997,1.203995 -1.841003,2.375992 -3.497025,2.921005c-0.518982,-1.953003 0.892014,-2.423004 1.906021,-3.144012z" fill="#919191"/>
   <path id="svg_26" d="m92.272827,176.482559c-0.779999,0.759003 -1.559998,1.518005 -2.339996,2.277008c-1.309998,-1.528992 -0.962006,-3.074005 -0.046997,-4.626007c0.806,0.355011 1.612,0.709015 2.417999,1.063995c-0.01001,0.429016 -0.019989,0.856995 -0.031006,1.285004z" fill="#353535"/>
   <path id="svg_27" d="m80.416824,179.631577c0.677994,0.11499 1.355988,0.230988 2.035019,0.346008c1.488983,1.095978 3.692993,-0.39801 4.992981,1.379974l-0.076996,-0.054993c2.018005,7.404999 0.028992,13.712006 -4.402985,19.888c-5.487015,7.645996 -11.330017,14.988007 -17.642014,22.305023c0.421997,-4.578003 0.632996,-9.188019 1.311996,-13.727997c1.143005,-7.643005 1.096008,-15.360016 1.791,-23.029022c0.485001,-5.35199 1.456009,-6.527985 6.659988,-6.899994c1.77301,-0.125 3.554016,-0.141022 5.331009,-0.207001z" fill="#FEFEFE"/>
   <path id="svg_28" d="m65.040833,237.938553c-0.494003,-0.042999 -0.987,-0.085999 -1.481007,-0.128998c-0.371994,-2.957001 -0.248001,-5.82901 1.448002,-8.429993c0.578003,-0.208008 1.156006,-0.415009 1.734009,-0.623016c4.612,-4.527008 8.544998,-9.658997 12.871994,-14.440002l-0.026001,0.044006c0.781998,-1.57901 2.927002,-2.390991 2.588989,-4.600983c-0.243988,-1.328003 0.299011,-2.083008 1.545013,-2.650024c1.191986,-0.541992 2.231995,-1.42099 3.338989,-2.151001c1.067017,-0.652985 1.997009,-1.687988 3.459015,-1.233002c0.001984,1.239014 0.003998,2.47702 0.005981,3.716003c-1.298981,6.253021 -5.71698,10.660004 -9.567993,15.231995c-3.942993,4.681 -8.125992,9.213013 -12.518997,13.512024c-0.938004,0.919006 -1.627991,2.411011 -3.397995,1.752991z" fill="#4C4C4C"/>
   <path id="svg_29" d="m65.040833,237.938553c7.543991,-7.498993 14.606995,-15.437988 21.498993,-23.532013c1.472015,-1.727997 2.037018,-3.449982 1.377014,-5.92099c-0.503998,-1.889984 1.145996,-2.069 2.609985,-1.044006c0.041992,0.804016 0.083008,1.608002 0.125,2.412018c-2.675995,6.781006 -7.544006,11.996979 -12.263992,17.343994c-4.184006,4.73999 -8.973007,8.946991 -12.574997,14.200989c-0.408005,1.101013 -0.81601,2.201996 -2.073017,2.634003c-0.852997,0.618011 -1.830994,1.20401 -1.709991,-0.579987c0.151993,-2.247009 2.324009,-3.496002 3.011005,-5.514008z" fill="#CDCDCD"/>
   <path id="svg_30" d="m68.501831,174.76857c0.014999,-2.432007 0.028992,-4.863983 0.043991,-7.29599c1.519012,-0.600006 1.787003,-1.682007 1.549011,-3.231979c-0.289001,-1.881027 0.491989,-3.376022 2.343002,-4.161026c0.546997,-0.091995 1.099991,-0.153 1.653992,-0.186996c1.093002,-0.057007 2.180008,-0.315002 3.283005,-0.118011c0.526993,0.206009 0.903,0.573013 1.149994,1.078995c-0.828995,1.542999 -1.658997,3.087006 -2.487991,4.631012c-2.846008,2.822998 -4.161011,6.888977 -7.535004,9.283997z" fill="#A0A0A0"/>
   <path id="svg_31" d="m90.405823,167.968552c-0.022003,0.444 -0.042999,0.888 -0.065002,1.333008c-0.269989,1.639008 -0.699005,3.164978 -2.591003,3.652985c-1.368011,0.593018 -2.466003,-0.105988 -3.576996,-0.746979c-0.309998,0.117981 -0.631012,0.190979 -0.962006,0.21698c0.498993,-3.132996 2.407013,-5.386993 4.641998,-7.431992c2.233002,-0.192963 2.004028,1.725998 2.553009,2.975998z" fill="#959595"/>
   <path id="svg_32" d="m79.612823,214.315567c-2.945999,5.972992 -7.917999,10.31601 -12.238007,15.182983c-0.033005,0.037018 -0.347,-0.095978 -0.447998,-0.21698c-0.113007,-0.136017 -0.132996,-0.350006 -0.190002,-0.528015c3.833008,-5.222992 7.42601,-10.65799 12.876007,-14.437988z" fill="#979797"/>
   <path id="svg_33" d="m80.321823,174.152573c0.50499,0.641998 1.496002,0.967987 1.328995,2.04599c-2.438995,0.614014 -4.860992,1.709015 -7.505005,0.235016c-0.100998,-2.13501 1.237,-3.515015 2.618011,-5.024017c1.68399,1.057007 -0.959,3.210999 0.965988,3.802002c0.690018,0.212006 1.718018,-0.674011 2.59201,-1.05899z" fill="#A1A1A1"/>
   <path id="svg_34" d="m65.006836,229.378555c0.410004,2.962982 -0.789993,5.651001 -1.446995,8.431c-1.807007,-2.856018 -0.807999,-5.652008 0.179001,-8.449005c0.422993,0.006012 0.84499,0.012024 1.267994,0.018005z" fill="#818181"/>
   <path id="svg_35" d="m88.33783,201.338577c-0.911011,0.321014 -1.506012,1.341003 -2.679993,1.177002c-1.141998,-1.279999 0.237,-2.080994 0.707977,-2.977997c0.423004,-0.803986 1.115021,-2.02301 2.201019,-1.25c1.382996,0.984009 -0.041016,2.082001 -0.321991,3.122986l0.092987,-0.071991z" fill="#A9A9A9"/>
   <path id="svg_36" d="m82.176819,209.759567c1.071014,2.622009 -0.998993,3.476013 -2.589005,4.600983c-0.090988,-2.070984 1.77301,-3.040985 2.589005,-4.600983z" fill="#9F9F9F"/>
   <path id="svg_37" d="m90.520844,203.725571c-1.05899,0.675995 -2.158997,1.235992 -3.459015,1.233002c0.425018,-1.205994 0.851013,-2.411987 1.276001,-3.618988c0,-0.001007 -0.092987,0.072998 -0.092987,0.071991c1.18399,0.35199 1.922974,1.142975 2.276001,2.313995z" fill="#B1B1B1"/>
   <path id="svg_38" d="m94.726837,238.536575c0.184998,5.598999 0.394989,11.195007 1.712006,16.677002c0.197998,3.447983 -1.13501,6.223007 -3.070007,9.091965c-5.070007,7.512024 -10.980011,14.346008 -16.524002,21.475037c-2.408997,0.971985 -2.947998,4.828003 -5.776993,4.53302c-2.421997,-0.252014 -3.165009,-3.296997 -4.811005,-4.960999c-2.19899,-2.223022 -5.504002,-4.337036 -6.032993,-6.962036c-0.577011,-2.860962 3.17099,-5.093994 4.968998,-7.641968c6.354004,-9.005005 13.880005,-17.125015 19.920013,-26.369034c2.554993,-3.177002 5.108978,-6.352997 7.60199,-9.453003c1.961975,0.752014 1.475983,2.432007 2.011993,3.610016z" fill="#FEFEFE"/>
   <path id="svg_39" d="m60.553829,259.297546c0.418991,-4.147995 3.677006,-6.945999 5.058994,-10.635971c4.109009,-2.274017 6.249008,-6.425018 9.17601,-9.797028c5.256989,-6.056 10.235001,-12.35199 15.357986,-18.524994c0.171021,-0.205994 0.64801,-0.156006 0.972015,-0.223999c0.919983,0.886993 0.355988,1.834015 0.171997,2.76001c-0.931,4.820007 -4.587006,7.924011 -7.325012,11.608002c-0.276001,0.472992 -0.582977,0.921997 -0.934998,1.342987c-4.031998,6.246002 -8.757996,11.96402 -13.426987,17.727997c-0.330002,0.453003 -0.687012,0.881012 -1.069,1.290009c-1.637009,1.205978 -2.28801,3.231003 -3.743011,4.559982c-1.366993,1.248047 -2.909,2.908997 -4.237995,-0.106995z" fill="#E4E4E4"/>
   <path id="svg_40" d="m82.672821,234.684555c1.925995,-4.627014 5.445984,-8.091003 8.618011,-11.80899c0.346985,1.082001 1.311981,2.298981 0.549988,3.287994c-2.209015,2.867981 -3.158997,6.718994 -6.627991,8.605988c-0.869995,0.653015 -1.720001,0.739014 -2.540009,-0.084991z" fill="#626262"/>
   <path id="svg_41" d="m83.667816,244.287552c-0.291992,-0.001007 -0.583984,0.002014 -0.876007,0.006989c-3.647995,0.514008 -3.178986,6.451019 -7.686996,5.835022c-2.291992,-2.506012 0.435013,-3.882996 1.275009,-5.684021c0.223999,-0.496979 0.496002,-0.968994 0.80899,-1.415985c1.185013,-1.134003 2.257004,-2.355011 2.949005,-3.868011c0.339005,-0.438995 0.744995,-0.799988 1.220001,-1.084991c0.821014,-0.30899 1.608002,-0.287994 2.347015,0.229004c0.463989,0.016998 0.926971,0.03299 1.390991,0.049988c0.630981,1.729004 -1.088013,2.734009 -1.295013,4.205017c-0.043976,0.575989 -0.088989,1.152008 -0.132996,1.72699z" fill="#424242"/>
   <path id="svg_42" d="m83.801819,242.561569c-0.001007,-1.535004 0.571991,-2.893005 1.295013,-4.204987c0.704987,-0.931 1.41098,-1.861023 2.115997,-2.792023c0.329987,0.276001 0.66098,0.552002 0.990997,0.828003c-0.64801,2.553986 -2.514984,4.368011 -4.402008,6.169006z" fill="#888888"/>
   <path id="svg_43" d="m63.739819,244.03157c0.396,-1.109985 1.145008,-1.942993 2.073002,-2.634003c1.218994,2.033997 0.996002,3.713989 -1.203003,4.912018c-0.289993,-0.759033 -0.579987,-1.518036 -0.869999,-2.278015z" fill="#505050"/>
   <path id="svg_44" d="m64.511826,248.638565c-0.317993,0.204987 -0.625004,0.428986 -0.955997,0.609009c-0.63501,0.343994 -1.389999,0.959991 -1.984009,0.242981c-0.597992,-0.720978 0.03801,-1.423981 0.639999,-1.852997c0.764008,-0.544983 1.629013,-0.949005 2.450016,-1.412994c-0.049011,0.804993 -0.098999,1.609985 -0.150009,2.414001z" fill="#505050"/>
   <path id="svg_45" d="m83.705841,238.305557c-0.737,0.408997 -1.475006,0.817993 -2.212006,1.227997c-1.647995,-2.166992 0.609009,-3.319 1.269989,-4.885986l-0.090973,0.036987c0.846985,0.029022 1.692993,0.057007 2.539978,0.085999c-0.502014,1.178009 -1.005005,2.356995 -1.506989,3.535004z" fill="#ABABAB"/>
   <path id="svg_46" d="m76.599823,299.18158c-1.085999,-0.539001 -1.309998,-1.470032 -1.167007,-2.567017c0.751007,-0.612976 0.229004,-1.921021 1.290009,-2.364014c6.904984,-6.705994 12.840988,-14.305969 19.791,-21.112976c-0.237,2.880005 -2.160004,4.927979 -3.852997,6.984985c-2.369995,2.879028 -4.983002,5.557983 -7.493011,8.322021c-0.428009,1.454956 -0.756012,2.980957 -2.480011,3.523987l0.008026,-0.007019c-2.457016,1.291016 -3.383011,3.903015 -5.063019,5.86499c-0.210983,0.55304 -0.275986,1.218018 -1.03299,1.355042z" fill="#B2B2B2"/>
   <path id="svg_47" d="m90.036835,271.571533c1.813019,-2.437988 3.626007,-4.875977 5.440002,-7.313965c0.233002,3.94696 -2.701996,5.55896 -4.27301,8.174988c-0.389008,-0.286987 -0.777985,-0.573975 -1.166992,-0.861023z" fill="#A6A6A6"/>
   <path id="svg_48" d="m76.721832,294.250549c-0.430008,0.788025 -0.860001,1.575989 -1.290009,2.364014c-3.015991,-2.93103 0.605011,-4.455994 1.394012,-6.578979c1.237,1.437988 -0.218002,2.807007 -0.104004,4.214966z" fill="#818181"/>
   <path id="svg_49" d="m82.687836,291.968567c0.506012,-1.401001 1.359009,-2.557007 2.480011,-3.523987c1.58197,2.969971 1.561981,2.998962 -2.480011,3.523987z" fill="#343434"/>
   <path id="svg_50" d="m60.353832,264.034546c0.42601,-0.467957 0.850998,-0.937012 1.277008,-1.404968c1.707001,-3.369995 4.327991,-6.104004 6.414005,-9.210007l-0.067001,0.052002c0.71199,-0.654022 1.496994,-0.70401 2.338989,-0.28302c0.295013,0.317017 0.404999,0.641998 0.327011,0.97702c-0.07901,0.341003 -0.164001,0.509979 -0.256012,0.507996c-2.929001,4.022964 -5.857986,8.044998 -8.765995,12.039017c-1.304016,-0.748047 -1.207016,-1.743042 -1.268005,-2.67804z" fill="#B9B9B9"/>
   <path id="svg_51" d="m75.234833,250.053574c1.899994,-1.151001 3.391998,-2.69101 4.630997,-4.540009c0.647995,-0.967987 1.470001,-1.97699 2.92601,-1.218994c-4.024017,4.036987 -6.103012,9.790009 -11.289017,12.803024l0.085007,0.078003c0.003006,-0.82605 0.007004,-1.652023 0.009995,-2.478012c0.035004,-0.261017 0.070999,-0.522003 0.10701,-0.78302c0.409988,-1.613983 1.388,-2.807007 2.753998,-3.712006c0.257996,-0.049988 0.516998,-0.100006 0.776001,-0.148987z" fill="#868686"/>
   <path id="svg_52" d="m70.387833,254.673569c-0.020996,-0.480011 -0.041,-0.959991 -0.061996,-1.440002c0.065994,-5.026001 3.056992,-7.654999 7.470993,-9.117981c-0.026993,2.335999 -2.598999,3.573975 -2.561996,5.937988l0.067001,-0.054993c-1.115005,1.704987 -2.563004,3.14798 -3.766006,4.78299c0,0 0.061005,-0.084991 0.061005,-0.083984c-0.403,-0.008026 -0.806,-0.016022 -1.209,-0.024017z" fill="#B8B8B8"/>
   <path id="svg_53" d="m76.599823,299.18158c0.345001,-0.452026 0.688995,-0.903992 1.033997,-1.355042c0.501999,0.285034 1.007004,0.564026 1.505005,0.856018c1.293991,0.759033 2.452988,1.916016 1.162994,3.205017c-1.087997,1.088013 -2.041992,-0.36499 -2.789001,-1.200989c-0.385986,-0.429993 -0.613983,-0.999023 -0.912994,-1.505005z" fill="#818181"/>
   <path id="svg_54" d="m66.116837,265.813538c-0.246994,0.22699 -0.473999,0.567993 -0.787003,0.689026c-0.424988,0.164001 -0.821991,-0.122986 -0.729996,-0.541016c0.063995,-0.291016 0.444,-0.599976 0.753998,-0.72699c0.424988,-0.174988 0.710999,0.083984 0.763,0.578979z" fill="#949494"/>
   <path id="svg_55" d="m71.502823,257.097534c-0.020004,0.379028 -0.005005,0.764038 -0.069,1.13501c-0.098999,0.575012 -0.322006,1.101013 -0.975006,1.229004c-0.141998,0.028015 -0.470001,-0.197021 -0.464005,-0.213989c0.187012,-0.502991 0.338013,-1.041016 0.642014,-1.471008c0.199997,-0.28302 0.625992,-0.406006 0.949997,-0.601013l-0.084,-0.078003z" fill="#8E8E8E"/>
   <path id="svg_56" d="m112.92984,108.808563c-1.526001,1.537994 -3.171997,2.975006 -4.557007,4.630997c-6.746979,8.068008 -15.084991,13.128006 -25.717987,14.178009c-2.932007,0.289993 -5.815002,1.066986 -8.721008,1.619995c-3.675003,-0.755997 -7.354996,-1.150009 -11.138004,-1.007996c-3.123001,0.117996 -5.828003,-0.410004 -8.490005,-3.078003c-1.592987,-1.597 -5.188995,-1.779999 -7.50499,-3.611008c-2.167999,-1.714996 -3.804001,-3.466995 -5.059006,-6.190994c-1.341995,-2.912003 -3.696991,-5.714005 -5.991005,-8.110001c-1.591003,-1.660995 -2.145996,-3.697998 -3.496994,-5.333008c0.145996,-2.662994 0.153,-5.153 -0.848005,-7.862c-1.212006,-3.281998 0.028,-6.513 3.387999,-8.43399c0.460999,0.272995 0.850998,0.671997 1.399994,0.787994c0.234016,-1.498001 0.64901,-3.000992 -0.130997,-4.470001c1.959007,-9.875 4.316017,-19.491989 12.674019,-26.366989c4.968994,-4.088013 10.745987,-6.409012 16.610996,-8.667007c7.475006,-1.481995 15.110001,-1.423004 22.503998,-0.431c9.432007,1.266006 17.541992,5.671997 23.381989,13.695007c11.562004,15.881989 10.050018,32.123993 1.696014,48.649994z" fill="#FFFFFF"/>
   <path id="svg_57" d="m36.063816,81.927567c0.958015,3.714996 2.455009,7.108002 6.881004,9.463989c-5.315994,0.220001 -7.605003,-1.738998 -8.151009,-5.78299c0.424011,-1.227005 0.847,-2.45401 1.270004,-3.681z" fill="#575757"/>
   <path id="svg_58" d="m68.04483,253.418564c-0.684998,4.081985 -3.677994,6.555984 -6.412998,9.209976c-0.922012,-0.928955 -2.03801,-1.794983 -1.078003,-3.33197c1.450989,1.362976 2.024002,-0.104004 2.688004,-0.908997c1.474003,-1.783997 2.347004,-4.134018 4.802998,-4.969009z" fill="#505050"/>
   <path id="svg_59" d="m73.16983,161.651566c-1.199997,1.117004 -1.968994,2.406998 -1.845001,4.135986c0.166,2.309998 -1.371002,1.915009 -2.779007,1.686005c0.01001,-2.900986 -0.395996,-5.811981 0.233002,-8.695999c-0.498993,-4.975998 3.391006,-4.599991 6.424011,-5.26799c1.069,-0.019012 2.136993,-0.03801 3.205994,-0.056c2.039001,5.149994 -2.509003,6.092987 -5.238998,8.197998z" fill="#353535"/>
   <path id="svg_60" d="m73.16983,161.651566c1.391998,-2.960007 4.406998,-4.882004 5.240005,-8.199997c1.968994,-0.167007 3.929001,-0.24501 6.264999,0.745987c-1.58902,2.74501 -3.247009,5.21701 -6.150009,6.652008c0.001007,0.002991 -0.371002,-0.158997 -0.371002,-0.158997c-1.467987,-0.792007 -2.185989,0.92099 -3.388,1.015991c-0.53299,-0.018005 -1.063995,-0.036987 -1.595993,-0.054993z" fill="#D5D5D5"/>
   <path id="svg_61" d="m75.202835,153.507568c-1.223999,1.326004 -1.937988,3.251007 -4.371002,3.005005c-1.341995,-0.134995 -1.809998,1.097992 -2.052994,2.263c-2.587006,0.410995 -2.710999,-0.848999 -1.695007,-2.651001c0.673004,-1.194 2.449005,-1.296005 2.96701,-2.729004c-0.460007,-2.429001 1.727997,-1.54599 2.71199,-2.168991c0.320007,-0.035004 0.638,-0.021011 0.95401,0.039993c0.49498,0.747986 0.990982,1.494995 1.485992,2.240997z" fill="#BCBCBC"/>
   <path id="svg_62" d="m88.216827,152.692566c0.710999,-0.141006 1.665009,-0.304001 1.90799,0.371002c0.141998,0.394989 -0.686981,1.138 -1.078979,1.724991c-2.787994,0.294998 -1.063019,-1.194992 -0.82901,-2.095993z" fill="#B3B3B3"/>
   <path id="svg_63" d="m72.762833,151.22757c-0.957001,0.656998 -2.160004,1.005005 -2.712006,2.169006c-0.763992,-0.087006 -1.528,-0.174011 -2.291,-0.26001c-0.623993,-0.745987 -0.608002,-1.477997 0.046005,-2.195999c1.651993,0.095001 3.304993,0.190994 4.957001,0.287003z" fill="#707070"/>
   <path id="svg_64" d="m67.805832,150.93956c-0.014999,0.731995 -0.031006,1.464005 -0.046005,2.195999c-1.020996,0.031998 -2.082001,-0.08699 -1.834,-1.43399c0.158997,-0.867004 1.091995,-0.881012 1.880005,-0.762009z" fill="#BBBBBB"/>
   <path id="svg_65" d="m84.172821,172.206558c1.725006,-2.302002 2.529999,-0.197998 3.576996,0.747009c-0.76001,0.85199 -1.324005,2.274994 -2.710999,1.847992c-1.098999,-0.337982 -0.756989,-1.652985 -0.865997,-2.595001z" fill="#464646"/>
   <path id="svg_66" d="m89.885834,174.134567c0.015991,1.541992 0.031006,3.084015 0.046997,4.625c-1.105988,-0.223999 -2.726013,-0.061981 -2.893005,-1.402985c-0.225006,-1.80603 1.411011,-2.559021 2.846008,-3.222015z" fill="#989898"/>
   <path id="svg_67" d="m87.443817,181.357559c-1.658997,-0.480011 -3.519989,-0.227997 -4.993011,-1.380005c1.841034,-0.177979 3.624023,-0.147003 4.993011,1.380005z" fill="#353535"/>
   <path id="svg_68" d="m74.764832,161.707565c0.776001,-0.899017 1.505005,-1.847 2.347992,-2.679001c0.508011,-0.501007 1.263,-1.376999 1.884003,-0.419998c0.234009,0.360992 -0.528,1.369003 -0.839996,2.083008c-1.188004,0.155975 -1.917999,1.826996 -3.391998,1.015991z" fill="#707070"/>
   <path id="svg_69" d="m77.796829,244.115555c-3.300995,2.376984 -6.158997,5.115997 -7.470001,9.121002c-0.783005,0.076996 -1.565994,0.156006 -2.348999,0.234985c3.884003,-7.095001 8.839996,-13.347992 14.785995,-18.824005c-0.423004,1.629028 -0.847,3.257019 -1.269989,4.886017l0.033997,-0.039001c-1.499008,1.371002 -2.514999,3.125 -3.737,4.713989l0.005997,-0.092987z" fill="#5E5E5E"/>
   <path id="svg_70" d="m77.790833,244.209549c0.647995,-2.044983 1.132004,-4.221008 3.737,-4.713989c-0.432007,2.216003 -1.912003,3.601013 -3.737,4.713989z" fill="#A4A4A4"/>
   <path id="svg_71" d="m71.535828,254.78157c0.419006,-2.252991 1.753006,-3.786011 3.766006,-4.78299c-0.45401,2.224976 -1.688004,3.836975 -3.766006,4.78299z" fill="#343434"/>
   <path id="svg_72" d="m56.447826,101.978561c2.914001,3.852997 7.130997,4.097 10.282001,6.430008c1.496994,1.107986 3.669998,1.585999 5.596008,1.786987c12.083008,1.26001 22.708984,-1.587997 31.070007,-11.060989c1.323975,-1.501007 2.608978,-5.367004 5.029999,-3.279007c1.561981,1.346008 -2.005005,3.087006 -3.205017,4.697006c-3.531982,4.737991 -8.494995,7.582993 -13.561981,10.315994c-8.456024,4.561996 -26.826019,2.404007 -33.828022,-4.024002c-1.03299,-0.94899 -2.046997,-1.904999 -1.382996,-4.865997z" fill="#1B1B1B"/>
   <path id="svg_73" d="m69.079834,91.154556c0.065994,-4.585007 1.934998,-6.156998 4.419998,-7.090012c2.25,-0.843994 4.599991,-1.21199 6.888992,0.047012c0.76001,0.417999 1.225998,1.033997 1,1.893997c-0.212997,0.809998 -0.845993,1.55899 -1.69899,1.132004c-4.223999,-2.110992 -6.973007,0.628998 -10.610001,4.016998z" fill="#373737"/>
   <path id="svg_74" d="m55.173824,78.823563c-2.494995,-0.026001 -3.815002,-1.371994 -5.097992,-2.449997c-1.350006,-1.134003 -0.764008,-4.186005 0.856995,-5.207001c1.959991,-1.234009 2.837006,0.358002 3.664993,1.69899c1.094009,1.769012 1.065002,3.686005 0.576004,5.958008z" fill="#4B4B4B"/>
   <path id="svg_75" d="m96.46582,71.448563c1.03299,-0.100998 1.708008,0.324997 1.80899,1.175003c0.291016,2.447998 -0.369995,4.638992 -2.332001,6.224991c-0.950989,0.768005 -2.276978,1.095001 -3.199005,0.113007c-1.154999,-1.229004 -0.334991,-1.945999 0.987,-2.460999c1.413025,-0.550003 0.950012,-1.938004 1.105011,-3.037003c0.149017,-1.048996 0.703003,-1.766998 1.630005,-2.014999z" fill="#515151"/>
  </g>
 </g>
</svg>