<svg width="70" height="140" xmlns="http://www.w3.org/2000/svg">

 <g>
  <title>background</title>
  <rect fill="none" id="canvas_background" height="142" width="72" y="-1" x="-1"/>
 </g>
 <g>
  <title>Layer 1</title>
  <g id="svg_1">
   <path id="svg_2" d="m3.770004,44.526993c-1.181,-4.610992 -1.026001,-9.315994 -0.897995,-14.005997c0.048996,-1.805008 0.037994,-3.591003 -0.181,-5.378998c-0.188004,-1.53801 -0.810013,-3.238998 1.585999,-3.755005c0.237991,-0.050995 0.48999,-1.024994 0.377991,-1.485001c-0.167999,-0.690002 -0.847,-0.427994 -1.36499,-0.330002c-0.682007,0.128998 -1.344009,0.181 -1.791,-0.511002c0.149994,-0.223999 0.278992,-0.621994 0.453995,-0.643997c5.035995,-0.634995 8.197998,-4.380005 11.507004,-7.477005c5.761993,-5.391998 12.636993,-7.761993 20.138992,-8.758987c1.401001,-0.186005 2.709,-0.881012 4.367004,-0.463013c6.904999,1.743011 14.088013,2.626999 19.699005,7.698013c1.880981,1.700989 3.397003,3.610992 4.348999,5.96199c0.286011,0.701996 -0.037018,1.212997 -0.520996,1.673004c-6.257019,0.031998 -12.544006,0.276001 -18.610992,-1.705002c-2.087021,-0.681 -2.582016,-2.709 -3.443008,-4.427002c-0.674011,-1.345001 -1.327011,-2.966003 -3.115005,-2.979996c-1.863998,-0.014999 -2.393005,1.690994 -2.945999,3.070999c-1.475006,3.684006 -4.173996,5.291992 -8.076996,5.151001c-4.662003,-0.167999 -8.985001,1.354996 -13.270004,2.899002c-3.602005,1.297989 -4.807999,4.442993 -5.186005,7.858002c-0.410995,3.704987 -0.416992,7.445999 0.179001,11.15799c0.238998,1.488007 0.709,2.973999 0.139008,4.497009c-0.521011,1.082993 -1.502014,1.599991 -2.529007,2.060989l0.020996,-0.052002c-0.320999,0.44101 -0.617004,0.424011 -0.884995,-0.054993z" fill="#0E0E0E"/>
   <path id="svg_3" d="m11.113007,133.585999c-0.188995,0.915009 -0.378006,1.830994 -0.638992,3.096985c4.481995,0.640015 8.809998,-0.164978 13.576996,-0.040985c-3.022003,-8.200012 1.052002,-13.664001 7.056,-17.687012c3.761002,-2.519989 8.692001,-2.040985 12.201004,0.706024c5.122986,4.010986 9.46698,8.917999 5.949005,16.790985c5.269989,-0.434998 9.879974,0.355988 14.530975,0.348999c0.69101,-0.001007 1.387024,-0.027985 2.072021,0.041992c0.196991,0.02002 0.540985,0.376007 0.510986,0.506012c-0.085999,0.368011 -0.302002,0.975006 -0.518005,0.997986c-1.09198,0.115021 -2.21698,0.203003 -3.299988,0.065002c-5.102997,-0.651978 -10.173004,-0.940002 -15.320007,-0.184998c-2.265991,0.333008 -4.656006,-0.119995 -6.985001,-0.28598c-9.281998,-0.661011 -18.511993,0.665985 -27.775986,0.701996c-0.692001,0.002991 -1.38501,0.110992 -2.076004,0.095001c-2.559998,-0.059998 -2.807999,-0.300995 -1.714996,-2.84201c0.787994,-1.832001 -0.196014,-3.894989 1.015991,-5.585999c2.199997,0.345001 0.468994,2.389008 1.416,3.276001z" fill="#111111"/>
   <path id="svg_4" d="m13.602005,119.282013c-0.255997,-0.822998 -2.384003,-1.709991 -0.490997,-2.412994c2.358994,-0.876007 3.033005,-2.743011 3.688995,-4.606018c2.781998,-7.905975 6.485001,-15.467987 8.783997,-23.552002c0.16301,-0.426971 0.38501,-0.439972 0.658005,-0.093994c1.348007,2.028015 2.751999,4.022003 4.031006,6.093018c2.059998,3.334991 2.341995,6.854004 0.834991,10.492981c-1.317001,0.888 -2.472,1.044006 -3.194,-0.662994c-0.434998,1.330017 -1.119995,2.497009 -1.710999,3.709015c-0.578003,1.211975 -0.865997,2.553986 -1.667999,3.661987c-2.292999,0.14801 -1.893005,-1.355011 -1.716995,-2.761993c0.225998,-1.807007 1.33699,-3.30899 1.644989,-4.899994c-0.484985,0.947998 -0.388992,2.483002 -1.990997,2.882996c-1.345001,-0.951019 -1.610001,0.257996 -2.069992,1.04599c-0.735001,1.257019 -0.917999,2.73999 -1.51001,3.825012c1.121002,-1.490997 0.512009,-4.266022 3.069,-5.154999c1.122009,0.792999 0.901001,1.863983 0.695007,2.992981c-0.227005,1.246002 0.069,2.229004 1.634995,2.208008c0.934998,-0.734009 1.02301,-1.923004 1.544998,-2.880005c0.372009,-0.656006 0.440002,-1.47699 1.084,-1.985992c1.366013,-0.338989 2.777008,-0.761017 2.695007,1.498993c-2.100998,4.078003 -5.794998,6.032013 -9.878998,7.541992c-2.112,0.781006 -4.768005,0.945007 -5.320007,3.902008c-0.757004,0.186005 -1.160995,0.03299 -0.813995,-0.843994z" fill="#1D1D1D"/>
   <path id="svg_5" d="m27.878998,62.001999c-5.794998,0.179993 -5.779007,0.179993 -5.600998,6.233002c0.140991,4.820999 -0.084,9.664993 0.992004,14.422989c0.44899,1.986023 -0.472,2.170013 -2.070007,1.570007c-4.369995,-1.643005 -8.830994,-2.032013 -13.393997,-0.872986c-0.119995,0.029999 -0.339996,-0.335022 -0.800003,-0.813019c1.850998,-0.677979 3.703995,-1.10498 3.279007,-3.923981c-1.359009,-9.012009 -0.368011,-18.194016 -1.679001,-27.228012c-0.383011,-0.753006 0.013,-1.179001 0.634003,-1.512009c1.219986,-0.296997 2.164993,0.188004 2.831985,1.155014c2.797012,4.056992 6.890015,6.003998 11.447006,7.375c1.613007,0.485001 3.591003,0.57399 4.574005,2.390991c0.127991,0.436005 0.056,0.837006 -0.214005,1.203003z" fill="#191919"/>
   <path id="svg_6" d="m48.752991,72.811005c-0.815002,-3.434998 -0.697998,-7.067993 -2.058014,-10.386002c-1.627991,0.175003 -3.108978,0.333008 -4.589996,0.492004c-0.898987,0.274002 -1.139984,-0.266006 -1.227997,-0.994003c0.26001,-1.229004 1.209015,-1.921005 2.251007,-2.154999c5.316986,-1.195007 9.830994,-3.927002 14.151001,-7.087006c0.440002,-0.321991 1.057983,-0.196991 1.601013,-0.218002c0.640991,0.004013 1.277985,0.042007 1.888977,0.244003c3.251007,2.580002 3.076019,6.414001 3.102997,9.878998c0.033997,4.432007 0.01001,8.852005 0.498016,13.258011c0.207001,1.87001 -0.160004,3.478989 -2.149994,3.903c-2.248016,0.479004 -2.751007,-1.356995 -3.178009,-3.001999c-1.042999,-4.014999 -1.162994,-8.158005 -1.662994,-11.626999c-0.399017,3.145996 1.104004,6.791 0.778992,10.546997c-0.182007,2.106995 0.411987,5.070984 -2.718994,5.187988c-3.209991,0.119995 -2.817017,-2.849976 -2.925995,-4.967987c-0.149017,-2.895004 -0.100006,-5.798004 -0.904999,-8.490997c-0.417999,1.812988 0.468994,4.137985 -1.678009,5.579987c-0.424988,0.182007 -0.817993,0.126007 -1.177002,-0.162994z" fill="#2F2F2F"/>
   <path id="svg_7" d="m44.507996,89.485992c0.673004,0.446014 1.432007,0.774994 1.787994,1.600006c2.003021,4.634979 4.75,8.890991 6.720001,13.565002c1.501007,3.559998 3.63501,6.858002 4.841003,10.574005c-0.371002,0.534973 -0.894012,0.745972 -1.526001,0.722992c-1.621002,-0.901001 -3.112,-2.410004 -5.213989,-1.143005c-1.124023,-0.277008 -2.311005,-0.438995 -2.923004,-1.628998c-0.528992,-1.002991 1.268005,-2.032013 -0.075012,-3.018005c-0.289978,-0.213989 -0.471985,-0.485992 -0.602997,-0.807007c-0.006989,-0.423981 0.115997,-0.813995 0.213989,-1.209991c0.081024,-0.325012 0.036011,-0.264984 -0.089996,0.192017c-0.329987,1.205994 -0.950989,2.054993 -2.322998,1.437988c-1.166992,-0.524994 -1.130981,-1.617004 -1.17099,-2.756012c-0.044006,-1.268982 0.886993,-2.218994 0.832001,-3.292999c-0.696014,1.352997 -0.351013,3.348999 -2.127014,4.337006c-1.483978,-0.070984 -1.807983,-1.304993 -2.337982,-2.330994c0.444992,-2.518005 2.272003,-4.462006 2.660004,-6.589996c-0.951019,0.998993 -0.231995,3.722992 -2.923004,3.923981c-0.770004,-0.401978 -1.072006,-1.125977 -1.314011,-1.892975c1.247009,-4.019012 2.505997,-8.03302 4.990005,-11.515015c0.194,-0.054993 0.388,-0.110992 0.582001,-0.167999z" fill="#383838"/>
   <path id="svg_8" d="m47.955994,109.44101c0.30899,0.001007 0.618988,0.002991 0.928009,0.003998c0.734985,1.106995 0.684998,2.175995 -0.157013,3.205994c0.67099,0.933014 1.651001,1.338013 2.720001,1.591003c1.830017,-1.289001 3.151001,0.001007 4.549988,0.89801c0.621002,0.028992 1.241028,0.057007 1.861023,0.085999c0.591003,0.368011 0.776978,0.958008 0.872986,1.596985c0.294006,0.89502 -0.10199,1.106018 -0.906006,0.913025c-1.171997,-0.790009 -2.531982,-1.170013 -3.873993,-1.347015c-4.638,-0.613983 -8.109009,-3.27301 -11.377991,-6.289001c-1.837006,-1.695007 -3.076004,-3.735992 -3.772003,-6.225006c-1.990005,-7.11499 -1.626999,-13.872986 2.442993,-20.220001c0.347015,-0.720001 1.119019,-0.425995 1.656006,-0.694c0.535004,2.176025 1.070984,4.351013 1.605988,6.526001l0.02301,-0.097992c-2.966003,3.229004 -3.287994,7.576996 -4.828003,11.410004c0.290009,0.746002 0.580002,1.493011 0.87001,2.239014c0.813004,0.640991 0.556992,1.546997 0.589005,2.380981c0.556976,0.778992 1.113983,1.55899 1.671997,2.338013c1.911987,-0.055023 2.653992,3.441986 5.123993,1.68399z" fill="#161616"/>
   <path id="svg_9" d="m48.752991,72.811005c0.256012,0 0.511993,0.001007 0.768005,0.001999c2.704987,0.221008 2.556,2.380997 2.871002,4.225998c0.742981,4.347015 1.080994,4.557007 5.096985,2.799988c0.95401,-0.416992 1.809021,-0.29599 2.764008,-0.162994c1.497009,0.207001 3.013,0.223022 4.040985,-1.22699c0.51001,-1.729004 1.02002,-3.457001 3.41803,-3.106995c0.10199,0.675995 0.238983,1.348999 0.299988,2.027985c0.488007,5.403015 0.484985,5.377014 -4.966003,4.997009c-3.207001,-0.223999 -6.200989,0.946991 -9.259003,1.622009c-3.537994,0.781006 -3.518982,0.867004 -4.421997,-2.886017c-0.69101,-1.343994 0.199005,-2.929993 -0.651001,-4.25c0.014008,-1.347 0.027008,-2.694992 0.039001,-4.041992z" fill="#323232"/>
   <path id="svg_10" d="m67.712006,75.341003c-1.169006,1.738007 -0.21701,4.088013 -1.658997,5.747009c-0.899994,-0.710022 -1.600006,-1.751007 -1.610016,-2.755005c-0.119995,-11.179001 -1.448975,-22.393997 0.786011,-33.531006c0.395996,-0.757004 1.02301,-1.194 1.880005,-1.283997c1.126007,4.192993 0.569,8.462006 0.580994,12.705994c-0.446991,5.52301 -0.557983,11.046005 0.052002,16.56601c-0.01001,0.849991 -0.02002,1.700989 -0.029999,2.550995z" fill="#444444"/>
   <path id="svg_11" d="m4.460999,57.815994c-0.214996,7.059998 0.399002,14.078003 1.009003,21.099014c0.084991,0.974976 0.694,2.655975 -0.661011,2.768982c-1.565994,0.131012 -0.996994,-1.671997 -1.041992,-2.596008c-0.343994,-7.025986 -1.681,-14.03598 -0.475998,-21.094986c0.067993,-0.397995 0.231995,-0.779007 0.352005,-1.169006c0.567001,0.087006 0.565994,0.644012 0.817993,0.992004z" fill="#363636"/>
   <path id="svg_12" d="m67.108002,43.518997c-0.281006,0.328995 -0.562012,0.656998 -0.842987,0.985992c-1.851013,-0.669998 -1.686005,-2.880997 -3.028015,-3.94899c-0.674011,-0.671005 -0.941986,-1.485001 -0.904999,-2.417999c0.227997,-3.844009 0.123016,-7.742004 1.945007,-11.311005c0.529999,-0.587997 1.126007,-0.977997 1.958984,-0.654999c1.074005,5.744003 0.875,11.550003 0.872009,17.347z" fill="#222222"/>
   <path id="svg_13" d="m57.825012,117.735992c0.302002,-0.303986 0.604004,-0.609009 0.906006,-0.912994c2.553986,3.470001 3.618988,7.68399 5.697998,11.391998c0.924988,1.651001 1.273987,3.600006 2.867981,4.914001c0.572021,0.471008 0.13501,1.255005 -0.806,2.018982c-3.609985,-5.492981 -5.437988,-11.820984 -8.665985,-17.411987z" fill="#555555"/>
   <path id="svg_14" d="m26.242004,88.617004l-0.320999,0.105988l-0.337997,-0.011993c0.513,-3.139984 2.037994,-5.915985 3.160004,-8.837982c1.122986,-2.926025 2.139999,-5.893005 3.202988,-8.841019c0.802002,0.320007 0.314011,1.255005 0.820007,1.716003c-1.645004,5.507004 -3.700012,10.845993 -6.524002,15.869003z" fill="#646464"/>
   <path id="svg_15" d="m13.602005,119.282013c0.270996,0.281006 0.542007,0.562988 0.813995,0.843994c0.102005,3.014008 -1.918991,5.377991 -2.516998,8.203003c-0.369995,1.75 -0.89299,3.446014 -0.785995,5.256989c-1.110001,-0.815979 -0.544006,-2.356995 -1.416,-3.276978c0.860001,-3.832031 2.481995,-7.39502 3.904999,-11.027008z" fill="#656565"/>
   <path id="svg_16" d="m66.237,26.173004c-0.384003,0.395996 -0.769012,0.792007 -1.152985,1.186996c-3.495026,-1.940002 -5.509003,-7.546997 -3.981018,-11.085999c0.304016,-0.298996 0.608002,-0.597992 0.912994,-0.897003c2.421021,3.201996 3.006012,7.121994 4.221008,10.796005z" fill="#464646"/>
   <path id="svg_17" d="m42.902008,82.959991c-0.552002,0.230988 -1.104004,0.463013 -1.656006,0.694c-2.184998,-3.787994 -4.117996,-7.699005 -5.718994,-11.772003c0.238007,-0.324997 0.186005,-0.918991 0.817001,-0.878998c1.389999,2.938004 2.751999,5.890015 4.184998,8.807007c0.581985,1.187012 0.895981,2.619995 2.373001,3.149994z" fill="#676767"/>
   <path id="svg_18" d="m36.343002,71.003006c-0.272003,0.292999 -0.544006,0.585999 -0.817001,0.878998c-0.302002,-0.584 -0.382004,-1.658997 -1.076996,-1.561996c-1.212006,0.167999 -1.23201,1.524002 -1.682999,2.427994c-0.27301,-0.571991 -0.546005,-1.143997 -0.820007,-1.715988c-0.196991,-2.049011 0.582001,-4.364014 2.402008,-4.350006c1.745987,0.011993 1.715988,2.638 1.994995,4.320999z" fill="#252525"/>
   <path id="svg_19" d="m67.742004,72.789993c-1.240997,-5.518005 -1.093994,-11.041 -0.052002,-16.565994c0.312988,5.520996 0.661987,11.042007 0.052002,16.565994z" fill="#323232"/>
   <path id="svg_20" d="m28.625,104.308014c0.865005,0.196014 1.882996,-0.03299 2.483002,0.895996c-0.009995,1.369019 -0.548996,2.51001 -1.492996,3.479004c-0.807999,-0.295013 -1.615005,-0.589996 -2.423004,-0.88501c-0.960999,-1.753998 -0.395996,-2.882019 1.432999,-3.48999z" fill="#484848"/>
   <path id="svg_21" d="m9.341003,50.391998c-0.244995,0.332993 -0.490005,0.666 -0.736008,0.998993c-2.069,-1.813995 -1.945999,-4.916992 -3.969986,-6.757996c0.304993,-0.929993 0.610992,-1.860001 0.916,-2.789993c3.744995,1.535995 5.353989,5.164993 3.789993,8.548996z" fill="#3B3B3B"/>
   <path id="svg_22" d="m41.23999,62.123993c0.287994,0.264008 0.576996,0.529007 0.86499,0.792999c-2.833984,1.113007 -5.673996,1.272995 -8.522995,0.054001c0.035004,-0.875 0.387009,-1.585007 1.094009,-2.112c2.402008,-0.689987 4.833008,-1.530991 6.563995,1.264999z" fill="#6D6D6D"/>
   <path id="svg_23" d="m4.460999,57.815994c-0.272995,-0.330994 -0.544998,-0.660995 -0.817993,-0.992004c-0.147003,-4.100998 -0.498001,-8.203995 0.126999,-12.296997c0.29599,0.018005 0.591995,0.035004 0.886993,0.052994c-0.065002,4.412018 -0.130997,8.82402 -0.195999,13.236008z" fill="#2F2F2F"/>
   <path id="svg_24" d="m34.468994,62.130005c-0.296005,0.281006 -0.591003,0.561005 -0.886993,0.841995c-1.89801,-0.343002 -3.95401,0.246002 -5.703003,-0.970001c-0.001999,-0.213989 -0.001999,-0.427994 -0.001007,-0.641998c0.264008,-1.090988 1.057007,-1.576996 2.070999,-1.809998c1.508011,-0.130997 2.969009,-0.106003 4.042007,1.214005c0.283005,0.408997 0.44101,0.866989 0.477997,1.365997z" fill="#1B1B1B"/>
   <path id="svg_25" d="m48.716003,76.852997c0.696991,1.342987 0.808014,2.776001 0.651001,4.25c-0.730011,-1.338989 -0.688019,-2.794983 -0.651001,-4.25z" fill="#FCFCFC"/>
   <path id="svg_26" d="m30.063004,61.251007c-0.727997,0.035995 -1.455994,0.072006 -2.184998,0.108994c-4.389999,-1.048996 -8.837997,-1.635986 -12.834,-4.233994c-2.718002,-1.768005 -3.686005,-4.606003 -5.703003,-6.733994c-1.263,-2.850006 -2.526001,-5.700012 -3.789001,-8.549011c-0.869995,-5.884995 -1.772003,-11.744995 -0.393005,-17.707993c0.890015,-3.847 2.799011,-6.501999 6.780014,-7.505005c4.787994,-1.205994 9.418991,-2.960999 14.53299,-2.744003c2.143997,0.091003 4.279999,-0.819992 4.904999,-3.593994c0.388,-1.725998 1.303009,-3.347 2.081009,-4.966995c1.117996,-2.328003 2.112991,-2.532013 4.072998,-0.812012c1.908997,1.675003 3.123993,3.811005 4.059998,6.173004c1.194,3.014999 2.829987,3.177994 6.247986,3.486008c4.428009,0.398987 9.230011,-0.897003 13.265015,2.103989c1.67099,3.572006 2.791016,7.341003 3.980988,11.085999c-0.270996,3.67601 -0.541992,7.353012 -0.812988,11.029007c0.786987,6.083008 -1.268005,11.108994 -5.677002,15.259003c-3.382996,4.082993 -8.069,5.953003 -12.908997,7.516998c-1.434998,0.464005 -2.960999,0.647003 -4.445007,0.960007c-2.256989,0.001999 -4.513992,0.003998 -6.770996,0.005997c-0.266998,-0.094009 -0.533997,-0.188004 -0.802002,-0.281998c-1.143997,-0.554016 -2.472,0.009979 -3.604996,-0.600006z" fill="#FFFFFF"/>
   <path id="svg_27" d="m53.247009,12.035995c-3.838013,-0.018997 -4.496002,-0.893005 -4.502014,-5.981003c1.90802,0.94101 3.152008,2.593002 4.502014,5.981003z" fill="#DDDDDD"/>
   <path id="svg_28" d="m45.118011,4.115997c1.233002,2.347 2.246002,4.231003 3.209015,6.139999c0.238983,0.473007 0.432983,1.076996 -0.197021,1.447006c-0.713989,0.418991 -1.322998,0.065994 -1.811005,-0.44101c-0.899994,-0.935989 -1.005981,-2.225998 -1.405975,-3.382004c-0.344025,-0.994995 -1.088013,-1.966995 0.204987,-3.763992z" fill="#ABABAB"/>
   <path id="svg_29" d="m28.218994,11.255005c0.233994,-2.714005 0.725998,-5.334 3.126999,-8.108002c0.011002,3.703995 -1.094986,6.078003 -3.126999,8.108002z" fill="#9F9F9F"/>
   <path id="svg_30" d="m26.878998,4.817993c0.514999,2.742996 -0.744995,4.641006 -1.072998,6.673996c-0.029999,0.189011 -0.701004,0.397003 -1.065994,0.383011c-0.725006,-0.029007 -0.877014,-0.55101 -0.651001,-1.157013c0.696991,-1.868988 0.908997,-3.984985 2.789993,-5.899994z" fill="#D9D9D9"/>
   <path id="svg_31" d="m22.630997,6.542007c0.496994,1.955994 0.681,3.807999 -0.302994,5.513c-0.35701,0.619003 -1.025009,0.972 -1.735001,0.548996c-0.62001,-0.369003 -0.328003,-0.97699 -0.111008,-1.459c0.694,-1.544006 1.429001,-3.070007 2.149002,-4.602997z" fill="#BDBDBD"/>
   <path id="svg_32" d="m19.356995,9.505997c-0.246002,1.054001 -0.472,2.113007 -0.753006,3.158005c-0.063995,0.237991 -0.276001,0.513 -0.492996,0.613998c-0.349991,0.162994 -0.960999,0.401001 -1.113998,0.251999c-1.302994,-1.268997 0.358002,-2.415009 0.268005,-3.693008c-0.042999,-0.612991 0.681992,-1.158997 1.453003,-1.148987c0.466003,0.00499 0.703995,0.317001 0.638992,0.817993z" fill="#C6C6C6"/>
   <path id="svg_33" d="m43.071014,8.201996c-1.080994,-1.106995 -2.291,-2.167999 -2.899002,-3.822006c2.098984,0.442017 2.098984,0.442017 2.899002,3.822006z" fill="#8D8D8D"/>
   <path id="svg_34" d="m57.181,12.783005c-1.825012,-0.313995 -2.427002,-1.207001 -2.576996,-3.014999c1.501984,0.639999 2.385986,1.289993 2.576996,3.014999z" fill="#BABABA"/>
   <path id="svg_35" d="m38.074005,135.272003c-0.957001,1.170013 -2.218002,0.846008 -3.442993,0.701996c-1.268005,-0.972992 -0.91301,-2.216003 -0.403,-3.337982c1.869995,-4.106018 3.880997,-8.131012 7.87999,-10.674011c2.513,-0.519012 1.393005,1.290985 1.488007,2.321991c-0.39502,4.389008 -1.843018,8.248993 -5.522003,10.988007z" fill="#F1F1F1"/>
   <path id="svg_36" d="m38.567993,120.985992c0.888992,-0.947998 1.776001,-1.787994 2.604004,0.057007c-1.934006,5.458984 -5.242004,10.161987 -8.268997,15.018982l-0.014999,0.011017c-2.460007,0.712982 -3.268005,-0.77301 -2.545013,-2.589996c1.869019,-4.694 3.653015,-9.544006 8.225006,-12.497009z" fill="#EEEEEE"/>
   <path id="svg_37" d="m38.567993,120.985992c-1.871994,3.218994 -3.779999,6.416992 -5.598999,9.665009c-0.736008,1.315002 -1.466003,2.664978 -1.447006,4.269989c0.012009,0.983002 0.678009,1.046997 1.367004,1.151001c-1.938995,1.130005 -3.912994,1.096008 -5.914001,0.179993c0.117004,-0.944977 0.794998,-1.591003 1.257996,-2.354004c0.197006,-0.312988 0.399002,-0.621002 0.608002,-0.925995c3.095001,-4.204987 4.777008,-9.363007 8.771011,-12.957001c0.319,0.324005 0.638,0.647003 0.955994,0.971008z" fill="#4D4D4D"/>
   <path id="svg_38" d="m42.223999,136.661011c-0.757996,-0.177002 -1.134003,-0.792999 -1.554993,-1.355988c-1.957001,-2.486023 1.117981,-3.89801 1.265991,-5.934021c0.238007,-0.798981 0.648987,-1.470978 1.398987,-1.890991c0.403015,-0.122009 0.778015,-0.054993 1.126007,0.177002c1.164001,0.5 1.52002,-1.019989 2.735016,-1.002991c0.858002,1.171997 -1.514008,2.384979 -0.196014,3.549988c0.177002,2.166016 0.069,4.190002 -2.484009,5c-0.230988,0.039001 -0.463989,0.05899 -0.697998,0.059998c-1.692993,-0.860016 -0.948975,1.059998 -1.592987,1.397003z" fill="#4E4E4E"/>
   <path id="svg_39" d="m37.612,120.015991c-2.787994,4.747009 -5.705994,9.42099 -8.097992,14.390991c-1.123001,-1.125 -1.104004,-2.268005 -0.052002,-3.425995c1.50499,-4.274994 4.447998,-7.635986 7.126999,-11.161011c0.26799,-0.35199 0.724991,-0.119965 1.022995,0.196014z" fill="#D7D7D7"/>
   <path id="svg_40" d="m32.904007,136.061005c2.268005,-5.274994 5.050995,-10.266998 8.268997,-15.019012c0.312012,0.306 0.623016,0.613007 0.934998,0.919006c-1.085999,3.161011 -3.61499,5.463013 -5.019989,8.428009c-0.871002,1.837006 -2.228012,3.464996 -2.457001,5.584991c-0.576019,0.028992 -1.151016,0.058014 -1.727005,0.087006z" fill="#4E4E4E"/>
   <path id="svg_41" d="m26.875,128.524994c0.908005,-2.718994 3.597,-4.464996 3.990005,-7.526001c0.123001,-0.958984 1.356995,-1.173004 2.733994,-1.075012c-0.800003,3.960999 -3.595993,6.524017 -5.912003,9.371002c-0.694,0.19101 -0.994995,-0.03299 -0.811996,-0.769989z" fill="#CECECE"/>
   <path id="svg_42" d="m43.76001,127.580994c-0.292999,0.553009 -0.585999,1.106995 -0.877991,1.660004c-1.841003,1.717987 -1.309998,5.195984 -4.427002,5.967987l-0.381012,0.063019c1.320007,-3.925018 3.60199,-7.365997 5.52301,-10.988007c0.23999,0.279999 0.480988,0.561005 0.721008,0.841003c0.954987,1.076996 -0.284027,1.657013 -0.558014,2.455994z" fill="#454545"/>
   <path id="svg_43" d="m44.515015,135.203003c1.110992,-1.526001 1.769989,-3.277008 2.484009,-5c0.315002,-0.260986 0.600983,-0.687988 0.950989,-0.747986c0.770996,-0.132019 0.920013,0.616974 0.755005,1.036987c-0.747009,1.898987 -1.368988,3.919006 -2.511017,5.56601c-0.951996,1.372986 -1.518005,0.265991 -1.678986,-0.855011z" fill="#CECECE"/>
   <path id="svg_44" d="m26.875,128.524994c0.270996,0.256989 0.542007,0.513 0.813004,0.769989c0.591995,0.562012 1.182999,1.124023 1.774994,1.686005c0.016998,1.141998 0.033997,2.283997 0.052002,3.425995l0.061005,-0.069977c-0.583008,0.781982 -1.253006,1.747986 -2.307999,1.007996c-1.75,-1.227997 0.143997,-2.744995 -0.118011,-4.127014c-0.544998,-0.85199 -1.214996,-1.689972 -0.274994,-2.692993z" fill="#4D4D4D"/>
   <path id="svg_45" d="m42.223999,136.661011c0.027008,-3.04599 0.027008,-3.04599 2.587006,-6.407013c0.460999,1.990021 -1.300018,3.325012 -0.994019,5.01001c-0.530975,0.464996 -1.061981,0.931 -1.592987,1.397003z" fill="#C7C7C7"/>
   <path id="svg_46" d="m38.455002,135.209015c2.078995,-1.541992 2.309998,-4.45401 4.426987,-5.967987c-0.043976,2.273987 -1.884979,3.892975 -2.212982,6.062988c-0.808014,1.594971 -1.533005,1.268982 -2.214005,-0.095001z" fill="#B9B9B9"/>
   <path id="svg_47" d="m27.149002,131.217987c0.729996,0.606995 0.539001,1.369995 0.408005,2.156006c-0.434998,2.606995 1.097992,1.154999 2.01799,0.962982c0.044998,1.876007 -1.360992,1.784027 -2.600998,1.916016c-1.921005,-2.587982 -1.921005,-2.587982 0.175003,-5.035004z" fill="#DADADA"/>
   <path id="svg_48" d="m43.76001,127.580994c0.186005,-0.819 0.372009,-1.636993 0.558014,-2.455994c0.287994,-0.626007 0.661987,-1.334991 1.445984,-0.934998c0.647003,0.328979 0.207001,0.90799 -0.07901,1.371979c-0.424988,0.688019 -0.817993,1.396027 -1.224976,2.095001c-0.238037,0.017029 -0.471008,-0.007996 -0.700012,-0.075989z" fill="#9C9C9C"/>
   <path id="svg_49" d="m24.606003,112.010986c-1.037994,1.165009 -2.272995,1.920013 -3.977005,1.910004c-0.564987,-2.593994 1.598999,-4.660004 1.337006,-7.152008l-0.052994,0.110016c2.016998,-2.410004 2.291,-5.811005 4.957001,-8.694c-0.615005,3.848999 -1.688004,6.860992 -2.673004,9.891998c-0.466003,1.43399 -1.225998,2.875 0.498001,4.026001l-0.089005,-0.09201z" fill="#D7D7D7"/>
   <path id="svg_50" d="m28.625,104.308014c-0.854004,1.009003 -1.237,2.210999 -1.432007,3.48999c-0.284988,0.621002 -0.569,1.243011 -0.853989,1.864014c-0.856003,-0.369019 -0.346008,-1.337006 -0.820999,-1.872009c0.921997,-3.316986 1.903,-6.608002 4.416,-9.247009c-0.333008,1.958008 -1.126999,3.799011 -1.309006,5.765015z" fill="#CCCCCC"/>
   <path id="svg_51" d="m21.966003,106.769012c-1.253998,2.678009 -2.507004,5.355011 -3.761002,8.03299c-0.097,-3.707001 1.584,-6.744995 3.065994,-9.955994c0.980011,0.690002 0.709,1.384003 0.644012,2.033997c-0.002014,-0.001007 0.050995,-0.110992 0.050995,-0.110992z" fill="#A7A7A7"/>
   <path id="svg_52" d="m25.518005,107.789001c0.274002,0.623993 0.546997,1.247986 0.820999,1.872009c-0.016006,1.199982 -0.949005,1.717987 -1.735992,2.346985c0.002991,0.002991 0.08699,0.087006 0.088989,0.091003c-0.139999,-1.514008 0.153,-2.949005 0.826004,-4.309998z" fill="#D7D7D7"/>
   <path id="svg_53" d="m10.666,56.042999c3.319,1.778 3.912994,4.085999 3.977005,6.910995c0.104996,4.694 0.574997,9.378006 0.856995,14.069016c0.057999,0.961975 -0.024994,1.93399 -0.067001,2.901001c-0.026001,0.598999 -0.276993,1.052979 -0.940994,1.127991c-0.682999,0.076996 -1.436005,0.214996 -1.89801,-0.429016c-0.307999,-0.428986 -0.521988,-0.984985 -0.597992,-1.509979c-1.076996,-7.496002 -1.514008,-15.024002 -1.330002,-23.070007z" fill="#F4F4F4"/>
   <path id="svg_54" d="m21.016006,71.705994c0,2.759995 0.026993,5.519989 -0.014999,8.278992c-0.014999,0.964996 -0.093994,2.01001 -1.470001,2.044006c-1.160995,0.028992 -1.602997,-0.484009 -1.776001,-1.704987c-0.811996,-5.74501 -1.408997,-11.506012 -1.563004,-17.304016c-0.024994,-0.957001 -0.406998,-2.401993 1.236008,-2.636002c1.397003,-0.19899 2.977997,1.108002 3.037003,2.632004c0.111984,2.894012 0.536987,5.784012 0.550995,8.690002z" fill="#E8E8E8"/>
   <path id="svg_55" d="m65.334991,40.380997c1.363007,1.136993 0.415009,2.794998 0.931,4.123993c-0.670013,6.71701 0.278992,13.428009 0.053009,20.147003c-0.184021,5.475998 -0.184021,10.957001 -0.265015,16.435989c-4.195007,-0.899994 -8.235992,0.220001 -12.273987,1.045013c-1.613007,0.32901 -2.313019,-0.082001 -2.615997,-1.631012c-0.503998,-2.571991 -1.089996,-5.126984 -1.641998,-7.689987c-0.012024,-3.179993 -0.027008,-6.360992 -0.03302,-9.541c-0.001007,-0.796005 -0.306,-1.682999 0.58902,-2.246002c0.837982,-0.526993 1.740997,-0.979004 2.717987,-0.556c0.925995,0.401001 0.781006,1.386002 0.832001,2.17601c0.308014,4.829987 0.57901,9.662994 0.860992,14.494003c0.040009,0.686005 0.032013,1.376984 0.131012,2.053986c0.027008,0.184998 0.339996,0.410004 0.561005,0.46701c0.462006,0.119995 0.917999,-0.207001 0.955994,-0.558014c0.088989,-0.811005 0,-1.643005 -0.041016,-2.465988c-0.246979,-4.972 -0.819,-9.927002 -0.720001,-14.917999c0.045013,-2.229004 0.747009,-3.99501 3.046021,-5.227005c1.612,7.462006 1.257996,14.975998 2.916992,22.17099c1.386017,0.014008 1.432007,-0.821991 1.285004,-1.694c-0.778015,-4.619995 -1.325989,-9.204987 -0.761993,-13.946991c0.373993,-3.141998 -0.757996,-6.268997 -1.658997,-9.319992c-0.911011,-2.881012 1.647003,-4.673004 2.269989,-7.090012c0.569,-2.201996 1.645996,-4.271988 2.862,-6.229996z" fill="#FCFCFC"/>
   <path id="svg_56" d="m65.334991,40.380997c-0.451996,3.307007 -2.238007,6.119003 -3.411011,9.158005c-0.540985,1.399994 -1.144989,2.776001 -1.720001,4.162994c-0.536987,-0.018005 -1.072998,-0.035995 -1.609985,-0.054993c2.201996,-4.971008 4.459991,-9.921005 5.677002,-15.259003c0.355011,0.664993 0.709015,1.328995 1.063995,1.992996z" fill="#4E4E4E"/>
   <path id="svg_57" d="m47.955994,109.44101c-0.53299,0.863007 -0.859009,2.089996 -2.302002,1.01001c-1.056,-0.790009 -2.195007,-1.464996 -2.820007,-2.695007c-0.112976,-3.671997 1.757019,-6.609009 3.576996,-9.554016c0.255005,-0.412994 0.580017,-1.047974 1.246002,-0.767975c0.771027,0.323975 0.878021,1.060974 0.654022,1.752991c-0.384003,1.182007 -0.880005,2.328003 -1.322021,3.490997c-0.539978,1.42099 -1.127991,2.828003 -1.582977,4.276001c-0.235016,0.747009 -0.585022,1.912994 0.376984,2.165009c1.076996,0.28299 1.054993,-0.779022 1.173004,-1.654022c0.296997,-2.191986 1.312988,-4.102997 2.561005,-6.198975c1.174988,1.053986 0.934998,1.906982 0.556,2.79599c-0.756012,1.773987 -1.819,3.425995 -2.117004,5.378998z" fill="#E1E1E1"/>
   <path id="svg_58" d="m39.703003,100.798004c-0.570007,-4.013 1.359009,-7.386993 2.787994,-10.886993c0.431,-1.054993 1.240997,-0.809998 2.040009,-0.52301c-1.346008,3.915009 -2.095001,8.082001 -4.828003,11.410004z" fill="#CCCCCC"/>
   <path id="svg_59" d="m41.161987,105.417999c-0.733002,-0.661011 -0.416,-1.582001 -0.589005,-2.381012c1.304001,-2.89798 2.595016,-5.802002 3.921005,-8.690002c0.303986,-0.662994 0.824005,-1.190979 1.596985,-0.668976c0.47702,0.321991 0.715027,0.998993 0.311005,1.451996c-2.653992,2.97699 -2.909973,7.160004 -5.23999,10.287994z" fill="#D9D9D9"/>
   <path id="svg_60" d="m55.996002,115.140015c-1.516998,-0.299011 -3.03299,-0.598999 -4.549988,-0.89801c0.916992,-1.516998 0.004974,-3.651001 1.948975,-5.242981c0.911011,2.149963 1.756012,4.145966 2.601013,6.140991z" fill="#E2E2E2"/>
   <path id="svg_61" d="m48.72699,112.651001c0.052002,-1.069 0.105011,-2.136993 0.157013,-3.205994c1.376984,-0.790009 1.082977,-2.812012 3.054993,-3.790009c-0.938995,2.700989 -0.544983,5.473999 -3.212006,6.996002z" fill="#D6D6D6"/>
   <path id="svg_62" d="m41.394012,87.54599c-0.260986,1.600006 0.056,3.423004 -1.531998,5.088989c-0.729019,-2.215973 0.542984,-3.608978 1.531998,-5.088989z" fill="#7F7F7F"/>
   <path id="svg_63" d="m30.063004,61.251007c1.246994,-0.074997 2.472,-0.016998 3.604996,0.597c-1.242996,0.047989 -2.479996,0.060989 -3.604996,-0.597z" fill="#FDFDFD"/>
   <path id="svg_64" d="m32.817001,54.709c8.444016,1.095993 15.404007,-1.832993 21.288986,-7.776993c1.811005,-1.830002 2.819,-4.074005 3.591003,-6.444c0.406006,-1.246002 0.628021,-2.547012 1.72702,-3.433014c0.023987,5.985001 -3.083008,10.51001 -7.556,13.865005c-6.140015,4.606003 -12.983017,7.315994 -20.867004,4.529999c0.366989,-0.832993 1.268997,-0.352997 1.815994,-0.740997z" fill="#3E3E3E"/>
   <path id="svg_65" d="m32.817001,54.709c-0.604996,0.246994 -1.210007,0.494003 -1.815002,0.740005c-5.988998,-1.728012 -10.757996,-5.320999 -14.914993,-9.822006c-0.552002,-0.597992 -0.955002,-1.341995 -1.378998,-2.048004c-0.355011,-0.590988 -0.702011,-1.299988 0.173996,-1.702988c0.598999,-0.275009 0.998001,0.23999 1.300003,0.722c3.92099,6.26799 9.995987,9.576996 16.634995,12.110992z" fill="#2A2A2A"/>
   <path id="svg_66" d="m20.184006,23.673004c-0.139999,-1.673996 0.565002,-2.884003 2.136002,-3.078003c1.610001,-0.197998 2.136002,1.122009 2.054993,2.458008c-0.091995,1.524002 -0.446991,3.32399 -2.220993,3.524994c-1.980011,0.223999 -1.748001,-1.666 -1.970001,-2.904999z" fill="#191919"/>
   <path id="svg_67" d="m34.156998,41.203003c-1.623001,-0.195999 -3.279007,-0.350006 -4.701996,-1.257004c-0.758011,-0.483994 -1.115997,-1.269989 -0.593002,-2.106003c0.481003,-0.769989 1.274994,-0.508987 1.774002,-0.070999c2.375,2.084 4.955002,1.972 7.682999,0.907013c0.576004,-0.225006 1.072998,-0.093002 1.164993,0.634995c0.055008,0.431 -0.072998,0.813004 -0.526993,0.962006c-1.559006,0.510986 -3.091003,1.165985 -4.800003,0.929993z" fill="#222222"/>
   <path id="svg_68" d="m47.503998,24.591003c-1.109985,-0.001007 -2.102997,-0.363007 -2.105011,-1.796005c-0.001984,-1.554001 2.048004,-3.574997 3.46402,-3.50499c1.237,0.061996 1.579987,0.877991 1.597992,1.951996c0.033997,1.922989 -1.096008,3.255997 -2.957001,3.348999z" fill="#0E0E0E"/>
  </g>
 </g>
</svg>