<svg width="210" height="210" xmlns="http://www.w3.org/2000/svg">

 <g>
  <title>background</title>
  <rect fill="none" id="canvas_background" height="212" width="212" y="-1" x="-1"/>
 </g>
 <g>
  <title>Layer 1</title>
  <g id="svg_1">
   <path id="svg_2" d="m67.037994,123.122009c-1.397003,1.44101 -0.259003,2.958008 0.041,4.320007c3.534988,16.024994 5.213989,32.227997 5.644989,48.634979c0.223999,8.528015 0.145004,17.011017 -0.332993,25.512024c-0.097,1.720978 0.153,3.514984 -2.106995,4.069977c-0.998001,-1.191986 -0.764999,-2.462982 -0.243011,-3.752991c0.542999,-10.544006 1.03801,-21.095001 0.498001,-31.647003c-0.36499,-7.136993 -0.856003,-14.28299 -1.699997,-21.376007c-0.703003,-5.911987 -1.988998,-11.754974 -3.044998,-17.623993c-0.445999,-2.477997 -1.171005,-4.856995 -2.367996,-6.850006c-1.738998,0.003021 -1.932999,1.266022 -2.675003,1.886017c-2.899002,2.424011 -5.257996,5.862 -9.999008,4.569c-1.116989,-0.304993 -2.647995,0.536011 -3.87999,1.088989c-3.832001,1.721008 -8.098999,0.248016 -11.944,1.730011c-2.406006,-1.787994 -4.875,-2.838013 -7.804001,-1.053009c-0.975998,0.593994 -1.003006,-0.552002 -1.253998,-1.037994c-0.690002,-1.337006 -2.095001,-1.658997 -3.187012,-2.433014c-1.472,-1.042999 -3.309998,-1.468994 -4.830994,-1.328979c-2.095001,0.191986 -1.481003,2.675995 -2.190994,4.096985c-0.278,0.557007 -0.930008,0.928009 -1.412003,1.382996l0.098999,0.021027c0.136993,-1.182007 0.110001,-2.412018 0.440002,-3.538025c1.173996,-3.996002 0.224991,-7.411987 -1.602997,-11.151001c-2.377014,-4.863983 -3.19101,-10.374985 -3.527008,-15.811981c-0.449005,-7.274002 -0.604004,-14.56601 -0.929001,-21.848007c-0.098999,-2.205994 0.781998,-3.197998 3.020996,-2.811005c0.223999,0.14801 0.449005,0.296005 0.673004,0.445007c0.710007,0.845993 0.820007,1.863998 0.692001,2.884003c-1.123001,8.921997 0.123993,17.743988 1.227997,26.550995c0.419006,3.345001 1.431,6.636002 4.089005,9.060989c0.460999,0.246002 0.830002,0.597015 1.130005,1.016022c1.293991,2.729004 1.769989,5.988983 4.863998,7.571991c1.102997,0.346008 2.212997,0.661987 3.373001,0.768005c2.349991,0.234985 4.218994,2.022003 6.634995,2.039001c0.690002,0.048004 1.382004,0.072998 2.072006,0.063995c2.681992,-0.046997 3.929993,-1.640015 4.413986,-4.074005c0.355011,-1.786987 0.14801,-3.821991 2.111008,-4.928009c0.453003,-0.178986 0.923004,-0.225983 1.404999,-0.178986c1.697006,0.462006 2.134995,1.869995 2.509995,3.341003c0.519012,2.039001 1.613007,3.230988 3.91301,2.552979c1.074997,-0.238983 2.17099,-0.385986 3.143997,-0.953979c2.574997,-1.246002 4.138,-3.403015 5.317993,-5.902008c0.443008,-2.157013 2.546005,-3.259003 3.287003,-5.22699c1.70401,-7.62001 0.516006,-15.335007 0.807999,-22.998016c0.067001,-1.769989 -0.028992,-3.542999 0.189011,-5.931992c-0.223999,1.563995 -0.259003,2.556 -1.064011,3.261993c-0.888992,0.66301 -1.847992,0.619003 -2.830002,0.296005c-0.463989,-0.067001 -0.903992,-0.227997 -1.319,-0.436996c-0.376999,-0.210999 -0.737,-0.470001 -1.092987,-0.714005c-1.181,-0.541992 -2.494003,-0.802002 -3.59201,-1.563995c-1.070999,-0.772003 -1.888992,-1.675003 -1.68399,-3.126007c0.202988,-0.660004 0.546997,-1.218994 1.089996,-1.677002c15.651001,-13.192993 18.212997,-37.771988 5.304993,-53.613998c-6.630997,-8.138 -15.901993,-9.946991 -25.854996,-9.21199c-10.216995,0.753998 -16.287994,6.627991 -19.885986,15.880997c-1.460007,3.755997 -2.380997,8.302994 -7.404999,9.425003c-0.822998,-0.34201 -1.328003,-0.839005 -0.865005,-1.798004c0.865997,-4.432007 2.13501,-8.649002 5.076004,-12.277008c1.110001,-1.368988 1.559006,-3.272995 2.309998,-4.931992c0.472,-0.858002 1.001007,-1.656998 2.003998,-1.977005c3.306,-2.365997 4.617004,-5.326996 3.942001,-9.55899c-0.470993,-2.952011 0.171005,-6.094009 0.432007,-9.141006c0.054001,-0.628006 0.628998,-1.203995 1.488998,-0.990005c0.797989,0.197998 1.084,0.738998 0.96199,1.507004c-0.398987,2.516006 -0.847,5.026001 -1.210999,7.546997c-0.237991,1.647003 -0.744995,3.334 0.258011,4.924011c5.36499,-1.353012 5.322998,-1.352005 5.191986,-6.463013c-0.061996,-2.434998 -0.416,-4.963989 1.442993,-8.263992c1.382004,3.615005 0.475998,6.089996 -0.05899,8.578995c-0.253998,1.182999 -0.34201,2.521011 0.791,3.258011c1.042007,0.677994 2.328995,0.354996 3.466003,-0.017014c1.411987,-0.462997 1.477005,-1.717987 1.5,-2.932999c0.042999,-2.21199 0.020996,-4.427002 0.113998,-6.636993c0.042007,-0.998001 0.128998,-2.098999 1.822998,-2.287994c1.215988,2.588989 -0.179001,5.160995 -0.277008,7.717987c-0.123001,3.207001 0.263,3.603012 3.276016,3.522003c1.679993,-0.044998 2.528992,-0.632004 2.459991,-2.388c-0.080002,-2.039001 -0.112991,-4.080002 -0.11499,-6.119995c-0.001007,-0.634995 0,-1.466995 0.858994,-1.544998c1.158997,-0.105011 1.348007,0.860001 1.376999,1.69899c0.041,1.186005 -0.078003,2.377014 -0.125992,3.56601c-0.041,1.01799 -0.112,2.037003 -0.108002,3.054993c0.005997,1.652008 1.313995,1.850998 2.477982,1.955002c1.5,0.134003 1.450012,-1.091995 1.501999,-2.097c0.113998,-2.209991 0.172012,-4.423004 0.296005,-6.632004c0.052994,-0.939987 -0.315002,-2.080994 0.990997,-2.582001c1.427002,0.226013 1.266006,1.401001 1.246002,2.309006c-0.037003,1.697998 0.016998,3.475998 -0.462997,5.070999c-1.03299,3.438004 0.224014,5.522003 3.339005,6.811005c1.350998,0.710999 3.405991,-0.089005 4.146988,1.931992c1.119003,0.300003 1.843002,1.580002 3.192001,1.307999c1.414001,-3.835999 -0.345993,-7.753998 0.363998,-11.60199c0.152008,-0.822006 -0.030991,-1.701004 0.057007,-2.541c0.052994,-0.503998 0.423004,-0.917999 0.990997,-0.966995c0.591003,-0.050003 0.981995,0.338989 1.132996,0.831985c0.564011,1.843002 0.23201,3.719009 0.084,5.578003c-0.202988,2.548004 -0.585999,5.087997 -0.671997,7.639008c-0.110992,3.270004 1.27301,5.800003 4.465012,7.796997c0.965988,-2.083008 0.53299,-3.919998 0.511993,-5.710007c-0.050003,-4.261993 -0.102005,-8.524994 -0.083008,-12.787994c0.004013,-1.009995 0.177002,-2.052002 0.478012,-3.014999c0.179001,-0.572006 0.557999,-1.326004 1.459991,-1.102005c0.833008,0.206009 0.964005,0.813004 0.798996,1.557999c-1.638992,7.402008 -0.824997,14.966003 -1.484985,22.431c-0.156006,1.761002 0.040985,3.394012 0.97699,4.917007c5.576019,9.076004 5.005997,18.837006 3.212006,28.740005c-0.266998,1.474991 -1.044998,2.890991 -0.410004,5.098999c2.848999,-4.034012 5.805008,-7.480011 8.800995,-10.891998c6.104004,-6.952011 12.463013,-13.549011 20.81102,-17.934006c7.682999,-4.035004 11.845993,-3.856003 18.118973,4.835999c3.726013,5.164001 5.597015,11.272995 7.973999,17.113007c1.537018,3.774994 2.84201,7.653 5.633026,10.827988c4.950989,5.631012 8.837982,5.889999 14.247986,0.887009c4.205994,-3.891006 7.171997,-8.615005 9.82901,-13.619995c3.726013,-7.019012 8.803009,-12.858002 15.617004,-17.081009c1.454987,-0.901001 2.901978,-1.789001 4.696991,-1.873993c0.664001,-0.032013 1.661987,-0.041 1.924988,-0.442001c2.96402,-4.52301 7.945007,-3.814011 12.244019,-4.859009c1.130005,-0.378998 1.393005,0.153 1.210999,1.153c-0.330994,0.078003 -0.660004,0.210007 -0.993988,0.225006c-8.449005,0.384995 -10.572021,6.649002 -12.26001,13.255997c-0.730011,2.858002 -0.157013,3.150009 2.973999,4.210007c7.135986,2.414993 14.80899,1.811996 21.975006,4.302002c-0.334015,1.830994 -1.701019,1.565994 -3.027008,1.23999c-7.269989,-1.785004 -14.729004,-2.173996 -22.059998,-3.110992c-0.27301,0.339996 -0.578003,0.567001 -0.673004,0.860992c-1.497986,4.628006 -1.497986,4.645004 2.798004,6.522003c2.022003,0.882996 4.075989,1.695999 6.11499,2.539993c-0.122986,1.868011 -1.388977,1.174011 -2.391998,1.068008c-1.442993,-0.399002 -2.891998,-0.779999 -4.328003,-1.201004c-1.21698,-0.356003 -2.467987,-1.599991 -3.675995,-0.378998c-1.143982,1.156006 -0.963989,2.770004 -0.561981,4.242004c0.119995,0.437988 0.612,0.774994 0.93399,1.15799c-3.69101,1.820999 -3.468994,-1.908997 -4.843994,-3.386993c-0.337006,-0.479996 -0.533997,-1.018997 -0.628021,-1.593002c-0.174988,-3.565002 0.200012,-6.955994 2.370026,-10.035995c0.929993,-1.320999 1.631989,-2.949005 1.392975,-4.723007c-0.208984,-1.446991 0.195007,-3.401001 -1.764984,-3.778992c-1.990997,-0.384003 -3.006012,1.362 -3.782013,2.815994c-1.388,2.600998 -1.194977,5.591003 -1.671997,8.415009c-0.307007,1.813995 -0.154999,3.826996 -2.369995,4.658997c-1.730988,0.332001 -2.510986,-1.449997 -3.950012,-1.699005c-4.143982,3.623001 -6.060974,8.307999 -6.984985,13.529007c-0.542999,3.071991 -0.302002,6.442001 -3.097992,8.727997c-0.472015,0.171005 -0.959015,0.207001 -1.456024,0.145996c-0.665985,-0.199997 -1.210999,-0.578995 -1.65799,-1.123001c-3.126984,-3.806 -5.842987,-3.671997 -8.649994,0.45401c-1.001007,1.470993 -1.238007,3.737 -3.806,3.513992c-2.095001,-0.981995 -3.213013,-2.658997 -3.511993,-4.914993c-0.795013,-4.726013 -3.511993,-8.027008 -7.649017,-10.279999c-2.363983,-2.065002 -2.632996,-4.909012 -2.901978,-7.751007c-1.021027,-6.806 -4.846008,-12.550995 -7.165009,-18.867004c-0.445007,-1.210999 -1.675995,-1.62999 -2.562012,-2.389999c-2.847,-2.015991 -5.834,-1.610001 -8.627991,-0.117996c-2.671005,1.425995 -5.490997,2.585999 -8.005997,4.304993c-4.747009,3.63501 -8.287003,8.378006 -11.92601,13.021011c-1.534988,1.957993 -1.468002,4.416 -1.949997,6.722992c-0.500992,2.399002 -0.393005,5.139008 -2.723999,6.84201c-1.565994,0.768997 -2.729996,-0.708008 -4.153,-0.711014c-3.822998,2.596008 -3.826004,6.822006 -3.973999,10.56601c-0.291,7.315994 -0.578003,14.656998 0.419006,21.98999c0.738998,5.433014 0.789993,10.919022 -2.047012,15.959c-0.709991,1.238983 -0.480988,2.738983 -1.110001,4.001007z" fill="#1C1C1C"/>
   <path id="svg_3" d="m172.65799,64.776001c1.001007,1.391006 1.121002,3.470993 3.165009,4.046997c4.39798,2.744995 8.796997,5.490005 13.194977,8.236008c0.47403,0.423996 0.465027,0.83699 -0.02597,1.240997c-4.176025,-1.12001 -7.667999,-3.62001 -11.394012,-5.647003c-0.891998,-0.485001 -1.838989,-1.289993 -2.800995,-0.653c-1.145996,0.757996 -0.769012,2.166 -0.710022,3.302002c0.032013,0.617004 0.412018,1.397995 0.893005,1.780991c4.016022,3.194 6.584015,7.873001 10.958008,10.677002c1.737,1.113998 3.321014,2.307007 3.959015,4.378006c-1.311005,1.050003 -1.904999,-0.070999 -2.657013,-0.653c-5.221008,-4.048004 -9.79599,-8.871002 -15.385986,-12.509003c-1.695007,-1.102997 -2.641022,-0.93399 -4.014008,0.027008c-3.345001,2.338989 -5.052002,5.931 -7.128021,9.231995c-4.444,7.063995 -7.760986,14.783997 -12.511993,21.669006c-2.322998,3.365982 -4.738007,6.671005 -8.467987,8.688004c-6.313995,3.412994 -12.753998,2.342987 -17.526001,-3.027008c-1.239014,-1.394989 -2.27301,-2.975006 -3.362,-4.499008c-1.584991,-2.220001 -3.015015,-4.560989 -4.721008,-6.681992c-5.550995,-6.904007 -9.007996,-7.802002 -17.214996,-4.692001c-1.108002,0.403992 -1.470001,-0.290009 -1.712997,-1.162994c0.033005,-2.397003 1.951996,-3.28801 3.539001,-4.444c1.50499,-0.864014 3.151993,-0.785004 4.793991,-0.722c0.514008,0.052994 1.022003,0.164993 1.516998,0.315994c0.964005,0.246002 1.944,0.427002 2.937012,0.526993c4.498993,0.92601 7.645996,4.007004 9.803009,7.586014c2.480988,4.115997 5.919983,7.330994 8.825989,11.016006c3.410004,4.324982 6.541992,4.451996 10.973999,1.079987c4.263,-3.242996 7.601013,-7.242004 8.916992,-12.623001c0.576019,-0.824997 1.449005,-1.337006 2.145996,-2.035004c1.656006,-1.500992 2.848999,-3.123001 3.477997,-5.455002c1.456024,-5.393997 5.397003,-9.501999 8.137024,-14.246994c0.75,-1.384995 2.330994,-1.798996 3.342987,-2.880005c2.975006,-2.188995 5.130005,-4.860001 5.673004,-8.690994c0.252014,-1.789001 0.567993,-3.923996 3.378998,-3.181z" fill="#191919"/>
   <path id="svg_4" d="m52.703003,82.371002c0.681,0.552994 1.362,1.106995 2.042999,1.660004c0.257996,0.797989 0.696991,1.519989 0.977997,2.30899c0.408005,3.686996 0.544998,7.283997 -3.186996,9.591003c-1.645996,0.229004 -2.44101,-0.748993 -2.996002,-2.110992c-0.421997,-1.036011 -0.457001,-2.697006 -2,-2.484009c-1.673004,0.231995 -1.430008,2.042007 -1.837997,3.272003c-0.541,1.931 -1.807999,3.089996 -3.729996,3.561005c-3.659012,-0.436005 -2.149002,-4.477005 -4.23201,-6.219009c-1.938004,0.806 -1.18399,2.445007 -1.285004,3.772003c0.072006,2.615005 -0.638992,4.845001 -3.024994,6.257996c-3.388,0.548004 -2.934998,-2.311996 -3.878006,-4.147995c-1.134995,-2.210007 0.792007,-5.639008 -2.732986,-6.751007c-1.469009,1.372009 -2.114014,3.613007 -4.39801,4.026001c-2.587997,-0.233994 -2.634003,-2.524002 -3.431992,-4.227997c-0.650009,-1.386993 -0.177002,-3.427002 -2.289001,-3.955002c-1.350006,0.065002 -2.785004,0.552002 -3.847,-0.774994c-1.139999,-2.611008 0.261002,-5.585007 -1.177002,-8.152008l0.074997,0.171005c0.302994,-1.270004 -0.875,-1.938004 -1.199005,-2.953003c-0.382996,-0.972 0.09201,-1.565002 0.888,-2.016998c2.419006,-0.856995 3.87001,0.932999 5.378006,2.167999c9.216003,7.548996 19.753998,8.393005 30.897995,6.262009c1.789001,-0.344009 3.615005,-1.497009 4.986008,0.742996z" fill="#141414"/>
   <path id="svg_5" d="m14.248993,133.307007c1.376999,1.197998 0.972992,2.742004 0.906998,4.272003c-0.781998,18.222992 -0.774002,36.407013 3.397003,54.312012c0.87999,3.779999 0.619995,7.836975 2.73999,11.332001c0.429001,0.707977 -0.153,1.284973 -0.798996,1.554993c-0.792999,0.332001 -1.298004,-0.170013 -1.548996,-0.850006c-0.352005,-0.957001 -0.805008,-1.934998 -0.874008,-2.928009c-0.403992,-5.817993 -2.401993,-11.289978 -3.534988,-16.944c-1.436005,-7.162994 -1.59201,-14.48999 -1.647003,-21.761993c-0.065002,-8.656006 -0.525009,-17.350006 0.869995,-25.966003c0.16301,-1.005005 0.404999,-1.996002 0.598999,-2.996979c-0.009979,-0.003021 -0.108994,-0.024017 -0.108994,-0.024017z" fill="#424242"/>
   <path id="svg_6" d="m70.039993,201.904999c0.080994,1.251007 0.162003,2.502014 0.242996,3.752991c-0.186996,2.072021 -1.375,2.13501 -3.186996,2.02301c-8.600998,-0.531006 -17.212997,-0.924011 -25.826004,-1.222992c-4.557999,-0.15802 -9.125992,-0.024017 -13.688995,-0.022003c-1.069,0.372009 -1.556,-0.020996 -1.490005,-1.136993c6.847,-1.608002 13.779999,-0.798004 20.679001,-0.671997c6.082001,0.110992 12.179001,0.235992 18.233994,0.758972c2.996017,0.261017 4.387024,-0.826996 5.036011,-3.480988z" fill="#3A3A3A"/>
   <path id="svg_7" d="m95.774002,98.690994c0.377991,0.332993 0.755997,0.666 1.134003,0.998993c-2.281998,2.123001 -4.383011,4.350998 -7.182007,5.987c-2.731995,1.598007 -4.876999,4.199997 -7.283997,6.356003c-0.634003,0.567993 -1.283997,1.115997 -1.927002,1.674011c-1.990997,1.72699 -2.759995,4.537994 -5.925003,5.330994c-2.71199,0.679993 -4.705002,3.286011 -7.552002,4.084991c-1.011002,-1.175995 -2.536987,-2.20401 -1.167999,-4.063995c4.057007,-0.369995 5.542007,-4.234985 8.419006,-6.210999c0.858994,-0.858002 2.091995,-1.009003 3.067993,-1.647003c4.195999,-3.352997 6.923004,-8.199997 11.42601,-11.237991c0.595001,-0.377014 1.259995,-0.600006 1.904999,-0.866013c0.850998,-0.358002 1.669998,-0.802002 2.58699,-0.990997c0.925003,-0.200989 1.840012,-0.35498 2.499008,0.585007z" fill="#353535"/>
   <path id="svg_8" d="m11.75,73.975006c-0.399002,0.41301 -0.798996,0.826004 -1.197998,1.240005c-5.757996,-9.011002 -8.775009,-18.762009 -7.916,-29.539001c0.136002,-1.705002 0.860001,-3.244003 1.770004,-4.684998c0.339996,0.401001 0.679001,0.802002 1.018997,1.203003c1.770996,0.750992 1.839005,2.274994 1.688995,3.847c-0.770996,8.052994 1.938995,15.394989 4.688004,22.707993c0.688004,1.828995 1.360001,3.491989 -0.052002,5.225998z" fill="#3A3A3A"/>
   <path id="svg_9" d="m192.147003,44.205994c3.386993,0 6.77301,-0.007004 10.160004,0.00499c0.789001,0.003006 1.842987,-0.235001 1.992981,0.884003c0.160004,1.193008 -0.908997,1.244003 -1.713989,1.243011c-6.774994,-0.002014 -13.549988,-0.028 -20.324005,-0.094009c-0.932007,-0.009003 -2.359985,0.145004 -2.204987,-1.304001c0.138,-1.283997 1.509979,-1.031998 2.445984,-0.994995c3.21402,0.127991 6.425995,0.332993 9.638,0.509003c0.002014,-0.082001 0.003998,-0.164993 0.006012,-0.248001z" fill="#2C2C2C"/>
   <path id="svg_10" d="m13.796005,21.804001c-0.667999,0.658997 -1.335999,1.317993 -2.003998,1.977005c-1.763992,-5.347 -1.175003,-10.759003 -0.449997,-16.175003c0.112,-0.834 0.216003,-1.887009 1.311005,-1.779007c1.460999,0.143997 1.194,1.449005 1.076996,2.384003c-0.376999,3.037003 -0.921997,6.053009 -1.285004,9.091995c-0.195007,1.645004 -0.581009,3.449005 1.350998,4.501007z" fill="#4E4E4E"/>
   <path id="svg_11" d="m54.817993,17.600998c-1.382004,-0.643997 -2.764999,-1.287994 -4.147003,-1.931992c2.585999,-0.296005 2.065994,-2.295013 1.973007,-3.87001c-0.150009,-2.537003 -0.339005,-5.061996 0.076996,-7.584991c0.115997,-0.70401 0.473999,-1.317001 1.292999,-1.26001c0.884995,0.061005 0.942993,0.874008 0.940994,1.480011c-0.011993,4.389999 -0.083984,8.778 -0.136993,13.166992z" fill="#393939"/>
   <path id="svg_12" d="m183.454987,65.003006c0.796997,-0.356003 1.595001,-0.71199 2.391998,-1.067993c3.825012,1.681992 8.067017,2.35199 11.591003,4.766998c-0.050995,0.746994 -0.76001,0.707993 -1.194,0.998001c-4.269989,-1.545013 -8.68399,-2.702011 -12.789001,-4.697006z" fill="#3E3E3E"/>
   <path id="svg_13" d="m26.089996,205.300995c0.496002,0.378998 0.992996,0.756989 1.488998,1.135986c-3.427994,0.701996 -6.597992,2.983002 -10.399994,1.654022c2.781998,-1.589996 5.837997,-2.216003 8.910995,-2.790009z" fill="#414141"/>
   <path id="svg_14" d="m191,33.891006c-0.403992,-0.384003 -0.807007,-0.76799 -1.210999,-1.153c2.588989,-1.212997 5.401001,-1.550003 8.169006,-2.043991c0.716003,-0.128006 1.345978,0.105988 1.28299,0.998001c-0.035004,0.498993 -0.319,0.966995 -0.886993,1.028992c-2.471008,0.271988 -4.81601,1.332993 -7.354004,1.169998z" fill="#585858"/>
   <path id="svg_15" d="m188.990997,78.298996c0.009003,-0.414001 0.018005,-0.826996 0.026001,-1.240997c2.67099,0.917999 4.697998,2.710007 6.585999,4.731995c-2.772003,-0.17099 -5.028992,-1.21199 -6.612,-3.490997z" fill="#5A5A5A"/>
   <path id="svg_16" d="m196.243988,69.699005c0.39801,-0.332001 0.79599,-0.664993 1.194,-0.998001c0.890015,-0.023987 2.278992,-1.039993 2.492004,0.422012c0.195007,1.332993 -1.207001,1.28299 -2.252014,1.107986c-0.166992,-0.028 -0.333984,-0.076996 -0.491974,-0.138992c-0.317017,-0.122009 -0.627991,-0.26001 -0.942017,-0.393005z" fill="#222222"/>
   <path id="svg_17" d="m11.75,73.975006c-5.511002,-9.916992 -8.675995,-20.300003 -6.324997,-31.780991c1.834,-4.419006 4.438995,-8.416 6.237991,-12.932999c2.996002,-7.527008 8.716003,-12.675003 17.457001,-13.856003c6.457001,-0.872009 12.690002,-1.202011 18.927002,1.11499c5.247009,1.949005 9.625,4.896011 13.050003,9.380005c11.643997,15.244995 9.470001,35.268997 1.330994,49.035995c-2.123001,3.591003 -5,6.906006 -9.724991,7.436005c-10.063995,5.472992 -31.87001,3.876984 -40.953003,-8.397003z" fill="#FFFFFF"/>
   <path id="svg_18" d="m149.09201,102.636993c-1.427002,4.606003 -4.264008,8.427994 -7.497009,11.777985c-4.339996,4.497009 -12.776001,6.654022 -18.03299,-1.113983c-2.003998,-2.960999 -4.018005,-5.919998 -6.162994,-8.777008c-2.682007,-3.571991 -5.733002,-6.755997 -10.162003,-8.192993c-3.383011,-5.49501 -1.437012,-11.096008 -0.347,-16.677002c1.578003,-2.994995 1.731003,-6.247009 1.673996,-9.540009c0.001999,-1.061996 0.001999,-2.120987 0.003006,-3.184998c-0.065002,-6.868988 0.904999,-13.632996 1.981995,-20.386002c0.282013,-2.265991 -0.445007,-4.664001 0.884003,-6.792999c0.234985,-0.17099 0.468994,-0.341995 0.70401,-0.513c2.975983,1.645004 4.422974,4.525009 5.80899,7.391006c2.19101,4.531006 4.324982,9.095001 5.617004,13.992004c1.406982,7.766998 0.049988,15.455994 -0.649017,23.151993c-0.625,3.934006 -0.53598,7.942001 -1.041992,11.219009c0.117004,-2.415009 0.710999,-5.479004 0.622986,-8.598007c1.208008,-5.828003 0.360016,-11.987 2.919006,-17.580002c0.194,-0.431992 0.52301,-1.281006 0.882019,-0.923004c2.783997,2.782013 5.470978,5.661011 8.122986,8.570007c0.261993,0.287003 0.088989,0.970001 0.119019,1.468994c-0.443024,10.60701 -1.055023,21.201004 -2.259003,31.751007c0.612976,-5.737 1.178986,-11.475006 1.440979,-17.248001c0.128998,-2.839996 -0.02298,-5.822998 1.846008,-8.311996c0.175995,-1.169006 0.468994,-2.334 0.503998,-3.506012c0.084015,-2.763992 1.131012,-4.258987 4.174988,-4.480988c2.880005,-0.210007 4.969025,-2.52301 7.613007,-4.126007c1.32901,3.166 0.39801,6.291 1.194,9.156998c2.065002,1.945999 1.410004,4.477005 1.475006,6.852005c-0.709015,4.848007 -1.334015,9.709015 -1.434998,14.621002z" fill="#FFFFFF"/>
   <path id="svg_19" d="m95.774002,98.690994c-0.621002,0.25 -1.242004,0.5 -1.863007,0.75c-4.256989,-5.359009 -2.946991,-11.699005 -2.509003,-17.598999c0.428009,-5.769012 0.726013,-11.516998 0.766006,-17.286011c-0.651001,-6.938995 1.412003,-13.655991 1.712997,-20.520996c-0.028,-0.251999 -0.056,-0.505005 -0.084,-0.757004c2.656006,-2.998993 6.236008,-4.526001 9.783997,-6.078995c3.330002,-1.457001 6.274994,-1.042999 8.556,2.035004l0.078003,-0.156006c-1.588989,1.494995 -0.923004,3.456009 -1.085999,5.25c0.455994,7.934006 -1.338013,15.708008 -1.645996,23.584c0.052002,8.28801 -3.151001,16.150009 -3.206009,24.423996c-0.007996,1.236008 -0.359985,2.320007 -1.307999,3.16301c-0.306992,0.087997 -0.618988,0.147995 -0.936996,0.177994c-1.289993,0.811005 -2.949005,-0.209991 -4.190002,0.844009c-1.353989,0.730011 -2.965988,0.972 -4.067993,2.169998z" fill="#FEFEFE"/>
   <path id="svg_20" d="m90.589005,101.526993c-4.016998,3.744995 -8.034012,7.490997 -12.05101,11.236008c-2.031998,-1.608017 -2.692993,-3.861008 -2.716995,-6.286011c-0.100998,-10.485992 -0.072006,-20.973999 -0.018005,-31.460999c0.008011,-1.539001 0.113007,-3.065002 1.425003,-4.167999c0.130005,-3.747009 1.411011,-7.369003 1.229004,-11.147995c-0.052994,-1.102005 0.421997,-1.918015 1.117996,-2.731003c4.298996,-5.025009 8.285004,-10.369003 14.222,-13.69101l-0.140991,-0.087997c2.216003,2.505005 -0.296005,4.971008 -0.064011,7.460007c-0.785995,4.061996 -0.834,8.177994 -0.909988,12.291992c-0.012009,4.710999 0.023987,9.421005 -0.021011,14.126999c-1.089996,6.182999 -1.567993,12.375 -0.651993,18.652008c0.291,2.006012 -0.065002,4.087006 -1.419998,5.806z" fill="#FFFFFF"/>
   <path id="svg_21" d="m76.358994,114.989014c-2.693008,1.921997 -5.317001,3.953003 -8.10701,5.721985c-1.60199,1.016022 -2.447998,0.146027 -2.381989,-1.653992c1.911987,-4.141998 1.981995,-8.531998 1.826996,-12.975998c-0.332001,-9.516006 -0.501999,-19.033005 -0.173996,-28.554993c0.115997,-3.366013 0.927002,-6.400009 3.514999,-8.721008c1.610001,-1.444 1.728989,-3.647003 2.843994,-5.339996c0.539001,-0.818008 0.794006,-2.054001 2.162003,-1c-0.389008,12.837006 1.488998,25.639999 0.690994,38.470993c-0.291992,4.690994 1.52301,9.424988 -0.375992,14.053009z" fill="#FBFBFB"/>
   <path id="svg_22" d="m162.380005,81.167007c-3.720001,5.882004 -7.701996,11.60701 -10.584991,17.986008c-0.245026,0.542999 -1.021027,0.845993 -1.551025,1.261002c-2.062988,-2.099014 -0.856995,-4.747009 -1.196991,-7.13501c0.256989,-4.050995 0.306,-8.117004 0.93399,-12.138992c0.058014,-0.334 0.192017,-0.674011 0.163025,-1c-0.986023,-10.984009 5.92099,-19.046997 10.404999,-27.994003c0.522003,-1.042007 1.520996,-1.459 1.923981,0.281006c0.716003,7.171997 1.533997,14.334 1.899994,21.539993c0.13501,2.678986 -1.377991,4.790985 -1.992981,7.199997z" fill="#FEFEFE"/>
   <path id="svg_23" d="m23.891006,87.279007c3.820007,-2.352997 7.484009,-0.899002 7.501007,3.194c0.015991,3.735001 0.713989,7.37001 0.983002,11.059998c3.496994,8.595001 3.201996,17.638016 3.099991,26.650009c-0.009995,0.856995 -0.770996,1.457001 -1.381989,2.037994c-2.611008,0.213013 -5.070007,-0.175995 -7.214005,-1.817993c-3.343002,-4.229004 -3.69101,-9.576019 -4.100006,-14.417999c-0.747009,-8.863022 -0.517014,-17.85701 1.112,-26.706009z" fill="#FEFEFE"/>
   <path id="svg_24" d="m43.367004,93.423004c0.084991,-0.998001 0.103989,-2.007004 0.26799,-2.992004c0.496002,-2.979004 3.147003,-4.740005 6.126007,-4.175995c1.291,0.244995 1.477997,1.251999 1.563995,2.227997c0.20401,2.324005 0.296997,4.656998 0.436005,6.985992c2.145996,1.850006 1.529999,4.389008 1.399994,6.639008c-0.348999,6.057999 0.001007,12.045013 0.904999,18.03299c0.427002,2.830017 0.323013,5.651001 -1.699997,8.01001c-2.123001,0.492004 -4.016998,1.804993 -6.378998,1.774017c-2.029007,-3.016022 -0.871002,-6.553009 -1.524994,-9.791016c-3.19101,-6.847992 -2.804001,-14.098999 -2.081009,-21.292007c0.17601,-1.756989 0.274002,-3.685989 0.986008,-5.418991z" fill="#FDFDFD"/>
   <path id="svg_25" d="m33.315002,94.408997c0.056,-1.175995 0.043991,-2.360001 0.179993,-3.526001c0.417999,-3.572998 0.445007,-3.460999 3.927002,-3.631989c2.423996,-0.119003 3.811005,0.335999 3.647003,3.222992c-0.132004,2.330002 0.266006,4.688995 0.429993,7.035995c1.242004,7.477005 2.243011,14.974991 1.969009,22.584c-0.013,2.209991 -0.024002,4.419006 -0.040009,6.628998c-0.030991,4.235016 -0.587997,4.78302 -4.67099,4.359009c-0.824005,-0.085999 -1.615005,-0.485992 -2.421005,-0.742004c-1.763,-4.281006 -1.459991,-8.893982 -1.983994,-13.350006c-0.785004,-6.669983 -1.49501,-13.388992 -0.616013,-20.133987c0.10701,-0.82901 0.05101,-1.688995 -0.42099,-2.447006z" fill="#FCFCFC"/>
   <path id="svg_26" d="m53.591995,85.251999c0.384003,-0.406998 0.768997,-0.813995 1.153,-1.220993c1.701004,-0.924011 3.403,-1.848007 5.104004,-2.771011c0.882996,1.30101 0.658997,2.64801 0.167007,4.006012c0.03299,0.334991 0.065994,0.67099 0.099991,1.005997c2.585007,11.168991 4.710999,22.362991 1.774002,33.821991c-0.690994,3.873993 -4.022003,4.708008 -6.934006,6.024017c-3.315994,-5.738007 -2.255997,-12.139008 -2.388,-18.242004c-0.161987,-7.530014 0.369003,-15.095001 1.024002,-22.624008z" fill="#F7F7F7"/>
   <path id="svg_27" d="m172.65799,64.776001c-1.221008,3.138 -1.480988,6.432999 -1.506012,9.895004c-2.546997,0.505997 -4.519989,2.088989 -6.703979,3.263992c-1.544006,-5.759995 -1.765015,-11.524002 -0.055023,-17.294998c0.173004,-2.694992 0.891022,-5.492996 0.400024,-8.061005c-0.850006,-4.445999 1.470001,-6.957001 4.47699,-9.243988c1.979004,-1.505005 3.924988,-3.257004 7.153992,-3.061005c-0.77298,2.623001 -0.940002,5.216995 -0.927979,7.821991c-2.410004,3.057007 -1.801025,6.812012 -2.345001,10.293015c-0.279022,1.784988 0.349976,3.649994 -0.387024,5.412994c-0.075989,0.320999 -0.110962,0.645996 -0.105988,0.973999z" fill="#FDFDFD"/>
   <path id="svg_28" d="m15.772003,82.186005c3.740997,0.136002 5.203003,1.289993 5.48999,4.320999c0.251007,2.644989 0.509003,5.287994 0.764008,7.932999c1.975998,6.341003 1.488007,12.994995 2.410995,19.475006c0.473007,3.321014 0.621002,6.713013 1.05101,10.062988c0.172989,1.347992 0.983994,3.201996 -1.517014,3.480011c-3.963989,-1.343994 -6.265991,-3.938019 -6.22699,-8.289001c-3.501007,-6.562988 -1.992004,-13.951996 -3.434998,-20.856995c-0.233002,-5.442017 -0.028,-10.84201 1.462997,-16.126007z" fill="#FCFCFC"/>
   <path id="svg_29" d="m11.675995,77.996994c2.241989,2.343994 1.832001,5.39299 2.186996,8.238998c1.496994,3.862 1.425003,7.914001 1.449997,11.951996c0.486008,6.984009 1.602005,13.923004 1.589996,20.946991c-2.483002,-0.367981 -2.224991,-2.526001 -2.654984,-4.169983c-3.181,-12.15799 -3.634995,-24.511993 -2.572006,-36.968002z" fill="#E9E9E9"/>
   <path id="svg_30" d="m61.798996,87.257996c0.955002,-3.462997 0.498001,-7.309998 3.076004,-10.399994c0,12.554993 0,25.110992 0,37.665985c-0.751007,0.382019 -1.442993,0.141998 -1.539993,-0.613983c-1.059006,-8.237 -2.646011,-16.428009 -2.313004,-24.792999c0.026993,-0.692001 0.362991,-1.304001 0.776993,-1.859009z" fill="#EAEAEA"/>
   <path id="svg_31" d="m53.591995,85.251999c-0.028992,8.358002 -0.115997,16.716995 -0.065002,25.074997c0.033005,5.29599 0.506012,10.567993 1.429001,15.791992c-0.863998,0.678009 -1.72699,1.356018 -2.590988,2.034027c0.404999,-3.402008 -0.215012,-6.775024 -0.291,-10.134003c-0.100006,-4.445007 -1.160004,-8.848007 -0.434006,-13.369019c0.479996,-2.988998 0.108994,-6.11499 0.119995,-9.179993c1.612,-3.225998 -0.062988,-7.042007 1.832001,-10.218002z" fill="#494949"/>
   <path id="svg_32" d="m76.358994,114.989014c-0.341003,-16.011002 -0.684998,-32.020996 -1.020996,-48.031998c-0.032013,-1.535004 -0.043015,-3.075012 0.704987,-4.491013c0.563004,2.771011 -0.182999,5.726013 1.185013,8.383011c0.134995,11.126999 0.263992,22.253998 0.409988,33.380997c0.03801,2.869995 0.229004,5.727997 0.901001,8.533997c-0.72699,0.742004 -1.453979,1.483002 -2.179993,2.225006z" fill="#626262"/>
   <path id="svg_33" d="m23.972,127.459015c1.384995,-1.472015 0.677994,-3.127991 0.5,-4.787018c-0.904007,-8.395996 -1.755005,-16.797989 -2.578995,-25.201981c-0.098007,-0.996002 0.082001,-2.019012 0.132996,-3.029999c1.606003,-2.130005 0.037994,-5.08699 1.865005,-7.160004c0.225998,13.087006 0.632996,26.160019 2.922989,39.094009c0.117004,0.660004 0.048004,1.352997 0.06601,2.029999c-1.006012,-0.20401 -2.094009,-0.151031 -2.908005,-0.945007z" fill="#666666"/>
   <path id="svg_34" d="m61.798996,87.257996c-0.227997,8.259003 1.17601,16.383011 2.022003,24.553009c0.104004,1.009003 0.143005,2.026001 1.052994,2.712982c-0.994995,1.857025 -1.988998,3.71402 -2.983994,5.571014c0.970993,-7.316986 -0.891006,-14.473007 -1.371002,-21.701996c-0.268997,-4.049011 -0.653,-8.064011 -0.403,-12.12001c0.561005,0.328003 1.122009,0.656006 1.682999,0.985001z" fill="#414141"/>
   <path id="svg_35" d="m33.315002,94.408997c0.250992,1.151001 0.712997,2.30101 0.722,3.45401c0.084991,10.875992 1.908997,21.626007 2.298996,32.477997c-0.746994,-0.040009 -1.494003,-0.080017 -2.242004,-0.119995c0.425003,-7.442993 -0.830994,-14.774994 -1.505997,-22.143005c-0.199997,-2.184006 -0.58699,-4.348007 -0.21199,-6.544998c1.285995,-2.246002 0.232986,-4.80101 0.938995,-7.124008z" fill="#6A6A6A"/>
   <path id="svg_36" d="m135.563995,84.117996c-1.037994,10.555008 -2.075989,21.109009 -3.113983,31.664017c-0.539001,-12.709015 0.112,-25.32402 2.085999,-37.855011c0.582977,2.024002 0.029999,4.235992 1.027985,6.190994z" fill="#696969"/>
   <path id="svg_37" d="m164.391998,60.641006c0.018005,5.764999 0.036987,11.529999 0.054993,17.294998c-0.688995,1.077011 -1.377991,2.154999 -2.066986,3.23201c0.031006,-9.580002 0.061005,-19.159012 0.09198,-28.738998c1.578003,2.51799 0.111023,5.747986 1.920013,8.21199z" fill="#707070"/>
   <path id="svg_38" d="m43.466995,120.093994c-1.681,-7.438995 -1.942993,-15.001007 -1.968994,-22.584c0.623001,-1.362 1.246002,-2.723999 1.869003,-4.087006c0.36499,8.904007 0.729996,17.808014 1.093994,26.712997l-0.498001,0.001007l-0.496002,-0.042999z" fill="#6A6A6A"/>
   <path id="svg_39" d="m125.412994,68.811005c-0.688019,6.136002 -1.376007,12.271988 -2.063019,18.408005c-2.000977,0.218994 -1.366974,-1.046997 -1.164978,-2.069c-0.009003,-4.363007 0.539978,-8.681992 0.927002,-13.016998c0.341003,-3.820999 0.313995,-7.675995 0.449982,-11.514999c1.516022,2.527985 0.277008,5.677994 1.851013,8.192993z" fill="#6F6F6F"/>
   <path id="svg_40" d="m16.901993,119.134003c-1.419006,-6.77301 -1.74501,-13.658997 -2.126999,-20.539001c0.389999,-0.722 0.759003,-0.712997 1.108994,0.029999c1.376999,6.779007 1.678009,13.656006 1.861008,20.542999l-0.422012,0.005005l-0.42099,-0.039001z" fill="#808080"/>
   <path id="svg_41" d="m172.763,63.804001c0.041992,-6.158997 -1.118988,-12.393997 0.811005,-18.557007c2.031006,0.367004 1.348999,1.975006 1.921997,2.851013c0.102997,5.410995 -2.131012,10.416 -2.733002,15.705994z" fill="#797979"/>
   <path id="svg_42" d="m149.980988,81.141006c0.472992,4.072006 0.088989,8.141998 -0.033997,12.212997c-2.593994,-1.272995 -1.192993,-3.339996 -1.024994,-5.161987c0.042999,-2.343002 0.087006,-4.687012 0.130005,-7.030014c0.30899,-0.016998 0.618988,-0.024002 0.928986,-0.020996z" fill="#434343"/>
   <path id="svg_43" d="m60.016998,85.266006c-0.056,-1.334991 -0.110992,-2.67099 -0.166992,-4.005997c2.209,1.244995 0.598999,2.649994 0.166992,4.005997z" fill="#414141"/>
   <path id="svg_44" d="m104.968002,95.5c1.158005,-7.520004 1.483002,-15.151001 3.035004,-22.619003c0.343994,-1.653992 0.61499,-3.322998 0.918991,-4.985001c0.356018,-0.421997 0.734009,-0.423996 1.131989,-0.061996c-0.016998,1.009003 -0.03299,2.018005 -0.049988,3.026993c-1.199005,2.649002 0.76001,5.643005 -0.89801,8.243011c-1.481995,5.649002 -2.440994,11.354996 -1.870987,17.22699c-0.755005,-0.276993 -1.511002,-0.554001 -2.266998,-0.830994z" fill="#7C7C7C"/>
   <path id="svg_45" d="m148.92099,88.192001c0.450012,1.699005 0.119995,3.554001 1.024994,5.162003c0.098999,2.353989 0.199005,4.707001 0.298004,7.060989c-0.384003,0.741013 -0.768005,1.481003 -1.152008,2.222c-1.827972,-4.793991 -1.186981,-9.616989 -0.17099,-14.444992z" fill="#7D7D7D"/>
   <path id="svg_46" d="m99.841003,96.522003c1.25499,-0.987 2.664001,-1.206009 4.190002,-0.844009c-1.312012,0.70401 -2.702011,1.014008 -4.190002,0.844009z" fill="#7C7C7C"/>
   <path id="svg_47" d="m15.884003,98.626007c-0.369995,-0.009995 -0.738998,-0.020004 -1.109009,-0.029999c0.082001,-4.149002 -1.388992,-8.182999 -0.911987,-12.360001c0.635986,-1.349991 1.272995,-2.699997 1.908997,-4.048996c0.037003,5.478989 0.074997,10.958984 0.112,16.438995z" fill="#444444"/>
   <path id="svg_48" d="m91.675995,78.076996c0.569,-5.01799 -0.027008,-10.041992 0.080002,-15.062988c0.076996,-0.439011 0.337997,-0.661011 0.783997,-0.665009c0.58699,0.279007 0.720001,0.925003 1.104996,1.367004c-0.166,6.813004 -0.294006,13.626999 -0.511002,20.438004c-0.162994,5.121994 -0.033997,10.219986 0.776001,15.287994c-0.727005,0.408005 -1.453995,0.815002 -2.181,1.222992c-1.951996,-7.524994 -0.529984,-15.057999 -0.052994,-22.587997z" fill="#6A6A6A"/>
   <path id="svg_49" d="m91.675995,78.076996c0.01799,7.529007 0.035995,15.057999 0.054993,22.587997c-0.380005,0.28801 -0.761002,0.575012 -1.140991,0.863007c-0.596008,-2.820999 -0.118011,-5.804001 -1.31601,-8.544998c-0.186996,-0.427002 -0.235001,-1.102005 -0.024994,-1.486008c1.817993,-3.335999 1.175995,-6.992996 1.511993,-10.524002c0.093018,-0.985992 0.598007,-1.931992 0.915009,-2.895996z" fill="#FEFEFE"/>
   <path id="svg_50" d="m16.677002,61.910004c2.272003,0.485992 2.705994,2.063995 3.509995,3.291c4.645004,7.087997 11.615997,9.725998 19.653,9.686996c8.05101,-0.039001 13.162003,-4.716995 16.483002,-11.681c0.072998,-0.153 0.109009,-0.326996 0.197998,-0.468994c0.747009,-1.199005 0.889008,-3.951004 2.246002,-3.345001c2.520004,1.125992 0.328003,3.317993 -0.313004,4.707993c-6.214996,13.488998 -21.44899,17.022995 -34.459,8.123001c-4.513992,-3.087006 -6.009003,-5.123993 -7.317993,-10.313995z" fill="#232323"/>
   <path id="svg_51" d="m21.977997,43.404999c-1.867996,-0.119003 -3.425003,-2.246994 -3.218994,-4.399002c0.190994,-1.991989 2.417999,-3.813995 4.675995,-3.82399c1.531006,-0.007004 2.669006,1.716995 2.449997,3.71199c-0.281998,2.572006 -2.062988,4.628998 -3.906998,4.511002z" fill="#0E0E0E"/>
   <path id="svg_52" d="m40.203995,54.069c-4.235001,-0.231995 -7.955002,1.391998 -11.602997,3.320007c3.022995,-4.918015 7.201004,-6.083008 11.602997,-3.320007z" fill="#2F2F2F"/>
   <path id="svg_53" d="m53.080002,39.380997c-0.065994,1.570007 -0.641998,2.906006 -2.561005,2.880997c-2.138992,-0.028992 -2.121994,-1.801987 -2.207993,-3.25499c-0.097,-1.656998 0.438995,-2.983002 2.481003,-2.929001c2.175995,0.057999 2.07399,1.735001 2.287994,3.302994z" fill="#0C0C0C"/>
   <path id="svg_54" d="m110.054993,67.834c-0.377014,0.020996 -0.755005,0.041 -1.132004,0.061996c0.443008,-8.228989 0.886002,-16.457993 1.328995,-24.686996c2.477997,-0.102005 0.674011,2.348999 1.815002,3.044006c0.087006,7.263992 -1.155975,14.404999 -2.011993,21.580994z" fill="#6E6E6E"/>
   <path id="svg_55" d="m122.18399,85.149994c0.388,0.690002 0.777008,1.378998 1.165009,2.069c-0.484009,5.418991 -0.644012,10.884995 -1.493011,16.250992c-0.5,-0.052994 -1.001007,-0.106003 -1.501007,-0.158997c0.610016,-6.052994 1.220032,-12.106995 1.82901,-18.160995z" fill="#B0B0B0"/>
   <path id="svg_56" d="m112.066986,46.253006c-0.605011,-1.014999 -1.209991,-2.028992 -1.815002,-3.043991c0.278015,-1.555008 -1.579987,-4.125 1.962006,-4.128998c0.276001,2.396988 0.195007,4.786987 -0.147003,7.172989z" fill="#212121"/>
   <path id="svg_57" d="m109.106995,79.104004c0.024994,-2.777008 -0.174011,-5.57901 0.898987,-8.243011c-0.099976,2.769012 1.824005,5.759003 -0.898987,8.243011z" fill="#FEFEFE"/>
   <path id="svg_58" d="m93.645996,63.716003c-0.375,-0.417999 -0.75,-0.837006 -1.125,-1.255005c-0.554993,-4.005997 -0.617996,-8.009003 0.049011,-12.009995c0.362,-2.419998 0.722992,-4.840012 1.084991,-7.26001c2.981003,-0.139999 2.068008,1.916 1.902008,3.463013c-0.611008,5.689987 -1.270004,11.375 -1.911011,17.061996z" fill="#525252"/>
   <path id="svg_59" d="m92.570007,50.451004c-0.015991,4.002991 -0.033005,8.005997 -0.048996,12.009995c-0.253006,0.186005 -0.507996,0.369995 -0.764999,0.552002c0.125992,-4.195999 -0.841019,-8.464005 0.813995,-12.561996z" fill="#FEFEFE"/>
  </g>
 </g>
</svg>