<?xml version="1.0" encoding="utf-8"?>
<!-- Generator: Adobe Illustrator 17.0.0, SVG Export Plug-In . SVG Version: 6.00 Build 0)  -->
<!DOCTYPE svg PUBLIC "-//W3C//DTD SVG 1.1//EN" "http://www.w3.org/Graphics/SVG/1.1/DTD/svg11.dtd">
<svg version="1.1" id="Слой_1" xmlns="http://www.w3.org/2000/svg" xmlns:xlink="http://www.w3.org/1999/xlink" x="0px" y="0px"
	 width="500px" height="500px" viewBox="0 0 500 500" enable-background="new 0 0 500 500" xml:space="preserve">
<g>
	<g>
		<path fill="#FFFFFF" d="M223.735,235.8c-0.837-0.423-1.673-0.846-2.51-1.27c-1.345-0.883-2.836-1.558-3.947-2.773
			c-0.143-0.156-0.296-0.3-0.461-0.432c-0.734-0.509-1.622-0.819-2.107-1.647c-0.19-0.693-0.609-1.216-1.198-1.612
			c-1.62,0.238-2.038-1.183-2.849-2.064c-0.028-0.59,0.217-1.079,0.736-1.301c5.135-2.201,9.511-5.656,14.22-8.565
			c1.157,0.055,2.62,0.484,3.264-0.675c2.544-4.574,7.931-7.976,6.118-14.397c-0.276-0.978,0.308-1.838,0.351-2.783
			c0.262-5.676-0.896-11.082-3.042-16.297c-0.593-1.44-1.583-2.435-3.358-1.979c-0.557-0.071-1.02-0.312-1.33-0.79
			c-2.51-3.867-5.675-7.01-9.671-9.394c-0.863-0.515-2.396-1.243-1.932-2.93c0.297-1.095,1.27-1.652,1.946-2.446
			c0.049-0.836,0.816-1.035,1.31-1.477l-0.044,0.032c0.628-0.491,1.354-0.837,1.983-1.327l-0.048,0.034
			c0.994-0.812,2.272-1.152,3.267-1.962l-0.009,0.012c1.574,0.275,1.574,0.275,0.142,2.141c1.342-1.613,2.625-3.294,4.647-4.143
			c0.818-0.274,1.547-0.797,2.434-0.88c0.294-0.012,0.587-0.019,0.881-0.022c1.273-0.037,2.127-0.895,3.077-1.566
			c0.966-0.113,1.936,0.001,2.897-0.054c0.103-0.045,0.212-0.084,0.317-0.128c0.15-0.175,0.297-0.351,0.437-0.533l-0.054,0.042
			c4.598-1.49,9.381-2.083,14.118-2.897c1.055,0.07,2.142-0.253,3.163,0.25c0.32-0.001,0.639-0.002,0.959-0.004
			c0.624-0.349,1.322-0.43,2.008-0.554c1.752-0.074,3.506,0.006,5.258-0.058c2.444-0.519,4.85,0.106,7.273,0.236
			c1.042,0.108,2.082,0.225,3.112,0.415c2.573,0.072,5.058,0.68,7.527,1.322c0.466,0.121,1.379,0.326,0.981,1.246
			c-0.195,0.451-0.75,0.299-1.141,0.409c-2.676,0.562-5.333,1.243-8.047,1.645c2.793-0.421,5.532-1.105,8.294-1.691
			c1.06,0.12,1.713-0.923,2.724-0.943c0.88-0.059,1.721,0.019,2.413,0.65c0.507,0.191,1.013,0.382,1.52,0.573
			c2.066,0.701,3.929,1.867,5.975,2.616c0.364,0.202,0.727,0.404,1.091,0.605c1.603,0.816,3.221,1.607,4.709,2.631l-0.059-0.042
			c0.634,0.49,1.362,0.84,1.993,1.335l-0.059-0.046c1.754,1.395,3.821,2.406,5.211,4.247c1.658,0.664,2.232,2.412,3.483,3.483
			c1.152,0.938,2.087,2.072,2.951,3.27l-0.034-0.04c5.182,6.459,7.062,13.916,6.675,22.061c-0.319,3.808-1.137,7.518-2.156,11.189
			c-0.187,0.296-0.373,0.593-0.56,0.889c-0.892,3.013-2.333,5.768-3.958,8.437l0.03-0.044c-0.843,1.321-1.589,2.707-2.61,3.909
			l0.034-0.044c-0.591,0.924-1.371,1.705-1.968,2.625l0.04-0.048c-2.216,3.109-5.497,5.24-7.693,8.369l-0.215-0.001l-0.215,0.001
			c-1.127,0.418-1.878,1.381-2.878,1.984l0.047-0.037c-1.205,1.022-2.594,1.77-3.917,2.617l0.048-0.035
			c-3.465,2.239-7.341,3.636-11.039,5.398c-0.585,0.131-1.171,0.263-1.756,0.394c-1.258,0.588-2.552,1.044-3.96,1.09
			c-4.452,1.967-9.279,2.247-13.976,3.123c-3.406-0.007-6.81,0.026-10.214-0.018c-1.772-0.683-3.72-0.352-5.506-0.956l0.052,0.019
			c-0.749-0.725-1.881,0.063-2.628-0.666l0.06,0.022c-0.98-0.797-2.31,0.134-3.289-0.668l0.055,0.02
			c-0.966-0.77-2.24,0.086-3.22-0.611c-0.456-0.253-0.912-0.506-1.367-0.759c-0.821-0.547-1.902,0.077-2.695-0.598
			c-2.36-0.455-4.386-1.785-6.638-2.523C227.269,237.781,225.432,236.937,223.735,235.8z"/>
		<path fill="#FFFFFF" d="M164.806,132.715c0.475,0.197,0.95,0.394,1.425,0.591c2.77,1.027,4.964,2.789,6.64,5.211l-0.032-0.041
			c0.49,0.624,0.833,1.346,1.317,1.973l-0.028-0.042c0.843,0.997,1.125,2.35,2.073,3.281c0.169,0.4,0.337,0.799,0.506,1.199
			c2.933,6.483,4.824,13.211,4.77,20.391c1.202,2.101-0.535,3.924-0.563,5.909c0.786,3.296,2.708,5.365,6.2,5.741
			c1.828,0.38,3.661,0.318,5.495,0.054c0.429-0.154,0.881-0.137,1.325-0.17c1.593-0.488,3.106-1.155,4.452-2.056
			c-0.044,0.03-0.171,0.123-0.21,0.145c-1.406,0.838-2.825,1.533-4.381,1.926c-0.822-0.048-1.581,0.352-2.399,0.325
			c-1.014,0.013-2.027,0.016-3.04-0.004c-3.814-0.292-6.556-1.932-7.437-5.912c0.128-2.1,1.244-2.18,2.792-1.362
			c2.936,1.551,5.998,1.781,9.169,0.887c2.155-0.587,4.118-1.644,6.151-2.537c2.818-1.76,5.993-1.545,9.107-1.628
			c1.124,0.271,2.197,0.612,2.945,1.571c0.325,0.63,0.153,1.17-0.311,1.656c0.647-0.511,0.663-1.567,1.593-1.835
			c1.506-0.175,2.782,0.521,4.091,1.078c4.819,2.443,9.077,5.478,11.532,10.54c0.427,0.881,0.747,1.746,0.927,2.632
			c3.037-0.377,3.156,2.12,3.925,3.992c0.958,2.727,0.937,5.627,1.52,8.419c-0.267,2.094,0.832,4.197-0.04,6.287
			c-0.92,1.729-1.591,3.566-2.299,5.386c-0.424,0.856-1.147,1.494-1.671,2.278c-2.031,2.337-4.354,4.385-6.564,6.543
			c-0.787,0.587-1.628,1.105-2.335,1.798c-0.209,0.188-0.434,0.357-0.67,0.511c-0.585,0.409-1.246,0.69-1.838,1.091
			c-2.524,1.304-5.006,2.684-7.53,3.991c-0.475,0.124-0.911,0.364-1.401,0.442c-1.015-0.065-1.979-0.393-2.974-0.564
			c-0.481-0.224-0.8-0.589-0.957-1.096c-0.092-1.034-0.709-1.816-1.265-2.626c-4.381-8.771-7.119-17.853-5.272-27.8
			c-1.803,10.09,0.87,19.306,5.517,28.139c0.413,0.708,1.087,1.331,0.727,2.283c-4.025,2.95-8.851,2.776-13.264,2.385
			c-14.369-1.272-29.125-14.969-30.474-31.394c-0.845-10.276,0.914-19.863,3.261-29.574c0.632-2.615,1.055-5.276,0.988-7.927
			c-0.173-6.883-3.829-11.532-9.862-14.525c-1.88-0.933-3.473-2.461-5.679-2.717c-1.589,0.009-2.732-0.479-1.439-2.159
			c1.101-1.43,2.145-3.298,4.539-2.706C157.512,132.372,161.16,132.02,164.806,132.715z"/>
		<path fill="#030303" d="M230.963,206.028c0.643-1.654,1.285-3.308,1.928-4.962c0.253-0.28,0.568-0.419,0.947-0.418
			c1.556,0.462,1.724,1.568,1.536,2.986c-0.366,2.76-1.256,5.307-3.186,7.32c-0.822,0.857-1.374,1.808-1.923,2.8
			c-1.02,1.846-2.737,2.704-4.62,3.344c-4.592,3.628-9.669,6.454-14.907,9.013c-0.131,0.325-0.305,0.349-0.521,0.074
			c-0.82,0-1.933,0.326-0.918,1.14c3.353,2.688,5.595,6.432,8.948,9.077c0.917,0.724,1.932,1.432,3.018,1.816
			c6.04,2.134,11.949,4.672,18.154,6.305c7.623,2.006,15.448,2.144,23.274,2.276c3.894,0.066,7.689-0.417,11.434-1.386
			c1.342-0.347,2.623-0.924,3.953-1.328c1.362-0.413,2.306,0.002,2.637,1.801c-3.691,0.795-7.188,2.399-11.091,2.179
			c-3.551-0.2-7.05,0.471-10.571,0.711c-6.954,0.473-13.62-0.965-20.321-2.383c-4.519-0.956-8.892-2.315-13.132-4.168
			c-7.281-3.183-13.285-8.162-19.057-13.444c-1.229-1.125-2.314-1.489-3.957-1.41c-6.682,0.321-13.222-0.485-19.455-3.099
			c-0.238-0.59,0.048-0.99,0.485-1.334c0.636-0.331,1.321-0.315,2.008-0.284c1.627,0.317,3.202,0.845,4.812,1.233
			c1.875,0.519,3.811,0.72,5.716,1.076c2.246,0.299,4.432,0.151,6.501-0.869c0.89-0.222,1.827-0.277,2.648-0.741
			c0.868-0.133,1.744-0.233,2.573-0.56c0.29-0.067,0.583-0.082,0.878-0.05c0.934,0.541,1.831,0.209,2.642-0.231
			c3.832-2.078,7.896-3.779,11.168-6.779C225.837,212.91,229.741,210.63,230.963,206.028z"/>
		<path fill="#0B0B0B" d="M341.969,148.825c3.903-0.628,7.901,1.123,11.795,3.271c3.664,2.021,5.381,5.225,6.956,9.093
			c1.665,4.086,0.22,7.441-0.532,11.021c-0.804,3.826-3.645,6.392-6.362,9.046c-6.107,5.965-13.499,9.338-21.642,11.338
			c-2.304,0.566-4.631,0.97-7,0.4c-0.627-0.151-1.301-0.359-1.102-1.241c0.158-0.699,0.533-1.181,1.36-0.925
			c5.048,1.564,9.524-0.77,13.995-2.337c4.855-1.701,9.295-4.31,13.193-7.81c7.659-6.877,8.665-15.236,4.257-23.823
			c-2.026-3.948-6.013-5.454-10.102-6.042c-5.446-0.784-10.912-0.103-16.296,0.907c-4.213,0.79-8.394,1.786-12.28,3.674
			c-2.811,1.365-5.378,3.115-7.567,5.369c-0.528,0.544-0.968,1.306-1.813,0.608c-1.003-0.83-0.03-1.3,0.474-1.725
			c5.726-4.826,11.926-8.599,19.565-9.69C332.991,149.369,337.04,148.291,341.969,148.825z"/>
		<path fill="#171717" d="M150.937,137.305c4.282,0.67,7.711,3.038,10.906,5.717c4.042,3.389,4.994,8.051,4.875,13.056
			c-0.11,4.621-0.924,9.124-1.992,13.62c-2.274,9.57-3.023,19.215-0.389,28.853c1.707,6.249,4.988,11.494,10.129,15.594
			c2.347,1.871,4.739,3.622,7.298,5.18c4.565,2.779,9.494,3.799,14.773,3.218c3.073-0.338,6.199-0.402,9.12-1.611
			c0.248-0.319,0.526-0.348,0.834-0.086c0.207,0.26,0.415,0.52,0.622,0.781c0.357,0.59,1.358,0.075,1.572,0.916
			c0.068,0.436-0.049,0.798-0.421,1.057l0.08-0.046c-0.947,0.732-2.046-0.017-3.034,0.31c-1.745-0.138-3.409,0.376-5.106,0.644
			c-1.038,0.037-2.075,0.02-3.113,0.025c-1.993-0.033-3.986,0.078-5.975-0.085c-1.75-0.339-3.563-0.379-5.234-1.096
			c-14.069-4.137-22.074-13.691-24.97-27.862c-0.693-3.391-0.708-6.79-0.554-10.213c0.578-5.097,1.373-10.164,2.148-15.233
			c0.001-0.195,0.044-0.38,0.128-0.555c0.38-0.383,0.535-0.835,0.423-1.37c0.698-2.677,1.326-5.374,2.107-8.027
			c2.244-7.621-0.956-13.244-6.517-18.017c-0.561-0.481-1.189-0.918-1.968-1.009c-1.292-0.151-2.393-0.367-2.958-1.897
			c-0.4-1.086-1.983-0.516-2.824-1.209C150.423,137.714,150.436,137.495,150.937,137.305z"/>
		<path fill="#131313" d="M228.313,182.933c-1.588-6.671-6.455-10.248-12.236-12.962c-0.217-0.349-0.427-0.703-0.747-0.972
			c-0.612-0.308-1.252-0.546-1.896-0.771c-0.265-0.055-0.532-0.105-0.799-0.15c-0.904-0.264-1.848-0.326-2.76-0.552
			c-0.531-0.039-1.061-0.022-1.59,0.033c-3.282-0.371-6.503-0.31-9.5,1.341c-0.725,0.307-0.829-0.084-0.757-0.673
			c0.567-0.281,1.134-0.561,1.701-0.842c0.504-0.783,1.41-0.774,2.151-1.088c3.901-0.982,7.808-0.614,11.733-0.145
			c0.885,0.106,1.591,0.549,2.408,0.739c2.103,1.626,4.189,3.275,6.313,4.873c2.679,2.017,4.625,4.684,6.61,7.321
			c0.652,0.259,1.151,0.653,1.245,1.406C229.815,181.5,229.69,182.698,228.313,182.933z"/>
		<path fill="#212121" d="M143.172,139.811c-1.412,1.027-2.915,1.806-4.725,1.304c-1.173-0.326-2.037,0.469-3.059,0.677
			c-0.754,0.154-1.493,0.243-2.066-0.429c-0.585-0.687-0.339-1.385-0.008-2.086c0.834-1.765,1.925-3.345,3.541-4.468
			c3.95-2.745,8.073-5.178,12.608-6.864c0.921-0.343,1.839-0.542,2.803-0.566c2.475-0.062,2.991,0.678,2.158,3.085
			c-0.104,0.301-0.262,0.584-0.394,0.876c-0.112,0.099-0.224,0.197-0.336,0.296c-0.303,0.028-0.59-0.03-0.863-0.162
			c-3.509-0.894-8.96,1.106-10.826,3.959c-0.434,0.663-0.658,1.326-0.245,2.07c0.162,0.208,0.296,0.432,0.431,0.654
			c0.249,0.455,0.659,0.801,0.884,1.274C143.107,139.557,143.14,139.684,143.172,139.811z"/>
		<path fill="#1D1D1D" d="M263.594,135.658c0.009-2.557,0.512-5.128-0.253-7.663c-0.74-2.455-1.677-2.857-4.002-1.723
			c-1.209,0.59-2.028,1.551-2.701,2.667c-1.233,2.043-1.944,4.288-2.393,6.604c-0.222,1.147-0.093,2.245,0.605,3.362
			c0.948,1.517,0.696,1.862-1.103,1.623c-0.727-0.096-1.329,0.924-2.18-0.052c1.004-1.916,1.153-4.091,1.376-6.304
			c0.387-3.837,2.74-6.753,5.658-9.001c2.856-2.199,6.561-0.085,7.084,3.875c0.347,2.626-0.436,5.081-1.48,7.458
			C263.535,136.558,263.364,136.252,263.594,135.658z"/>
		<path fill="#6D6D6D" d="M162.508,170.044c0.637,0.977,0.398,1.999,0.226,3.052c-0.491,3.009-0.974,6.019-0.848,9.092
			c0.047,1.154-0.05,2.318-0.543,3.402c-1.594,2.877-0.466,5.87-0.072,8.703c0.832,5.98,2.409,11.79,6.33,16.655
			c0.577,0.716,0.692,1.553,0.198,2.403c-0.2,0.256-0.449,0.444-0.753,0.558c-3.859-4.313-5.275-9.67-6.473-15.122
			c-1.084-4.932-1.505-9.915-1.19-14.958c0.463-0.871,0.071-1.873,0.421-2.762C160.716,177.395,160.904,173.546,162.508,170.044z"/>
		<path fill="#121212" d="M150.937,137.305c-0.012,0.218-0.025,0.436-0.037,0.655c-2.78-0.234-5.19,1.076-7.729,1.851l0.082,0.006
			c-0.489-0.723-1.553-0.603-2.009-1.374l0.064,0.069c-0.888-2.088,0.696-3.248,1.9-4.259c2.911-2.441,6.333-3.544,10.183-2.979
			l0.102,0.129c0.509,0.624,0.493,1.242-0.02,1.855c-1.981,0.456-2.696,2.432-4.413,3.172
			C149.699,137.345,150.417,137.037,150.937,137.305z"/>
		<path fill="#2A2A2A" d="M193.443,171.257c-3.46,0.646-6.881,1.066-10.133-0.9c-1.003-0.606-1.831-0.279-2.045,1.008
			c-0.205,0.313-0.402,0.323-0.589-0.016c-1.2-2.021,0.385-3.832,0.435-5.758c-0.083-0.805-0.763-1.844,0.788-2.006
			c0.787,4.698,1.212,7.302,8.848,7.081c0.427-0.012,0.854-0.018,1.281-0.027C192.681,170.43,193.409,170.05,193.443,171.257z"/>
		<path fill="#838383" d="M320.98,195.19c0.131-7.526-1.647-14.497-5.98-20.739c-0.224-0.323-0.255-0.78-0.376-1.175
			c1.931,0.68,2.471,2.554,3.281,4.081c2.953,5.568,4.341,11.51,3.772,17.844C321.441,195.409,321.209,195.406,320.98,195.19z"/>
		<path fill="#C7C7C7" d="M229.571,158.672c-2.186,1.575-4.452,3.042-6.438,4.942c-0.063-1.288,0.956-1.797,1.525-2.59
			c0.377-0.525,0.397-0.945-0.232-1.266c2.133-2.15,4.513-3.732,7.741-3.361c0.449,0.267,0.452,0.54,0.01,0.818l-0.012-0.011
			C231.283,157.665,230.174,157.721,229.571,158.672z"/>
		<path fill="#BABABA" d="M181.9,163.584c-1.044,0.362-0.508,1.344-0.788,2.006c-0.97-1.382-0.242-2.914-0.332-4.365
			c-0.279-4.527-1.571-8.784-3.119-12.991c-0.402-1.092-1.031-2.119-0.951-3.347c2.543,3.602,3.475,7.82,4.399,11.997
			C181.591,159.064,182.002,161.308,181.9,163.584z"/>
		<path fill="#606060" d="M287.554,153.148c-0.287-1.723-1.673-2.367-3.008-3.052c-3.586-1.839-7.485-2.406-12.054-2.772
			c3.499-1.057,6.275-0.176,9.006,0.535c1.947,0.507,3.907,1.145,5.543,2.427c1.353,1.06,1.985,2.26,0.63,3.781
			C287.324,153.8,287.284,153.494,287.554,153.148z"/>
		<path fill="#888888" d="M180.628,224.162c-4.484-1.069-7.827-3.922-10.998-7.042c0.165-0.43,0.311-0.874,0.757-1.114
			c1.341-0.518,2.142,0.431,3.03,1.128c1.723,1.353,3.42,2.746,5.591,3.353C179.829,221.588,183.003,221.653,180.628,224.162z"/>
		<path fill="#797979" d="M346.366,196.017c-5.889,3.016-12.105,4.562-18.986,4.362c1.008-1.062,2.047-0.558,2.959-0.708
			c0.946-0.155,1.91-0.196,2.859-0.335c4.464-0.655,8.601-2.492,12.943-3.591C346.216,195.836,346.291,195.926,346.366,196.017z"/>
		<path fill="#6D6D6D" d="M365.144,148.005c4.349,3.249,6.675,7.688,7.619,12.941c0.165,0.656,0.534,1.418-0.702,1.34
			c-0.344-4.207-2.204-7.758-4.788-10.986c-0.798-0.997-1.666-1.939-2.502-2.906c-0.076-0.197-0.152-0.394-0.229-0.59
			C364.744,147.871,364.944,147.938,365.144,148.005z"/>
		<path fill="#6E6E6E" d="M281.832,154.661c0.303-0.083,0.697-0.077,0.889-0.271c0.305-0.306-0.026-0.58-0.302-0.643
			c-2.556-0.582-5.093-1.296-7.753-1.214c-0.135-0.535,0.149-0.826,0.597-1.022c2.705,0.048,5.272,0.877,7.882,1.439
			c1.269,0.273,2.523,0.462,3.814,0.442c0.128,1.578-1.582,0.374-1.911,1.262c-0.743,0.636-1.66,0.661-2.564,0.733
			C281.842,155.525,281.633,155.277,281.832,154.661z"/>
		<path fill="#8B8B8B" d="M253.483,151.938c-3.204,1.157-6.639,1.156-9.918,1.972c-1.414,0.352-2.839,0.917-4.362,0.707
			c2.705-1.512,5.713-2.103,8.706-2.464c1.857-0.224,3.669-1.011,5.594-0.647C253.496,151.65,253.489,151.794,253.483,151.938z"/>
		<path fill="#878787" d="M338.489,141.071c-1.897,1.24-4.116,0.664-6.168,1.01c-3.099,0.522-6.108,1.647-9.308,1.546l0.041,0.055
			c1.429-1.377,3.348-1.257,5.091-1.595c3.447-0.668,6.87-1.54,10.417-1.546C339.007,140.783,338.983,140.959,338.489,141.071z"/>
		<path fill="#8E8E8E" d="M265.031,244.807c1.936-1.023,4.135-0.68,6.191-1.161c2.463-0.576,4.927-1.14,7.362-1.826
			c0.464,0.215,0.468,0.437,0.012,0.669c-4.327,1.951-9,2.287-13.609,2.921C264.508,245.173,264.522,244.972,265.031,244.807z"/>
		<path fill="#424242" d="M239.903,156.422c-1.499-0.295-2.986-0.704-4.54-0.474c-0.365-0.798-1.245-0.934-1.842-1.434
			c-0.741-0.752-1.482-1.505-2.223-2.257c-0.047-0.202-0.093-0.404-0.14-0.605c0.196,0.066,0.393,0.132,0.589,0.197
			c2.307,1.449,4.524,3.146,7.51,2.725c0.166,0.748,0.919,0.84,1.391,1.245C240.58,156.244,240.171,156.246,239.903,156.422z"/>
		<path fill="#6D6D6D" d="M231.483,147.13c0.74-1.192,2.009-1.577,3.214-1.935c2.756-0.819,5.565-1.413,8.464-1.434
			c0.264,0.123,0.347,0.236,0.251,0.338c-0.09,0.096-0.182,0.145-0.28,0.145c-2.19,0.447-4.386,0.868-6.568,1.35
			c-1.9,0.419-3.654,1.161-5.052,2.58C231.238,147.833,231.228,147.486,231.483,147.13z"/>
		<path fill="#A0A0A0" d="M372.062,162.286c0.234-0.447,0.468-0.893,0.702-1.34c1.066,3.591,0.531,7.087-0.631,10.545
			c-0.528,0.06-0.45-0.425-0.618-0.688C372.176,167.995,372.01,165.134,372.062,162.286z"/>
		<path fill="#8C8C8C" d="M320.98,195.19c0.232,0.003,0.464,0.007,0.697,0.01c-0.288,3.9-0.649,7.783-2.534,11.326
			C319.363,202.684,320.438,198.98,320.98,195.19z"/>
		<path fill="#949494" d="M302.459,230.62c-0.014-0.411-0.181-0.885,0.186-1.194c2.656-2.232,4.696-5.107,7.507-7.175
			C308.496,225.875,305.284,228.07,302.459,230.62z"/>
		<path fill="#8C8C8C" d="M284.29,240.546c0.41-0.855,1.251-1.159,2.034-1.434c3.107-1.089,5.785-3.144,9.005-3.964
			C292.177,238.027,288.245,239.31,284.29,240.546z"/>
		<path fill="#7D7D7D" d="M272.151,151.926c-2.255,0.484-4.521-0.832-6.773,0.043c-0.392-0.051-0.743-0.211-1.084-0.399
			c-0.142-0.241-0.13-0.474,0.036-0.698c2.617-0.242,5.234-0.503,7.782,0.449C272.651,151.49,272.664,151.691,272.151,151.926z"/>
		<path fill="#6A6A6A" d="M153.474,133.259c0.007-0.618,0.013-1.237,0.02-1.855c0.175-0.054,0.353-0.075,0.535-0.065
			c0.172,0.581,0.518,0.777,1.158,0.756c2.214-0.073,4.43-0.075,6.645-0.084c1.042-0.004,2.135-0.179,2.973,0.703
			C161.02,132.712,157.222,132.467,153.474,133.259z"/>
		<path fill="#595959" d="M360.28,145.036c-2.975-1.075-5.951-2.15-8.926-3.225c-0.475-0.232-0.471-0.456,0.011-0.672
			c3.151,0.953,6.449,1.535,9.15,3.623C360.436,144.854,360.358,144.945,360.28,145.036z"/>
		<path fill="#949494" d="M367.005,181.259c-1.491,2.397-3.539,4.244-5.916,5.8c0.433-1.395,1.705-2.117,2.627-3.116
			c0.945-1.024,1.874-2.062,2.811-3.094c0.201-0.073,0.403-0.146,0.604-0.219C367.089,180.84,367.047,181.05,367.005,181.259z"/>
		<path fill="#878787" d="M371.514,170.803c0.206,0.229,0.412,0.459,0.618,0.688c-0.866,2.782-1.779,5.54-3.847,7.723l-0.225-0.19
			C368.971,176.183,370.837,173.743,371.514,170.803z"/>
		<path fill="#929292" d="M314.625,215.853c0.92-2.999,2.532-5.674,3.957-8.437C318.268,210.699,317.04,213.555,314.625,215.853z"/>
		<path fill="#7A7A7A" d="M346.141,195.745c2.148-1.592,4.76-2.229,7.117-3.409c-1.928,1.915-4.258,3.077-6.892,3.68
			C346.29,195.927,346.215,195.837,346.141,195.745z"/>
		<path fill="#959595" d="M172.871,138.517c-1.939-2.086-4.476-3.41-6.639-5.211C169.654,133.502,171.46,135.757,172.871,138.517z"
			/>
		<path fill="#5E5E5E" d="M265.031,244.807c-0.008,0.201-0.023,0.402-0.044,0.602c-3.622-0.008-7.245-0.015-10.867-0.023
			c-0.181-0.106-0.251-0.225-0.209-0.355c0.044-0.137,0.093-0.205,0.147-0.205C257.716,244.82,261.374,244.813,265.031,244.807z"/>
		<path fill="#2C2C2C" d="M180.628,224.162c0.488-1.725-1.27-2.061-1.909-3.089c2.343-0.503,3.945,0.604,5.225,2.408
			c-0.271,0.264-0.541,0.527-0.812,0.791C182.283,224.538,181.457,224.321,180.628,224.162z"/>
		<path fill="#424242" d="M193.443,171.257c-0.472-0.206-0.943-0.412-1.415-0.618c2-0.803,4-1.607,6.001-2.41
			c0.252,0.224,0.505,0.449,0.757,0.673C197.005,169.686,195.224,170.471,193.443,171.257z"/>
		<path fill="#A1A1A1" d="M194.155,166.789c-1.891,0-3.782,0-5.673,0c-0.005-0.124-0.011-0.247-0.016-0.371c1.921,0,3.842,0,5.763,0
			C194.204,166.542,194.179,166.665,194.155,166.789z"/>
		<path fill="#7D7D7D" d="M308.223,166.563c-1.813-1.322-3.885-2.327-5.211-4.247C305.265,163.1,307.272,164.184,308.223,166.563z"
			/>
		<path fill="#606060" d="M295.337,157.834c-2.251-0.28-4.245-1.146-5.975-2.616C291.622,155.479,293.634,156.305,295.337,157.834z"
			/>
		<path fill="#545454" d="M264.33,150.873c-0.008,0.141-0.002,0.282,0.017,0.422c-1.651,1.008-3.583-0.121-5.26,0.691
			c-0.548-0.006-1.097-0.013-1.645-0.019C259.519,150.223,261.955,150.741,264.33,150.873z"/>
		<path fill="#1C1C1C" d="M243.132,144.244c0.029-0.16,0.039-0.321,0.029-0.483c1.619,0.018,3.123-1.502,4.903-0.372
			C246.678,145.451,244.793,144.207,243.132,144.244z"/>
		<path fill="#797979" d="M301.137,161.07c-1.834-0.403-3.495-1.116-4.709-2.631C298.473,158.466,299.882,159.63,301.137,161.07z"/>
		<path fill="#A4A4A4" d="M254.058,244.826c0.023,0.187,0.044,0.374,0.062,0.561c-1.772-0.298-3.641-0.171-5.243-1.208
			C250.632,244.172,252.426,243.855,254.058,244.826z"/>
		<path fill="#2B2B2B" d="M338.489,141.071c0.054-0.173,0.078-0.349,0.073-0.53c2.335-0.113,4.671-0.318,7.006-0.009
			c0.282,0.098,0.375,0.196,0.283,0.296c-0.091,0.099-0.184,0.149-0.281,0.149C343.21,141.009,340.85,141.04,338.489,141.071z"/>
		<path fill="#3A3A3A" d="M345.57,140.978c-0.001-0.148-0.002-0.297-0.001-0.445c1.987-0.325,3.853,0.512,5.796,0.608
			c-0.004,0.224-0.007,0.448-0.011,0.672C349.389,141.791,347.484,141.355,345.57,140.978z"/>
		<path fill="#7B7B7B" d="M355.87,191.088c0.583-1.459,1.806-2.081,3.473-2.756C358.636,190.217,356.999,190.316,355.87,191.088z"/>
		<path fill="#969696" d="M223.735,235.8c2.007,0.488,3.822,1.375,5.47,2.616C227.016,238.309,225.085,237.664,223.735,235.8z"/>
		<path fill="#3A3A3A" d="M231.483,147.13c0.01,0.348,0.019,0.696,0.029,1.044c-0.651,1.272-0.088,2.466,0.236,3.676
			c-0.155,0.13-0.305,0.266-0.449,0.408C229.599,149.769,229.609,149.499,231.483,147.13z"/>
		<path fill="#A3A3A3" d="M233.521,154.514c0.904,0.106,1.678,0.378,1.842,1.434c-0.888,0.86-1.942,1.304-3.187,1.267
			c-0.003-0.273-0.007-0.545-0.01-0.818C233.21,156.196,234.689,156.308,233.521,154.514z"/>
		<path fill="#4D4D4D" d="M170.311,216.432c-0.227,0.229-0.454,0.459-0.681,0.688c-0.896-1.042-1.935-1.97-2.583-3.211
			c0.03-0.329,0.061-0.658,0.091-0.986C169.64,212.787,170.863,213.807,170.311,216.432z"/>
		<path fill="#585858" d="M201.88,166.298c-0.717,0.363-1.434,0.726-2.151,1.088c-0.64-0.823-1.778-0.314-2.669-0.957
			C198.773,166.077,200.325,166.153,201.88,166.298z"/>
		<path fill="#2C2C2C" d="M263.594,135.658c0.203,0.282,0.407,0.564,0.61,0.847c-0.413,1.112,0.161,2.535-1.069,3.389
			c-0.27,0.226-0.494,0.186-0.671-0.118C262.841,138.403,263.218,137.031,263.594,135.658z"/>
		<path fill="#969696" d="M312.045,219.717c0.519-1.537,1.201-2.966,2.61-3.909C314.436,217.546,313.656,218.909,312.045,219.717z"
			/>
		<path fill="#9E9E9E" d="M217.278,231.758c1.569,0.563,2.912,1.449,3.947,2.773C219.561,234.102,217.984,233.55,217.278,231.758z"
			/>
		<path fill="#858585" d="M295.281,235.183c0.967-1.379,2.333-2.161,3.917-2.617C298.338,234.106,296.974,234.891,295.281,235.183z"
			/>
		<path fill="#838383" d="M314.657,173.316c-1.385-0.728-2.173-1.994-2.95-3.27C313.432,170.466,314.222,171.73,314.657,173.316z"/>
		<path fill="#A2A2A2" d="M210.215,226.185c0.158-0.133,0.332-0.158,0.521-0.074c0.925,0.652,1.851,1.303,2.776,1.955
			C211.591,228.881,211.178,227.051,210.215,226.185z"/>
		<path fill="#7B7B7B" d="M278.597,242.489c-0.004-0.223-0.008-0.446-0.012-0.669c1.33-0.23,2.537-1.017,3.949-0.88
			C281.488,242.135,280.002,242.208,278.597,242.489z"/>
		<path fill="#7C7C7C" d="M312.632,146.814c0.857-0.849,1.896-1.135,3.416-1.186c-1.146,1.045-2.167,1.351-3.302,1.375
			L312.632,146.814z"/>
		<path fill="#A9A9A9" d="M224.435,159.746c-0.753,1.214-1.93,1.72-3.267,1.962C221.975,160.584,223.017,159.852,224.435,159.746z"
			/>
		<path fill="#BDBDBD" d="M176.202,143.688c-1.294-0.712-1.8-1.923-2.073-3.281C175.335,141.175,175.853,142.378,176.202,143.688z"
			/>
		<path fill="#A6A6A6" d="M262.465,139.776c0.224,0.04,0.447,0.079,0.671,0.118c-0.352,0.699-0.704,1.397-1.206,2.394
			C261.466,141.017,261.93,140.387,262.465,139.776z"/>
		<path fill="#5A5A5A" d="M364.772,148.395c-0.92-0.574-1.914-1.05-2.602-1.935c0.004-0.201-0.293-0.398-0.07-0.572
			c0.078-0.061,0.323,0.092,0.492,0.147c1.082,0.358,1.871,1.094,2.552,1.97C365.008,148.123,364.884,148.253,364.772,148.395z"/>
		<path fill="#8F8F8F" d="M312.746,147.003c-0.662,0.669-1.491,0.853-2.614,1.039c0.723-1.13,1.578-1.256,2.501-1.227
			C312.632,146.814,312.746,147.003,312.746,147.003z"/>
		<path fill="#898989" d="M299.151,232.603c0.566-1.231,1.563-1.838,2.878-1.984C301.321,231.645,300.444,232.426,299.151,232.603z"
			/>
		<path fill="#909090" d="M305.101,150.88c-0.61,0.657-1.171,1.39-2.381,1.473c0.42-1.09,1.311-1.373,2.072-1.799
			c0.189-0.075,0.377-0.151,0.566-0.226C305.273,150.512,305.187,150.696,305.101,150.88z"/>
		<path fill="#969696" d="M310.111,222.299c0.209-1.21,0.918-2.045,1.968-2.625C311.975,220.963,311.263,221.796,310.111,222.299z"
			/>
		<path fill="#3D3D3D" d="M272.151,151.926c-0.001-0.202-0.014-0.404-0.039-0.604c1.05,0.063,2.1,0.127,3.15,0.19
			c-0.199,0.34-0.398,0.681-0.597,1.022C273.827,152.331,272.989,152.129,272.151,151.926z"/>
		<path fill="#121212" d="M285.047,154.655c0.204-1.077,1.562-0.405,1.911-1.262c0.199-0.082,0.398-0.164,0.596-0.245
			c0.039,0.307,0.078,0.613,0.118,0.92c-0.014,0.213,0.043,0.406,0.171,0.577C286.911,154.648,285.979,154.651,285.047,154.655z"/>
		<path fill="#8D8D8D" d="M300.045,155.369c0.179-0.973,0.507-1.466,1.469-1.716C301.38,154.515,301.128,155.075,300.045,155.369z"
			/>
		<path fill="#8C8C8C" d="M243.072,242.886c1.14,0.008,2.311-0.139,3.289,0.668C245.227,243.515,244.019,243.841,243.072,242.886z"
			/>
		<path fill="#AAAAAA" d="M239.906,242.296c1.136-0.128,2.292-0.356,3.22,0.611C241.99,243.038,240.875,243.052,239.906,242.296z"/>
		<path fill="#5C5C5C" d="M163.06,168.118c0.527,0.663,1.362,1.421-0.423,1.37C162.549,168.962,162.606,168.479,163.06,168.118z"/>
		<path fill="#252525" d="M253.483,151.938c0.032-0.143,0.038-0.287,0.02-0.432c1.03-0.076,2.108-0.465,2.981,0.465
			C255.483,151.959,254.483,151.949,253.483,151.938z"/>
		<path fill="#9B9B9B" d="M214.711,229.679c0.778,0.452,1.616,0.827,2.106,1.647C215.632,231.395,215.014,230.738,214.711,229.679z"
			/>
		<path fill="#8E8E8E" d="M304.793,150.554c0.381-0.457,0.758-0.922,1.484-0.784c-0.05,0.755-0.662,0.88-1.175,1.11
			C305,150.77,304.897,150.661,304.793,150.554z"/>
		<path fill="#AAAAAA" d="M235.844,240.939c0.984-0.183,1.881,0.023,2.695,0.599C237.586,241.582,236.566,241.933,235.844,240.939z"
			/>
		<path fill="#4C4C4C" d="M360.515,144.763c0.841,0.181,1.548,0.581,2.077,1.272c-0.15,0.132-0.29,0.274-0.422,0.425
			c-0.796-0.254-1.452-0.694-1.89-1.423C360.373,144.958,360.452,144.867,360.515,144.763z"/>
		<path fill="#A4A4A4" d="M246.301,243.532c0.955-0.088,1.935-0.276,2.628,0.666C247.978,244.275,246.973,244.56,246.301,243.532z"
			/>
		<path fill="#878787" d="M323.013,143.627c-0.204,0.203-0.374,0.474-0.619,0.594c-0.354,0.173-0.914,0.262-1.023-0.17
			c-0.138-0.549,0.458-0.466,0.797-0.486c0.291-0.017,0.589,0.074,0.885,0.118L323.013,143.627z"/>
		<path fill="#B5B5B5" d="M174.157,140.448c-0.736-0.46-1.209-1.095-1.317-1.973C173.718,138.84,174.043,139.574,174.157,140.448z"
			/>
		<path fill="#838383" d="M368.285,179.214c-0.179,0.837-0.624,1.507-1.28,2.045c-0.153-0.143-0.312-0.28-0.477-0.41
			c0.436-0.671,0.821-1.384,1.532-1.824C368.059,179.025,368.285,179.214,368.285,179.214z"/>
		<path fill="#F8F8F8" d="M159.805,181.067c0.098,0.956,0.008,1.884-0.421,2.761C159.313,182.876,159.363,181.942,159.805,181.067z"
			/>
		<path fill="#A8A8A8" d="M219.277,162.969c-0.235,0.671-0.819,1.033-1.31,1.477C217.632,163.27,218.432,163.1,219.277,162.969z"/>
		<path fill="#999999" d="M221.216,161.674c-0.376,0.869-1.08,1.247-1.983,1.327C219.605,162.127,220.358,161.822,221.216,161.674z"
			/>
		<path fill="#787878" d="M303.071,162.362c-0.863-0.148-1.711-0.319-1.993-1.335C302.079,160.97,302.709,161.467,303.071,162.362z"
			/>
		<path fill="#FFFFFF" d="M229.579,180.374c-0.212-0.429-0.424-0.858-0.635-1.288c1.847-0.911,3.066-0.058,4.049,1.445
			c0.117,0.179,0.232,0.368,0.299,0.569c1.958,5.888,4.072,11.752,3.134,18.137c-0.141,0.959-0.292,1.896-0.122,2.873
			c0.708,4.063-0.813,7.302-3.807,9.94c-0.693,0.611-0.927,1.405-1.284,2.18c-1.32,2.871-2.281,3.349-5.569,2.869
			c1.631-1.797,3.304-3.558,4.883-5.399c2.05-2.391,2.936-5.341,3.854-8.28c0.364-1.166-0.13-1.807-0.979-2.388
			c0.158-2.626,0.712-5.25,0.046-7.878c-0.028-2.519-0.611-4.931-1.439-7.293C231.476,183.911,230.021,182.366,229.579,180.374z"/>
		<path fill="#ADADAD" d="M281.832,154.661c0.217,0.242,0.434,0.484,0.651,0.726c-4.025,0.951-8.011,2.148-12.307,1.598
			C274.061,156.211,277.947,155.436,281.832,154.661z"/>
		<path fill="#CFCFCF" d="M252.243,157.744c1.189-0.623,2.475-0.659,3.755-0.512c2.107,0.242,4.199,0.616,6.371,0.772
			c-1.235,0.787-2.686,1.35-3.948,0.875c-2.12-0.798-4.197-0.366-6.296-0.411C251.923,158.188,251.95,157.944,252.243,157.744z"/>
		<path fill="#9E9E9E" d="M252.243,157.744c-0.039,0.242-0.079,0.483-0.118,0.725c-1.347,0.084-2.612-0.126-4.14-1.105
			C249.752,156.984,251.015,157.14,252.243,157.744z"/>
		<path fill="#FDFDFD" d="M259.087,151.986c1.654-0.99,3.544-0.176,5.26-0.691c0.343,0.225,0.687,0.45,1.031,0.675
			C263.281,151.975,261.184,151.98,259.087,151.986z"/>
		<path fill="#383838" d="M239.903,156.422c0.248-0.201,0.497-0.402,0.745-0.602c0.793,0.077,1.695-0.101,2.157,1.018
			C241.731,157.243,240.841,156.604,239.903,156.422z"/>
		<path fill="#A3A3A3" d="M229.571,158.672c0.491-1.149,1.495-1.393,2.594-1.468C231.466,157.987,230.525,158.342,229.571,158.672z"
			/>
		<path fill="#AFAFAF" d="M205.115,219.034c-0.594-0.305-1.026-0.784-1.32-1.362c-4.72-9.266-6.559-18.957-4.255-29.244
			c0.09-0.4,0.306-0.772,0.826-1.106c-0.186,2.008-0.229,4.042-0.586,6.02c-0.883,4.886,0.05,9.592,1.241,14.269
			c0.74,2.905,1.755,5.729,3.02,8.458c0.447,0.964,1.027,1.893,1.023,3.014L205.115,219.034z"/>
		<path fill="#F5F5F5" d="M208.264,223.598c0.018-0.441,0.036-0.881,0.054-1.322c0.514-0.602,1.643,0.013,1.956-0.988
			c0.128-0.126,0.27-0.235,0.424-0.328c2.987-0.073,5.347-1.625,7.673-3.254c0.74-0.405,1.549-0.69,2.198-1.255l-0.054,0.038
			c0.65-0.393,1.197-0.994,2.036-1.003c0.469,0.173,0.825,0.412,0.579,0.999c-3.292,3.1-7.333,5.005-11.291,7.032
			C210.708,224.096,209.475,224.506,208.264,223.598z"/>
		<path fill="#D7D7D7" d="M223.129,216.485c-0.229-0.227-0.457-0.454-0.686-0.681c-0.305-1.087,0.975-0.901,1.233-1.536
			c1.965-2.181,4.528-3.822,5.906-6.533c0.053-0.899,0.85-1.195,1.381-1.707c0.76,0.415,0.592,1.026,0.339,1.647
			c-0.613,1.506-1.505,2.829-2.648,3.983C226.928,213.399,225.258,215.205,223.129,216.485z"/>
		<path fill="#717171" d="M229.579,180.374c1.384,1.44,2.158,3.196,2.652,5.099c0.25,0.681-0.064,0.794-0.644,0.64
			c-0.271-1.133-0.749-2.149-1.599-3.11c-0.536,1.085,0.505,2.269-0.728,3.298c-0.46-1.181-0.883-2.211-0.947-3.368
			C229.142,182.282,229.01,181.154,229.579,180.374z"/>
		<path fill="#383838" d="M216.011,168.778c0.411,0.376,0.225,0.786,0.066,1.193c-1.275-0.342-2.551-0.684-3.826-1.027
			c-0.493,0.18-0.976,0.248-1.425-0.115c-0.847-0.423-1.694-0.847-2.54-1.27c0.409-0.367,0.878-0.598,1.43-0.648
			c0.901,0.632,2.066-0.139,2.955,0.556c0.276,0.015,0.552,0.031,0.827,0.046C214.195,168.218,215.2,168.304,216.011,168.778z"/>
		<path fill="#404040" d="M180.676,171.349c0.197-0.001,0.393,0.004,0.589,0.016c1.159,3.297,3.517,5.005,6.97,5.264
			c0.061,1.248-0.739,0.759-1.343,0.665C183.077,176.682,181.591,175.261,180.676,171.349z"/>
		<path fill="#9D9D9D" d="M231.587,186.113c0.215-0.213,0.429-0.427,0.644-0.64c1.258,2.236,1.543,4.716,1.805,7.202
			c-0.576,0.53,0.07,1.471-0.655,1.95C232.561,191.834,232.607,188.861,231.587,186.113z"/>
		<path fill="#6D6D6D" d="M229.582,207.735c-0.806,3.229-3.487,4.867-5.793,6.823c-0.394,0.269-0.753,0.228-1.076-0.123
			C225.318,212.525,227.328,210.005,229.582,207.735z"/>
		<path fill="#A4A4A4" d="M218.652,218.08c-1.591,1.272-3.46,2.038-5.3,2.838c-0.836,0.364-1.758,0.904-2.653,0.042
			c2.835-0.863,5.42-2.249,7.928-3.797C219.217,217.453,219.225,217.758,218.652,218.08z"/>
		<path fill="#A2A2A2" d="M210.826,168.831c0.475,0.038,0.95,0.076,1.425,0.115c-1.511,1.44-3.023,2.88-4.534,4.32
			C208.146,171.337,209.902,170.382,210.826,168.831z"/>
		<path fill="#626262" d="M233.38,194.625c0.168-0.667,0.135-1.402,0.655-1.95c0.164,2.814,0.163,5.616-0.634,8.358l-0.253,0.053
			l-0.258-0.018C232.977,198.913,233.647,196.804,233.38,194.625z"/>
		<path fill="#7B7B7B" d="M186.892,177.293c0.448-0.222,0.895-0.443,1.343-0.665c1.125-0.011,2.251-0.023,3.377-0.034
			c0.344,0.387,1.047,0.043,1.291,0.633C190.907,177.997,188.905,178.092,186.892,177.293z"/>
		<path fill="#707070" d="M198.462,174.387c1.5-1.099,1.707-2.536,0.559-4.555c2.667,1.826,2.552,2.59-0.158,4.99
			c-0.203,0.053-0.407,0.106-0.61,0.159C198.322,174.784,198.392,174.585,198.462,174.387z"/>
		<path fill="#707070" d="M198.862,174.823c-1.376,1.212-2.911,2.088-4.78,2.258c-0.518-0.256-0.512-0.5,0.017-0.731
			c1.454-0.654,2.908-1.308,4.362-1.963C198.595,174.532,198.729,174.677,198.862,174.823z"/>
		<path fill="#B1B1B1" d="M206.197,174.797c-0.509,1.691-0.994,2.439-2.141,3.107C204.232,176.568,204.793,175.844,206.197,174.797z
			"/>
		<path fill="#8B8B8B" d="M222.713,214.435c0.359,0.041,0.717,0.082,1.076,0.123c-0.449,0.415-0.898,0.831-1.346,1.246
			c-0.623,0.284-1.187,0.733-1.928,0.684C221.049,215.592,221.766,214.89,222.713,214.435z"/>
		<path fill="#808080" d="M210.273,221.288c-0.396,0.836-1.087,1.088-1.956,0.988c-0.471-0.048-0.993,0.014-1.398-0.176
			c-0.389-0.183-0.102-0.398,0.192-0.475C208.179,221.637,209.242,221.614,210.273,221.288z"/>
		<path fill="#282828" d="M194.1,176.35c-0.006,0.244-0.011,0.488-0.017,0.731c-0.393,0.049-0.787,0.097-1.18,0.146
			c-0.431-0.211-0.861-0.422-1.292-0.633C192.441,176.513,193.27,176.431,194.1,176.35z"/>
		<path fill="#8B8B8B" d="M218.652,218.08c-0.008-0.306-0.017-0.611-0.025-0.917c0.567-0.456,1.201-0.731,1.942-0.712
			C220.265,217.388,219.399,217.664,218.652,218.08z"/>
		<path fill="#808080" d="M206.49,220.845c-0.278,0.029-0.556,0.058-0.834,0.086c-0.18-0.632-0.361-1.264-0.541-1.897l-0.051,0.049
			C205.801,219.459,206.274,220.048,206.49,220.845z"/>
		<path fill="#F8F8F8" d="M170.311,216.432c-1.058-1.17-2.115-2.339-3.173-3.509c-4.84-7.435-6.205-15.879-6.936-24.463
			c-0.169-1.983,0.367-4.026,0.866-6.062c0.092,1.064,0.183,2.128,0.275,3.192c-0.349,8.562,0.898,16.721,6.447,23.639
			c4.274,5.329,9.531,9.508,15.649,12.58c0.765,0.384,1.53,0.769,2.295,1.154c0.155,0.164,0.205,0.326,0.15,0.486
			c-0.055,0.159-0.109,0.239-0.162,0.239c-0.593-0.068-1.186-0.137-1.778-0.205c-1.543-1.233-3.316-1.968-5.225-2.408
			c-1.187,0.633-2.187,0.19-3.23-0.448C173.572,219.453,172.019,217.851,170.311,216.432z"/>
		<path fill="#676767" d="M200.527,223.49c1.727-0.822,3.447-0.757,5.159,0.049c0.143,0.099,0.208,0.215,0.197,0.348
			c-0.013,0.141-0.038,0.212-0.076,0.212c-0.809,0.483-1.683,0.746-2.625,0.78c-2.237,0.972-4.731,0.372-7,1.148
			c-2.005-0.312-4.043-0.44-5.987-1.089c0.817-0.915,1.858-0.167,2.677-0.396c-0.61-0.306-1.821,0.623-2.063-0.849
			c2.212-0.017,4.423-0.034,6.635-0.052C198.487,223.929,199.532,224.228,200.527,223.49z"/>
		<path fill="#DADADA" d="M190.807,223.693c1.397,0.698,2.966,0.235,4.442,1.007c-1.685,0.079-3.371,0.159-5.056,0.238
			c-1.51-0.35-3.065-0.535-4.472-1.252c0.004-0.242,0.009-0.483,0.013-0.725C187.421,223.238,189.065,223.806,190.807,223.693z"/>
		<path fill="#D3D3D3" d="M196.181,226.027c2.199-1.204,4.531-1.593,7-1.148c-0.63,0.968-1.547,1.285-2.664,1.241
			C199.073,226.062,197.626,226.056,196.181,226.027z"/>
		<path fill="#CDCDCD" d="M205.806,224.099c-0.008-0.194-0.048-0.38-0.121-0.56c0.891-0.983,1.775-0.493,2.659,0.013
			C207.939,225.205,207.765,225.243,205.806,224.099z"/>
		<path fill="#D4D4D4" d="M200.527,223.49c-0.98,1.043-2.019,0.865-3.085,0.151C198.47,223.591,199.499,223.541,200.527,223.49z"/>
		<path fill="#BABABA" d="M216.011,168.778c-1.047-0.005-2.051-0.094-2.512-1.264C214.561,167.49,215.379,167.948,216.011,168.778z"
			/>
		<path fill="#A5A5A5" d="M212.671,167.469c-1.004-0.088-2.092,0.276-2.955-0.556C210.734,166.923,211.813,166.61,212.671,167.469z"
			/>
		<path fill="#F1F1F1" d="M153.392,131.275c-1.399,2.104-3.756,2.114-5.851,2.514c-2.097,0.4-3.821,1.001-4.668,3.201
			c-0.237,0.617-1.027,1.021-1.564,1.522c-0.398,0.137-0.801,0.261-1.193,0.415c-1.253,0.491-1.63-0.106-1.293-1.188
			c0.279-0.897,0.664-1.844,1.266-2.542c2.473-2.871,5.56-4.903,9.193-5.978C151.213,128.647,152.688,129.503,153.392,131.275z"/>
		<path fill="#EEEEEE" d="M138.022,135.484c-0.418,1.643-0.755,2.739-0.962,3.858c-0.133,0.725-0.529,1.086-1.157,1.328
			c-0.502,0.193-1.019,0.399-1.437-0.083c-0.3-0.346-0.196-0.781-0.003-1.172C135.215,137.892,136.158,136.54,138.022,135.484z"/>
		<path fill="#FDFDFD" d="M141.245,138.443c1.175-0.281,1.98-0.02,2.009,1.374c-1.073-0.339-2.025,0.342-3.061,0.417
			C140.088,139.322,141.264,139.243,141.245,138.443z"/>
		<path fill="#D8D8D8" d="M145.17,136.549c0.283,0.027,0.701,0.038,0.655,0.37c-0.062,0.451-0.557,0.543-0.948,0.601
			c-0.14,0.021-0.43-0.162-0.452-0.287C144.324,136.666,144.765,136.611,145.17,136.549z"/>
		<path fill="#F1F1F1" d="M149.062,134.883c-0.096,0.442-0.471,0.615-0.809,0.818c-0.237,0.143-0.446,0.075-0.489-0.197
			c-0.053-0.331,0.127-0.594,0.429-0.717C148.483,134.668,148.799,134.601,149.062,134.883z"/>
	</g>
	<path fill="#151515" d="M474.745,226.323c-14.004,8.179-28.127,6.21-42.278,0.464c-2.66-1.08-4.424-3.203-5.31-5.813
		c-0.972-2.86-2.657-5.032-4.994-6.808c-0.334-0.186-0.453-0.385-0.36-0.597c0.096-0.219,0.197-0.329,0.302-0.329
		c0.37-0.313,0.945-0.556,1.078-0.949c2.114-6.239,7-9.135,12.903-10.872c4.031-1.186,8.094-2.162,12.268-2.742
		c1.725-0.24,3.772,0.258,5.087-1.497c-0.322-0.96,0.181-1.5,0.963-1.899c6.988-0.585,13.751,0.561,20.345,2.788
		c5.03,1.699,8.843,4.787,10.679,9.953c0.043,0.536-0.032,1.055-0.225,1.558c1.466,0.94,2.879-0.4,4.385-0.072
		c2.278,0.496,4.145,1.292,4.674,3.853c0.507,2.452-0.928,3.761-2.805,4.754c-1.322,0.699-2.652,1.461-4.23,1.452
		c-0.419,0.235-0.853,0.257-1.3,0.094c-0.733-0.926-0.267-1.719,0.166-2.617c0.641-1.329-0.497-1.094-1.227-1.175
		c-0.685,0.033-1.349,0.076-2.016,0.137c-3.971,0.595-6.764,3.563-10.301,5.12c-11.181,4.919-22.669,4.226-34.64,3.015
		c10.257,3.608,20.226,4.234,30.324,0.682c1.838-0.646,3.687-1.957,5.759-0.549C474.624,224.818,475.014,225.451,474.745,226.323z"
		/>
	<path fill="#101010" d="M300.474,340.248c-1.422,0.322-1.019,1.483-1.112,2.417c-0.469,4.674-2.15,8.639-5.808,11.873
		c-6.546,5.788-14.517,8.459-22.651,10.681c-3.61,0.986-7.368-0.056-10.983-0.97c-0.342-0.796-0.054-1.443,0.474-2.033
		c4.913-2.337,10.496-1.134,15.577-3.13c5.526-2.171,10.716-4.664,15.129-8.679c1.58-1.438,2.729-2.949,2.06-5.225
		c-0.065-0.46-0.051-0.919,0.036-1.374c0.224-0.626,0.601-1.161,1.02-1.67c-0.305,0.314-0.564,0.667-0.8,1.032
		c-0.847,1.312-1.824,2.364-3.611,1.937c-0.721-0.253-1.261-0.717-1.642-1.371c-1.367-3.231,2.085-5.12,2.251-8.14
		c-1.373-1.437-3.18,0.549-4.623-0.366c-0.709-0.239-1.283-0.666-1.743-1.239c-2.418-2.477-3.036,0.682-4.288,1.477
		c-2.112,1.34-2.454,5.032-6.001,4.555c-0.733-0.235-1.279-0.695-1.654-1.36c-0.634-1.634-0.139-2.919,1.176-3.901
		c-1.618,0.473-3.029,2.066-5.047,1.259c-0.952-0.418-1.495-1.187-1.855-2.108c-0.759-1.673-2.383-1.193-3.696-1.467
		c-0.694-0.155-1.317-0.483-1.936-0.817c-2.537-1.845-3.839-0.191-4.919,1.807c-1.446,2.674-3.142,4.999-6.434,5.501
		c-0.757-0.166-1.346-0.575-1.789-1.203c-0.518-0.657-0.336-2.164-1.011-2.13c-2.539,0.13-4.814,5.276-3.803,8.253
		c0.913,0.663,1.924,1.095,3.035,1.312c1.493,0.079,2.964,0.23,4.326,0.92c0.43,0.333,0.785,0.726,1.074,1.186
		c0.815,0.899,0.863,1.982,0.764,3.1c-0.727,1.951-1.816,3.368-4.214,2.843c-0.11-2.268-1.798-2.953-3.557-3.654
		c-3.444-1.373-6.755-2.968-8.875-6.239c-0.513-1.223,0.453-1.683,1.172-2.271c1.666-4.962,5.546-7.928,9.856-10.209
		c5.646-2.987,11.669-4.959,18.188-5.058c2.318-0.035,4.695,0.15,6.922-0.799c2.777,0.464,2.85,0.411,2.555-1.84
		c-0.395-0.376-0.91-0.685-0.771-1.363c0.214-0.712,0.49-1.378,1.253-1.681c7.074,3.82,15.299,4.356,22.499,7.88
		c2.441,1.195,3.543,3.495,5.294,5.253c0.321,0.618,0.724,1.226,0.262,1.949c-0.032,2.029-2.061,3.216-2.194,5.202L300.474,340.248z
		"/>
	<path fill="#FDFDFD" d="M441.498,312.729c-0.685-0.36-1.37-0.72-2.054-1.08c-2.507,3.55-4.534,7.605-9.277,8.802
		c-2.679,1.664-5.756,2.144-8.725,2.951c-8.136,1.896-15.823,0.656-23.087-3.353c-1.804-0.996-4.021-1.766-3.586-4.565
		c0.437-0.648,0.873-1.297,1.31-1.945c0.508-0.729,1.227-1.096,2.089-1.216c12.375,1.631,24.252-0.084,36.073-4.169
		c5.054-1.746,10.462-3.624,16.131-2.971c1.762,1.785,0.522,2.902-0.877,4.006C447.129,311.055,444.64,312.626,441.498,312.729z"/>
	<path fill="#FCFCFC" d="M64.902,232.503c1.546,0.078,3.092,0.156,4.638,0.235c0.064,0.66-0.16,1.201-0.67,1.623
		c-6.021,1.579-12.154,0.394-18.222,0.733c-2.567-0.2-5.071-0.747-7.537-1.471c-0.973-2.216-4.891-0.541-4.971-3.254
		c-0.09-3.056,2.818-4.665,4.739-6.656c0.802-0.831,1.894-1.342,2.79-2.078c2.628-1.18,5.191-2.467,7.154-4.674
		c1.573-1.193,3.67-0.715,5.318-1.67l-0.187,0.089c1.199-0.74,2.66-1.095,3.23,0.392c0.547,1.426-1.14,2.068-2.034,2.911
		c-2.791,1.89-5.221,4.198-7.519,6.655c2.207-2.315,4.468-4.568,7.11-6.397c2.39-1.426,4.131-3.839,6.97-4.58
		c0.665-0.118-0.17,0.011,0.498-0.09c1.761-0.267,4.091-1.516,5.066,0.417c1.021,2.024-1.484,3.148-2.794,4.241
		c-2.58,2.152-4.73,4.834-7.272,6.041c3.743-2.305,7.116-6.035,10.924-9.244c1.672-1.409,3.06-2.591,5.263-1.374l-0.125-0.072
		c0.704,0.572,1.621,1.002,1.449,2.162c-2.241,3.008-5.601,4.752-8.247,7.302c-1.901,1.792-3.709,3.677-5.538,5.541
		C63.906,230.338,63.328,231.415,64.902,232.503z"/>
	<path fill="#0E0E0E" d="M170.399,319.943c-3.122-0.882-6.084,0.912-9.325,0.441c-1.909-0.278-4.032,1.666-4.354,4.204
		c-1.072,8.449-7.319,10.874-14.339,12.535c-3.816,0.903-7.605,0.977-11.517,0.802c-8.193-0.367-13.399-4.704-16.817-11.707
		c-0.745-1.527-1.193-3.188-3.11-3.673c-0.666-0.974,0.531-1.335,0.673-2.043c-0.072-2.292,0.925-3.933,2.999-4.917
		c0.751-0.351,1.4-0.142,2,0.355c1.226,1.1,0.813,3.075,2.199,4.091c0.504,0.423,1.003,0.853,1.496,1.29
		c1.001,1.285,2.447,0.767,3.72,0.915c1.248,0.219,2.43,0.736,3.702,0.881c1.547,0.071,2.854-1.202,4.459-0.793
		c0.693,0.101,1.342,0.335,1.974,0.626c2.092,1.679,4.059-0.685,6.115-0.19c1.053,0.319,1.335,1.388,2.017,2.07
		c3.547,0.358,6.544-0.445,8.276-3.919c1.408-0.652,1.496,1.64,2.787,1.249c2.397-1.444,4.698-3,6.441-5.251
		c1.173-1.515,2.465-2.826,4.658-2.248c1.102-0.323,1.386,0.164,1.15,1.164c-0.372,0.722-1.31,1.103-1.22,2.503
		c2.512,0.395,5.599-1.17,7.753,1.356C171.622,320.187,171.042,320.274,170.399,319.943z"/>
	<path fill="#F9F9F9" d="M301.375,333.957c-0.698-0.789-1.302,3.101-2.099,0.019c-0.547-2.118-2.14-3.325-4.113-4.088
		c-4.386-1.695-8.782-3.569-13.489-3.883c-3.045-0.203-5.052-1.157-6.22-3.962c-0.238-0.572-0.858-0.985-1.302-1.471
		c-1.022-1.615-3.929-2.699-3.004-4.696c1.045-2.257,3.932-0.826,5.991-1.158c0.7,0.015,1.4,0.031,2.1,0.046
		c6.008,2.096,12.241,3.593,17.791,6.891C302.686,325.018,304.113,328.962,301.375,333.957z"/>
	<path fill="#151515" d="M397.764,313.567c-0.562-0.009-1.124-0.018-1.686-0.027c-3.123-1.354-6.246-2.708-9.369-4.062
		c-0.736-1.002,0.67-1.906,0.134-2.899c-2.031-5.608-1.757-6.678,2.776-10.201c5.496-4.271,11.75-6.825,18.563-8.077
		c0.975-0.179,2.006-0.169,2.765-0.959c0.521-0.771,1.241-1.286,2.099-1.621c6.666-1.913,12.967-0.292,19.158,2.069
		c1.743,0.664,3.263,1.77,3.835,3.738c0.156,0.88-0.013,1.684-0.578,2.385c-0.913,0.898-2.159,1.444-3.193,0.726
		c-3.684-2.558-5.811-0.305-8.065,2.219c-1.791,2.005-3.497,4.101-5.538,5.878c-1.437,1.252-2.861,2.451-4.943,1.42
		c-0.404-0.295-0.717-0.674-0.948-1.117c-1.315-3.279,2.682-3.84,3.137-6.185c0.066-0.337,1.185-1.105-0.121-1.255
		c-0.379-0.044-0.877,0.413-1.368,0.538c-1.461,0.565-2.913,0.926-4.299-0.166c-2.661-2.726-3.995,0.016-5.593,1.415
		c-1.887,1.652-2.749,4.771-6.159,4.217c-0.731-0.213-1.306-0.639-1.745-1.251c-1.92-3.738-3.349-1.079-4.511,0.505
		c-1.204,1.642-1.057,3.438,0.649,4.859c0.346,0.298,0.677,0.608,1.003,0.926c1.256,2.156,3.947,3.144,4.671,5.734
		C398.326,312.839,398.107,313.238,397.764,313.567z"/>
	<path fill="#383838" d="M261.186,363.17c-0.423,0.359-0.845,0.719-1.268,1.079c-6.114-1.404-10.636-4.562-12.148-11.033
		c0.975-0.962,1.95-1.923,2.924-2.885c1.429-2.576,3.354-1.404,5.459-0.998c7.333,1.414,14.691,1.979,21.906-0.819
		c2.544-0.987,4.834-2.326,6.757-4.258c1.262-1.268,2.578-2.185,4.425-1.172c0.298,0.33,0.597,0.66,0.895,0.99
		c1.247,1.246,2.385-1.277,3.63-0.105c0.595,0.104,1.189,0.208,1.784,0.312c-1.665,5.42-6.277,7.469-10.938,9.244
		c-7.652,2.914-15.642,3.719-23.793,3.205c-1.454-0.092-2.962-0.526-4.494,0.058C256.721,360.007,261.871,359.361,261.186,363.17z"
		/>
	<path fill="#111111" d="M397.764,313.567c0.009-0.323,0.017-0.647,0.023-0.97c0.414-0.614,0.946-1.074,1.673-1.276
		c2.115-0.159,4.174-1.034,6.344-0.508c0.89,0.266,1.786,0.517,2.685,0.752c2.544,1.23,4.158-1.72,6.488-1.463
		c0.901,0.115,1.769,0.405,2.665,0.554c4.501-0.195,7.714-3.636,11.866-4.71c0.935,0.046,1.869,0.059,2.802-0.056
		c2.976,0.289,4.848-1.473,6.566-3.528c1.082-0.702,2.271-1.094,3.54-1.27c0.784-0.052,1.566-0.098,2.306,0.251
		c1.528,0.492,0.687,2.497,1.998,3.127c1.6-0.443,3.196-0.774,4.742,0.182c0.161,1.08-0.292,1.472-1.341,1.2
		c-2.713,0.222-5.323,0.723-7.441,2.637c-0.366,0.33-0.863,0.876-1.21,0.814c-7.392-1.317-13.376,3.531-20.255,4.599
		C413.314,315.128,405.557,315.573,397.764,313.567z"/>
	<path fill="#606060" d="M454.459,196.118c-0.34,0.354-0.68,0.707-1.02,1.061c-2.646-5.243-4.966-10.625-8.94-15.156
		c-1.972-2.249-3.562-3.897-6.984-2.068c1.803-2.094,2.441-3.655-0.265-4.913c-0.871-0.405-1.509-1.31-2.254-1.986
		c0.143-0.17,0.286-0.34,0.428-0.51c4.711,3.75,9.744,4.788,15.826,3.457c4.654-1.019,9.677-0.482,14.443,0.772
		c0.34,0.38,0.476,0.819,0.382,1.323c-0.94,2.088-2.908,1.98-4.707,2.122c-2.329,0.183-4.676-0.021-7.005,0.139
		c-3.871,0.265-4.434,1.247-2.391,4.679c1.292,2.172,2.184,4.493,3.242,6.754C455.971,193.404,456.41,194.973,454.459,196.118z"/>
	<path fill="#F9F9F9" d="M44.094,219.346c0.904-0.175,1.809-0.351,2.713-0.526c0.656-0.93,1.618-1.368,2.126-0.158
		c0.739,1.763-0.889,2.417-2.045,3.189c-3.254,2.526-6.95,4.644-9.104,8.291c-1.334,2.259-3.426,0.327-4.87,1.349
		c-1.869-0.264-3.656-0.774-5.289-1.751C31.634,223.928,37.821,221.57,44.094,219.346z"/>
	<path fill="#252525" d="M127.368,325.655c-1.462,0.044-2.361-0.959-3.346-1.8c-1.833-2.07-0.253-3.76,0.911-5.108
		c2.51-2.908,4.353-6.37,7.343-8.869c0.754-0.574,1.32-1.321,1.863-2.086c6.408-1.815,12.826-2.058,19.256-0.11
		c-0.114,0.215-0.227,0.43-0.341,0.646c-2.395,1.072-4.574,2.396-6.392,4.378c-1.182,1.289-2.553,2.661-4.672,2.179
		c-0.756-0.184-1.379-0.585-1.881-1.164c-1.286-1.869-2.4-1.098-3.561,0.19C133.214,317.612,129.86,321.295,127.368,325.655z"/>
	<path fill="#494949" d="M465.72,177.718c-0.016-0.314-0.024-0.628-0.025-0.942c5.129-0.417,9.886,1.081,14.675,2.654
		c3.444,1.131,5.709,3.346,7.28,6.46c0.302,0.597,0.504,1.253,0.859,1.814c5.209,8.224,4.492,13.424-3.307,21.877
		c-0.115-0.584-0.23-1.168-0.345-1.752c-1.405-1.567-0.678-3.006,0.086-4.606c4.465-9.357,0.409-18.242-9.61-21.262
		c-1.935-0.583-3.98-0.699-5.876-1.422C467.943,179.961,466.024,179.903,465.72,177.718z"/>
	<path fill="#131313" d="M277.138,314.718c-1.53,1.882-3.928-0.394-5.568,1.371c0.097,1.778,2.167,2.683,2.581,4.483
		c-0.297,0.403-0.594,0.807-0.891,1.21c-1.741-4.75-4.777-7.095-10.198-7.032c-7.07,0.082-14.001,0.675-21.275,2.511
		c0.374-1.727,1.486-2.222,2.716-2.598c3.103-0.949,6.304-0.986,9.507-1.037c3.029-0.049,6.058-0.19,9.086-0.176
		c1.368,0.006,1.67-0.792,1.847-1.844l-0.088,0.093c1.94,1.384,4.015,2.08,6.485,1.997
		C273.28,313.63,275.411,313.257,277.138,314.718z"/>
	<path fill="#2E2E2E" d="M134.139,307.792c0.504,0.975,0.724,1.933-0.16,2.829c-5.487,0.735-6.571,6.044-9.668,9.268
		c-1.461,1.52-2.308,4.254-5.35,3.055c-0.31-0.365-0.62-0.73-0.93-1.095c-1.999-2.966,0.747-4.073,1.917-5.489
		c-1.105,0.68-2.465,2.135-4.13,0.213c-0.403-0.329-0.806-0.659-1.209-0.988C120.292,310.912,127.074,308.996,134.139,307.792z"/>
	<path fill="#5B5B5B" d="M413.158,287.172c-0.737,0.057-1.474,0.113-2.211,0.17c-0.228-0.629-0.415-1.276-0.689-1.884
		c-3.814-8.471-5.435-9.193-14.228-6.89c-3.288,0.861-6.36,2.625-9.939,2.31c7.522-3.682,15.34-6.138,23.885-5.567
		c0.324,0.337,0.623,0.695,0.898,1.074c0.506,1.943,0.969,3.889,2.083,5.629C414.005,283.653,414.472,285.399,413.158,287.172z"/>
	<path fill="#505050" d="M422.104,213.24c0.081,0.305,0.1,0.614,0.058,0.926c-0.73-0.389-1.531-0.686-2.18-1.182
		c-6.703-5.119-7.699-8.838-3.916-16.341c2.651-5.258,5.843-10.169,12.12-11.799c0.311,0.238,0.402,0.454,0.272,0.65
		c-0.122,0.185-0.242,0.278-0.36,0.278c-4.888,3.424-8.839,7.417-11.061,13.284c-1.589,4.197-1.41,7.414,1.623,10.563
		C419.815,210.818,420.956,212.032,422.104,213.24z"/>
	<path fill="#363636" d="M446.72,304.47c-0.854-0.693-1.708-1.386-2.562-2.079c-0.608-1.913,0.152-3.599,0.878-5.289
		c3.046-7.094,2.033-10.412-4.356-14.839c-1.84-1.275-5.071-1.899-3.192-5.429c0.483,0.056,0.959,0.145,1.431,0.263
		c4.726,1.256,8.217,4.417,11.006,8.095c2.721,3.589,2.392,7.739,0.478,11.852C449.236,299.554,446.948,301.507,446.72,304.47z"/>
	<path fill="#5C5C5C" d="M77.397,214.354c-0.815,0.114-1.951-0.077-2.396,0.391c-4.315,4.529-9.858,7.557-14.338,11.891
		c-1.518,1.469-2.8,3.199-4.629,4.399c0.822-3.973,4.166-5.918,6.827-8.354c2.678-2.452,5.667-4.581,7.888-7.63
		c-1.901-1.174-3.285-0.217-4.714,0.096c-1.407-0.134-3.101,0.973-4.093-0.949C67.105,213.013,72.262,212.593,77.397,214.354z"/>
	<path fill="#292929" d="M394.768,315.485c3.618,5.016,9.278,6.176,14.718,7.538c4.1,1.026,8.294,0.187,12.427-0.372
		c1.103-0.398,1.338,0.115,1.14,1.084c-5.177,1.963-10.789,2.177-15.808,0.886c-5.607-1.442-11.648-3.291-15.089-8.915
		c-0.348-0.569-0.718-1.135-0.237-1.82C393.396,313.473,393.732,315.106,394.768,315.485z"/>
	<path fill="#737373" d="M64.104,195.12c10.314-0.961,20.371-0.048,30.045,3.943c5.373,2.217,9.41,5.708,11.39,11.307
		c-0.294,0.399-0.274,1.084-0.997,1.09c-3.02-7.879-9.605-11.036-17.094-13.272c-7.682-2.294-15.517-2.209-23.376-2.239
		c-0.411-0.2-0.542-0.389-0.397-0.569C63.815,195.207,63.957,195.12,64.104,195.12z"/>
	<path fill="#353535" d="M301.375,333.957c1.175-6.553,0.461-8.502-5.023-11.69c-4.062-2.361-8.422-4.132-13.022-5.237
		c-1.566-0.376-3.472-0.168-4.092-2.266c6.95,0.646,13.281,3.097,19.105,6.823c5.708,3.652,6.663,7.001,4.225,13.596
		C302.171,334.774,301.773,334.366,301.375,333.957z"/>
	<path fill="#4D4D4D" d="M82.397,235.627c-3.665,5.459-8.744,8.603-15.313,9.153c-4.758,0.398-9.522,2.025-14.303,0.113
		c-0.037-0.859,0.17-1.639,0.733-2.305c0.75-0.75,1.732-1.149,2.721-1.083c9.222,0.616,17.249-2.752,24.92-7.359
		C82.004,234.274,82.718,234.517,82.397,235.627z"/>
	<path fill="#464646" d="M165.606,315.823c-0.383-0.388-0.766-0.776-1.15-1.164c6.644-4.133,4.396-11.438-0.563-15.149
		c-2.414-1.806-4.568-4.032-7.462-5.157c-0.338-0.445-0.304-0.877,0.049-1.296c5.327,1.767,9.259,5.433,12.335,9.868
		C171.778,307.199,171.175,312.405,165.606,315.823z"/>
	<path fill="#414141" d="M300.374,340.384c3.522-1.688,7.152-2.843,11.143-2.46c3.174,0.304,4.464,1.753,4.209,4.879
		c-0.277,3.395-2.355,5.343-6.85,6.174c1.051-1.761,3.024-2.24,3.925-3.817c0.894-1.565,1.362-3.167,0.433-4.742
		c-0.93-1.575-2.512-1.293-4.047-0.919c-2.262,0.551-4.666,0.507-6.743,1.824c-1.141,0.723-1.87,0.289-1.97-1.08
		C300.474,340.248,300.374,340.384,300.374,340.384z"/>
	<path fill="#545454" d="M264.946,311.605c-5.345-3.136-5.807-8.853-0.894-12.455c1.746-1.28,3.728-2.277,5.694-3.212
		c2.018-0.96,2.5-2.005,0.843-3.755c-0.624-0.659-1.578-1.26-1.25-2.804c2.366,0.66,3.421,2.507,4.367,4.383
		c0.564,1.117-0.149,1.97-1.071,2.487c-1.462,0.819-2.97,1.568-4.505,2.241c-6.116,2.683-7.188,5.701-4.022,11.404
		c0.314,0.566,0.504,1.201,0.751,1.802C264.857,311.698,264.946,311.605,264.946,311.605z"/>
	<path fill="#484848" d="M386.843,306.579c1.601,1.042,0.876,1.977-0.134,2.899c-7.931-3.969-10.512-14.241-5.373-21.381
		c0.978-0.119,1.512,0.187,1.222,1.279c-2.628,5.136-2.403,10.281,0.242,15.28C383.541,306.058,384.461,308.148,386.843,306.579z"/>
	<path fill="#2C2C2C" d="M104.486,319.177c-3.606-1.946-7.186-4.327-7.082-8.79c0.102-4.363,4.152-6.021,7.448-7.906
		c0.859-0.491,1.82-0.802,2.735-1.195c1.068-0.21,1.394,0.266,1.161,1.257c-2.123,1.617-4.879,2.146-6.762,4.257
		c-3.247,3.639-3.235,6.194,0.387,9.448c0.868,0.78,1.789,1.502,2.686,2.251C105.433,319.202,105.242,319.428,104.486,319.177z"/>
	<path fill="#222222" d="M83.391,229.536c-0.108-1.046,0.106-2.567,1.147-2.304c3.184,0.804,4.423-1.177,5.812-3.273
		c0.443-0.668,1.097-1.248,1.773-1.686c0.306-0.199,0.978-0.09,1.344,0.122c0.447,0.259,0.536,0.87,0.196,1.292
		c-0.512,0.636-1.418,1.09-1.651,1.79c-0.505,1.516,0.909,0.686,1.444,0.959c1.238-0.686,1.603,0.336,2.111,1.079l0.028-0.021
		c0.194,0.954-0.015,1.495-1.133,1.107c-3.744-0.441-6.576,2.336-10.051,2.848C83.581,231.072,83.952,230.055,83.391,229.536z"/>
	<path fill="#474747" d="M236.512,341.052c-0.391,0.757-0.781,1.514-1.172,2.271c-3.187-2.991-4.813-6.775-5.409-11.013
		c-0.75-5.334,1.862-8.365,7.716-9.134C230.152,330.227,229.798,335.805,236.512,341.052z"/>
	<path fill="#4A4A4A" d="M32.914,231.49c2.528-0.799,4.316-2.505,6.127-4.403c2.026-2.123,4.555-3.768,6.865-5.62
		c0.559,0.253,1.22,0.396,1.271,1.191c-2.805,2.531-6.542,4.1-8.231,7.797c0.894,1.681,2.986,0.718,3.923,2.029
		c0.327,0.382,0.588,0.805,0.783,1.269c0.119,0.788-0.069,1.478-0.656,2.039c-1.212,0.334-1.843-0.398-2.383-1.298
		c0.396-0.973,0.067-1.561-0.955-1.753C37.412,232.318,35.163,231.906,32.914,231.49z"/>
	<path fill="#313131" d="M142.294,324.829c-0.661-0.319-1.323-0.638-1.984-0.956c-1.98-2.577-0.064-4.346,1.426-6.005
		c3.488-3.885,7.1-7.665,11.698-10.305c0,0-0.039,0.12-0.039,0.12c1.334,0.019,2.667,0.038,4.001,0.057
		c0.381,0.18,0.511,0.367,0.392,0.562c-0.12,0.198-0.242,0.298-0.367,0.298c-5.88,3.763-10.236,9.099-14.699,14.315
		C142.347,323.354,142.426,324.182,142.294,324.829z"/>
	<path fill="#272727" d="M438.92,277.097c-0.631,0.085-1.262,0.171-1.893,0.256c-1.06,1.707-2.671,1.683-4.413,1.515
		c-6.132-0.59-12.242-1.716-18.446-0.651c-1.763,0.303-3.298-0.315-4.235-1.989c0.025-0.306,0.038-0.612,0.041-0.918
		c8.973-1.878,17.912-2.183,26.767,0.64C437.511,276.196,438.196,276.708,438.92,277.097z"/>
	<path fill="#393939" d="M44.094,219.346c-0.485,1.33-1.825,1.433-2.857,1.779c-4.242,1.423-7.835,3.8-10.711,7.176
		c-0.847,0.994-1.59,1.641-2.901,1.437c-0.624-0.46-1.248-0.92-1.872-1.38c-0.366-0.096-0.506-0.233-0.423-0.411
		c0.092-0.198,0.189-0.298,0.294-0.298c2.588-0.483,4.247-2.572,6.444-3.738C35.889,221.882,39.536,219.425,44.094,219.346z"/>
	<path fill="#424242" d="M95.566,227.514c-0.704-0.36-1.407-0.719-2.111-1.079c1.14-0.671,2.244-1.413,3.426-1.999
		c2.285-1.133,1.312-2.574,0.473-4.033c0.367-0.475,0.807-0.556,1.319-0.242c2.132,0.47,3.491-0.276,4.354-2.358
		c0.853-2.056,1.382-4.139,1.514-6.343c0.332-0.363,0.665-0.726,0.997-1.09c1.253,5.882-1.566,10.064-5.698,13.715
		C98.469,225.298,96.444,225.692,95.566,227.514z"/>
	<path fill="#303030" d="M122.945,293.313c-5.359,1.727-11.203,1.781-16.213,4.745c-0.772,0.457-1.76,0.136-2.145-0.688
		c-0.495-1.057,0.435-1.498,1.225-1.678c5.669-1.294,11.229-3.131,17.09-3.489c0.253,0.237,0.344,0.481,0.272,0.731
		C123.102,293.186,123.025,293.313,122.945,293.313z"/>
	<path fill="#434343" d="M87.519,218.182c-4.236,5.085-10.189,6.793-13.005,12.711c-0.19-3.87-0.209-3.893,4.512-7.845
		C81.258,221.179,83.177,218.768,87.519,218.182z"/>
	<path fill="#4A4A4A" d="M474.745,226.323c-0.337-0.297-0.674-0.595-1.01-0.892c-0.753-1.482-0.167-2.651,1.024-3.486
		c3.049-2.138,5.233-5.182,8.063-7.542c0.677-0.037,1.354-0.075,2.031-0.112c2.831,1.197,0.67,3.382,1.004,5.073
		c0.457,0.067,0.914,0.135,1.371,0.202C482.555,220.875,478.863,223.992,474.745,226.323z"/>
	<path fill="#5B5B5B" d="M156.481,293.057c-0.016,0.432-0.033,0.864-0.049,1.296c-6.309-1.408-12.583-3.221-19.149-1.661
		c0.291-1.516,0.291-1.516,3.851-2.141C146.407,290.418,151.592,290.833,156.481,293.057z"/>
	<path fill="#3C3C3C" d="M141.133,290.552c-1.201,0.862-3.002,0.644-3.851,2.14c0.104,0.263,0.229,0.515,0.377,0.756
		c-0.479,0.383-0.927,0.349-1.342-0.102c-1.775-1.887-4.022-0.989-6.06-0.9c-2.445,0.107-4.876,0.562-7.312,0.867
		c-0.014-0.37-0.029-0.74-0.043-1.11c1.769-1.184,3.88-0.612,5.761-1.123c1.824-0.495,4.025,0.136,5.428-1.7
		c-0.305-0.259-0.405-0.515-0.299-0.77c0.105-0.253,0.208-0.38,0.312-0.38C135.676,291.338,138.742,289.924,141.133,290.552z"/>
	<path fill="#5F5F5F" d="M446.484,143.285c-3.288-1.603-5.457-4.422-7.498-7.263c-1.585-2.206-2.645-4.727-0.129-7.914
		c0.677,2.726,0.201,5.341,1.812,7.263c1.506,1.797,3.032,3.577,4.58,5.337c0.678,0.771,1.346,1.514,1.146,2.65L446.484,143.285z"/>
	<path fill="#585858" d="M391.849,261.144c-1.526,2.584-0.655,4.246,1.78,5.78c2.559,1.613,5.808,2.424,7.177,5.695
		c-2.801-1.797-5.832-3.128-8.65-4.827c-4.376-2.637-4.429-4.213-0.504-8.018C392.157,260.167,392.223,260.623,391.849,261.144z"/>
	<path fill="#303030" d="M40.613,234.493c0.698,0.384,1.397,0.769,2.095,1.153c4.264,2.041,8.906,3.564,11.267,8.216
		c-0.398,0.344-0.796,0.687-1.194,1.031c-5.782-0.507-9.439-4.01-12.251-8.698C40.188,235.624,39.82,235.022,40.613,234.493z"/>
	<path fill="#939393" d="M400.09,250.653c4.131-3.664,5.372-8.207,3.576-14.557C407.887,241.487,406.144,247.217,400.09,250.653z"/>
	<path fill="#707070" d="M52.941,198.321c-1.298-1.053-2.673-0.989-4.275-0.672c-3.934,0.778-7.729,2.031-12.144,3.652
		c3.178-3.475,11.64-5.864,17.473-5.38c0.26,0.262,0.355,0.531,0.284,0.808c-0.072,0.28-0.148,0.42-0.23,0.42l0.035-0.023
		C53.731,197.551,53.573,198.163,52.941,198.321z"/>
	<path fill="#2B2B2B" d="M153.357,322.159c-1.565,1.002-2.069-0.363-2.787-1.249c1.974-3.485,4.486-6.511,7.493-9.303
		c1.208,1.574,0.2,2.448-0.47,3.278c-1.473,1.826-3.038,3.577-4.573,5.353C152.339,321.027,152.308,321.683,153.357,322.159z"/>
	<path fill="#565656" d="M129.1,273.133c-0.416-1.711,0.475-2.969,1.63-3.954c3.408-2.905,7.458-3.955,12.755-4.356
		c-2.578,2.402-5.079,2.314-7.183,3.163c-2.667,1.075-5.348,2.021-6.491,5.021C129.639,273.419,129.402,273.461,129.1,273.133z"/>
	<path fill="#1E1E1E" d="M47.177,222.657c-0.424-0.397-0.847-0.794-1.271-1.191c0.595-0.548,1.22-1.067,1.77-1.656
		c0.254-0.271,0.92-0.561,0.466-0.997c-0.231-0.222-0.877-0.01-1.336,0.006c1.564-2.107,3.99-1.949,6.2-2.361
		c0.267,0.211,0.353,0.419,0.259,0.624c-0.093,0.203-0.185,0.305-0.276,0.305C52.419,220.652,49.669,221.512,47.177,222.657z"/>
	<path fill="#414141" d="M450.121,305.852c0.447-0.4,0.894-0.8,1.341-1.2c1.459,0.616,1.413,1.753,0.875,2.906
		c-1.346,2.881-6.971,5.528-10.839,5.171c2.619-0.958,4.907-2.502,7.185-4.063C449.671,307.989,450.417,307.186,450.121,305.852z"/>
	<path fill="#535353" d="M94.461,228.6c0.378-0.369,0.755-0.738,1.133-1.107c0.799,0.576,1.722,1.038,2.377,1.748
		c2.56,2.773,2.203,4.345-1.325,5.884c-1.966,0.858-3.996,1.568-6.173,1.698c-0.288-0.28-0.366-0.536-0.234-0.77
		c0.125-0.222,0.244-0.333,0.356-0.333c1.428-0.435,2.907-0.751,4.276-1.328c3.318-1.399,3.379-2.628,0.37-5.164
		C94.985,229.013,94.721,228.809,94.461,228.6z"/>
	<path fill="#353535" d="M70.171,223.371c2.318-2.766,5.228-4.858,8.038-7.064c1.101-1.043,2.227-2.857,3.201,0.101
		c-3.712,2.81-7.424,5.619-11.137,8.429C69.793,224.38,69.759,223.891,70.171,223.371z"/>
	<path fill="#333333" d="M430.257,319.922c3.076-1.595,5.501-3.839,6.845-7.086c0.474-1.147,1.193-1.516,2.342-1.187
		c-1.136,5.1-4.793,7.834-9.229,9.836C429.817,320.953,429.831,320.432,430.257,319.922z"/>
	<path fill="#1A1A1A" d="M61.94,214.198c1.367,0.307,2.866,0.042,4.093,0.949c-1.756,2.276-4.403,3.158-6.84,4.368
		c-1.003,0.371-1.173-0.142-1.04-0.978c0.212-0.234,0.427-0.464,0.634-0.701c0.579-0.662,1.785-1.087,1.384-2.12
		c-0.134-0.346-1.445-0.236-2.217-0.334C58.936,213.818,60.629,214.651,61.94,214.198z"/>
	<path fill="#6E6E6E" d="M20.539,208.078c-3.469,4.217-3.413,8.78-1.239,13.552C14.772,216.548,15.238,211.805,20.539,208.078z"/>
	<path fill="#474747" d="M170.399,319.943c0.58-0.087,1.16-0.174,1.741-0.261c4.153,4.497,3.033,7.06-4.118,8.773
		c1.26-2.133,4.264-2.556,4.433-5.206C172.552,321.699,171.295,320.916,170.399,319.943z"/>
	<path fill="#666666" d="M430.531,162.588c-2.114,5.16,1.771,7.372,4.894,9.958c-0.135,0.176-0.278,0.346-0.428,0.51
		c-6.241-2.239-7.705-4.87-5.839-10.488C429.622,162.158,430.08,162.164,430.531,162.588z"/>
	<path fill="#6E6E6E" d="M267.02,287.224c-4.772-2.501-4.411-6.729-3.738-11.062C263.655,280.144,265.28,283.703,267.02,287.224z"/>
	<path fill="#636363" d="M70.171,223.371c0.034,0.489,0.068,0.977,0.102,1.466c-1.606,1.683-3.177,3.401-4.833,5.033
		c-0.819,0.808-1.115,1.6-0.537,2.633c-1.359,0.165-3.134,0.434-1.878-1.774C64.744,227.703,67.539,225.586,70.171,223.371z"/>
	<path fill="#ADADAD" d="M145.21,264.712c2.116-1.543,4.206-3.04,5.015-6.398C151.274,262.88,150.235,264.119,145.21,264.712z"/>
	<path fill="#999999" d="M129.1,273.133c0.227-0.096,0.464-0.137,0.711-0.126c-0.301,3.457,0.665,6.712,1.597,9.972
		c0.059,0.3,0.118,0.601,0.177,0.901c-0.29-0.1-0.579-0.199-0.868-0.299C128.779,280.314,127.059,277.015,129.1,273.133z"/>
	<path fill="#3A3A3A" d="M69.204,233.573c0.087-0.288,0.199-0.567,0.336-0.835c2.225-0.097,4.449-0.195,6.674-0.292
		c1.515-0.566,2.488-0.34,2.304,1.578c-2.64,3.335-5.72,3.62-9.173,1.328C68.919,234.788,68.872,234.196,69.204,233.573z"/>
	<path fill="#5E5E5E" d="M157.421,308.6c0.006-0.287-0.002-0.574-0.025-0.86c2.379-0.094,4.121,1.267,5.882,2.578
		c0.873,0.65,0.898,1.425,0.082,2.066c-0.703,0.552-1.698,0.872-1.872-0.44C161.163,309.471,158.597,309.918,157.421,308.6z"/>
	<path fill="#BEBEBE" d="M98.673,220.161c-0.44,0.081-0.879,0.161-1.319,0.242c-2.578-0.378-4.893-1.36-6.95-2.977
		C93.402,217.663,96.015,218.981,98.673,220.161z"/>
	<path fill="#ACACAC" d="M142.134,247.795c-1.586-2.457-2.345-5.086-1.655-8.831c1.069,3.43,1.911,6.13,2.753,8.829
		C142.867,248.388,142.501,248.388,142.134,247.795z"/>
	<path fill="#626262" d="M430.257,319.922c-0.014,0.521-0.029,1.042-0.043,1.563c-2.187,1.386-4.658,1.871-7.161,2.249
		c-0.38-0.361-0.76-0.723-1.14-1.084C424.554,321.312,427.466,320.8,430.257,319.922z"/>
	<path fill="#4A4A4A" d="M68.685,209.036c-3.145,0.51-4.887-1.901-7.123-3.283C64.703,205.25,66.457,207.636,68.685,209.036z"/>
	<path fill="#484848" d="M111.612,320.501c-0.224,0.681-0.449,1.362-0.673,2.043c-2.288-0.859-4.658-1.561-6.452-3.367
		c0.156-0.256,0.347-0.482,0.574-0.678C107.348,318.825,109.094,320.925,111.612,320.501z"/>
	<path fill="#BCBCBC" d="M48.006,189.19c1.101,1.268,2.255,2.479,1.796,4.659C47.823,192.522,47.607,190.939,48.006,189.19z"/>
	<path fill="#999999" d="M52.941,198.321c0.381-0.398,0.762-0.796,1.143-1.194c0.694,2.2,2.987,3.147,4.493,5.912
		C55.73,201.762,54.23,200.18,52.941,198.321z"/>
	<path fill="#2C2C2C" d="M142.271,298.455c1.796,1.008,4.145,1.533,4.101,5.185c-2.58-1.644-4.153-3.427-5.776-5.146
		C141.145,298.09,141.704,298.077,142.271,298.455z"/>
	<path fill="#979797" d="M78.264,233.503c-0.49-0.727-1.29-0.852-2.049-1.057c0.991-0.606,2.027-1.026,3.224-0.806
		c1.144,0.886,3.188-0.135,3.832,1.81c0.055,0.865-0.275,1.576-0.875,2.178c-0.362-0.353-0.724-0.707-1.086-1.06
		C80.12,234.714,78.914,234.903,78.264,233.503z"/>
	<path fill="#BCBCBC" d="M47.308,180.863c0.707,1.533,0.949,3.079-0.131,4.982C45.746,183.952,47.103,182.397,47.308,180.863z"/>
	<path fill="#707070" d="M142.271,298.455c-0.558,0.013-1.117,0.026-1.675,0.039c-1.77-1.43-3.38-2.994-4.279-5.148
		c0.445,0.034,0.891,0.067,1.339,0.102C139.197,295.117,140.734,296.786,142.271,298.455z"/>
	<path fill="#5C5C5C" d="M81.41,216.409c-1.031-1.157-2.121-0.477-3.201-0.101c-0.312-0.675-0.624-1.35-0.937-2.025
		c2.267,0.013,4.625-0.365,6.807,1.707C82.991,216.16,82.2,216.284,81.41,216.409z"/>
	<path fill="#ADADAD" d="M442.365,152.452c-1.501,1.138-3.001,2.276-4.502,3.413c0.67-2.533,2.323-3.933,4.531-4.742
		C442.818,151.575,442.809,152.018,442.365,152.452z"/>
	<path fill="#999999" d="M134.103,288.231c-0.004,0.383-0.008,0.766-0.012,1.15c-1.736-1.578-2.711-3.598-3.373-5.8
		c0.229-0.199,0.458-0.399,0.689-0.6C132.655,284.55,133.896,286.125,134.103,288.231z"/>
	<path fill="#ABABAB" d="M430.531,162.588c-0.458-0.007-0.915-0.013-1.373-0.02c1.008-1.375,1.878-2.905,3.9-3.647
		C432.82,160.873,431.597,161.674,430.531,162.588z"/>
	<path fill="#9E9E9E" d="M65.161,147.386c-1.749-1.134-2.633-2.73-2.996-5.529c2.256,1.8,2.926,3.51,2.973,5.548L65.161,147.386z"/>
	<path fill="#C8C8C8" d="M442.365,152.452c0.009-0.441,0.018-0.883,0.028-1.326c1.263-1.44,2.415-2.994,4.161-3.917l-0.072-0.07
		C446.115,149.688,444.201,151.04,442.365,152.452z"/>
	<path fill="#919191" d="M391.849,261.144c-0.066-0.456-0.132-0.913-0.198-1.369c0.474-1.665,1.483-2.835,3.525-3.158
		C394.066,258.125,392.957,259.635,391.849,261.144z"/>
	<path fill="#8F8F8F" d="M60.602,128.198c0.756,2.034,0.492,3.543-0.005,5.046C60.148,131.717,59.659,130.187,60.602,128.198z"/>
	<path fill="#1A1A1A" d="M83.271,233.45c-1.008-1.173-2.926-0.42-3.832-1.81c1.679-0.022,3.053-0.616,3.952-2.103
		c0.34,0.637,0.68,1.274,1.02,1.911C84.031,232.115,83.651,232.782,83.271,233.45z"/>
	<path fill="#9C9C9C" d="M25.623,227.65c0.064,0.232,0.107,0.469,0.129,0.709c-1.494-0.336-2.79-0.97-3.847-2.68
		C23.857,225.425,24.6,226.829,25.623,227.65z"/>
	<path fill="#232323" d="M52.99,217.388c-0.002-0.31,0.004-0.619,0.017-0.929c1.444-1.565,3.353-1.085,5.135-1.167
		C56.849,217.034,54.576,216.367,52.99,217.388z"/>
	<path fill="#232323" d="M64.104,195.12c0.014,0.277,0.004,0.553-0.032,0.829c-2.301-0.011-4.602-0.022-6.904-0.033
		c-0.444-0.18-0.583-0.333-0.421-0.466c0.143-0.116,0.299-0.177,0.473-0.177C59.515,195.222,61.809,195.171,64.104,195.12z"/>
	<path fill="#888888" d="M428.098,185.772c0-0.312,0.029-0.621,0.088-0.928c0.999-1.194,2.316-1.708,3.954-1.882
		C431.411,184.961,429.432,184.902,428.098,185.772z"/>
	<path fill="#A5A5A5" d="M90.594,235.72c-0.04,0.367-0.081,0.735-0.121,1.102c-1.011,1.02-2.248,1.173-3.778,1.037
		C87.625,236.175,89.335,236.358,90.594,235.72z"/>
	<path fill="#ABABAB" d="M65.138,147.405c1.775,1.167,2.717,2.895,3.284,4.875l-0.375,0.331c-1.713-1.327-2.482-3.175-2.885-5.225
		C65.161,147.386,65.138,147.405,65.138,147.405z"/>
	<path fill="#888888" d="M382.558,289.377c-0.407-0.426-0.815-0.853-1.222-1.279c1.014-0.963,1.646-2.495,3.576-2.416
		C384.703,287.399,383.556,288.342,382.558,289.377z"/>
	<path fill="#626262" d="M142.134,247.795c0.366,0,0.732-0.001,1.098-0.001c0.639,1.077,2.03,1.768,1.672,3.777
		C143.228,250.678,142.544,249.353,142.134,247.795z"/>
	<path fill="#858585" d="M108.749,302.543c-0.387-0.419-0.774-0.838-1.161-1.257c1.245-0.93,2.548-1.226,4.032-0.417
		C110.998,302.131,109.767,302.154,108.749,302.543z"/>
	<path fill="#ABABAB" d="M68.421,152.281c0.825,0.763,1.657,1.522,1.57,3.268c-1.474-0.641-1.68-1.812-1.944-2.938
		C68.046,152.611,68.421,152.281,68.421,152.281z"/>
	<path fill="#999999" d="M57.22,195.273c0.038,0.219,0.021,0.433-0.052,0.643c-0.916,0.724-1.967,1.107-3.118,1.234
		c-0.018-0.409-0.036-0.818-0.054-1.228C54.979,195.249,56.05,195.013,57.22,195.273z"/>
	<path fill="#F9F9F9" d="M274.033,323.146c0.87,0.454,1.188,1.305,0.551,1.927c-0.917,0.896-2.073,0.406-3.104-0.087
		C272.574,324.712,273.471,324.162,274.033,323.146z"/>
	<path fill="#5F5F5F" d="M446.554,147.208c-0.024-1.307-0.047-2.615-0.07-3.922l-0.089,0.072c1.67,1.224,1.035,2.501,0.087,3.783
		C446.482,147.138,446.554,147.208,446.554,147.208z"/>
	<path fill="#575757" d="M149.249,256.103c-0.197,0.171-0.394,0.342-0.592,0.514c-0.397-0.476-0.914-0.9-1.149-1.445
		c-0.158-0.365,0.027-1.033,0.741-0.605C148.81,254.902,149.279,255.355,149.249,256.103z"/>
	<path fill="#FFFFFF" d="M465.72,177.718c4.328,0.478,8.666,0.904,12.778,2.486c10.699,4.116,14.336,16.871,7.408,25.937
		c-0.4,0.524-0.702,1.124-1.05,1.688c-0.781,0.299-1.611,0.752-2.073-0.422c-1.592-4.056-5.178-5.699-8.87-6.93
		c-5.419-1.807-10.959-3.277-16.782-2.57c-1.487,0.181-2.147-0.648-2.672-1.788c-0.702-3.339-2.604-6.133-4.278-8.993
		c-1.651-2.822-3.665-5.432-5.781-8.516C451.809,177.049,458.775,177.59,465.72,177.718z"/>
	<path fill="#FBFBFB" d="M454.523,213.299c3.719-3.645,7.43-7.298,11.164-10.927c0.859-0.835,1.834-1.505,3.142-1.319
		c3.744,0.533,7.25,1.736,10.074,4.304c2.428,2.208,1.706,5.95-1.407,8.027c-7.167,4.781-15.084,7.342-23.67,7.779
		c-2.521,0.129-5.064,0.125-7.581-0.053c-2.243-0.159-2.983-1.267-1.761-2.887c2.755-3.653,4.407-8.39,9.351-10.042
		c1.677-0.56,1.841-2.234,2.446-3.606c1.839-4.169,3.476-5.025,7.962-4.104c-3.23,4.378-7.901,7.238-10.848,11.648
		C453.116,213.139,453.236,213.777,454.523,213.299z"/>
	<path fill="#FDFDFD" d="M482.82,214.402c0.298,3.672-1.992,5.891-4.541,7.9c-1.441,1.136-3.025,2.091-4.545,3.128
		c-13.031,6.42-26.082,5.511-39.191,0.208c-2.674-1.082-4.704-2.55-5.209-5.546c1.141-1.202,2.182-0.3,3.252-0.009
		c13.565,3.688,26.98,4.002,40.09-1.88c1.374-0.616,2.666-1.435,3.94-2.246C478.524,214.742,480.517,213.985,482.82,214.402z"/>
	<path fill="#F1F1F1" d="M453.661,199.414c1.367,3.407-0.514,4.807-1.698,6.231c-3.538,4.255-7.232,8.372-9.902,13.275
		c-1.306,2.398-3.045,1.278-5.246,0.294C440.755,211.369,447.443,206.125,453.661,199.414z"/>
	<path fill="#F3F3F3" d="M448.424,201.125c-2.411,2.718-4.219,4.676-5.935,6.71c-2.489,2.951-5.203,5.726-7.024,9.202
		c-0.587,1.12-1.653,1.808-2.958,1.079c-1.644-0.917-0.566-2.116,0.002-2.982c2.949-4.495,6.762-8.346,9.561-12.99
		C443.063,200.492,445.413,201.064,448.424,201.125z"/>
	<path fill="#F7F7F7" d="M438.214,203.214c-2.395,4.852-5.814,8.306-8.67,12.153c-0.618,0.832-1.36,0.862-2.185,0.366
		c-0.905-0.543-1.699-1.224-1.446-2.401c0.209-0.975,0.467-1.993,0.958-2.845C429.282,206.299,432.943,204.007,438.214,203.214z"/>
	<path fill="#F8F8F8" d="M485.855,219.364c-0.726-0.356-1.434-0.701-1.172-1.748c0.274-1.092,0.474-2.199,0.168-3.326
		c0.073-0.73-0.986-1.576,0.159-2.178c0.576-0.303,1.236-0.564,1.875-0.609c1.934-0.137,4.333-0.968,5.175,1.629
		c0.743,2.29-1.414,3.096-2.924,4.085C488.043,217.934,486.568,218.065,485.855,219.364z"/>
	<path fill="#464646" d="M454.523,213.299c-1.408,1.641-2.317,3.577-3.315,5.469c-0.325,0.616-1.126,0.777-1.75,0.465
		c-0.753-0.377-0.535-1.098-0.252-1.698c0.996-2.11,2.723-3.663,4.188-5.415C453.77,212.513,454.146,212.906,454.523,213.299z"/>
	<path fill="#FEFEFE" d="M289.244,343.084c-0.402,0.301-0.972,0.514-1.181,0.915c-3.363,6.456-9.535,7.45-15.826,8.125
		c-7.285,0.783-14.461,0.011-21.54-1.793c-0.912-0.405-0.89-1.234-0.924-2.037c1.446-8.007,6.06-13.609,13.153-17.329
		c2.509-1.501,4.195-4.971,8.099-3.385c0.203,2.535-2.488,3.344-3.09,5.336c-0.334,3.533-3.814,4.813-5.073,7.188
		c1.499-1.869,3.25-4.068,5.964-5.164c1.188-0.849,1.925-2.345,3.709-2.332c2.456,0.018,4.122-1.001,4.672-3.616
		c0.336-1.599,1.441-1.574,2.817-0.663c-1.727,3.674-5.059,6.185-7.032,9.651c-0.929,2.775-3.494,4.371-4.692,6.522
		c1.605-1.801,2.835-4.481,5.71-5.468c2.635-3,5.326-5.952,7.884-9.016c1.828-2.19,1.749-2.256,5.2-0.59
		c-0.659,1.142-1.314,2.275-1.969,3.409c-2.044,4.311-5.89,7.144-8.278,10.093c3.119-2.2,4.876-7.015,9.433-8.912
		c0.275-0.185,0.583-0.334,0.821-0.559c3.926-3.703,3.924-3.705,8.989-0.644C293.806,336.241,291.525,339.662,289.244,343.084z"/>
	<path fill="#FEFEFE" d="M261.186,363.17c-1.531-0.63-3.087-1.205-4.588-1.899c-3.692-1.707-6.099-4.441-7.04-8.449
		c2.29-1.07,3.971,0.094,5.72,0.452c14.212,2.914,27.283,0.202,39.269-7.899c0.399-0.27,0.673-0.725,1.005-1.094
		c1.064,4.19-1.365,7.073-4.184,9.258C282.533,360.389,272.766,364.729,261.186,363.17z"/>
	<path fill="#F5F5F5" d="M249.717,347.193c-1.589-0.063-3.179-0.127-4.768-0.19c-1.614-4.089-0.346-6.476,4.759-8.961
		c1.919-2.509,5.479-3.943,5.132-7.946c-0.072-0.828,0.732-1.01,1.371-1.152c1.616-0.357,3.23-0.838,4.867-0.955
		c1.344-0.097,0.955,0.889,0.608,1.656c-2.115,4.989-6.991,7.923-9.433,12.732C251.44,343.975,250.412,345.504,249.717,347.193z"/>
	<path fill="#F7F7F7" d="M241.593,346.377c-3.632-2.896-3.929-5.25-0.957-8.65c2.899-3.317,6.417-5.764,10.799-7.282
		c0.932,3.106-2.866,3.891-2.9,6.344C246.442,340.144,245.544,344.366,241.593,346.377z"/>
	<path fill="#353535" d="M249.717,347.193c-0.734-1.132-0.605-2.253,0.17-3.272c3.74-4.917,7.003-10.231,11.798-14.276
		c0.413,0.44,0.826,0.88,1.24,1.32c-1.462,2.45-3.647,4.262-5.556,6.318c-3.064,3.299-5.311,7.17-7.597,11.01
		C249.754,347.927,249.735,347.56,249.717,347.193z"/>
	<path fill="#303030" d="M268.825,334.94c-3.965,4-6.96,8.853-11.117,12.726c1.868-6.022,6.007-10.414,10.226-14.75
		C268.231,333.591,268.528,334.265,268.825,334.94z"/>
	<path fill="#292929" d="M286.279,334.02c-1.643,2.564-3.864,4.63-5.961,6.789c-1.969,2.028-4.372,3.661-5.057,6.686
		c-0.224,0.988-1.151,1.174-1.979,0.689c-0.777-0.455-0.407-1.211-0.091-1.768c2.183-3.844,5.602-6.67,8.363-10.042
		c1.055-1.289,2.373-2.363,3.571-3.536C285.509,333.232,285.894,333.626,286.279,334.02z"/>
	<path fill="#3E3E3E" d="M274.009,339.035c-3.121,3.16-5.102,7.273-8.53,10.166c-0.146,0.123-0.601-0.121-1.477-0.326
		c2.764-4.009,5.316-7.881,8.989-10.895C273.331,338.332,273.67,338.683,274.009,339.035z"/>
	<path fill="#353535" d="M241.593,346.377c2.477-3.078,3.69-7.072,6.943-9.588c0.391,0.418,0.782,0.836,1.173,1.254
		c-0.088,1.795-1.944,2.215-2.69,3.454c-1.015,1.686-2.536,3.243-2.069,5.507C243.746,347.247,242.62,347.073,241.593,346.377z"/>
	<path fill="#DADADA" d="M293.769,343.969c-0.989,0.535-1.969,1.088-2.972,1.595c-0.37,0.187-0.948,0.466-1.086-0.137
		c-0.091-0.398,0.269-0.899,0.427-1.354c2.663-1.822,4.252-4.671,6.821-7.384C298.132,340.526,295.662,342.123,293.769,343.969z"/>
	<path fill="#5C5C5C" d="M58.154,218.536c0.347,0.326,0.693,0.652,1.04,0.978c-3.591,3.915-8.583,6.383-11.456,11.793
		C47.921,227.338,51.229,223.499,58.154,218.536z"/>
	<path fill="#0B0B0B" d="M69.204,233.573c-0.059,0.275-0.073,0.553-0.042,0.833c-0.3,0.801-0.743,1.649-1.571,1.801
		c-5.842,1.073-11.697,1.996-17.383-0.747c-0.467-0.57-0.556-1.194-0.268-1.872C56.361,233.582,62.783,233.578,69.204,233.573z"/>
	<path fill="#333333" d="M49.94,233.587c0.053,0.27,0.067,0.542,0.042,0.816c-2.893,3.589-5.139,2.192-7.161-0.93
		c0.04-0.329,0.056-0.659,0.049-0.99C45.277,232.528,47.706,232.429,49.94,233.587z"/>
	<path fill="#FCFCFC" d="M116.236,325.069c13.482,3.594,26.15,3.535,39.192-1.156c-1.585,4.397-3.488,7.29-7.364,9.091
		c-7.072,3.287-14.423,3.543-21.679,1.974C121.826,333.992,117.93,331.006,116.236,325.069z"/>
	<path fill="#F8F8F8" d="M127.368,325.655c-1.588-1.142-1.476-2.409-0.422-3.893c3.342-4.704,7.219-8.911,11.537-12.729
		c1.576-1.393,3.396-1.232,5.344-1.055c0.341,2.342-2.093,2.925-2.72,4.568c-1.118,5.206-4.914,8.354-8.789,11.44
		C131.172,326.038,129.151,325.493,127.368,325.655z"/>
	<path fill="#F4F4F4" d="M153.434,307.563c-1.027,3.434-4.081,5.224-6.312,7.66c-2.493,2.722-5.204,5.242-6.812,8.65
		c-2.053,2.245-4.44,2.446-7.07,1.153c1.569-4.906,4.877-8.431,8.991-11.314c0.74-0.677,1.612-1.256,2.196-2.048
		C146.685,308.601,149.717,307.36,153.434,307.563z"/>
	<path fill="#F0F0F0" d="M118.962,322.943c3.131-3.761,7.489-6.456,9.353-11.347c0.76-1.994,2.959-2.156,5.665-0.975
		c-4.085,3.835-7.623,8.082-9.958,13.234C121.988,325.479,120.382,324.724,118.962,322.943z"/>
	<path fill="#F2F2F2" d="M115.819,316.573c2.906-1.814,5.652-3.981,9.64-4.44c-1.867,4.045-5.661,6.122-7.427,9.716
		c-0.623,0.524-1.207,1.261-2.139,0.913c-1.022-0.382,0.059-1.141-0.135-1.503C114.896,319.646,114.013,318.12,115.819,316.573z"/>
	<path fill="#484848" d="M142.23,313.711c-2.997,3.771-5.994,7.543-8.991,11.314c-0.307-0.346-0.614-0.693-0.921-1.039
		c2.088-4.46,5.532-7.879,8.789-11.44C141.482,312.934,141.856,313.323,142.23,313.711z"/>
	<path fill="#FEFEFE" d="M409.933,276.229c3.188,0.328,6.221-0.848,9.385-0.929c6.015-0.154,11.876,0.762,17.708,2.053
		c2.775,1.854,5.831,3.24,8.407,5.445c4.42,3.784,5.439,8.664,2.772,13.875c-1.082,2.114-2.677,3.828-4.047,5.718
		c-0.521,0.012-1.043,0.025-1.564,0.037c-2.893-2.96-5.129-6.411-7.375-9.855c-6.544-5.108-14.24-5.509-22.061-5.401
		c-1.592-2.55-3.013-5.229-4.823-7.613C406.441,277.066,408.669,276.975,409.933,276.229z"/>
	<path fill="#FCFCFC" d="M429.982,307.49c-3.297,4.24-8.239,4.265-12.892,5.027c-1.469-2.548,1.02-3.575,2.117-4.92
		c2.163-2.65,4.923-4.786,6.57-6.997c-3.129,3.471-6.813,7.367-10.627,11.141c-1.883,2.277-4.487,1.726-6.939,1.772
		c-1.248-3.921,0.369-6.552,5.86-9.535c3.553-3.511,7.337-6.795,10.351-10.831c2.373-3.178,2.588-3.163,6.143-1.448
		c1.191,0.575,2.069,1.736,3.501,1.846c5.174,2.271,5.267,2.541,1.883,6.857C434.043,302.833,433.38,306.316,429.982,307.49z"/>
	<path fill="#FAFAFA" d="M405.796,312.635c-2.028,1.22-4.007,0.121-6.004-0.124c-0.534-0.504-0.959-1.07-1.041-1.829
		c1.781-5.101,5.279-9.113,8.516-13.277c0.924-1.189,2.165-2.111,3.887-1.533c1.406,0.473,2.199-0.193,2.681-1.439
		c1.392-2.614,3.333-4.581,6.38-5.047c0.92-0.141,2.096-0.339,2.647,0.791c0.435,0.892-0.219,1.584-0.758,2.219
		c-2.162,2.551-4.308,5.115-6.524,7.619c-0.664,0.75-1.496,1.344-1.681,2.413C411.852,306.35,409.116,309.724,405.796,312.635z"/>
	<path fill="#F7F7F7" d="M399.797,310.952c-0.002,0.52-0.003,1.04-0.005,1.559c-0.668,0.029-1.337,0.057-2.005,0.086
		c-1.656-1.586-5.305-1.236-4.787-4.932c0.077-3.849,2.265-6.017,5.715-7.181c2.44-3.259,6.396-5.158,7.909-9.333
		c0.582-1.605,2.782-1.516,4.419-1.525c0.822-0.005,0.859,0.827,0.962,1.487c0.201,1.287-0.667,2.19-1.118,3.243
		c-2.686,3.554-5.362,7.119-8.318,10.455C400.994,306.591,399.668,308.428,399.797,310.952z"/>
	<path fill="#F6F6F6" d="M391.503,307.518c-0.57,0.211-1.154,1.113-1.712,0.501c-2.514-2.757-2.703-6.064-0.258-8.678
		c3.245-3.469,7.299-5.681,12.583-7.27c-1.178,3.223-3.816,4.659-4.499,7.237C396.362,302.627,394.743,305.677,391.503,307.518z"/>
	<path fill="#2F2F2F" d="M429.982,307.49c1.787-3.948,4.254-7.455,7.064-10.86c-0.414-1.552-2.201-1.854-2.98-3.084
		c0.385-0.324,0.769-0.648,1.154-0.972c4.38,1.847,6.884,5.098,7.375,9.855c-0.72,0.722-1.44,1.445-2.159,2.167
		c-4.079-1.535-5.699,1.942-8.041,3.947C431.59,308.191,430.786,307.84,429.982,307.49z"/>
	<path fill="#3C3C3C" d="M399.797,310.952c-0.979-0.196-1.508-0.782-1.146-1.752c0.405-1.084,0.788-2.283,1.536-3.113
		c3.541-3.933,6.31-8.576,10.701-11.73c0.961,0.862,1.95,0.622,2.948,0.077c0.229,1.699,0.154,3.361-0.508,4.975
		c-0.341,0.831-0.817,1.643-1.785,1.364c-1.14-0.329-0.706-1.311-0.499-2.11c0.121-0.47,0.437-0.94-0.315-1.608
		C406.06,300.83,402.947,305.906,399.797,310.952z"/>
	<path fill="#4D4D4D" d="M405.796,312.635c2.004-3.956,5.184-6.978,8.103-10.206c0.057,0.517,0.115,1.033,0.172,1.549
		c-0.564,1.992-2.139,3.262-3.365,4.793c-1.126,1.406-2.254,2.852-2.495,4.742C407.406,313.22,406.601,312.928,405.796,312.635z"/>
	<path fill="#3F3F3F" d="M391.503,307.518c1.901-2.839,3.733-5.729,6.115-8.21c0.366,0.392,0.732,0.784,1.098,1.176
		c-1.498,2.717-3.552,4.993-5.715,7.181C392.501,307.616,392.002,307.567,391.503,307.518z"/>
	<path fill="#343434" d="M415.15,311.74c6.031-8.844,12.436-15.924,15.744-17.39c0.971,1.137-0.057,1.861-0.628,2.559
		c-2.648,3.234-5.292,6.459-8.355,9.344c-1.907,1.796-4.132,3.476-4.822,6.264C416.155,312.978,415.714,312.205,415.15,311.74z"/>
	<path fill="#F0F0F0" d="M432.393,308.542c1.202-3.768,4.101-6.434,6.188-10.058c2.317,1.81,1.516,4.142,1.853,6.111
		C438.304,307.032,435.014,307.105,432.393,308.542z"/>
	<path fill="#FEFEFE" d="M42.82,233.473c2.184,1.874,4.792,0.487,7.161,0.93c6.393,0.516,12.787,0.518,19.18,0.003
		c3.061-0.027,6.095-0.326,9.102-0.903c1.02,0.343,2.301-0.062,3.047,1.064c-3.772,5.943-9.579,8.265-16.221,8.875
		c-3.687,0.339-7.409,0.292-11.115,0.419c-4.887-1.188-9.022-3.405-11.267-8.216C42.746,234.921,42.783,234.197,42.82,233.473z"/>
	<path fill="#2C2C2C" d="M456.46,218.84c-0.904-2.312,0.361-3.511,1.19-4.504c3.105-3.717,6.544-7.135,10.195-10.327
		c0.498-0.436,1.082-0.779,1.648-1.129c0.447-0.277,0.967-0.337,1.362,0.044c0.697,0.674,0.165,1.16-0.333,1.634
		c-2.777,2.645-5.603,5.242-8.308,7.959C460.304,214.437,458.557,216.522,456.46,218.84z"/>
	<path fill="#232323" d="M468.896,215.554c1.858-2.855,3.706-5.718,5.584-8.561c0.425-0.643,1.082-0.766,1.7-0.304
		c0.598,0.447,0.746,1.201,0.421,1.796C474.917,211.572,472.937,214.41,468.896,215.554z"/>
</g>
</svg>
