<svg width="140" height="240" xmlns="http://www.w3.org/2000/svg">

 <g>
  <title>background</title>
  <rect fill="none" id="canvas_background" height="242" width="142" y="-1" x="-1"/>
 </g>
 <g>
  <title>Layer 1</title>
  <g id="svg_1">
   <path id="svg_2" d="m128.751465,56.864159c-1.662971,2.408997 -3.745979,4.371002 -6.256966,5.876999c-0.634003,4.884003 -5.325012,5.324005 -8.44101,7.126007c-2.44101,1.410995 -5.593994,5.095993 -8.22699,2.579987c-2.641998,-2.523987 0.853973,-5.655991 2.099976,-8.35199c5.962006,-12.906998 7.123016,-25.520996 -1.766998,-37.742041c-1.951996,-2.682999 -2.026001,-4.378998 2.269012,-4.703995c15.016998,-1.137009 27.84594,11.426004 26.175926,26.207037c-0.425995,3.764999 -1.162994,7.794998 -5.852951,9.007996z" fill="#FEFEFE"/>
   <path id="svg_3" d="m35.954491,76.233162c-0.705002,-1.169998 -1.550003,-2.279007 -2.086002,-3.522003c-1.043007,-2.419998 -2.677015,-3.584991 -5.394011,-3.731995c-2.521011,-0.136002 -5.012009,-0.839005 -7.516998,-1.28801c-14.566997,-2.606995 -20.406004,-12.345993 -15.859997,-26.457993c1.515992,-0.466003 2.334001,0.548004 3.186997,1.488998c1.137999,3.889008 1.186995,7.947998 2.857998,11.861008c2.233994,5.231995 5.996994,7.442993 11.082993,8.435989c4.027008,0.786011 5.889008,-0.576996 5.677002,-4.931c-0.382004,-7.839996 0.112,-15.617996 1.249008,-23.436005c0.893997,-6.148031 2.362991,-11.409033 8.228014,-14.476034c1.401001,-1.345993 3.412003,-0.559998 4.949997,-1.42099l0.003998,-0.029007c1.371002,-0.649002 2.591995,0.374008 3.908005,0.352997c8.330994,2.049011 15.270996,6.613007 18.587997,14.373011c2.343994,5.483028 4.570999,9.192028 10.979004,8.661037c1.470001,1.125 2.822998,2.342987 3.40799,4.177994c1.481018,6.451996 5.851013,11.315994 9.274017,16.695007c1.138,1.787994 2.852997,3.289993 2.196991,5.740997c-0.166992,0.560989 -0.453003,1.057999 -0.838989,1.496994c-5.304016,1.820007 -7.762024,-2.403 -10.468018,-5.365005c-2.880981,-3.151993 -4.824997,-7.125992 -7.673996,-10.35199c-3.009995,-3.408005 -6.362,-3.803009 -8.246994,-0.346008c-5.407013,9.917999 -13.462006,16.582001 -23.544006,21.143005c-1.238998,0.65799 -2.375992,1.751999 -3.960999,0.929001z" fill="#222222"/>
   <path id="svg_4" d="m49.825493,150.064011c-1.546005,-4.209991 -0.554993,-8.539001 -0.459,-12.79599c0.162994,-7.220932 0.802994,-14.408867 0.074997,-21.663857c-0.216003,-2.152008 -0.688004,-4.226013 -1.285004,-6.160004c-0.913986,-2.960007 0.411011,-4.069 2.744003,-4.665009c4.867996,-1.242996 9.712997,-0.376999 14.56601,0.348007c7.164993,1.069992 14.357986,1.647003 22.307999,0.477005c-0.653992,9.253998 -1.306,18.486984 -1.959015,27.719856c-4.041992,-0.787003 -2.859985,-4.253891 -2.897003,-6.570869c-0.047974,-2.983994 -0.080994,-5.852997 -1.242981,-8.623001c-0.33902,-0.801987 -0.498993,-1.661987 -0.738007,-2.487c-0.175995,-0.498993 -0.367004,-1.002991 -0.588989,-1.485992c-0.493011,-0.608002 -0.88501,-1.279999 -1.209015,-1.985001c-0.867981,-1.151001 -2.06601,-1.904007 -3.439987,-1.874008c-5.873001,0.132004 -11.669006,-1.936996 -17.517014,-0.57399c-0.099991,0.310989 -0.215988,0.621002 -0.22699,0.957001c0.162003,0.350998 0.298996,0.677002 0.521988,0.983002c1.322006,1.911987 5.283005,0.901993 4.991013,4.531998c-0.781006,1.748993 -3.775009,2.25 -2.775009,4.994995c0.997009,4.785004 4.89801,2.880005 7.73201,3.369995c3.155991,0.545013 7.306,-0.677994 7.785995,4.486977c-0.912003,2.880905 -3.313004,1.966934 -5.178009,2.104919c1.070007,0.21402 2.420013,0.143005 3.24501,1.368988c0.718994,1.14299 0.886993,2.293991 0.119003,3.476974c-2.132004,2.183014 -5.022003,1.194 -7.535004,1.756012c-1.397003,0.457001 -1.669006,1.690002 -1.914001,2.927002c-0.121994,1.182983 -0.007996,2.332001 0.468994,3.435974c0.314011,0.676025 0.469009,1.384003 0.480011,2.126007c0.075989,1.024994 0.268997,2.027008 0.556992,3.016022c4.117004,6.218994 4.084,6.431976 -1.291,8.350983c-1.192993,0.237 -2.375992,0.345001 -3.522995,-0.186005c-2.251007,-1.151978 -2.374008,-3.338989 -2.734009,-5.477997c-1.426987,-8.458984 -1.880997,-17.09198 -4.396988,-24.572853c0.439987,5.593849 -0.004013,11.93586 -0.423004,18.272865c-0.128006,1.93399 -0.378006,3.96698 -2.604996,4.863983c-0.630997,0.131012 -1.182007,-0.019989 -1.656006,-0.446991z" fill="#202020"/>
   <path id="svg_5" d="m88.988487,70.122154c0.080994,-0.578995 0.161011,-1.156998 0.242004,-1.735992c1.962006,-2.634003 4.190002,-1.133011 6.317993,-0.351013c3.194,1.174011 5.94101,0.497009 7.683014,-2.354996c6.548981,-10.718002 9.898987,-30.148006 -3.03302,-40.102041c-0.579987,-1.035995 -1.161987,-2.071991 -1.205994,-3.302994c0.052002,-0.608002 0.265015,-1.158997 0.623016,-1.651001c0.853973,-0.841003 1.903992,-1.354004 3.016998,-1.757004c1.877991,1.889008 4.258972,1.576996 6.609985,1.596008c13.70401,0.110992 22.043938,6.585999 26.255943,20.058035c2.29599,7.343994 -0.200012,14.369003 -6.674973,19.647995c-1.061958,-1.080002 -0.212006,-2.199997 -0.069977,-3.306c10.665939,-9.300995 2.510941,-29.828039 -11.971992,-33.343039c-3.300995,-0.800995 -6.790985,-1.867996 -10.302002,-0.386993c12.864014,16.30303 8.937012,32.488028 -0.821991,49.839041c6.738007,-3.268997 12.238983,-5.959 16.837982,-10.23201c0.947998,-0.080994 1.895996,-0.160995 2.707001,-0.229996c0.994019,1.128006 0.084015,1.666 -0.393982,2.014999c-6.016022,4.38501 -12.070007,8.764999 -19.70401,9.869003c-2.335999,0.337997 -3.865997,1.735001 -5.411987,3.220001c-3.824005,3.671997 -7.972015,6.895004 -12.641022,9.438995c-3.152985,1.718002 -6.450989,2.789001 -10.084991,2.594009c-1.020004,0.475998 -1.556992,-0.061005 -1.942993,-0.922012c-0.115005,-2.73999 1.833984,-3.621994 3.949982,-4.220993c2.055023,-0.582001 4.064026,-1.253998 5.987,-2.179001c6.193024,-2.977005 6.445007,-3.662003 3.797028,-9.970993c-0.311005,-0.737 -0.144012,-1.518005 0.230988,-2.23201z" fill="#292929"/>
   <path id="svg_6" d="m86.275505,233.827011c0.247009,4.415985 0.259003,4.317993 -3.873993,3.826996c-6.970001,-0.826996 -13.95401,-0.727997 -20.927002,0.071991c-0.256012,-0.260986 -0.560013,-0.441986 -0.912003,-0.540985c0,0.001984 -0.419998,0.330994 -0.419998,0.330994c-0.001007,0.002014 0.409988,0.346008 0.409988,0.346008c-1.60199,0.863983 -3.368988,0.507996 -5.063995,0.674011c-2.313995,0.22699 -4.384995,-0.452026 -4.985992,-2.803009c-0.488007,-1.912018 -0.861008,-4.233002 1.914993,-5.218018c0.451004,-0.160004 0.721008,-0.832977 1.074005,-1.268982c-0.077011,-0.334991 -0.153,-0.670013 -0.230011,-1.006012c-0.694,-5.338989 2.397003,-10.191986 1.972,-15.548004c-0.113998,-1.436005 1.189011,-2.786987 2.791,-3.356995c2.601013,-0.358002 4.905014,0.641998 7.209,1.615997c2.129013,2.460999 4.224014,2.028015 6.293015,-0.113007c0.549988,-0.633972 1.031998,-1.316986 1.635986,-1.908997c0.5,-0.358978 1.047012,-0.576996 1.650009,-0.673981c0.927994,-0.076996 1.832993,0.002991 2.715988,0.306c2.752014,1.367981 2.736023,4.05899 3.024017,6.539978c0.542999,4.678009 1.566986,9.223022 3.360992,13.57901c0.656982,1.770996 0.981995,3.701019 2.362,5.147003z" fill="#1A1A1A"/>
   <path id="svg_7" d="m86.275505,233.827011c-2.246002,-0.44101 -3.931,-1.498993 -4.347015,-3.951996c-1.415985,-13.565002 -1.527985,-27.192993 -0.801971,-40.765015c1.082001,-20.205994 -3.052002,-40.454987 0.806976,-60.63884c0.622009,-3.256004 0.201996,-6.806007 0.024017,-10.217003c0.169006,-0.722 0.556,-1.298996 1.16098,-1.729004c2.242004,1.348999 2.058014,3.539001 2.083008,5.727005c0.042999,3.696991 -0.832001,7.452934 0.613007,11.072838c0.127991,13.52301 0.274994,27.046021 0.377991,40.570007c0.132019,17.431 0.240021,34.862 0.326019,52.294006c0.011993,2.545013 -0.15802,5.09201 -0.243011,7.638z" fill="#3C3C3C"/>
   <path id="svg_8" d="m49.884499,200.833023c0.216003,-11.059998 -1.403,-22.102997 -0.317001,-33.171997c1.968994,-2.897003 -1.319,-7.04599 2.281998,-9.553009c3.971008,2.269012 2.936005,6.005005 2.350006,9.269012c-0.699997,3.901978 -0.576996,7.632996 0.216003,11.472992c1.852997,8.970001 0.300995,18.010986 0.348999,27.019989c0.013,2.552002 -0.145004,5.104004 0.035995,7.646027c0.270996,2.050995 0.281006,4.098999 -0.279007,6.115997c-0.070999,1.322998 -0.459,2.596985 -0.703995,3.893982c-0.445999,1.835999 0.162003,3.975006 -1.522003,5.46701c-1.353989,0.119995 -1.531998,-0.839996 -1.658997,-1.825012c-0.442993,-3.444 -0.944992,-6.885986 -0.371002,-10.365997c-1.201004,-5.296997 0.516998,-10.664001 -0.380997,-15.968994z" fill="#3D3D3D"/>
   <path id="svg_9" d="m75.613503,88.428154c0.449997,0.406006 0.900986,0.813004 1.350998,1.218994c-15.841995,2.169006 -29.990997,-0.838989 -41.009003,-13.414993c0.414001,-1.188995 0.828003,-2.378006 1.242004,-3.567001c3.811005,-0.457993 6.341995,2.485001 8.429001,4.473007c6.514008,6.203995 14.365005,7.373001 22.654007,8.014999c2.719986,0.210999 6.145981,-0.600006 7.332993,3.274994z" fill="#535353"/>
   <path id="svg_10" d="m42.329491,18.755129c-1.138,1.128998 -3.078995,0.979996 -3.975998,2.494003c-4.985008,2.197998 -10.374025,3.237991 -15.097017,6.326996c-4.841003,3.166 -8.875,6.769014 -11.697998,11.837042c-1.126007,2.021988 -1.731002,5.082993 -5.268993,4.350998c-0.397004,-0.843002 -0.795014,-1.686996 -1.192002,-2.529999c5.415997,-11.667044 13.810986,-19.832037 26.699994,-22.713034c1.880018,0.697998 3.774019,0.825989 5.686022,0.127991c1.615997,0.034988 3.231003,0.069992 4.845993,0.106003z" fill="#646464"/>
   <path id="svg_11" d="m102.631493,18.867128c-0.548004,0.888 -1.096008,1.776993 -1.644012,2.664993c-6.835999,-2.603989 -12.082977,-8.352997 -19.509003,-9.823988c-1.65097,-0.32701 -2.727997,-1.432004 -2.652985,-3.303995c0.893005,-1.686997 2.665009,-0.490005 3.864014,-1.175995c8.16098,1.286987 14.398987,5.867973 19.941986,11.638985z" fill="#444444"/>
   <path id="svg_12" d="m44.8265,20.888124c-0.830994,-0.720993 -1.662003,-1.442001 -2.492996,-2.162003c5.728989,-5.201996 11.690994,-10.036995 19.311005,-12.258996c0.363998,0.440003 0.627991,0.933 0.778,1.486009c0.130997,2.648998 -1.936005,3.574992 -3.729004,4.666984c-4.595001,2.800003 -9.167007,5.643005 -13.867004,8.268005z" fill="#6E6E6E"/>
   <path id="svg_13" d="m51.050499,158.156998c-0.761002,3.127014 0.328995,6.541992 -1.483002,9.505005c-0.300995,-5.871002 -0.535995,-11.742004 0.257004,-17.597015c0.474991,-0.007996 0.949997,-0.015991 1.425995,-0.023987c3.927002,2.803009 3.985992,5.512024 -0.199997,8.115997z" fill="#161616"/>
   <path id="svg_14" d="m61.533501,7.622126c0.089005,-0.380005 0.126007,-0.765 0.111008,-1.155c4.769989,-0.195999 9.551987,-1.798997 14.303986,0.121994c-0.092987,1.227006 -0.632996,2.205002 -1.631989,2.92601c-4.524002,1.15199 -9.029007,2.163997 -12.783005,-1.893004z" fill="#313131"/>
   <path id="svg_15" d="m49.884499,200.833023c1.656998,5.286011 0.279007,10.644989 0.380997,15.968994c-1.393997,-5.292999 -0.307999,-10.64502 -0.380997,-15.968994z" fill="#444444"/>
   <path id="svg_16" d="m74.543495,7.612132c0.468002,-0.341004 0.936996,-0.682008 1.404999,-1.024003c2.275009,-0.078003 4.529007,0.063995 6.741989,0.64c-1.279999,0.343003 -2.560974,0.686005 -3.841003,1.029007c-1.629974,1.085998 -3.102982,1.123992 -4.305984,-0.645004z" fill="#1F1F1F"/>
   <path id="svg_17" d="m52.296501,228.993027c0.162003,-2.058014 0.322998,-4.11499 0.485001,-6.173004c2.494995,1.934998 1.442001,4.234009 0.667999,6.505005l0.042999,-0.079987c-0.399002,-0.084015 -0.798004,-0.16803 -1.195999,-0.252014z" fill="#444444"/>
   <path id="svg_18" d="m37.483498,18.648119c-1.923004,1.184006 -3.815006,0.992004 -5.686022,-0.128006c1.902021,-0.234985 3.801027,-0.354996 5.686022,0.128006z" fill="#191919"/>
   <path id="svg_19" d="m59.995491,236.334c0.492996,0.463989 0.985992,0.928009 1.479004,1.391998l-0.44101,0.205994l-0.480988,-0.069977c-1.246002,-0.417023 -2.492004,-0.834015 -3.739014,-1.251007c0.96701,-1.169983 2.03801,-1.152008 3.182007,-0.277008z" fill="#050505"/>
   <path id="svg_20" d="m75.613503,88.428154c-6.531998,-0.778 -13.266006,0.285004 -19.619995,-2.074997c-4.040009,-1.5 -9.070999,-1.411011 -10.871002,-6.630005c-0.199005,-0.574997 -0.785004,-0.740997 -1.416,-0.733994c-4.251007,0.044998 -5.175003,-3.354004 -6.51001,-6.322998c0.122009,-0.700012 -0.319992,-1.820007 0.766006,-1.910004c11.576996,-0.968002 17.811005,-8.622009 22.757004,-17.977997c3.093994,-5.854004 4.845001,-6.434006 10.753998,-3.882004c0.742996,0.320999 1.309998,0.690002 1.649994,1.490997c2.084,4.912994 6.02301,8.619003 8.640015,13.203003c1.66098,2.908997 3.996979,5.263 7.225983,6.531998c2.207001,2.962997 6.028015,3.279999 9.162994,5.330002c-6.300995,6.858002 -13.265991,11.891998 -22.538986,12.975998z" fill="#FEFEFE"/>
   <path id="svg_21" d="m102.821495,23.167116c9.488007,9.106997 10.940002,20.174032 7.761993,32.29804c-1.281982,4.888992 -2.472992,9.830002 -5.97699,13.817001c-3.174011,3.612 -5.375,4.205002 -9.707001,2.077988c-1.915009,-0.939987 -3.514008,-2.487991 -5.670013,-2.972992c-3.632996,-3.451004 -5.885986,-7.860001 -8.416992,-12.080002c-0.779999,-1.300003 -1.217987,-2.809006 -2.84201,-3.554993c-1.796982,-0.826004 -2.187988,-2.583008 -2.179993,-4.423004c2.089996,-11.84 10.528992,-18.670034 19.649994,-24.993032c2.484009,-1.723999 4.944,0.667999 7.381012,-0.169006z" fill="#FFFFFF"/>
   <path id="svg_22" d="m74.543495,7.612132c1.434998,0.214996 2.87001,0.429992 4.305008,0.645004c7.816986,0.778991 14.024994,4.902992 19.955994,9.602989c1.195984,0.947006 2.661011,1.731003 2.182007,3.671997c-0.306,0.014008 -0.595001,0.091003 -0.867004,0.229996c-11.095001,4.10701 -16.598999,14.72603 -25.249008,21.679037c-3.464005,2.424011 -6.466003,2.528 -9.589996,0.628006c-1.313995,-0.798996 -1.059998,-1.914001 -1.197998,-3.016998c-0.76001,-6.083023 -2.972,-11.040045 -8.779999,-14.260046c-3.494003,-1.936996 -5.98201,-5.664993 -10.477005,-5.903c1.020996,-3.895996 4.242996,-5.737 7.257996,-7.76799c3.029007,-2.040006 6.705002,-2.967998 9.449005,-5.499c4.337997,-0.003998 8.675003,-0.007004 13.011002,-0.009995z" fill="#FFFFFF"/>
   <path id="svg_23" d="m6.290476,43.764153c3.399991,-10.005028 10.596996,-16.617041 19.577999,-21.467031c3.884995,-2.098007 8.18001,-2.412003 12.48601,-1.046997c-7.358019,5.719986 -6.489016,14.287012 -7.243013,22.082037c-0.636993,6.580994 -0.891998,13.284988 0.356003,19.903992c0.244995,1.302002 0.160995,2.667007 0.26799,4.787003c-6.007996,-1.708008 -11.85199,-1.874008 -17.238998,-4.115005c-2.921997,-1.214996 -5.534986,-2.862 -5.484998,-6.738998c0.014007,-1.067993 -0.726989,-2.210999 -1.309996,-3.209991c-1.880982,-3.222 -2.343995,-6.602997 -1.410995,-10.195007z" fill="#FFFFFF"/>
   <path id="svg_24" d="m33.299484,44.58416c0.162994,-1.753006 0.878014,-4.535004 0.576008,-7.201996c-0.710011,-6.267035 3.377003,-9.788046 7.037006,-13.650045c1.132996,-1.194992 2.444992,-1.011002 3.792999,-0.50499c6.778992,2.548996 12.343994,6.631989 15.600998,13.230028c1.302002,2.638004 1.502991,5.567005 0.505997,8.576008c-2.968994,8.959991 -7.169006,16.897995 -16.138,21.298996c-7.244003,3.554993 -9.063004,2.763992 -10.966999,-4.977005c-1.286007,-5.229004 -0.255009,-10.522003 -0.408009,-16.770996z" fill="#FEFEFE"/>
   <path id="svg_25" d="m74.871498,43.441154c0.046005,-0.188995 0.033997,-0.425003 0.145004,-0.561005c6.677002,-8.235016 12.845001,-17.044027 23.386993,-20.95603c0.520996,-0.193008 1.143005,-0.115005 1.71701,-0.162994c0.899994,0.467987 1.800995,0.936996 2.700989,1.404999c-9.904999,2.623993 -17.464996,8.01799 -21.208008,17.933035c-0.128998,0.341995 -0.371002,0.947998 -0.513977,0.934998c-4.832016,-0.460999 -3.606018,4.153992 -5.309021,6.292999c-0.250992,-1.638992 -0.014999,-3.369995 -0.918991,-4.886002z" fill="#4D4D4D"/>
   <path id="svg_26" d="m53.449501,229.325027c0.190002,-2.210999 0.718002,-4.455994 -0.667999,-6.505005c0.281998,-1.085999 0.056992,-2.109985 -0.384003,-3.105988c-0.748001,-1.662018 0.087997,-3.533997 -0.688995,-5.19101c0.625,-11.169006 0.959,-22.328003 0.155991,-33.516998c-0.377991,-5.27301 0.018005,-10.596985 -0.065994,-15.895996c-0.037003,-2.325989 0.391006,-4.734009 -0.748993,-6.95401c0.651001,-2.690979 0.959991,-5.389984 0.199997,-8.115997c0.330994,-10.67099 0.660995,-21.341858 0.991989,-32.011848c0.384003,-0.085999 0.768005,-0.171997 1.151001,-0.257996c3.206009,6.08699 5.42601,12.546928 6.351013,19.466835c0.853989,6.386017 1.631989,12.782013 3.132996,19.061005c3.140991,5.89801 1.080994,11.989014 0.681,18.006012c-0.639999,1.071991 -1.593002,1.502991 -2.747009,1.292999c0.093002,0.001007 -0.038986,0.188995 0.024002,0.194c1.133011,-0.084015 1.952011,0.341003 2.561005,1.234009c0.988998,6.363983 -0.007996,12.703979 -0.097,19.049988c-1.317993,4.872986 -1.037994,10.237 -4.436996,14.472015c-1.797012,6.261963 -2.819,12.746979 -5.412003,18.777985z" fill="#FCFCFC"/>
   <path id="svg_27" d="m61.073494,175.112015c1.822006,-1.489014 1.117996,-3.596008 1.244003,-5.450012c0.300995,-4.447998 -0.180008,-8.931 0.560989,-13.363983c0.914001,-0.295013 1.828003,-0.58902 2.742004,-0.884003c2.082001,1.744995 1.742004,4.027008 1.585999,6.376007c-0.147995,2.231995 -0.64299,4.800995 2.423004,5.763977c1.080994,0.374023 2.016006,0.984009 2.865997,1.736023c0.401001,0.406006 0.742996,0.856995 1.027008,1.350006c1.373993,3.338989 -0.85701,4.436981 -3.332001,5.376984c-0.656006,0.027008 -1.311005,0.089996 -1.75,0.579987c0.041992,-0.061981 -0.219009,0.335022 -0.205002,0.292023c0.013,-0.042999 -0.106003,0.326996 -0.102005,0.311981c0.003998,-0.014984 0.104996,-0.322998 0.111008,-0.35199c0.005997,-0.028992 0.233994,-0.337006 0.25499,-0.368988c0.285004,-0.305023 0.60701,-0.437012 1.025009,-0.433014c0.492996,-0.003998 0.947998,0.014008 1.429001,0.054016c1.223999,0.167999 2.128998,0.770996 2.741989,1.825989c1.553009,3.027008 1.785004,6.350006 2.238007,9.623993c0.089996,2.143005 -1.048004,3.675018 -2.496002,5.044006c-0.847992,0.949005 -2.630005,1.152008 -2.362,3.005005c0.027008,1.221985 -0.625992,2.27298 -0.731003,3.462006c0.021011,0.258972 0.012009,0.501984 0.031998,0.757996c0.284012,1.471985 0.274002,2.854004 -1.103989,3.830994c-2.466003,0.779999 -4.955002,0.949005 -7.486008,0.326996c-1.724991,-2.608002 -0.832993,-5.330994 -0.354996,-8.036011c0.248001,-4.455994 0.546997,-8.909973 0.720993,-13.368988c0.081009,-2.085999 0.562012,-4.298004 -1.089996,-6.096985c-0.306992,-0.455017 -0.304001,-0.911011 0.011002,-1.364014z" fill="#272727"/>
   <path id="svg_28" d="m74.012489,135.093002c-0.322998,-0.701996 -0.647003,-1.403992 -0.970001,-2.105988c-0.091003,-1.786972 1.643005,-2.416962 2.347,-3.699905c-2.690002,-2.885963 -6.311005,-2.452965 -9.699005,-2.573967c-5.974991,-0.213989 -5.977997,-0.123001 -7.616989,-6.007996c0.266998,-0.233994 0.53299,-0.466995 0.799988,-0.701996c5.876007,-0.285004 11.694,0.703995 17.556992,0.798996c4.046021,0.065994 5.074005,2.830002 4.109009,6.093994c-1.100983,3.720909 -2.028992,7.602867 -4.530991,10.768852c-0.602005,0.447021 -1.259003,0.550018 -1.969009,0.309998c-0.72998,-0.952972 -0.696991,-1.913971 -0.026993,-2.881989z" fill="#F3F3F3"/>
   <path id="svg_29" d="m69.399498,169.442001c-4.362,-0.20401 -4.457001,-0.205994 -4.367004,-3.707001c0.089005,-3.442993 -0.427002,-6.928986 0.587006,-10.321014c0.882996,-0.146973 2.985001,-0.005981 1.358994,-1.421997c-1.682999,-1.466003 -3.821991,-2.164001 -2.875992,-4.978973c1.89299,-1.594025 3.897995,-2.990021 6.350998,-3.611023c0.972,-0.024994 1.852997,0.244995 2.628998,0.830994c0.738007,0.708008 1.236008,1.630005 1.070007,2.605011c-1.186005,6.958008 -1.513016,14.120026 -4.753006,20.604004z" fill="#EAEAEA"/>
   <path id="svg_30" d="m58.073494,120.706154c-2.080002,-4.141006 -2.080994,-4.143997 1.981995,-4.511993c0.928009,-0.084 1.85701,-0.143005 2.786011,-0.213013c5.229996,-2.886002 10.742996,-1.207001 16.074997,-0.681c2.929993,0.28801 3.195007,3.001999 2.395996,5.564011c-1.526001,2.063995 -3.572998,1.007996 -5.401993,0.792999c-5.981003,-0.701004 -11.977005,-0.938004 -17.990997,-0.908005l0.153992,-0.042999z" fill="#F5F5F5"/>
   <path id="svg_31" d="m54.539497,112.37516c0.044006,-0.408997 0.089005,-0.817993 0.132996,-1.225998c1.062012,-1.412994 2.612,-1.574005 4.184006,-1.552002c6.397995,0.089996 12.792999,0.298004 19.184998,0.585999c2.268005,0.102005 4.247986,0.660995 4.901001,3.225998c-0.088989,0.251999 -0.101013,0.507004 -0.035004,0.766006c-0.623993,1.884003 -2.06601,2.015991 -3.764984,1.914993c-7.812012,-0.462997 -15.565018,-1.591995 -23.378006,-2.035995c-0.865005,-0.050003 -1.255005,-0.796997 -1.225006,-1.679001z" fill="#E7E7E7"/>
   <path id="svg_32" d="m52.457497,109.063164c-0.492004,-1.076996 -1.186996,-2.393005 0.737,-2.561996c1.927994,-0.169006 3.938004,-0.154007 5.835007,0.196991c7.507996,1.387009 15.082993,1.804001 22.690979,1.866013c1.332001,0.010986 2.277008,0.396988 2.447021,1.865997c-2.306,2.505997 -5.171021,0.834 -7.639008,0.707993c-7.205994,-0.369003 -14.375992,-1.444 -21.623001,-0.673004c-1.054001,0.113007 -1.778,-0.675003 -2.447998,-1.401993z" fill="#DFDFDF"/>
   <path id="svg_33" d="m54.539497,112.37516c0.908997,1.350006 2.333008,1.274994 3.699005,1.309006c6.878998,0.172989 13.756989,0.381989 20.513992,1.843002c1.727997,0.372986 3.085999,0.071991 4.154999,-1.352005c0.069,0.785004 0.139008,1.569 0.209015,2.352005c-0.038025,0.564987 -0.076996,1.131989 -0.117004,1.697998c0.507996,1.741989 1.166992,3.513 -0.914001,4.757996c-1.026001,-0.106995 -1.622009,-0.690002 -1.856995,-1.675003c0.946991,-2.800995 0.199982,-4.429993 -3.001007,-4.567001c-4.798004,-0.205994 -9.59201,-0.501999 -14.388,-0.759995c-1.82901,-1.221008 -3.945007,-1.070007 -5.994003,-1.298996c-1.304001,-0.147003 -2.781998,-0.298004 -2.306,-2.307007z" fill="#393939"/>
   <path id="svg_34" d="m52.457497,109.063164c0.738007,0.248993 1.557999,0.845993 2.201004,0.694c7.035004,-1.660995 13.927994,-0.363007 20.830002,0.837006c2.909988,0.505997 5.801987,0.742996 8.679001,-0.164001c-0.40802,0.991989 -0.81601,1.985001 -1.225006,2.977997c-1.201996,-0.660995 -2.446014,-1.177994 -3.846008,-1.236008c-8.140991,-0.337997 -16.28299,-0.681992 -24.423996,-1.023987c-1.085999,-0.325012 -1.828003,-1.016006 -2.214996,-2.085007z" fill="#2F2F2F"/>
   <path id="svg_35" d="m75.389488,129.287109c-0.093994,1.669968 -0.692001,3.020905 -2.347,3.699905c-2.737,-0.034027 -5.475998,-0.037018 -8.212006,-0.114014c-1.313995,-0.036987 -3.125,0.278015 -3.288986,-1.561966c-0.202011,-2.280914 1.900986,-2.234924 3.347992,-2.259918c3.498001,-0.057968 7,0.140991 10.5,0.235992z" fill="#F7F7F7"/>
   <path id="svg_36" d="m72.375496,147.150009c-0.766998,-0.006989 -1.535004,-0.013 -2.302002,-0.019989c-2.390991,1.459991 -4.662994,1.487976 -6.763,-0.561005c-0.093002,-0.688019 -0.186005,-1.375 -0.278992,-2.063019c-0.322006,-5.845978 4.151993,-3.304993 6.828995,-3.904999c1.429993,0.091003 2.884003,0.081024 4.147995,0.923004c0.544998,0.490997 0.91301,1.091003 1.105011,1.798004c0.179001,2.057007 -0.507004,3.494995 -2.738007,3.828003z" fill="#EBEBEB"/>
   <path id="svg_37" d="m74.012489,135.093002c0.084,1.044006 0.167999,2.088989 0.251999,3.132996c0.5,1.636017 -0.309006,2.459015 -1.781998,2.869995c-2.324005,0.179016 -4.641006,0.013 -6.959,-0.121979c-3.921005,-1.335999 -3.526001,-3.335022 -0.873001,-5.680023c3.109009,-0.577972 6.237,-0.305969 9.362,-0.200989z" fill="#FBFBFB"/>
   <path id="svg_38" d="m65.963493,140.001022c2.246002,0.072998 4.492996,0.145996 6.738998,0.220001c0.554001,2.299011 -1.630997,1.197998 -2.360992,1.902008c-1.685013,0.153992 -3.369003,0.424988 -5.054001,0.427002c-1.443008,0.000977 -1.965012,0.776001 -2.255005,1.957977c-0.682999,-1.238983 -0.914001,-2.550995 -0.641006,-3.944977c1.139008,-0.515015 2.462006,0.135986 3.572006,-0.562012z" fill="#444444"/>
   <path id="svg_39" d="m63.310493,146.569016c2.253998,0.187012 4.509003,0.373993 6.763,0.561005c0.192993,1.45401 -0.373993,2.181 -1.908997,2.072998c-1.352005,-0.095001 -2.708008,-0.128998 -4.061996,-0.190002c-0.264008,-0.813995 -0.528,-1.628998 -0.792007,-2.444z" fill="#545454"/>
   <path id="svg_40" d="m65.963493,140.001022c-1.112,0.688995 -2.249008,1.21701 -3.572006,0.561005c0.404007,-1.904999 -1.630997,-4.856018 2.258011,-5.266998c-1.074005,1.990997 -1.096008,3.687988 1.313995,4.705994z" fill="#EBEBEB"/>
   <path id="svg_41" d="m81.6455,122.760155c1.058014,-1.330002 1.355988,-2.888 1.355011,-4.535004c1.863983,1.563004 1.052979,3.666 0.964996,5.520996c-0.968994,20.573875 -0.473999,41.15786 -0.218994,61.730858c0.169983,13.727997 -0.416016,27.438995 -0.318024,41.160004c0.009003,1.261993 0.588013,2.901001 -1.500977,3.239014c-2.296021,-6.53302 -3.729004,-13.298004 -5.396027,-20c-4.315994,-5.25 -3.899994,-11.541016 -3.792984,-17.723022c0.029999,-1.725006 0.584991,-3.440002 -0.095001,-5.149994c-0.397003,-3.052002 -0.794998,-6.102997 -1.192001,-9.154999c-0.781006,-1.632996 -0.878006,-3.10199 0.985992,-4.097992c0.881012,-0.378998 1.806015,-0.697998 2.185013,-1.610016c-0.088013,0.040009 -0.029007,-0.453979 -0.094009,-0.411987c-0.479996,-0.350006 -1.018997,-0.321014 -1.552002,-0.389008c-0.490997,-0.10199 -0.807999,-0.376984 -0.972992,-0.826996l0.042999,0.157013c-3.511002,-5.95401 -0.109009,-11.743011 0.675003,-17.514008c0.382996,-2.821014 0.908997,-5.744995 1.687988,-8.550018c1.983994,-7.421997 3.121017,-15.126877 7.236008,-21.844841z" fill="#FEFEFE"/>
   <path id="svg_42" d="m72.644493,187.001999c1.977005,7.509003 2.507996,15.263 3.888,22.872986c-0.813995,-0.039978 -1.628006,-0.080994 -2.442001,-0.120972c-2.311996,-2.27301 -4.735992,-0.811005 -6.024994,-0.392029c1.286987,-0.273987 3.714996,-1.927979 6.039001,0.366028c0.021988,0.735992 0.042999,1.471985 0.064987,2.208984c-3.103989,1.44101 -6.167999,3.373993 -9.603989,0.792999c-1.900009,-0.72699 -3.80101,-1.45401 -5.701004,-2.181c0.255005,-4.971985 1.309998,-9.803986 2.567001,-14.60199c0.367004,2.524994 -0.372009,5.205994 1.063004,7.582001c2.735992,0.580994 5.494995,1.565979 8.079987,-0.462006c0.519012,-0.997009 0.083008,-1.962006 -0.099991,-2.937012c-0.076996,-0.772003 -0.050995,-1.539001 0.067993,-2.306c0.531998,-1.332001 0.16301,-2.580994 -0.345993,-3.817993c-0.003998,-0.852997 0.263992,-1.56601 1.037994,-2.019012c1.166,-1.464966 1.100006,-3.277985 1.410004,-4.984985z" fill="#3E3E3E"/>
   <path id="svg_43" d="m78.088493,230.087021c-6.085999,-0.188995 -12.136002,-0.363007 -18.184006,-0.575989c-1.093994,-0.038025 -2.567993,0.312988 -2.76799,-1.338013c-0.225998,-1.865997 0.862991,-2.962006 2.656998,-3.199005c2.134003,-0.281982 4.287003,-0.431 6.434998,-0.598999c2.147995,-0.167999 4.296997,-0.346985 6.449005,-0.416992c5.125992,-0.167023 5.125992,-0.141998 5.410995,6.128998z" fill="#F4F4F4"/>
   <path id="svg_44" d="m76.434502,222.88002c-5.384003,-0.166992 -10.447006,-0.30899 -15.507004,-0.493988c-0.927002,-0.034027 -2.069992,0.056 -2.210999,-1.295013c-0.110001,-1.054993 0.361008,-2.149994 1.262009,-2.467987c4.659988,-1.649017 9.554993,-2.640015 14.396988,-1.677002c2.369003,0.471985 1.942001,3.325989 2.059006,5.93399z" fill="#F1F1F1"/>
   <path id="svg_45" d="m64.565498,212.729019c3.201004,-0.264008 6.402008,-0.528992 9.604004,-0.792999c0.401993,1.355988 0.819992,3.290985 -1.152008,3.092987c-4.026001,-0.403992 -8.049988,0.848022 -12.298996,-0.05899c0.658005,-2.229004 2.589005,-1.65799 3.847,-2.240997z" fill="#EBEBEB"/>
   <path id="svg_46" d="m66.850502,232.203018c3.862,-1.484009 7.772995,-0.54599 11.620987,-0.843994c0.932007,-0.072021 1.689026,0.945984 1.544006,2.100006c-0.141998,1.134979 -1.221985,1.102997 -1.813995,0.888977c-3.684006,-1.325989 -7.723999,-0.346008 -11.350998,-2.144989z" fill="#D3D3D3"/>
   <path id="svg_47" d="m59.995491,236.334c-1.061005,0.09201 -2.121994,0.18399 -3.182007,0.276001c-1.084,-0.320007 -2.412994,0.165985 -3.462997,-1.281006c2.106003,-2.145996 4.786011,-1.143005 6.944,-0.77298c2.258011,0.388 -0.39299,1.105011 -0.298996,1.777985z" fill="#FDFDFD"/>
   <path id="svg_48" d="m51.708488,214.523026c0.807007,1.653992 0.798996,3.415985 0.688995,5.19101c-0.85199,-1.64801 -0.856995,-3.40802 -0.688995,-5.19101z" fill="#444444"/>
   <path id="svg_49" d="m82.90551,74.077156c-8.362,6.727005 -17.533997,7.397003 -27.257996,3.561005c-0.856003,-0.337997 -1.501007,-1.209 -2.24501,-1.832001c-0.565994,-0.875 -0.587997,-1.725006 0.114014,-2.542999c0.485001,-0.852005 1.289993,-1.014999 1.964996,-0.488998c6.735992,5.25 13.914001,5.149002 21.404984,1.921997c1.614014,-0.695007 3.292023,-1.244003 4.940002,-1.861008c1.151001,-0.272995 1.376984,0.257004 1.07901,1.242004z" fill="#171717"/>
   <path id="svg_50" d="m68.5485,65.635155c-2.313995,0.171997 -4.503998,-0.688004 -6.595993,-1.813995c-0.896011,-0.48201 -1.567001,-1.215012 -0.837006,-2.352005c0.492004,-0.766006 1.460999,-1.113007 2.037003,-0.748001c3.149002,1.990997 6.371994,2.783997 9.987,1.391998c0.244003,-0.093994 1.009003,0.598999 1.203003,1.063004c0.372986,0.893005 -0.271011,1.408005 -1.039001,1.742004c-1.476013,0.640991 -3.030014,0.796997 -4.755005,0.716995z" fill="#1E1E1E"/>
   <path id="svg_51" d="m53.517494,73.263161c-0.037994,0.848007 -0.076004,1.695999 -0.113998,2.542999c-1.468002,-0.181992 -3.460007,-0.136002 -2.804001,-2.348999c0.406998,-1.374008 1.880997,-0.703003 2.917999,-0.194z" fill="#888888"/>
   <path id="svg_52" d="m82.90551,74.077156c-0.359985,-0.414001 -0.718994,-0.828003 -1.07901,-1.242004c0.376007,-0.43399 0.684998,-0.974991 1.149017,-1.269989c0.43399,-0.274002 1.225983,-0.565002 1.523987,-0.360001c0.865021,0.595001 0.365021,1.371994 -0.169983,1.929001c-0.383026,0.401993 -0.942017,0.634995 -1.424011,0.942993z" fill="#868686"/>
   <path id="svg_53" d="m92.644493,48.790154c-1.136993,-1.557999 -0.345001,-2.863998 0.631012,-4.050995c0.803986,-0.978012 2.011993,-1.348999 3.020996,-0.531006c1.02298,0.830002 -0.009003,1.716995 -0.481018,2.410995c-0.741974,1.091003 -1.561981,2.205017 -3.17099,2.171005z" fill="#3F3F3F"/>
   <path id="svg_54" d="m50.860497,46.119164c-0.057007,1.389008 -0.774002,2.345993 -2.160995,2.091003c-1.882004,-0.346008 -4.020004,-0.705002 -3.699997,-3.5c2.333984,-1.109009 4.238998,-0.438004 5.860992,1.408997z" fill="#525252"/>
   <path id="svg_55" d="m50.860497,46.119164c-1.953995,-0.470001 -3.906998,-0.938995 -5.860992,-1.408997c0.672989,-0.393005 1.312988,-0.865005 2.024994,-1.165009c2.983994,-1.253006 2.992004,-1.233994 3.835999,2.574005z" fill="#949494"/>
   <path id="svg_56" d="m61.073494,175.112015c-0.003998,0.455994 -0.007996,0.911011 -0.011002,1.367004c-4.673996,1.048004 -6.110992,-0.919006 -4.703995,-6.438995c1.188995,-0.57901 2.425995,-0.966003 3.764999,-0.947021c1.455002,1.826996 -0.447998,4.184021 0.949997,6.019012z" fill="#262626"/>
   <path id="svg_57" d="m60.123497,169.093002c-1.072006,1.044006 -2.210007,1.822998 -3.764999,0.946991c0.660995,-2.675995 1.910004,-3.014984 3.764999,-0.946991z" fill="#242424"/>
   <path id="svg_58" d="m75.151497,143.737015c0.391998,4.328003 -1.100006,8.389008 -1.807999,12.557007c-0.809006,4.761993 -1.645996,9.510986 -1.296997,14.372986c-0.882004,-0.408997 -1.764008,-0.816986 -2.646011,-1.225983c-0.342987,-2.196014 1.474014,-5.152008 -2.261993,-6.15802c-0.916992,-0.246979 -0.313995,-1.173981 0.016998,-1.272003c4.509003,-1.330994 3.542999,-5.431 4.324997,-8.576996c0.507004,-2.042999 0.611008,-4.186005 0.896011,-6.285004c0.510986,-1.164001 1.021988,-2.327972 1.533997,-3.492981c0.438004,-0.362 0.852997,-0.356018 1.240997,0.080994z" fill="#393939"/>
   <path id="svg_59" d="m72.811501,203.912003c-0.117996,0.563995 -0.141998,1.578003 -0.367996,1.625c-3.064011,0.640015 -6.175003,0.703003 -9.235001,0.048004c-0.807007,-0.173004 -0.585999,-1.317017 -0.714005,-2.054993c2.098999,-1.345001 4.563004,-0.582001 6.792007,-1.174011c1.900986,-1.126984 2.919983,-0.253998 3.524994,1.556z" fill="#F0F0F0"/>
   <path id="svg_60" d="m71.233498,191.986008c0.014999,0.742004 0.029999,1.484985 0.044006,2.227997c0.227997,1.38501 -0.421005,1.761993 -1.667999,1.45401c-1.69101,-0.200012 -3.336014,0.903992 -5.046005,0.217987c0.026001,-5.063995 1.043991,-5.652985 6.669998,-3.899994z" fill="#F8F8F8"/>
   <path id="svg_61" d="m72.003502,170.511002c0.261002,-0.01001 0.5,0.058014 0.716003,0.203003c2.194,-1.602997 4.335999,-1.661011 6.414001,0.212982c0.169983,1.791016 0.243988,3.549011 -1.608002,4.639008c-1.187988,-0.388 -2.298004,-1.049988 -3.602997,-1.026001c-2.097,0.151001 -2.082001,1.880005 -2.471008,3.308014c-0.681992,-0.40802 -1.362991,-0.81601 -2.044998,-1.223999c-0.261002,-0.309998 -0.330002,-0.601013 -0.205002,-0.872009c0.122009,-0.264008 0.233002,-0.394989 0.333008,-0.391998c1.290985,-1.378998 2.877991,-2.605988 2.468994,-4.848999z" fill="#4E4E4E"/>
   <path id="svg_62" d="m71.9105,198.012009c0.016006,0.744995 0.031998,1.489014 0.048996,2.234009c-2.171997,1.802979 -4.748001,-0.33902 -6.996002,0.71698c-2.455994,-0.186981 -2.276993,-1.59198 -0.983994,-2.800995c0.662003,-0.617981 2.076996,-0.431 3.151993,-0.606995c1.636002,-0.299988 3.311005,-0.997009 4.779007,0.457001z" fill="#ECECEC"/>
   <path id="svg_63" d="m70.287498,187.016006c0.076004,1.951996 -1.067993,2.380005 -2.634995,2.320007c-1.337006,-0.052002 -3.016998,0.227997 -3.036011,-1.765015c-0.020996,-2.199005 1.906006,-2.095001 3.389008,-2.371979c1.487991,-0.279022 2.151001,0.514984 2.281998,1.816986z" fill="#D2D2D2"/>
   <path id="svg_64" d="m69.5355,175.360001c-0.042999,0.42099 -0.085999,0.84201 -0.128998,1.264008c-0.188004,0.229004 -0.298996,0.48999 -0.331009,0.785004c-1.115997,1.168976 -1.685989,0.174988 -2.314987,-0.584015c-1.917007,-0.615997 -2.156006,-1.962006 -1.577011,-3.651001c0.376999,-1.100006 1.277008,-1.359009 2.292999,-1.299988c2.384995,0.139008 1.630997,2.169006 2.059006,3.485992z" fill="#E3E3E3"/>
   <path id="svg_65" d="m69.031502,183.652023c-4.667999,-0.589996 -4.684998,-0.614014 -3.360992,-4.825989c1.209,-0.803009 2.375992,-0.856018 3.484985,0.187988l-0.026993,-0.041992c0.987991,1.580994 0.857986,3.138977 -0.097,4.679993z" fill="#E1E1E1"/>
   <path id="svg_66" d="m64.963493,200.963028c2.238007,-1.151001 4.664993,-0.468994 6.996002,-0.71701c0.626999,1.141998 1.031998,2.335999 0.85199,3.666016c-1.174988,-0.519012 -2.349991,-1.037994 -3.524994,-1.556c-1.11499,-1.478027 -2.847992,-1.034027 -4.322998,-1.393005z" fill="#BFBFBF"/>
   <path id="svg_67" d="m71.9105,198.012009c-1.593002,-0.152008 -3.186005,-0.303986 -4.779007,-0.457001c0.826004,-0.628998 1.652008,-1.257996 2.478012,-1.886993c0.556,-0.485016 1.112,-0.970001 1.667999,-1.45401c0.646988,1.194 0.727997,2.481018 0.632996,3.798004z" fill="#BFBFBF"/>
   <path id="svg_68" d="m69.155495,179.014023c-1.162003,-0.062988 -2.322998,-0.126007 -3.485001,-0.187988c0.363998,-0.667023 0.727005,-1.335022 1.091003,-2.002014c0.772003,0.195007 1.542999,0.390015 2.315002,0.584991c0.026001,0.535004 0.052994,1.070007 0.078995,1.605011z" fill="#4E4E4E"/>
   <path id="svg_69" d="m69.031502,183.652023c0.031998,-1.559998 0.065002,-3.119995 0.097,-4.679993c1.091995,1.582977 1.348999,3.148987 -0.097,4.679993z" fill="#4E4E4E"/>
   <path id="svg_70" d="m75.151497,143.737015c-0.414001,-0.027008 -0.828003,-0.053009 -1.242004,-0.079987c-0.026993,-0.359009 -0.069992,-0.716003 -0.126999,-1.071014c-0.399994,-1.864014 0.89801,-3.235992 1.400009,-4.838013c1.272995,-4.826996 2.546982,-9.652847 3.852005,-14.599846c-3.937012,-1.015991 -7.486008,-1.054993 -10.923004,-0.715988c-3.642014,0.359985 -6.944,-0.212006 -10.19101,-1.684006c5.893005,-1.949997 11.82901,-0.832001 17.738007,-0.158005c1.519989,0.173004 2.973999,0.914001 4.570984,0.718002c0.472015,0.483994 0.944,0.968002 1.416016,1.451996c-1.678009,6.195976 -3.360016,12.390862 -5.029999,18.58886c-0.256012,0.946991 -0.496002,1.885986 -1.464005,2.388z" fill="#343434"/>
   <path id="svg_71" d="m75.182503,137.748001c0.128006,1.785004 -0.559998,3.334015 -1.399994,4.838013c-1.147003,-0.154999 -2.292999,-0.309021 -3.440002,-0.46402c0.787003,-0.634003 1.57399,-1.268005 2.360992,-1.902008c0.934998,-0.340973 1.475998,-0.98999 1.561005,-1.994995c0.309998,-0.15097 0.615997,-0.309967 0.917999,-0.47699z" fill="#6A6A6A"/>
   <path id="svg_72" d="m79.134483,170.927017c-2.138,-0.071014 -4.276001,-0.141998 -6.414001,-0.213013c0.026001,-0.192993 0.039001,-0.388977 0.078003,-0.578979c0.391998,-1.886017 1.641006,-3.499023 3.375992,-3.462006c2.32103,0.049988 2.978012,2.11499 2.960007,4.253998z" fill="#2E2E2E"/>
   <path id="svg_73" d="m73.922493,174.540024c1.673996,-1.321014 2.736008,-0.48999 3.603012,1.026001c-1.575012,0.971985 -2.818008,0.776978 -3.603012,-1.026001z" fill="#0B0B0B"/>
   <path id="svg_74" d="m74.1045,209.727005c-4.106995,0.056 -8.188995,1.653992 -13.574005,0.213013c4.687012,-2.208008 8.480011,-2.601013 12.388,-2.034027c0.470001,0.068024 0.785004,1.206024 1.171997,1.848022l0.014008,-0.027008z" fill="#E5E5E5"/>
  </g>
 </g>
</svg>