<svg width="320" height="180" xmlns="http://www.w3.org/2000/svg">

 <g>
  <title>background</title>
  <rect fill="none" id="canvas_background" height="182" width="322" y="-1" x="-1"/>
 </g>
 <g>
  <title>Layer 1</title>
  <g id="svg_1">
   <g id="svg_2">
    <path id="svg_3" d="m0.03,93.261002c57.494998,-59.303001 91.558997,-39.439999 111.268996,-40.341999c18.472,-0.845001 43.585007,-25.583 52.787994,-19.883999c4.063004,2.515999 6.802002,6.179996 9.064011,6.454998c2.563995,0.312 2.720993,-7.726 5.744995,-8.684c3.003006,-0.951 8.574005,5.288 9.244995,3.530001c2.205002,-5.779001 5.089005,-1.667 6.845001,-5.366001c1.121002,-2.359999 0,-3.568001 4.251999,-4.326c3.018005,-0.538 26.184998,15.886002 41.093002,12.209c5.291992,-1.305 67.005005,-15.639 -0.190002,-41.837002" stroke-miterlimit="10" stroke-width="0.7677" stroke="#4b989a" fill="none"/>
    <path id="svg_4" d="m1.336,76.408997c62.540999,-54.312996 90.628996,-33.208996 108.665999,-34.006996c16.903,-0.748001 41.56601,-23.982 49.997009,-18.759001c3.721985,2.306 7.288986,7.212999 9.359985,7.467001c2.347,0.288 2.56601,-5.831001 5.332001,-6.703001c2.747009,-0.865999 8.226013,4.488001 8.838013,2.881001c2.009995,-5.281002 3.60199,-1.576 5.204987,-4.955999c1.022003,-2.156 2.933014,-3.833 6.889008,-3.027c15.373993,3.132 21.759003,13.644001 35.397003,10.302999c4.840988,-1.185999 63.115005,-8.202 -0.781998,-35.36" stroke-miterlimit="10" stroke-width="0.7677" stroke="#4b989a" fill="none"/>
    <path id="svg_5" d="m285.002014,-1.507c82.867004,31.969999 -12.342987,62.245998 -18.721008,64.732002c-30.528992,11.899998 -59.575989,-21.383999 -77.744995,-7.653c-3.151001,2.381001 -6.095993,10.904003 -8.072998,13.316998c-8.518005,10.392006 -13.445999,3.269005 -18.587006,0.085007c-11.647003,-7.213005 -27.807999,25 -51.18399,26.068993c-20.360008,0.932007 -38.037003,-5.300995 -62.964005,11.777c-16.351999,11.203003 -44.158001,56.349007 -55.202,83.276009" stroke-miterlimit="10" stroke-width="0.7677" stroke="#4b989a" fill="none"/>
    <path id="svg_6" d="m-2.157,121.475998c56.398001,-69.134998 88.628001,-50.848999 110.046999,-51.828995c20.073997,-0.918999 41.626007,-23.834999 51.628006,-17.641003c4.414993,2.734001 6.385986,7.037003 11.863998,2.980003c2.164001,-1.603001 3.646988,-10.394001 6.932999,-11.435001c3.263992,-1.034 13.813995,3.509998 15.722,-0.510002c1.218002,-2.564999 1.761993,-5.362 6.382996,-6.185997c3.279007,-0.585003 28.455002,17.264 44.655991,13.267998c5.751007,-1.417999 97.807007,-22.355 8.078003,-54.096999" stroke-miterlimit="10" stroke-width="0.7677" stroke="#4b989a" fill="none"/>
   </g>
   <g id="svg_7">
    <path id="svg_8" d="m2.291,64.084c61.136002,-47.948002 91.484002,-31.119999 103.883004,-31.630001c14.892998,-0.612 41.976006,-24.440999 52.984993,-12.125999c2.029007,2.27 4.344009,3.922001 5.775009,4.112001c1.621002,0.216 0.783005,-2.728001 2.022995,-3.234001c0.837997,-0.341999 -0.369003,-1.577 1.533005,-2.151999c1.888,-0.571001 4.431,3.08 5.149994,2.936998c0.705002,-0.139 0.775009,-1.717999 1.684998,-2.452999c0.915009,-0.739 2.229004,0.798 3.307007,-1.502001c0.688004,-1.467999 -0.029007,-2.231999 2.649002,-2.671999c1.901001,-0.312 1.929993,0.862999 3.240005,1.08c4.178986,0.694 6.088989,-2.318 8.815994,-2.243c6.076004,0.167 18.544998,7.49 19.783005,7.876999c4.694992,1.465 25.057999,-4.220999 20.082993,-10.863999c-2.537003,-3.387 -35.382004,-19.013001 -37.319,-19.629" stroke-miterlimit="10" stroke-width="0.7677" stroke="#4b989a" fill="none"/>
   </g>
  </g>
 </g>
</svg>