<svg width="14" height="20" xmlns="http://www.w3.org/2000/svg">

 <g>
  <title>background</title>
  <rect fill="none" id="canvas_background" height="22" width="16" y="-1" x="-1"/>
 </g>
 <g>
  <title>Layer 1</title>
  <g id="svg_1">
   <g id="svg_2">
    <path id="svg_3" d="m478.160828,0.052342l5.880981,0l-7.951996,10.266998l8.08902,10.874002l-6.27002,0l-7.438995,-10.899004l7.69101,-10.241996z" fill="#B0B3B4"/>
    <path id="svg_4" d="m491.996826,0.052342l5.880981,0l-7.951965,10.266998l8.088989,10.874002l-6.27002,0l-7.438965,-10.899004l7.690979,-10.241996z" fill="#B0B3B4"/>
    <path id="svg_5" d="m505.832825,0.052342l5.880981,0l-7.951965,10.266998l8.088989,10.874002l-6.27002,0l-7.438965,-10.899004l7.690979,-10.241996z" fill="#B0B3B4"/>
    <path id="svg_6" d="m519.669861,0.052342l5.880981,0l-7.951904,10.266998l8.088989,10.874002l-6.27002,0l-7.439026,-10.899004l7.690979,-10.241996z" fill="#B0B3B4"/>
    <path id="svg_7" d="m533.50592,0.052342l5.880981,0l-7.952026,10.266998l8.088989,10.874002l-6.27002,0l-7.438965,-10.899004l7.69104,-10.241996z" fill="#B0B3B4"/>
    <path id="svg_8" d="m547.341858,0.052342l5.880981,0l-7.951904,10.266998l8.088989,10.874002l-6.27002,0l-7.438965,-10.899004l7.690918,-10.241996z" fill="#B0B3B4"/>
    <path id="svg_9" d="m561.178894,0.052342l5.880981,0l-7.952026,10.266998l8.088989,10.874002l-6.27002,0l-7.438965,-10.899004l7.69104,-10.241996z" fill="#B0B3B4"/>
    <path id="svg_10" d="m575.014832,0.052342l5.880981,0l-7.951904,10.266998l8.088989,10.874002l-6.27002,0l-7.438965,-10.899004l7.690918,-10.241996z" fill="#B0B3B4"/>
    <path id="svg_11" d="m588.850891,0.052342l5.880981,0l-7.952026,10.266998l8.088989,10.874002l-6.27002,0l-7.438965,-10.899004l7.69104,-10.241996z" fill="#B0B3B4"/>
    <path id="svg_12" d="m602.687927,0.052342l5.880981,0l-7.952026,10.266998l8.088989,10.874002l-6.27002,0l-7.438965,-10.899004l7.69104,-10.241996z" fill="#B0B3B4"/>
    <path id="svg_13" d="m616.523865,0.052342l5.880981,0l-7.951904,10.266998l8.088989,10.874002l-6.27002,0l-7.438965,-10.899004l7.690918,-10.241996z" fill="#B0B3B4"/>
    <path id="svg_14" d="m630.360901,0.052342l5.880981,0l-7.952026,10.266998l8.088989,10.874002l-6.27002,0l-7.438965,-10.899004l7.69104,-10.241996z" fill="#B0B3B4"/>
    <path id="svg_15" d="m644.196838,0.052342l5.880981,0l-7.951904,10.266998l8.088989,10.874002l-6.27002,0l-7.438965,-10.899004l7.690918,-10.241996z" fill="#B0B3B4"/>
    <path id="svg_16" d="m658.032898,0.052342l5.880981,0l-7.952026,10.266998l8.088989,10.874002l-6.27002,0l-7.438965,-10.899004l7.69104,-10.241996z" fill="#B0B3B4"/>
    <path id="svg_17" d="m671.869812,0.052342l5.880981,0l-7.951904,10.266998l8.088989,10.874002l-6.27002,0l-7.438965,-10.899004l7.690918,-10.241996z" fill="#B0B3B4"/>
    <path id="svg_18" d="m685.705872,0.052342l5.880981,0l-7.952026,10.266998l8.088989,10.874002l-6.27002,0l-7.438965,-10.899004l7.69104,-10.241996z" fill="#B0B3B4"/>
    <path id="svg_19" d="m699.541809,0.052342l5.880981,0l-7.951904,10.266998l8.088989,10.874002l-6.27002,0l-7.438965,-10.899004l7.690918,-10.241996z" fill="#B0B3B4"/>
    <path id="svg_20" d="m713.378845,0.052342l5.880981,0l-7.951904,10.266998l8.088989,10.874002l-6.27002,0l-7.438965,-10.899004l7.690918,-10.241996z" fill="#B0B3B4"/>
    <path id="svg_21" d="m727.214905,0.052342l5.880981,0l-7.952026,10.266998l8.088989,10.874002l-6.27002,0l-7.438965,-10.899004l7.69104,-10.241996z" fill="#B0B3B4"/>
    <path id="svg_22" d="m741.050842,0.052342l5.880981,0l-7.951904,10.266998l8.088989,10.874002l-6.27002,0l-7.438965,-10.899004l7.690918,-10.241996z" fill="#B0B3B4"/>
    <path id="svg_23" d="m754.887878,0.052342l5.880981,0l-7.952026,10.266998l8.088989,10.874002l-6.27002,0l-7.438965,-10.899004l7.69104,-10.241996z" fill="#B0B3B4"/>
    <path id="svg_24" d="m768.723816,0.052342l5.880981,0l-7.951904,10.266998l8.088989,10.874002l-6.27002,0l-7.438965,-10.899004l7.690918,-10.241996z" fill="#B0B3B4"/>
    <path id="svg_25" d="m782.559875,0.052342l5.880981,0l-7.952026,10.266998l8.088989,10.874002l-6.27002,0l-7.438965,-10.899004l7.69104,-10.241996z" fill="#B0B3B4"/>
    <path id="svg_26" d="m796.396912,0.052342l5.880981,0l-7.952026,10.266998l8.088989,10.874002l-6.27002,0l-7.438965,-10.899004l7.69104,-10.241996z" fill="#B0B3B4"/>
    <path id="svg_27" d="m810.232849,0.052342l5.880981,0l-7.951904,10.266998l8.088989,10.874002l-6.27002,0l-7.438965,-10.899004l7.690918,-10.241996z" fill="#B0B3B4"/>
    <path id="svg_28" d="m824.068909,0.052342l5.880981,0l-7.952026,10.266998l8.088989,10.874002l-6.27002,0l-7.438965,-10.899004l7.69104,-10.241996z" fill="#B0B3B4"/>
    <path id="svg_29" d="m837.905823,0.052342l5.880981,0l-7.951904,10.266998l8.088989,10.874002l-6.27002,0l-7.438965,-10.899004l7.690918,-10.241996z" fill="#B0B3B4"/>
    <path id="svg_30" d="m851.741882,0.052342l5.880981,0l-7.952026,10.266998l8.088989,10.874002l-6.27002,0l-7.438965,-10.899004l7.69104,-10.241996z" fill="#B0B3B4"/>
    <path id="svg_31" d="m865.578918,0.052342l5.880981,0l-7.952026,10.266998l8.088989,10.874002l-6.27002,0l-7.438965,-10.899004l7.69104,-10.241996z" fill="#B0B3B4"/>
    <path id="svg_32" d="m879.414856,0.052342l5.880981,0l-7.951904,10.266998l8.088989,10.874002l-6.27002,0l-7.438965,-10.899004l7.690918,-10.241996z" fill="#B0B3B4"/>
    <path id="svg_33" d="m893.250916,0.052342l5.880981,0l-7.952026,10.266998l8.088989,10.874002l-6.27002,0l-7.438965,-10.899004l7.69104,-10.241996z" fill="#B0B3B4"/>
    <path id="svg_34" d="m907.08783,0.052342l5.880981,0l-7.951904,10.266998l8.088989,10.874002l-6.27002,0l-7.438965,-10.899004l7.690918,-10.241996z" fill="#B0B3B4"/>
    <path id="svg_35" d="m920.923889,0.052342l5.880981,0l-7.952026,10.266998l8.088989,10.874002l-6.27002,0l-7.438965,-10.899004l7.69104,-10.241996z" fill="#B0B3B4"/>
    <path id="svg_36" d="m934.759827,0.052342l5.880981,0l-7.951904,10.266998l8.088989,10.874002l-6.27002,0l-7.438965,-10.899004l7.690918,-10.241996z" fill="#B0B3B4"/>
   </g>
   <g id="svg_37">
    <path id="svg_38" d="m7.851817,0.052342l5.881004,0l-7.952003,10.266998l8.089005,10.874002l-6.270004,0l-7.438995,-10.899004l7.690994,-10.241996z" fill="#B0B3B4"/>
    <path id="svg_39" d="m21.687826,0.052342l5.880997,0l-7.951996,10.266998l8.088997,10.874002l-6.269997,0l-7.439006,-10.899004l7.691005,-10.241996z" fill="#B0B3B4"/>
    <path id="svg_40" d="m35.52483,0.052342l5.880997,0l-7.952003,10.266998l8.089005,10.874002l-6.270004,0l-7.438993,-10.899004l7.691,-10.241996z" fill="#B0B3B4"/>
    <path id="svg_41" d="m49.360828,0.052342l5.880997,0l-7.951996,10.266998l8.088997,10.874002l-6.269997,0l-7.439003,-10.899004l7.691002,-10.241996z" fill="#B0B3B4"/>
    <path id="svg_42" d="m63.196827,0.052342l5.880993,0l-7.951992,10.266998l8.088993,10.874002l-6.269993,0l-7.439003,-10.899004l7.691002,-10.241996z" fill="#B0B3B4"/>
    <path id="svg_43" d="m77.033821,0.052342l5.881004,0l-7.952003,10.266998l8.088997,10.874002l-6.269997,0l-7.439003,-10.899004l7.691002,-10.241996z" fill="#B0B3B4"/>
    <path id="svg_44" d="m90.86982,0.052342l5.880997,0l-7.951996,10.266998l8.088989,10.874002l-6.269989,0l-7.438995,-10.899004l7.690994,-10.241996z" fill="#B0B3B4"/>
    <path id="svg_45" d="m104.705833,0.052342l5.880981,0l-7.951996,10.266998l8.088989,10.874002l-6.269989,0l-7.438995,-10.899004l7.69101,-10.241996z" fill="#B0B3B4"/>
    <path id="svg_46" d="m118.542809,0.052342l5.880997,0l-7.951981,10.266998l8.088974,10.874002l-6.269989,0l-7.439011,-10.899004l7.69101,-10.241996z" fill="#B0B3B4"/>
    <path id="svg_47" d="m132.378815,0.052342l5.880997,0l-7.951996,10.266998l8.089005,10.874002l-6.270004,0l-7.438988,-10.899004l7.690987,-10.241996z" fill="#B0B3B4"/>
    <path id="svg_48" d="m146.214813,0.052342l5.880997,0l-7.951996,10.266998l8.089005,10.874002l-6.270004,0l-7.438995,-10.899004l7.690994,-10.241996z" fill="#B0B3B4"/>
    <path id="svg_49" d="m160.051804,0.052342l5.880997,0l-7.951996,10.266998l8.089005,10.874002l-6.270004,0l-7.438995,-10.899004l7.690994,-10.241996z" fill="#B0B3B4"/>
    <path id="svg_50" d="m173.887802,0.052342l5.880997,0l-7.951996,10.266998l8.088989,10.874002l-6.269989,0l-7.439011,-10.899004l7.69101,-10.241996z" fill="#B0B3B4"/>
    <path id="svg_51" d="m187.723801,0.052342l5.880997,0l-7.951996,10.266998l8.088989,10.874002l-6.269989,0l-7.439011,-10.899004l7.69101,-10.241996z" fill="#B0B3B4"/>
    <path id="svg_52" d="m201.560806,0.052342l5.880997,0l-7.951996,10.266998l8.089005,10.874002l-6.270004,0l-7.438995,-10.899004l7.690994,-10.241996z" fill="#B0B3B4"/>
    <path id="svg_53" d="m215.396805,0.052342l5.881012,0l-7.952011,10.266998l8.089005,10.874002l-6.270004,0l-7.438995,-10.899004l7.690994,-10.241996z" fill="#B0B3B4"/>
    <path id="svg_54" d="m229.232834,0.052342l5.880981,0l-7.952026,10.266998l8.08905,10.874002l-6.27002,0l-7.438995,-10.899004l7.69101,-10.241996z" fill="#B0B3B4"/>
    <path id="svg_55" d="m243.069809,0.052342l5.881012,0l-7.951996,10.266998l8.088989,10.874002l-6.27002,0l-7.439026,-10.899004l7.69104,-10.241996z" fill="#B0B3B4"/>
    <path id="svg_56" d="m256.905823,0.052342l5.880981,0l-7.952011,10.266998l8.089035,10.874002l-6.27002,0l-7.439011,-10.899004l7.691025,-10.241996z" fill="#B0B3B4"/>
    <path id="svg_57" d="m270.742828,0.052342l5.881012,0l-7.952026,10.266998l8.08902,10.874002l-6.27002,0l-7.438995,-10.899004l7.69101,-10.241996z" fill="#B0B3B4"/>
    <path id="svg_58" d="m284.578827,0.052342l5.881012,0l-7.951996,10.266998l8.088989,10.874002l-6.27002,0l-7.438995,-10.899004l7.69101,-10.241996z" fill="#B0B3B4"/>
    <path id="svg_59" d="m298.414825,0.052342l5.881012,0l-7.951996,10.266998l8.088989,10.874002l-6.269989,0l-7.439026,-10.899004l7.69101,-10.241996z" fill="#B0B3B4"/>
    <path id="svg_60" d="m312.251831,0.052342l5.881012,0l-7.952026,10.266998l8.08902,10.874002l-6.27002,0l-7.438995,-10.899004l7.69101,-10.241996z" fill="#B0B3B4"/>
    <path id="svg_61" d="m326.08783,0.052342l5.881012,0l-7.952026,10.266998l8.08902,10.874002l-6.27002,0l-7.438995,-10.899004l7.69101,-10.241996z" fill="#B0B3B4"/>
    <path id="svg_62" d="m339.923828,0.052342l5.881012,0l-7.952026,10.266998l8.08902,10.874002l-6.27002,0l-7.438995,-10.899004l7.69101,-10.241996z" fill="#B0B3B4"/>
    <path id="svg_63" d="m353.760834,0.052342l5.881012,0l-7.951996,10.266998l8.088989,10.874002l-6.269989,0l-7.439026,-10.899004l7.69101,-10.241996z" fill="#B0B3B4"/>
    <path id="svg_64" d="m367.596832,0.052342l5.880981,0l-7.951996,10.266998l8.08902,10.874002l-6.27002,0l-7.438995,-10.899004l7.69101,-10.241996z" fill="#B0B3B4"/>
    <path id="svg_65" d="m381.432831,0.052342l5.881012,0l-7.952026,10.266998l8.08902,10.874002l-6.27002,0l-7.438995,-10.899004l7.69101,-10.241996z" fill="#B0B3B4"/>
    <path id="svg_66" d="m395.269836,0.052342l5.881012,0l-7.951996,10.266998l8.088989,10.874002l-6.269989,0l-7.439026,-10.899004l7.69101,-10.241996z" fill="#B0B3B4"/>
    <path id="svg_67" d="m409.105835,0.052342l5.881012,0l-7.951996,10.266998l8.088989,10.874002l-6.269989,0l-7.439026,-10.899004l7.69101,-10.241996z" fill="#B0B3B4"/>
    <path id="svg_68" d="m422.941833,0.052342l5.881012,0l-7.951996,10.266998l8.088989,10.874002l-6.269989,0l-7.439026,-10.899004l7.69101,-10.241996z" fill="#B0B3B4"/>
    <path id="svg_69" d="m436.778839,0.052342l5.881012,0l-7.952026,10.266998l8.08902,10.874002l-6.27002,0l-7.438995,-10.899004l7.69101,-10.241996z" fill="#B0B3B4"/>
    <path id="svg_70" d="m450.614838,0.052342l5.881012,0l-7.952026,10.266998l8.08902,10.874002l-6.27002,0l-7.438995,-10.899004l7.69101,-10.241996z" fill="#B0B3B4"/>
    <path id="svg_71" d="m464.451843,0.052342l5.881012,0l-7.951996,10.266998l8.088989,10.874002l-6.269989,0l-7.439026,-10.899004l7.69101,-10.241996z" fill="#B0B3B4"/>
   </g>
  </g>
 </g>
</svg>