<?xml version="1.0" encoding="utf-8"?>
<!-- Generator: Adobe Illustrator 17.0.0, SVG Export Plug-In . SVG Version: 6.00 Build 0)  -->
<!DOCTYPE svg PUBLIC "-//W3C//DTD SVG 1.1//EN" "http://www.w3.org/Graphics/SVG/1.1/DTD/svg11.dtd">
<svg version="1.1" id="Слой_1" xmlns="http://www.w3.org/2000/svg" xmlns:xlink="http://www.w3.org/1999/xlink" x="0px" y="0px"
	 width="600px" height="600px" viewBox="0 0 600 600" enable-background="new 0 0 600 600" xml:space="preserve">
<g>
	<defs>
		<rect id="SVGID_5_" width="919" height="643.13"/>
	</defs>
	<clipPath id="SVGID_1_">
		<use xlink:href="#SVGID_5_"  overflow="visible"/>
	</clipPath>
	<g clip-path="url(#SVGID_1_)">
		<defs>
			<rect id="SVGID_7_" x="0.643" y="2.054" width="918.357" height="641.075"/>
		</defs>
		<clipPath id="SVGID_2_">
			<use xlink:href="#SVGID_7_"  overflow="visible"/>
		</clipPath>
	</g>
	<g clip-path="url(#SVGID_1_)">
		<polygon fill="#C2C5C6" points="327.794,0.179 -10.323,0.411 -10.323,269.043 229.948,167.442 		"/>
		<g>
			<path fill="#64A4A1" d="M515.08,49.946c11.564-14.141,16.096-52.066,4.205-59.288c-3.441-2.09-11.108-5.208-19.869,2.248
				c-2.338,1.989,2.174,8.601-0.715,10.496c-5.896,3.868-16.934,4.898-23.075,9.353c-36.577,26.539-36.413,7.965-47.703,12.247
				c-20.2,7.662-334.589,162.601-359.21,184.303c-40.763,35.931-51.867,59.339-68.135,98.686s-37.986,98.255-40.34,106.264
				c-7.607,25.881-8.766,0.108-19.098,47.867c-3.833,17.717-7.654,32.416-8.691,49.107c-0.545,8.777,6.953,2.359,9.376,9.263
				c3.939,11.223-3.173,22.143-1.537,25.875c2.133,4.866,2.83,38.575,10.52,12.247c5.617-19.231-11.088-40.967,4.553-92.129
				c5.852-19.142-0.329-16.92,20.134-70.42c10.984-28.718,8.643-36.655,15.148-41.879c33.837-27.177,15.459-23.742,31.48-32.899
				c21.78-12.448,23.51,21.264,77.041-14.047c15.557-10.261,31.146-31.068,43.407-43.531c13.651-13.878,47.35-31.782,60.65-45.265
				c23.501-23.825,15.286-15.428,33.863-25.453c11.246-6.068,1.552-17.958,34.763-14.624c14.66,1.472,27.045,8.583,33.777,5.901
				c7.63-3.041-1.905-15.644,2.608-21.331c3.05-3.843-4.752-6.957,2.562-14.667c7.264-7.657,25.768,4.147,28.684,1.607
				c2.859-2.491,0.053-10.57,2.644-16.559c2.608-6.027,11.48-1.671,11.732-15.924c0.161-9.095-4.536-11.098,6.496-20.107
				c7.83-6.394,10.278-0.588,16.531-2.831c19.94-7.153,44.687-16.703,54.433-27.664c4.53-5.094,24.478-8.869,29.604-13.619
				C467.592,46.987,510.457,55.599,515.08,49.946z"/>
			<path fill="#349191" d="M513.689,19.773c11.564-14.141,16.096-52.066,4.205-59.288c-3.441-2.09-11.108-5.208-19.869,2.248
				c-2.338,1.989,2.174,8.601-0.715,10.496c-5.896,3.868-16.934,4.898-23.075,9.353c-36.577,26.539-36.413,7.965-47.703,12.247
				c-20.2,7.662-334.589,162.601-359.21,184.303c-40.763,35.931-51.867,59.339-68.135,98.686s-37.986,98.255-40.34,106.264
				c-7.607,25.881-8.766,0.108-19.098,47.867c-3.833,17.717-7.654,32.416-8.691,49.107c-0.545,8.777,6.953,2.359,9.376,9.263
				c3.939,11.223-3.173,22.143-1.537,25.875c2.133,4.866,2.83,38.575,10.52,12.247c5.617-19.231-11.088-40.967,4.553-92.129
				c5.852-19.142-0.329-16.92,20.134-70.42c10.984-28.718,8.643-36.655,15.148-41.879c33.837-27.177,15.459-23.743,31.48-32.899
				c21.78-12.448,23.51,21.264,77.041-14.047c15.557-10.261,31.146-31.068,43.407-43.531c13.651-13.878,47.35-31.782,60.65-45.265
				c23.501-23.825,15.286-15.428,33.863-25.453c11.246-6.068,1.552-17.958,34.763-14.624c14.66,1.472,27.045,8.583,33.777,5.901
				c7.63-3.041-1.905-15.644,2.608-21.331c3.05-3.843-4.752-6.957,2.562-14.667c7.264-7.657,25.768,4.147,28.684,1.607
				c2.859-2.491,0.053-10.57,2.644-16.559c2.608-6.027,11.48-1.671,11.732-15.924c0.161-9.095-4.536-11.098,6.496-20.107
				c7.83-6.394,10.278-0.588,16.531-2.831c19.94-7.153,44.687-16.703,54.433-27.664c4.53-5.094,24.478-8.869,29.604-13.619
				C466.201,16.814,509.066,25.426,513.689,19.773z"/>
			<path fill="#0B6767" d="M528.556-6.289c11.714-13.542,15.957-50.148,3.678-57.256c-3.553-2.057-11.454-5.153-20.364,1.959
				c-2.377,1.898,2.323,8.336-0.621,10.136c-6.008,3.675-17.324,4.552-23.577,8.792c-37.247,25.256-37.278,7.307-48.816,11.324
				C418.212-24.145,97.281,122.224,72.251,142.934c-41.441,34.288-52.583,56.793-68.853,94.647s-37.922,94.553-40.251,102.269
				c-7.528,24.932-8.994,0.01-19.083,46.057c-3.743,17.082-7.506,31.247-8.39,47.367c-0.465,8.477,7.16,2.355,9.72,9.053
				c4.162,10.89-3.018,21.367-1.299,24.991c2.241,4.726,3.318,37.313,10.927,11.949c5.557-18.526-11.818-39.713,3.682-88.992
				c5.799-18.438-0.519-16.357,19.903-67.843C-10.432,294.796-12.919,287.1-6.3,282.12c34.428-25.903,15.607-22.781,31.948-31.458
				c22.215-11.797,24.352,20.804,78.901-12.748c15.852-9.75,31.625-29.692,44.072-41.606c13.859-13.266,48.244-30.208,61.746-43.096
				c23.858-22.774,15.519-14.747,34.474-24.236c11.474-5.744,1.4-17.34,35.513-13.761c15.059,1.58,27.844,8.586,34.722,6.066
				c7.796-2.857-2.123-15.14,2.446-20.588c3.088-3.681-4.95-6.775,2.471-14.148c7.371-7.322,26.485,4.285,29.45,1.861
				c2.907-2.377-0.059-10.215,2.535-15.975c2.611-5.797,11.762-1.492,11.867-15.264c0.068-8.788-4.774-10.775,6.45-19.363
				c7.965-6.095,10.54-0.458,16.932-2.559c20.384-6.699,45.674-15.663,55.557-26.152c4.593-4.875,25.022-8.308,30.23-12.845
				C479.797-9.659,523.873-0.875,528.556-6.289z"/>
			<path fill="#557C7C" stroke="#557C7C" stroke-miterlimit="10" d="M540.63-37.648c4.627-4.229,16.133-50.06,3.504-57.224
				c-3.654-2.073-11.775-5.206-20.882,1.863c-2.43,1.886,2.423,8.345-0.589,10.131c-6.146,3.645-17.751,4.469-24.146,8.678
				c-38.092,25.074-38.208,7.129-50.027,11.091C427.344-56.019,98.796,88.801,73.215,109.388
				c-42.352,34.084-53.677,56.53-70.19,94.298s-38.458,94.351-40.811,102.053c-7.605,24.89-9.227-0.032-19.36,45.956
				c-3.759,17.06-7.553,31.204-8.384,47.316c-0.437,8.472,7.356,2.388,10.015,9.097c4.322,10.906-2.995,21.347-1.215,24.979
				c2.322,4.735,3.58,37.319,11.266,11.998c5.614-18.495-12.311-39.759,3.359-88.952c5.863-18.406-0.609-16.355,20.098-67.732
				c11.116-27.579,8.527-35.284,15.294-40.232c35.197-25.734,15.904-22.701,32.627-31.3c22.735-11.689,25.08,20.913,80.883-12.373
				c16.217-9.673,32.304-29.535,45.017-41.388c14.155-13.197,49.351-29.973,63.142-42.795c24.368-22.656,15.851-14.67,35.252-24.067
				c11.744-5.689,1.354-17.329,36.368-13.59c15.456,1.65,28.605,8.715,35.649,6.228c7.985-2.819-2.249-15.146,2.413-20.571
				c3.15-3.666-5.11-6.797,2.469-14.132c7.528-7.286,27.191,4.409,30.221,1.999c2.971-2.362-0.109-10.213,2.526-15.959
				c2.651-5.783,12.059-1.436,12.103-15.205c0.028-8.785-4.948-10.795,6.525-19.328c8.143-6.056,10.81-0.408,17.358-2.478
				c20.88-6.601,46.782-15.444,56.872-25.883c4.689-4.852,25.631-8.188,30.952-12.699C490.592-41.247,535.555-33.009,540.63-37.648z
				"/>
			<path fill="#C2C5C6" d="M526.428-53.852c4.627-4.229,16.133-50.06,3.504-57.224c-3.654-2.073-11.775-5.206-20.882,1.863
				c-2.43,1.886,2.423,8.345-0.589,10.131c-6.146,3.645-17.751,4.469-24.146,8.678c-38.092,25.074-38.208,7.129-50.027,11.091
				C413.143-72.224,84.595,72.596,59.013,93.183c-42.352,34.084-53.677,56.53-70.19,94.298s-38.458,94.351-40.811,102.053
				c-7.605,24.89-9.227-0.032-19.36,45.956c-3.759,17.06-7.553,31.204-8.384,47.316c-0.437,8.472,7.356,2.388,10.015,9.097
				c4.322,10.906-2.995,21.347-1.215,24.979c2.322,4.735,3.58,37.319,11.266,11.998c5.614-18.495-12.311-39.759,3.359-88.952
				c5.863-18.406-0.609-16.355,20.098-67.732c11.116-27.579,8.527-35.284,15.294-40.232c35.197-25.734,15.904-22.701,32.627-31.3
				c22.735-11.689,25.08,20.913,80.883-12.373c16.217-9.673,32.304-29.535,45.017-41.388c14.155-13.197,49.351-29.973,63.142-42.795
				c24.368-22.656,15.851-14.67,35.252-24.067c11.744-5.689,1.354-17.329,36.368-13.59c15.456,1.65,28.605,8.715,35.649,6.228
				c7.985-2.819-2.249-15.146,2.413-20.571c3.15-3.666-5.11-6.797,2.469-14.132c7.528-7.286,27.191,4.409,30.221,1.999
				c2.971-2.362-0.109-10.213,2.526-15.959c2.651-5.783,12.059-1.436,12.103-15.205c0.028-8.785-4.948-10.795,6.525-19.328
				c8.143-6.056,10.81-0.408,17.358-2.478c20.88-6.601,46.782-15.444,56.872-25.883c4.689-4.852,25.631-8.188,30.952-12.699
				C476.391-57.452,521.353-49.214,526.428-53.852z"/>
		</g>
	</g>
</g>
</svg>
