<svg width="230" height="350" xmlns="http://www.w3.org/2000/svg">

 <g>
  <title>background</title>
  <rect fill="none" id="canvas_background" height="352" width="232" y="-1" x="-1"/>
 </g>
 <g>
  <title>Layer 1</title>
  <g id="svg_1">
   <path id="svg_2" d="m39.925995,166.431c0.557999,-3.707993 1.116989,-7.416 1.684998,-11.186005c4.522995,-0.134995 7.091995,2.563004 10.065994,4.233002c5.960999,3.348007 8.758011,2.820999 12.341003,-2.974991c3.972,-6.424011 7.727005,-12.98201 11.705994,-19.701004c4.036011,2.244003 5.157013,6.013992 6.867004,9.332993c1.613998,3.131012 2.945007,6.436005 4.824005,9.396011c2.537994,3.995987 6.106003,6.112 11.154999,4.910995c4.576004,-1.089005 9.210999,-1.936005 13.834991,-2.811996c1.661011,-0.315002 3.609009,-1.115997 4.762009,0.837997c0.960999,1.627991 0.593002,3.311996 -0.403,4.979996c-4.518997,7.572998 -8.951996,15.197998 -13.415009,22.804016c0.154007,1.534973 0.07901,3.020996 -0.918991,4.307983c-4.736008,3.59201 -9.403,1.528992 -14.020996,-0.264008c-10.681,-4.147003 -20.059006,-10.61499 -29.498001,-16.919983c-4.231995,-2.827011 -8.425003,-5.216003 -13.733002,-4.557007c-1.92099,-0.421005 -4.013,-0.475998 -5.251999,-2.388z" fill="#080808"/>
   <path id="svg_3" d="m156.979004,43.956001c14.609009,8.698997 21.479004,22.305 23.231995,38.525002c1.92099,17.774002 -3.234985,33.334991 -14.946991,47.334c-8.494019,10.153 -18.233002,17.136993 -30.809998,20.916c-14.921005,4.483002 -28.016998,0.14299 -40.200012,-7.824997c-5.584,-3.653 -11.112991,-7.685013 -15.425995,-13.082001c-7.85701,-9.834 -8.710999,-21.630005 -9.585999,-33.371002c-1,-13.411987 2.147995,-25.663986 11.192001,-36.048996c0.727997,-0.835999 0.898987,-2.155991 1.328995,-3.250992c1.585007,-1.113998 3.209,-1.77301 5.005005,-0.432999c3.016998,4.463989 0.046997,7.867996 -2.205002,11.215988c-11.024994,16.395004 -9.963989,34.124008 -2.943008,50.865005c12.081009,28.804001 52.856995,33.837006 73.440002,10.404999c10.930023,-12.444 18.725006,-25.531998 17.529022,-42.854004c-1.072998,-15.533997 -7.705017,-27.55899 -20.553009,-36.263992c-3.024994,-2.049004 -7.404999,-3.151001 -6.40799,-8.342003c4.710968,-4.016006 7.768982,0.438988 11.350983,2.209991z" fill="#353535"/>
   <path id="svg_4" d="m39.188995,296.321014c-6.662994,8.181 -13.381989,16.31601 -19.968994,24.557007c-4.393997,5.496979 -9.216995,10.716003 -12.091003,17.279999c-0.987,2.255005 -2.778,3.078979 -4.936005,2.253998c-1.873993,-0.71701 -1.085999,-2.529022 -0.658997,-3.81601c8.737,-26.302002 12.320999,-53.84198 19.383011,-80.53299c4.437988,-16.77301 8.671997,-33.540985 10.768997,-50.790985c0.174988,-1.436005 0.794998,-2.817017 1.209,-4.223999c0.215988,-1.968018 0.724991,-3.687012 3.179001,-3.753021c5.224991,3.199005 3.477997,8.401001 3.057999,12.730011c-1.334,13.755005 -4.583008,27.247009 -7.947006,40.579987c-5.020996,19.897003 -8.964005,39.985016 -12.414001,58.85202c3.30101,-5.449005 8.962997,-10.687012 13.730011,-16.636017c2.037994,-2.542999 4.714996,-3.445007 7.763,-1.40799c1.350998,2.010986 0.319992,3.499969 -1.075012,4.90799z" fill="#2D2D2D"/>
   <path id="svg_5" d="m86.076004,56.988007c-1.436996,0.055008 -2.875,0.110001 -4.313004,0.165009c-0.436005,-0.205002 -0.845993,-0.453003 -1.229004,-0.744003c-0.330994,-0.585007 -0.328003,-0.983002 0.01001,-1.194c0.32399,-0.203003 0.575989,-0.262009 0.757996,-0.175003c8.610992,-4.028 14.882996,-10.996002 21.709991,-17.265999c-0.214996,-2.902 2.059006,-3.342003 4.033005,-4.081001c2.719009,-0.970001 4.790009,0.955002 7.149002,1.600998c4.917999,-0.690994 10.088013,-0.008995 14.667999,-2.526993c1.733002,-0.953003 2.51001,-0.016006 3.644012,1.094994c1.459991,1.431999 3.340973,2.267006 6.300995,1.292999c-4.708008,-5.976997 -1.302002,-11.580994 0.755981,-17.164993c1.900024,-5.155014 5.874023,-8.460007 11.583008,-11.396004c0.873993,7.766998 -2.324005,12.246994 -7.839996,15.581001l0.174988,-0.483002l0.106018,0.373001c-4.957001,8.329002 -3.195007,13.098999 5.988983,15.966003c2.463013,0.768997 5.009003,1.270996 7.516998,1.895996l-0.075989,-0.223c-0.649994,1.413002 -0.846008,2.829002 -0.036987,4.254997c-3.792023,0.411003 -7.009003,-2.573997 -10.856018,-1.834c-2.92099,3.959999 -6.949005,2.356003 -10.509003,1.773003c-12.962982,-2.125999 -24.857986,-0.905998 -35.359985,8.215988c-3.742004,3.244995 -8.144012,7.126007 -14.179001,4.874008z" fill="#181818"/>
   <path id="svg_6" d="m39.188995,296.321014c0.014999,-1.557007 0.031006,-3.113007 0.046005,-4.670013c-2.832001,-4.352997 0.371994,-7.388 2.701004,-10.117981c21.53598,-25.247009 43.085983,-50.492004 67.208984,-73.373016c2.596008,-2.462006 5.145004,-5.002991 9.238007,-3.458984c1.457001,0.875977 1.915009,2.169983 1.585999,3.792999c-9.326996,11.352997 -21.201996,20.181976 -30.880997,31.188995c-16.617004,18.893982 -33.264999,37.759979 -49.899002,56.638z" fill="#3F3F3F"/>
   <path id="svg_7" d="m190.268005,77.190002c-1.21701,-5.457001 2.052002,-10.173004 2.76001,-15.569c-1.847992,-0.362 -3.522003,-0.679001 -5.19101,-1.020004c-10.035004,-2.048996 -14.578003,-6.641998 -16.536011,-16.650002c-0.382996,-1.959 0.14502,-4.156998 -1.474976,-5.802994c-1.068024,0.436996 -1.700012,0.085999 -1.89502,-1.051003c4.915009,-2.399002 5.227997,-7.952003 8.068024,-11.773003c1.540985,0.171005 2.263977,1.193001 2.66098,2.554001c0.091003,2.257004 -0.348999,4.385002 -1.539001,6.331001c-0.85498,0.995003 -1.945984,1.792 -2.546997,3.002998c-0.811981,11.585999 2.673004,17.450996 12.354004,20.310005c4.686005,1.384003 8.860016,1.498001 12.714996,-2.970001c4.028992,-4.669998 9.319,-8.154999 15.671997,-9.342003c2.270996,-0.423996 5.28302,-1.402 6.417023,1.092003c1.345978,2.959 -1.132019,4.763992 -3.722015,5.919998c-0.268005,0.119995 -0.552002,0.205002 -0.82901,0.306c-0.505981,-0.602005 -0.951996,-1.509003 -1.891998,-0.779999c-0.165985,0.128006 0.305023,0.996994 0.574005,1.526993c-1.945984,3.400009 -5.515991,4.604004 -8.813995,5.084c-9.556,1.392014 -12.692993,8.10701 -14.605011,16.145004c-0.268005,1.126999 -0.454987,2.274002 -0.679993,3.412003c-0.880005,0.544998 -1.399017,0.343994 -1.496002,-0.725998z" fill="#474747"/>
   <path id="svg_8" d="m190.268005,77.190002c0.494995,0.25 0.994019,0.492004 1.497009,0.725998c0.924988,2.755997 1.035004,5.722 2.565002,8.343994c2.321991,3.98201 4.755005,3.519012 7.492981,0.57901c4.276001,1.881989 3.489014,4.738998 1.505005,7.824997c-2.78598,-0.374008 -5.311981,-0.231995 -6.498993,2.960999c-1.282013,3.447006 -1.471985,6.895996 0.17099,10.238998c0.993011,2.020996 3.012024,1.414001 4.696014,1.311996c2.959991,-0.179993 5.847992,-0.149002 8.608002,1.174011c2.255005,1.080994 4.035004,2.508987 4.054993,5.230988c0.022003,3.047012 -2.382996,3.785004 -4.640991,4.463013c-3.865997,1.159988 -7.830994,1.321991 -10.456024,-2.226013c-2.42099,-3.271988 -4.967987,-4.875 -8.84198,-2.991989c-2.850006,1.384995 -7.14502,0.638992 -7.212006,6.052002c-0.035004,2.826996 -2.610992,1.434998 -3.683014,0.185989c-1.603973,-1.869995 -1.233002,-4.084 0.821014,-5.289001c2.246002,-1.317993 4.763977,-2.383987 7.299988,-2.952988c4.743011,-1.064011 7.287018,-3.064011 5.588013,-8.415009c-1.334015,-4.201004 2.548981,-8.155991 1.623016,-11.918991c-0.851013,-3.458008 -4.340027,-6.180008 -4.909027,-10.130005c-0.252991,-1.742004 -0.562988,-3.492996 0.320007,-5.167999z" fill="#363636"/>
   <path id="svg_9" d="m107.835999,36.359001c-1.608002,0.471001 -3.216003,0.942001 -4.824005,1.414001c-9.174988,-6.298004 -11.884995,-12.098999 -9.487,-21.394005c2.244003,-8.699997 8.896011,-12.723 16.988007,-14.748001c4.362,-1.091995 8.255005,-0.494995 9.717987,4.726006c0.109009,1.516998 -0.963989,2.209 -2.023987,2.905998c-1.942993,0.643997 -4.001007,0.512001 -5.988007,0.838997c-9.377991,1.542999 -13.297989,10.020004 -8.35199,18.100006c1.19899,1.959 2.991989,3.534996 3.867996,5.727997c0.220993,0.803001 0.253998,1.612 0.100998,2.429001z" fill="#464646"/>
   <path id="svg_10" d="m119.968002,208.493988c-0.28801,-0.825012 -0.574997,-1.651001 -0.863007,-2.476013c-1.169998,-5 -5.195999,-6.40097 -9.403,-8.041992c-3.780991,-1.475006 -8.905991,-2.204987 -8.311996,-8.302979c0.653,-1.140015 1.306,-2.281006 1.959,-3.421021c7.276001,5.569 16.499008,5.824005 24.657013,8.994019c1.625,0.630981 3.435974,0.789001 5.166992,1.138c1.244995,0.250977 2.225006,0.93399 2.535004,2.125977c0.367004,1.412018 -0.746002,2.303009 -1.822998,2.596008c-5.212006,1.417999 -8.748016,5.938019 -13.917007,7.388z" fill="#2B2B2B"/>
   <path id="svg_11" d="m81.300995,55.039001c-0.139008,0.522003 -0.395004,0.977997 -0.766998,1.369003c-8.779007,2.932999 -14.029999,1.968994 -18.093002,-3.319c-4.809006,-6.260002 -5.014008,-14.347008 -0.540009,-21.304001c4.369003,-6.793007 7.852997,-8.651001 15.347,-6.855003c-4.720993,1.851997 -8.237,3.330002 -10.832001,6.262001c-4.528,5.116997 -5.96199,10.582001 -3.037994,16.964996c2.701996,5.899002 6.067993,7.600998 14.423004,7.134003c1.167999,-0.063995 2.334,-0.167007 3.5,-0.251999z" fill="#4E4E4E"/>
   <path id="svg_12" d="m203.328003,94.664001c-1.591003,-2.399002 -1.406006,-5.139008 -1.505005,-7.824997c4.519989,-4.630005 10.54599,-6.016998 16.488007,-7.391998c2.779999,-0.643005 6.372009,-1.218002 7.862,1.922989c1.730988,3.651001 -1.438995,5.960999 -3.964996,7.822006c-5.574005,4.108002 -11.921021,5.942993 -18.880005,5.472z" fill="#515151"/>
   <path id="svg_13" d="m36.279999,198.101013c-1.128006,0.981995 -2.257004,1.963989 -3.384995,2.945984c1.798996,-11.648987 3.875,-23.241974 7.030991,-34.615982c1.111008,-0.850998 2.221008,-1.702011 3.332001,-2.553009c0.81601,0.318008 1.781998,0.542007 2.152008,1.39801c3.104996,7.176987 -2.660004,27.818985 -9.130005,32.824997z" fill="#494949"/>
   <path id="svg_14" d="m117.203995,7.389c1.009003,-0.344002 2.01799,-0.688004 3.026993,-1.031998c1.30899,7.474998 -1.082993,14.229996 -3.869003,20.975998c-1.039993,2.517998 -3.743988,4.695999 -2.168991,7.959999c-2.119003,0.355003 -4.238007,0.710999 -6.35701,1.066002l0.037003,-0.779999c1.106018,-10.060005 2.761017,-19.939003 9.331009,-28.190002z" fill="#6D6D6D"/>
   <path id="svg_15" d="m174.575012,37.211998c0.406006,-1.296997 0.811005,-2.594002 1.21701,-3.890999c3.987,-5.521996 12.286987,-7.267998 13.401001,-15.304001c1.113983,-1.624001 2.871979,-1.620995 4.556,-1.806999c1.60199,6.983002 0.240997,11.050003 -5.744019,14.577003c-4.26001,2.509995 -8.938019,4.308998 -13.429993,6.424995z" fill="#6B6B6B"/>
   <path id="svg_16" d="m215.864014,53.274002c-4.29599,-0.389008 -7.669006,3.847 -13.252991,2.445999c3.855988,-3.718002 7.349976,-6.548004 11.936981,-7.347c3.290009,-0.572998 4.167999,1.225998 2.636017,4.151001c-0.320007,0.460999 -0.76001,0.709991 -1.320007,0.75z" fill="#DEDEDE"/>
   <path id="svg_17" d="m193.748993,16.209999c-0.997009,0.723999 -1.993011,1.448997 -2.98999,2.173004c-4.443024,3.521996 -5.56601,12.065994 -14.13501,9.347c-0.208008,-0.802002 -0.416992,-1.604004 -0.625,-2.406006c2.721008,-2.623001 5.235992,-5.514999 8.221008,-7.791c2.744995,-2.091995 5.899994,-4.242996 9.528992,-1.322998z" fill="#3E3E3E"/>
   <path id="svg_18" d="m167.931,37.096001c0.631989,0.349998 1.263,0.700996 1.894989,1.051003c-2.009979,0.921997 -4.069,1.565994 -6.320984,1.120995c-0.089996,-0.333 -0.179993,-0.667 -0.270996,-1.000999c1.438995,-0.897995 2.947998,-1.516998 4.696991,-1.170998z" fill="#6B6B6B"/>
   <path id="svg_19" d="m163.505005,39.268997c-2.097015,1.134003 -4.223999,1.832001 -6.48999,0.433006c0.001007,-0.001007 0.074005,0.223 0.074982,0.222c1.494019,-2.613007 3.831024,-2.091003 6.144012,-1.654007c0.088989,0.332001 0.178986,0.666 0.270996,0.999001z" fill="#6B6B6B"/>
   <path id="svg_20" d="m36.279999,198.101013c2.953995,-11.279999 5.033005,-22.738007 6.977005,-34.223007c0.613998,-2.505997 1.481995,-4.473999 4.741989,-3.103989c2.71701,1.140991 5.142014,2.661987 7.512009,4.410995c10.069992,7.431992 20.298004,14.577011 31.886002,19.619003c4.576996,1.990997 9.177002,3.679993 13.992996,4.868988c7.173004,4.757019 16.197998,4.774994 23.736008,8.934998c-0.822021,3.723022 -4.242004,4.902008 -6.021011,7.410004c-3.781998,1.856995 -6.491989,4.989014 -9.5,7.808014c-14.832993,13.899994 -28.35199,29.016998 -41.554993,44.437988c-9.561005,11.166992 -19.208008,22.261017 -28.81601,33.386993c-7.966995,9.414001 -15.941986,18.821014 -23.888992,28.251007c-0.923004,1.096008 -1.472,2.627014 -3.240005,2.403992c5.081009,-41.984009 19.298004,-82.182007 24.175003,-124.204987z" fill="#FFFFFF"/>
   <path id="svg_21" d="m96.994003,184.200012c-11.923996,-2.847992 -21.652008,-9.238007 -31.436005,-15.505005c-1.067993,-0.68399 -1.453995,-1.849991 -1.039993,-3.057999c0.424988,-1.240005 1.403992,-1.817993 2.731995,-1.473999c1.488007,0.386002 2.826004,-0.102005 4.266998,-0.388992c11.428009,-2.277008 16.319,1.547989 22.218994,13.737c1.046005,2.161987 0.362015,5.092987 3.258011,6.688995z" fill="#F6F6F6"/>
   <path id="svg_22" d="m73.709,149.645004c1.162003,1.968002 4.518005,2.884003 2.852997,6.209991c-0.645996,1.291 -1.244003,2.733002 -2.826004,3.16301c-1.973999,0.535995 -2.465988,-3.619003 -4.960999,-1.626999c-0.72699,-1.634003 0.404999,-2.805008 1.122009,-3.99501c0.899994,-1.494003 1.865997,-3.013992 3.811996,-3.750992z" fill="#4E4E4E"/>
   <path id="svg_23" d="m109.296997,163.556c-0.856995,4.287003 -2.078995,7.695999 -5.733002,10.414001c-0.067001,-6.242996 -0.067001,-6.242996 5.733002,-10.414001z" fill="#8F8F8F"/>
   <path id="svg_24" d="m100.257004,180.822998c-0.962006,-0.368988 -1.309006,-1.182983 -0.863007,-1.968994c0.361008,-0.636017 1.117004,-1.270996 1.811005,-1.44101c0.981003,-0.23999 1.399002,0.580994 1.250992,1.480011c-0.195999,1.195007 -0.868988,1.973999 -2.19899,1.929993z" fill="#8F8F8F"/>
   <path id="svg_25" d="m86.076004,56.988007c6.028992,-4.987991 13.37999,-8.255997 18.556,-14.392998c0.843994,-1.000999 2.513992,-1.568001 3.894989,-1.813995c11.423004,-2.033005 22.869003,-4.353004 34.220993,0.431999c1.064026,0.447998 2.247009,0.612999 3.375,0.908997c34.116028,13.227997 38.426025,56.598007 21.578003,78.598007c-8.302002,10.839996 -16.493988,21.463989 -30.283997,25.978989c-9.324982,3.053009 -18.293991,3.340012 -27.667999,0.134003c-10.348999,-3.539001 -18.778992,-9.880997 -26.473999,-17.181992c-8.501999,-8.067001 -9.704987,-19.156006 -10.80899,-30.094009c-1.462997,-14.496002 2.526001,-27.330994 11.649994,-38.651993c0.893997,-1.111008 1.317001,-2.60202 1.960007,-3.917007z" fill="#FFFFFF"/>
   <path id="svg_26" d="m143.585999,22.063004c-2.425995,-4.146004 0.240997,-6.137001 3.907013,-9.118004c-0.069,4.611 -2.39801,6.781998 -4.169006,9.220001c-0.019012,0.009003 0.261993,-0.101997 0.261993,-0.101997z" fill="#FDFDFD"/>
   <path id="svg_27" d="m176.623993,27.730003c3.143982,0.063995 4.152008,-2.857002 6.115997,-4.424004c2.479004,-1.978996 4.587006,-4.513 8.019012,-4.922997c1.778992,4.676994 -0.815002,7.698997 -4.230011,10.007996c-3.261993,2.205002 -6.627991,4.450005 -10.737,4.93c-1.46698,-2.123001 -0.046997,-3.817001 0.832001,-5.590996z" fill="#F1F1F1"/>
   <path id="svg_28" d="m211.475006,115.778c-4.570007,3.419006 -7.656982,2.076996 -10.993988,-2.065994c4.492981,-2.82901 7.530975,-1.195999 10.993988,2.065994z" fill="#F0F0F0"/>
   <path id="svg_29" d="m117.203995,7.389c0.494995,10.589996 -1.815002,20.250999 -9.331009,28.190002c-13.005997,-2.556999 -14.084991,-16.164001 -8.059998,-23.993004c4.927017,-6.403 9.439011,-7.653 17.391006,-4.196999z" fill="#FDFDFD"/>
   <path id="svg_30" d="m204.273987,90.802002c4.727997,-6.402008 10.964996,-8.518005 20.020996,-7.815002c-5.906982,7.653 -12.625977,8.632004 -20.020996,7.815002z" fill="#F4F4F4"/>
   <path id="svg_31" d="m149.540985,122.733002c1.252014,2.307999 0.096008,3.404999 -1.436981,4.526001c-7.171021,5.242996 -15.23703,7.658997 -24.038025,7.330002c-16.201004,-0.606003 -34.304993,-9.37001 -39.460983,-29.540009c-0.365005,-1.427002 -0.721008,-2.860992 -0.973999,-4.310989c-0.280014,-1.602005 0.164993,-3.239014 1.844986,-3.456009c1.820007,-0.235001 2.146011,1.550003 2.486008,2.985001c0.406006,1.716003 0.703003,3.473999 1.279999,5.132004c7.673004,22.056992 33.840988,31.667999 54.159988,19.979004c1.923035,-1.106003 3.608032,-3.098007 6.139008,-2.645004z" fill="#1D1D1D"/>
   <path id="svg_32" d="m111.550003,96.276001c0.436996,-1.268005 1.444992,-1.817001 2.110001,-1.455994c3.580994,1.942993 7.093994,4.018997 10.53299,6.203995c0.610016,0.386993 0.919006,1.546997 0.190002,2.330994c-0.342987,0.368011 -1.040985,0.819 -1.397003,0.697998c-3.873993,-1.312988 -7.757996,-2.681 -10.72699,-5.664993c-0.522003,-0.522995 -0.535004,-1.552002 -0.709,-2.112z" fill="#262626"/>
   <path id="svg_33" d="m109.779007,70.057007c-1.908997,2.197006 -3.936996,4.121002 -6.748001,2.568008c-1.839996,-1.016998 -1.315994,-3.117004 -0.297989,-4.637009c1.360001,-2.030991 3.216995,-3.677002 5.832993,-2.386002c1.889984,0.93399 1.667984,2.806992 1.212997,4.455002z" fill="#212121"/>
   <path id="svg_34" d="m152.319,87.373001c1.703003,1.188995 2.514008,2.723999 1.291992,4.473999c-1.147003,1.641998 -2.584991,3.369995 -5.009003,2.602997c-2.04599,-0.647003 -2.619995,-2.270004 -1.833984,-4.156998c1.019989,-2.449005 2.902985,-3.539001 5.550995,-2.919998z" fill="#252525"/>
  </g>
 </g>
</svg>