<?xml version="1.0" encoding="utf-8"?>
<!-- Generator: Adobe Illustrator 17.0.0, SVG Export Plug-In . SVG Version: 6.00 Build 0)  -->
<!DOCTYPE svg PUBLIC "-//W3C//DTD SVG 1.1//EN" "http://www.w3.org/Graphics/SVG/1.1/DTD/svg11.dtd">
<svg version="1.1" id="Слой_1" xmlns="http://www.w3.org/2000/svg" xmlns:xlink="http://www.w3.org/1999/xlink" x="0px" y="0px"
	 width="500px" height="500px" viewBox="0 0 500 500" enable-background="new 0 0 500 500" xml:space="preserve">
<g>
	<path fill="#FEFEFE" d="M308.473,185.054c-1.663,2.409-3.746,4.371-6.257,5.877c-0.634,4.884-5.325,5.324-8.441,7.126
		c-2.441,1.411-5.594,5.096-8.227,2.58c-2.642-2.524,0.854-5.656,2.1-8.352c5.962-12.907,7.123-25.521-1.767-37.742
		c-1.952-2.683-2.026-4.379,2.269-4.704c15.017-1.137,27.846,11.426,26.176,26.207C313.9,179.811,313.163,183.841,308.473,185.054z"
		/>
	<path fill="#222222" d="M215.676,204.423c-0.705-1.17-1.55-2.279-2.086-3.522c-1.043-2.42-2.677-3.585-5.394-3.732
		c-2.521-0.136-5.012-0.839-7.517-1.288c-14.567-2.607-20.406-12.346-15.86-26.458c1.516-0.466,2.334,0.548,3.187,1.489
		c1.138,3.889,1.187,7.948,2.858,11.861c2.234,5.232,5.997,7.443,11.083,8.436c4.027,0.786,5.889-0.577,5.677-4.931
		c-0.382-7.84,0.112-15.618,1.249-23.436c0.894-6.148,2.363-11.409,8.228-14.476c1.401-1.346,3.412-0.56,4.95-1.421l0.004-0.029
		c1.371-0.649,2.592,0.374,3.908,0.353c8.331,2.049,15.271,6.613,18.588,14.373c2.344,5.483,4.571,9.192,10.979,8.661
		c1.47,1.125,2.823,2.343,3.408,4.178c1.481,6.452,5.851,11.316,9.274,16.695c1.138,1.788,2.853,3.29,2.197,5.741
		c-0.167,0.561-0.453,1.058-0.839,1.497c-5.304,1.82-7.762-2.403-10.468-5.365c-2.881-3.152-4.825-7.126-7.674-10.352
		c-3.01-3.408-6.362-3.803-8.247-0.346c-5.407,9.918-13.462,16.582-23.544,21.143C218.398,204.152,217.261,205.246,215.676,204.423z
		"/>
	<path fill="#202020" d="M229.547,278.254c-1.546-4.21-0.555-8.539-0.459-12.796c0.163-7.221,0.803-14.409,0.075-21.664
		c-0.216-2.152-0.688-4.226-1.285-6.16c-0.914-2.96,0.411-4.069,2.744-4.665c4.868-1.243,9.713-0.377,14.566,0.348
		c7.165,1.07,14.358,1.647,22.308,0.477c-0.654,9.254-1.306,18.487-1.959,27.72c-4.042-0.787-2.86-4.254-2.897-6.571
		c-0.048-2.984-0.081-5.853-1.243-8.623c-0.339-0.802-0.499-1.662-0.738-2.487c-0.176-0.499-0.367-1.003-0.589-1.486
		c-0.493-0.608-0.885-1.28-1.209-1.985c-0.868-1.151-2.066-1.904-3.44-1.874c-5.873,0.132-11.669-1.937-17.517-0.574
		c-0.1,0.311-0.216,0.621-0.227,0.957c0.162,0.351,0.299,0.677,0.522,0.983c1.322,1.912,5.283,0.902,4.991,4.532
		c-0.781,1.749-3.775,2.25-2.775,4.995c0.997,4.785,4.898,2.88,7.732,3.37c3.156,0.545,7.306-0.678,7.786,4.487
		c-0.912,2.881-3.313,1.967-5.178,2.105c1.07,0.214,2.42,0.143,3.245,1.369c0.719,1.143,0.887,2.294,0.119,3.477
		c-2.132,2.183-5.022,1.194-7.535,1.756c-1.397,0.457-1.669,1.69-1.914,2.927c-0.122,1.183-0.008,2.332,0.469,3.436
		c0.314,0.676,0.469,1.384,0.48,2.126c0.076,1.025,0.269,2.027,0.557,3.016c4.117,6.219,4.084,6.432-1.291,8.351
		c-1.193,0.237-2.376,0.345-3.523-0.186c-2.251-1.152-2.374-3.339-2.734-5.478c-1.427-8.459-1.881-17.092-4.397-24.573
		c0.44,5.594-0.004,11.936-0.423,18.273c-0.128,1.934-0.378,3.967-2.605,4.864C230.572,278.832,230.021,278.681,229.547,278.254z"/>
	<path fill="#292929" d="M268.71,198.312c0.081-0.579,0.161-1.157,0.242-1.736c1.962-2.634,4.19-1.133,6.318-0.351
		c3.194,1.174,5.941,0.497,7.683-2.355c6.549-10.718,9.899-30.148-3.033-40.102c-0.58-1.036-1.162-2.072-1.206-3.303
		c0.052-0.608,0.265-1.159,0.623-1.651c0.854-0.841,1.904-1.354,3.017-1.757c1.878,1.889,4.259,1.577,6.61,1.596
		c13.704,0.111,22.044,6.586,26.256,20.058c2.296,7.344-0.2,14.369-6.675,19.648c-1.062-1.08-0.212-2.2-0.07-3.306
		c10.666-9.301,2.511-29.828-11.972-33.343c-3.301-0.801-6.791-1.868-10.302-0.387c12.864,16.303,8.937,32.488-0.822,49.839
		c6.738-3.269,12.239-5.959,16.838-10.232c0.948-0.081,1.896-0.161,2.707-0.23c0.994,1.128,0.084,1.666-0.394,2.015
		c-6.016,4.385-12.07,8.765-19.704,9.869c-2.336,0.338-3.866,1.735-5.412,3.22c-3.824,3.672-7.972,6.895-12.641,9.439
		c-3.153,1.718-6.451,2.789-10.085,2.594c-1.02,0.476-1.557-0.061-1.943-0.922c-0.115-2.74,1.834-3.622,3.95-4.221
		c2.055-0.582,4.064-1.254,5.987-2.179c6.193-2.977,6.445-3.662,3.797-9.971C268.168,199.807,268.335,199.026,268.71,198.312z"/>
	<path fill="#1A1A1A" d="M265.997,362.017c0.247,4.416,0.259,4.318-3.874,3.827c-6.97-0.827-13.954-0.728-20.927,0.072
		c-0.256-0.261-0.56-0.442-0.912-0.541c0,0.002-0.42,0.331-0.42,0.331c-0.001,0.002,0.41,0.346,0.41,0.346
		c-1.602,0.864-3.369,0.508-5.064,0.674c-2.314,0.227-4.385-0.452-4.986-2.803c-0.488-1.912-0.861-4.233,1.915-5.218
		c0.451-0.16,0.721-0.833,1.074-1.269c-0.077-0.335-0.153-0.67-0.23-1.006c-0.694-5.339,2.397-10.192,1.972-15.548
		c-0.114-1.436,1.189-2.787,2.791-3.357c2.601-0.358,4.905,0.642,7.209,1.616c2.129,2.461,4.224,2.028,6.293-0.113
		c0.55-0.634,1.032-1.317,1.636-1.909c0.5-0.359,1.047-0.577,1.65-0.674c0.928-0.077,1.833,0.003,2.716,0.306
		c2.752,1.368,2.736,4.059,3.024,6.54c0.543,4.678,1.567,9.223,3.361,13.579C264.292,358.641,264.617,360.571,265.997,362.017z"/>
	<path fill="#3C3C3C" d="M265.997,362.017c-2.246-0.441-3.931-1.499-4.347-3.952c-1.416-13.565-1.528-27.193-0.802-40.765
		c1.082-20.206-3.052-40.455,0.807-60.639c0.622-3.256,0.202-6.806,0.024-10.217c0.169-0.722,0.556-1.299,1.161-1.729
		c2.242,1.349,2.058,3.539,2.083,5.727c0.043,3.697-0.832,7.453,0.613,11.073c0.128,13.523,0.275,27.046,0.378,40.57
		c0.132,17.431,0.24,34.862,0.326,52.294C266.252,356.924,266.082,359.471,265.997,362.017z"/>
	<path fill="#3D3D3D" d="M229.606,329.023c0.216-11.06-1.403-22.103-0.317-33.172c1.969-2.897-1.319-7.046,2.282-9.553
		c3.971,2.269,2.936,6.005,2.35,9.269c-0.7,3.902-0.577,7.633,0.216,11.473c1.853,8.97,0.301,18.011,0.349,27.02
		c0.013,2.552-0.145,5.104,0.036,7.646c0.271,2.051,0.281,4.099-0.279,6.116c-0.071,1.323-0.459,2.597-0.704,3.894
		c-0.446,1.836,0.162,3.975-1.522,5.467c-1.354,0.12-1.532-0.84-1.659-1.825c-0.443-3.444-0.945-6.886-0.371-10.366
		C228.786,339.695,230.504,334.328,229.606,329.023z"/>
	<path fill="#535353" d="M255.335,216.618c0.45,0.406,0.901,0.813,1.351,1.219c-15.842,2.169-29.991-0.839-41.009-13.415
		c0.414-1.189,0.828-2.378,1.242-3.567c3.811-0.458,6.342,2.485,8.429,4.473c6.514,6.204,14.365,7.373,22.654,8.015
		C250.722,213.554,254.148,212.743,255.335,216.618z"/>
	<path fill="#646464" d="M222.051,146.945c-1.138,1.129-3.079,0.98-3.976,2.494c-4.985,2.198-10.374,3.238-15.097,6.327
		c-4.841,3.166-8.875,6.769-11.698,11.837c-1.126,2.022-1.731,5.083-5.269,4.351c-0.397-0.843-0.795-1.687-1.192-2.53
		c5.416-11.667,13.811-19.832,26.7-22.713c1.88,0.698,3.774,0.826,5.686,0.128C218.821,146.874,220.436,146.909,222.051,146.945z"/>
	<path fill="#444444" d="M282.353,147.057c-0.548,0.888-1.096,1.777-1.644,2.665c-6.836-2.604-12.083-8.353-19.509-9.824
		c-1.651-0.327-2.728-1.432-2.653-3.304c0.893-1.687,2.665-0.49,3.864-1.176C270.572,136.705,276.81,141.286,282.353,147.057z"/>
	<path fill="#6E6E6E" d="M224.548,149.078c-0.831-0.721-1.662-1.442-2.493-2.162c5.729-5.202,11.691-10.037,19.311-12.259
		c0.364,0.44,0.628,0.933,0.778,1.486c0.131,2.649-1.936,3.575-3.729,4.667C233.82,143.61,229.248,146.453,224.548,149.078z"/>
	<path fill="#161616" d="M230.772,286.347c-0.761,3.127,0.329,6.542-1.483,9.505c-0.301-5.871-0.536-11.742,0.257-17.597
		c0.475-0.008,0.95-0.016,1.426-0.024C234.899,281.034,234.958,283.743,230.772,286.347z"/>
	<path fill="#313131" d="M241.255,135.812c0.089-0.38,0.126-0.765,0.111-1.155c4.77-0.196,9.552-1.799,14.304,0.122
		c-0.093,1.227-0.633,2.205-1.632,2.926C249.514,138.857,245.009,139.869,241.255,135.812z"/>
	<path fill="#444444" d="M229.606,329.023c1.657,5.286,0.279,10.645,0.381,15.969C228.593,339.699,229.679,334.347,229.606,329.023z
		"/>
	<path fill="#1F1F1F" d="M254.265,135.802c0.468-0.341,0.937-0.682,1.405-1.024c2.275-0.078,4.529,0.064,6.742,0.64
		c-1.28,0.343-2.561,0.686-3.841,1.029C256.941,137.533,255.468,137.571,254.265,135.802z"/>
	<path fill="#444444" d="M232.018,357.183c0.162-2.058,0.323-4.115,0.485-6.173c2.495,1.935,1.442,4.234,0.668,6.505l0.043-0.08
		C232.815,357.351,232.416,357.267,232.018,357.183z"/>
	<path fill="#191919" d="M217.205,146.838c-1.923,1.184-3.815,0.992-5.686-0.128C213.421,146.475,215.32,146.355,217.205,146.838z"
		/>
	<path fill="#050505" d="M239.717,364.524c0.493,0.464,0.986,0.928,1.479,1.392l-0.441,0.206l-0.481-0.07
		c-1.246-0.417-2.492-0.834-3.739-1.251C237.502,363.631,238.573,363.649,239.717,364.524z"/>
	<path fill="#FEFEFE" d="M255.335,216.618c-6.532-0.778-13.266,0.285-19.62-2.075c-4.04-1.5-9.071-1.411-10.871-6.63
		c-0.199-0.575-0.785-0.741-1.416-0.734c-4.251,0.045-5.175-3.354-6.51-6.323c0.122-0.7-0.32-1.82,0.766-1.91
		c11.577-0.968,17.811-8.622,22.757-17.978c3.094-5.854,4.845-6.434,10.754-3.882c0.743,0.321,1.31,0.69,1.65,1.491
		c2.084,4.913,6.023,8.619,8.64,13.203c1.661,2.909,3.997,5.263,7.226,6.532c2.207,2.963,6.028,3.28,9.163,5.33
		C271.573,210.5,264.608,215.534,255.335,216.618z"/>
	<path fill="#FFFFFF" d="M282.543,151.357c9.488,9.107,10.94,20.174,7.762,32.298c-1.282,4.889-2.473,9.83-5.977,13.817
		c-3.174,3.612-5.375,4.205-9.707,2.078c-1.915-0.94-3.514-2.488-5.67-2.973c-3.633-3.451-5.886-7.86-8.417-12.08
		c-0.78-1.3-1.218-2.809-2.842-3.555c-1.797-0.826-2.188-2.583-2.18-4.423c2.09-11.84,10.529-18.67,19.65-24.993
		C277.646,149.802,280.106,152.194,282.543,151.357z"/>
	<path fill="#FFFFFF" d="M254.265,135.802c1.435,0.215,2.87,0.43,4.305,0.645c7.817,0.779,14.025,4.903,19.956,9.603
		c1.196,0.947,2.661,1.731,2.182,3.672c-0.306,0.014-0.595,0.091-0.867,0.23c-11.095,4.107-16.599,14.726-25.249,21.679
		c-3.464,2.424-6.466,2.528-9.59,0.628c-1.314-0.799-1.06-1.914-1.198-3.017c-0.76-6.083-2.972-11.04-8.78-14.26
		c-3.494-1.937-5.982-5.665-10.477-5.903c1.021-3.896,4.243-5.737,7.258-7.768c3.029-2.04,6.705-2.968,9.449-5.499
		C245.592,135.808,249.929,135.805,254.265,135.802z"/>
	<path fill="#FFFFFF" d="M186.012,171.954c3.4-10.005,10.597-16.617,19.578-21.467c3.885-2.098,8.18-2.412,12.486-1.047
		c-7.358,5.72-6.489,14.287-7.243,22.082c-0.637,6.581-0.892,13.285,0.356,19.904c0.245,1.302,0.161,2.667,0.268,4.787
		c-6.008-1.708-11.852-1.874-17.239-4.115c-2.922-1.215-5.535-2.862-5.485-6.739c0.014-1.068-0.727-2.211-1.31-3.21
		C185.542,178.927,185.079,175.546,186.012,171.954z"/>
	<path fill="#FEFEFE" d="M213.021,172.774c0.163-1.753,0.878-4.535,0.576-7.202c-0.71-6.267,3.377-9.788,7.037-13.65
		c1.133-1.195,2.445-1.011,3.793-0.505c6.779,2.549,12.344,6.632,15.601,13.23c1.302,2.638,1.503,5.567,0.506,8.576
		c-2.969,8.96-7.169,16.898-16.138,21.299c-7.244,3.555-9.063,2.764-10.967-4.977C212.143,184.316,213.174,179.023,213.021,172.774z
		"/>
	<path fill="#4D4D4D" d="M254.593,171.631c0.046-0.189,0.034-0.425,0.145-0.561c6.677-8.235,12.845-17.044,23.387-20.956
		c0.521-0.193,1.143-0.115,1.717-0.163c0.9,0.468,1.801,0.937,2.701,1.405c-9.905,2.624-17.465,8.018-21.208,17.933
		c-0.129,0.342-0.371,0.948-0.514,0.935c-4.832-0.461-3.606,4.154-5.309,6.293C255.261,174.878,255.497,173.147,254.593,171.631z"/>
	<path fill="#FCFCFC" d="M233.171,357.515c0.19-2.211,0.718-4.456-0.668-6.505c0.282-1.086,0.057-2.11-0.384-3.106
		c-0.748-1.662,0.088-3.534-0.689-5.191c0.625-11.169,0.959-22.328,0.156-33.517c-0.378-5.273,0.018-10.597-0.066-15.896
		c-0.037-2.326,0.391-4.734-0.749-6.954c0.651-2.691,0.96-5.39,0.2-8.116c0.331-10.671,0.661-21.342,0.992-32.012
		c0.384-0.086,0.768-0.172,1.151-0.258c3.206,6.087,5.426,12.547,6.351,19.467c0.854,6.386,1.632,12.782,3.133,19.061
		c3.141,5.898,1.081,11.989,0.681,18.006c-0.64,1.072-1.593,1.503-2.747,1.293c0.093,0.001-0.039,0.189,0.024,0.194
		c1.133-0.084,1.952,0.341,2.561,1.234c0.989,6.364-0.008,12.704-0.097,19.05c-1.318,4.873-1.038,10.237-4.437,14.472
		C236.786,344.999,235.764,351.484,233.171,357.515z"/>
	<path fill="#272727" d="M240.795,303.302c1.822-1.489,1.118-3.596,1.244-5.45c0.301-4.448-0.18-8.931,0.561-13.364
		c0.914-0.295,1.828-0.589,2.742-0.884c2.082,1.745,1.742,4.027,1.586,6.376c-0.148,2.232-0.643,4.801,2.423,5.764
		c1.081,0.374,2.016,0.984,2.866,1.736c0.401,0.406,0.743,0.857,1.027,1.35c1.374,3.339-0.857,4.437-3.332,5.377
		c-0.656,0.027-1.311,0.09-1.75,0.58c0.042-0.062-0.219,0.335-0.205,0.292c0.013-0.043-0.106,0.327-0.102,0.312
		c0.004-0.015,0.105-0.323,0.111-0.352c0.006-0.029,0.234-0.337,0.255-0.369c0.285-0.305,0.607-0.437,1.025-0.433
		c0.493-0.004,0.948,0.014,1.429,0.054c1.224,0.168,2.129,0.771,2.742,1.826c1.553,3.027,1.785,6.35,2.238,9.624
		c0.09,2.143-1.048,3.675-2.496,5.044c-0.848,0.949-2.63,1.152-2.362,3.005c0.027,1.222-0.626,2.273-0.731,3.462
		c0.021,0.259,0.012,0.502,0.032,0.758c0.284,1.472,0.274,2.854-1.104,3.831c-2.466,0.78-4.955,0.949-7.486,0.327
		c-1.725-2.608-0.833-5.331-0.355-8.036c0.248-4.456,0.547-8.91,0.721-13.369c0.081-2.086,0.562-4.298-1.09-6.097
		C240.477,304.211,240.48,303.755,240.795,303.302z"/>
	<path fill="#F3F3F3" d="M253.734,263.283c-0.323-0.702-0.647-1.404-0.97-2.106c-0.091-1.787,1.643-2.417,2.347-3.7
		c-2.69-2.886-6.311-2.453-9.699-2.574c-5.975-0.214-5.978-0.123-7.617-6.008c0.267-0.234,0.533-0.467,0.8-0.702
		c5.876-0.285,11.694,0.704,17.557,0.799c4.046,0.066,5.074,2.83,4.109,6.094c-1.101,3.721-2.029,7.603-4.531,10.769
		c-0.602,0.447-1.259,0.55-1.969,0.31C253.031,265.212,253.064,264.251,253.734,263.283z"/>
	<path fill="#EAEAEA" d="M249.121,297.632c-4.362-0.204-4.457-0.206-4.367-3.707c0.089-3.443-0.427-6.929,0.587-10.321
		c0.883-0.147,2.985-0.006,1.359-1.422c-1.683-1.466-3.822-2.164-2.876-4.979c1.893-1.594,3.898-2.99,6.351-3.611
		c0.972-0.025,1.853,0.245,2.629,0.831c0.738,0.708,1.236,1.63,1.07,2.605C252.688,283.986,252.361,291.148,249.121,297.632z"/>
	<path fill="#F5F5F5" d="M237.795,248.896c-2.08-4.141-2.081-4.144,1.982-4.512c0.928-0.084,1.857-0.143,2.786-0.213
		c5.23-2.886,10.743-1.207,16.075-0.681c2.93,0.288,3.195,3.002,2.396,5.564c-1.526,2.064-3.573,1.008-5.402,0.793
		c-5.981-0.701-11.977-0.938-17.991-0.908L237.795,248.896z"/>
	<path fill="#E7E7E7" d="M234.261,240.565c0.044-0.409,0.089-0.818,0.133-1.226c1.062-1.413,2.612-1.574,4.184-1.552
		c6.398,0.09,12.793,0.298,19.185,0.586c2.268,0.102,4.248,0.661,4.901,3.226c-0.089,0.252-0.101,0.507-0.035,0.766
		c-0.624,1.884-2.066,2.016-3.765,1.915c-7.812-0.463-15.565-1.592-23.378-2.036C234.621,242.194,234.231,241.447,234.261,240.565z"
		/>
	<path fill="#DFDFDF" d="M232.179,237.253c-0.492-1.077-1.187-2.393,0.737-2.562c1.928-0.169,3.938-0.154,5.835,0.197
		c7.508,1.387,15.083,1.804,22.691,1.866c1.332,0.011,2.277,0.397,2.447,1.866c-2.306,2.506-5.171,0.834-7.639,0.708
		c-7.206-0.369-14.376-1.444-21.623-0.673C233.573,238.768,232.849,237.98,232.179,237.253z"/>
	<path fill="#393939" d="M234.261,240.565c0.909,1.35,2.333,1.275,3.699,1.309c6.879,0.173,13.757,0.382,20.514,1.843
		c1.728,0.373,3.086,0.072,4.155-1.352c0.069,0.785,0.139,1.569,0.209,2.352c-0.038,0.565-0.077,1.132-0.117,1.698
		c0.508,1.742,1.167,3.513-0.914,4.758c-1.026-0.107-1.622-0.69-1.857-1.675c0.947-2.801,0.2-4.43-3.001-4.567
		c-4.798-0.206-9.592-0.502-14.388-0.76c-1.829-1.221-3.945-1.07-5.994-1.299C235.263,242.725,233.785,242.574,234.261,240.565z"/>
	<path fill="#2F2F2F" d="M232.179,237.253c0.738,0.249,1.558,0.846,2.201,0.694c7.035-1.661,13.928-0.363,20.83,0.837
		c2.91,0.506,5.802,0.743,8.679-0.164c-0.408,0.992-0.816,1.985-1.225,2.978c-1.202-0.661-2.446-1.178-3.846-1.236
		c-8.141-0.338-16.283-0.682-24.424-1.024C233.308,239.013,232.566,238.322,232.179,237.253z"/>
	<path fill="#F7F7F7" d="M255.111,257.477c-0.094,1.67-0.692,3.021-2.347,3.7c-2.737-0.034-5.476-0.037-8.212-0.114
		c-1.314-0.037-3.125,0.278-3.289-1.562c-0.202-2.281,1.901-2.235,3.348-2.26C248.109,257.183,251.611,257.382,255.111,257.477z"/>
	<path fill="#EBEBEB" d="M252.097,275.34c-0.767-0.007-1.535-0.013-2.302-0.02c-2.391,1.46-4.663,1.488-6.763-0.561
		c-0.093-0.688-0.186-1.375-0.279-2.063c-0.322-5.846,4.152-3.305,6.829-3.905c1.43,0.091,2.884,0.081,4.148,0.923
		c0.545,0.491,0.913,1.091,1.105,1.798C255.014,273.569,254.328,275.007,252.097,275.34z"/>
	<path fill="#FBFBFB" d="M253.734,263.283c0.084,1.044,0.168,2.089,0.252,3.133c0.5,1.636-0.309,2.459-1.782,2.87
		c-2.324,0.179-4.641,0.013-6.959-0.122c-3.921-1.336-3.526-3.335-0.873-5.68C247.481,262.906,250.609,263.178,253.734,263.283z"/>
	<path fill="#444444" d="M245.685,268.191c2.246,0.073,4.493,0.146,6.739,0.22c0.554,2.299-1.631,1.198-2.361,1.902
		c-1.685,0.154-3.369,0.425-5.054,0.427c-1.443,0.001-1.965,0.776-2.255,1.958c-0.683-1.239-0.914-2.551-0.641-3.945
		C243.252,268.238,244.575,268.889,245.685,268.191z"/>
	<path fill="#545454" d="M243.032,274.759c2.254,0.187,4.509,0.374,6.763,0.561c0.193,1.454-0.374,2.181-1.909,2.073
		c-1.352-0.095-2.708-0.129-4.062-0.19C243.56,276.389,243.296,275.574,243.032,274.759z"/>
	<path fill="#EBEBEB" d="M245.685,268.191c-1.112,0.689-2.249,1.217-3.572,0.561c0.404-1.905-1.631-4.856,2.258-5.267
		C243.297,265.476,243.275,267.173,245.685,268.191z"/>
	<path fill="#FEFEFE" d="M261.367,250.95c1.058-1.33,1.356-2.888,1.355-4.535c1.864,1.563,1.053,3.666,0.965,5.521
		c-0.969,20.574-0.474,41.158-0.219,61.731c0.17,13.728-0.416,27.439-0.318,41.16c0.009,1.262,0.588,2.901-1.501,3.239
		c-2.296-6.533-3.729-13.298-5.396-20c-4.316-5.25-3.9-11.541-3.793-17.723c0.03-1.725,0.585-3.44-0.095-5.15
		c-0.397-3.052-0.795-6.103-1.192-9.155c-0.781-1.633-0.878-3.102,0.986-4.098c0.881-0.379,1.806-0.698,2.185-1.61
		c-0.088,0.04-0.029-0.454-0.094-0.412c-0.48-0.35-1.019-0.321-1.552-0.389c-0.491-0.102-0.808-0.377-0.973-0.827l0.043,0.157
		c-3.511-5.954-0.109-11.743,0.675-17.514c0.383-2.821,0.909-5.745,1.688-8.55C256.115,265.373,257.252,257.668,261.367,250.95z"/>
	<path fill="#3E3E3E" d="M252.366,315.192c1.977,7.509,2.508,15.263,3.888,22.873c-0.814-0.04-1.628-0.081-2.442-0.121
		c-2.312-2.273-4.736-0.811-6.025-0.392c1.287-0.274,3.715-1.928,6.039,0.366c0.022,0.736,0.043,1.472,0.065,2.209
		c-3.104,1.441-6.168,3.374-9.604,0.793c-1.9-0.727-3.801-1.454-5.701-2.181c0.255-4.972,1.31-9.804,2.567-14.602
		c0.367,2.525-0.372,5.206,1.063,7.582c2.736,0.581,5.495,1.566,8.08-0.462c0.519-0.997,0.083-1.962-0.1-2.937
		c-0.077-0.772-0.051-1.539,0.068-2.306c0.532-1.332,0.163-2.581-0.346-3.818c-0.004-0.853,0.264-1.566,1.038-2.019
		C252.122,318.712,252.056,316.899,252.366,315.192z"/>
	<path fill="#F4F4F4" d="M257.81,358.277c-6.086-0.189-12.136-0.363-18.184-0.576c-1.094-0.038-2.568,0.313-2.768-1.338
		c-0.226-1.866,0.863-2.962,2.657-3.199c2.134-0.282,4.287-0.431,6.435-0.599c2.148-0.168,4.297-0.347,6.449-0.417
		C257.525,351.981,257.525,352.006,257.81,358.277z"/>
	<path fill="#F1F1F1" d="M256.156,351.07c-5.384-0.167-10.447-0.309-15.507-0.494c-0.927-0.034-2.07,0.056-2.211-1.295
		c-0.11-1.055,0.361-2.15,1.262-2.468c4.66-1.649,9.555-2.64,14.397-1.677C256.466,345.608,256.039,348.462,256.156,351.07z"/>
	<path fill="#EBEBEB" d="M244.287,340.919c3.201-0.264,6.402-0.529,9.604-0.793c0.402,1.356,0.82,3.291-1.152,3.093
		c-4.026-0.404-8.05,0.848-12.299-0.059C241.098,340.931,243.029,341.502,244.287,340.919z"/>
	<path fill="#D3D3D3" d="M246.572,360.393c3.862-1.484,7.773-0.546,11.621-0.844c0.932-0.072,1.689,0.946,1.544,2.1
		c-0.142,1.135-1.222,1.103-1.814,0.889C254.239,361.212,250.199,362.192,246.572,360.393z"/>
	<path fill="#FDFDFD" d="M239.717,364.524c-1.061,0.092-2.122,0.184-3.182,0.276c-1.084-0.32-2.413,0.166-3.463-1.281
		c2.106-2.146,4.786-1.143,6.944-0.773C242.274,363.134,239.623,363.851,239.717,364.524z"/>
	<path fill="#444444" d="M231.43,342.713c0.807,1.654,0.799,3.416,0.689,5.191C231.267,346.256,231.262,344.496,231.43,342.713z"/>
	<path fill="#171717" d="M262.627,202.267c-8.362,6.727-17.534,7.397-27.258,3.561c-0.856-0.338-1.501-1.209-2.245-1.832
		c-0.566-0.875-0.588-1.725,0.114-2.543c0.485-0.852,1.29-1.015,1.965-0.489c6.736,5.25,13.914,5.149,21.405,1.922
		c1.614-0.695,3.292-1.244,4.94-1.861C262.699,200.752,262.925,201.282,262.627,202.267z"/>
	<path fill="#1E1E1E" d="M248.27,193.825c-2.314,0.172-4.504-0.688-6.596-1.814c-0.896-0.482-1.567-1.215-0.837-2.352
		c0.492-0.766,1.461-1.113,2.037-0.748c3.149,1.991,6.372,2.784,9.987,1.392c0.244-0.094,1.009,0.599,1.203,1.063
		c0.373,0.893-0.271,1.408-1.039,1.742C251.549,193.749,249.995,193.905,248.27,193.825z"/>
	<path fill="#888888" d="M233.239,201.453c-0.038,0.848-0.076,1.696-0.114,2.543c-1.468-0.182-3.46-0.136-2.804-2.349
		C230.728,200.273,232.202,200.944,233.239,201.453z"/>
	<path fill="#868686" d="M262.627,202.267c-0.36-0.414-0.719-0.828-1.079-1.242c0.376-0.434,0.685-0.975,1.149-1.27
		c0.434-0.274,1.226-0.565,1.524-0.36c0.865,0.595,0.365,1.372-0.17,1.929C263.668,201.726,263.109,201.959,262.627,202.267z"/>
	<path fill="#3F3F3F" d="M272.366,176.98c-1.137-1.558-0.345-2.864,0.631-4.051c0.804-0.978,2.012-1.349,3.021-0.531
		c1.023,0.83-0.009,1.717-0.481,2.411C274.795,175.9,273.975,177.014,272.366,176.98z"/>
	<path fill="#525252" d="M230.582,174.309c-0.057,1.389-0.774,2.346-2.161,2.091c-1.882-0.346-4.02-0.705-3.7-3.5
		C227.055,171.791,228.96,172.462,230.582,174.309z"/>
	<path fill="#949494" d="M230.582,174.309c-1.954-0.47-3.907-0.939-5.861-1.409c0.673-0.393,1.313-0.865,2.025-1.165
		C229.73,170.482,229.738,170.501,230.582,174.309z"/>
	<path fill="#262626" d="M240.795,303.302c-0.004,0.456-0.008,0.911-0.011,1.367c-4.674,1.048-6.111-0.919-4.704-6.439
		c1.189-0.579,2.426-0.966,3.765-0.947C241.3,299.11,239.397,301.467,240.795,303.302z"/>
	<path fill="#242424" d="M239.845,297.283c-1.072,1.044-2.21,1.823-3.765,0.947C236.741,295.554,237.99,295.215,239.845,297.283z"/>
	<path fill="#393939" d="M254.873,271.927c0.392,4.328-1.1,8.389-1.808,12.557c-0.809,4.762-1.646,9.511-1.297,14.373
		c-0.882-0.409-1.764-0.817-2.646-1.226c-0.343-2.196,1.474-5.152-2.262-6.158c-0.917-0.247-0.314-1.174,0.017-1.272
		c4.509-1.331,3.543-5.431,4.325-8.577c0.507-2.043,0.611-4.186,0.896-6.285c0.511-1.164,1.022-2.328,1.534-3.493
		C254.07,271.484,254.485,271.49,254.873,271.927z"/>
	<path fill="#F0F0F0" d="M252.533,332.102c-0.118,0.564-0.142,1.578-0.368,1.625c-3.064,0.64-6.175,0.703-9.235,0.048
		c-0.807-0.173-0.586-1.317-0.714-2.055c2.099-1.345,4.563-0.582,6.792-1.174C250.909,329.419,251.928,330.292,252.533,332.102z"/>
	<path fill="#F8F8F8" d="M250.955,320.176c0.015,0.742,0.03,1.485,0.044,2.228c0.228,1.385-0.421,1.762-1.668,1.454
		c-1.691-0.2-3.336,0.904-5.046,0.218C244.311,319.012,245.329,318.423,250.955,320.176z"/>
	<path fill="#4E4E4E" d="M251.725,298.701c0.261-0.01,0.5,0.058,0.716,0.203c2.194-1.603,4.336-1.661,6.414,0.213
		c0.17,1.791,0.244,3.549-1.608,4.639c-1.188-0.388-2.298-1.05-3.603-1.026c-2.097,0.151-2.082,1.88-2.471,3.308
		c-0.682-0.408-1.363-0.816-2.045-1.224c-0.261-0.31-0.33-0.601-0.205-0.872c0.122-0.264,0.233-0.395,0.333-0.392
		C250.547,302.171,252.134,300.944,251.725,298.701z"/>
	<path fill="#ECECEC" d="M251.632,326.202c0.016,0.745,0.032,1.489,0.049,2.234c-2.172,1.803-4.748-0.339-6.996,0.717
		c-2.456-0.187-2.277-1.592-0.984-2.801c0.662-0.618,2.077-0.431,3.152-0.607C248.489,325.445,250.164,324.748,251.632,326.202z"/>
	<path fill="#D2D2D2" d="M250.009,315.206c0.076,1.952-1.068,2.38-2.635,2.32c-1.337-0.052-3.017,0.228-3.036-1.765
		c-0.021-2.199,1.906-2.095,3.389-2.372C249.215,313.11,249.878,313.904,250.009,315.206z"/>
	<path fill="#E3E3E3" d="M249.257,303.55c-0.043,0.421-0.086,0.842-0.129,1.264c-0.188,0.229-0.299,0.49-0.331,0.785
		c-1.116,1.169-1.686,0.175-2.315-0.584c-1.917-0.616-2.156-1.962-1.577-3.651c0.377-1.1,1.277-1.359,2.293-1.3
		C249.583,300.203,248.829,302.233,249.257,303.55z"/>
	<path fill="#E1E1E1" d="M248.753,311.842c-4.668-0.59-4.685-0.614-3.361-4.826c1.209-0.803,2.376-0.856,3.485,0.188l-0.027-0.042
		C249.838,308.743,249.708,310.301,248.753,311.842z"/>
	<path fill="#BFBFBF" d="M244.685,329.153c2.238-1.151,4.665-0.469,6.996-0.717c0.627,1.142,1.032,2.336,0.852,3.666
		c-1.175-0.519-2.35-1.038-3.525-1.556C247.893,329.068,246.16,329.512,244.685,329.153z"/>
	<path fill="#BFBFBF" d="M251.632,326.202c-1.593-0.152-3.186-0.304-4.779-0.457c0.826-0.629,1.652-1.258,2.478-1.887
		c0.556-0.485,1.112-0.97,1.668-1.454C251.646,323.598,251.727,324.885,251.632,326.202z"/>
	<path fill="#4E4E4E" d="M248.877,307.204c-1.162-0.063-2.323-0.126-3.485-0.188c0.364-0.667,0.727-1.335,1.091-2.002
		c0.772,0.195,1.543,0.39,2.315,0.585C248.824,306.134,248.851,306.669,248.877,307.204z"/>
	<path fill="#4E4E4E" d="M248.753,311.842c0.032-1.56,0.065-3.12,0.097-4.68C249.942,308.745,250.199,310.311,248.753,311.842z"/>
	<path fill="#343434" d="M254.873,271.927c-0.414-0.027-0.828-0.053-1.242-0.08c-0.027-0.359-0.07-0.716-0.127-1.071
		c-0.4-1.864,0.898-3.236,1.4-4.838c1.273-4.827,2.547-9.653,3.852-14.6c-3.937-1.016-7.486-1.055-10.923-0.716
		c-3.642,0.36-6.944-0.212-10.191-1.684c5.893-1.95,11.829-0.832,17.738-0.158c1.52,0.173,2.974,0.914,4.571,0.718
		c0.472,0.484,0.944,0.968,1.416,1.452c-1.678,6.196-3.36,12.391-5.03,18.589C256.081,270.486,255.841,271.425,254.873,271.927z"/>
	<path fill="#6A6A6A" d="M254.904,265.938c0.128,1.785-0.56,3.334-1.4,4.838c-1.147-0.155-2.293-0.309-3.44-0.464
		c0.787-0.634,1.574-1.268,2.361-1.902c0.935-0.341,1.476-0.99,1.561-1.995C254.296,266.264,254.602,266.105,254.904,265.938z"/>
	<path fill="#2E2E2E" d="M258.856,299.117c-2.138-0.071-4.276-0.142-6.414-0.213c0.026-0.193,0.039-0.389,0.078-0.579
		c0.392-1.886,1.641-3.499,3.376-3.462C258.217,294.913,258.874,296.978,258.856,299.117z"/>
	<path fill="#0B0B0B" d="M253.644,302.73c1.674-1.321,2.736-0.49,3.603,1.026C255.672,304.728,254.429,304.533,253.644,302.73z"/>
	<path fill="#E5E5E5" d="M253.826,337.917c-4.107,0.056-8.189,1.654-13.574,0.213c4.687-2.208,8.48-2.601,12.388-2.034
		c0.47,0.068,0.785,1.206,1.172,1.848L253.826,337.917z"/>
</g>
</svg>
