<?xml version="1.0" encoding="utf-8"?>
<!-- Generator: Adobe Illustrator 17.0.0, SVG Export Plug-In . SVG Version: 6.00 Build 0)  -->
<!DOCTYPE svg PUBLIC "-//W3C//DTD SVG 1.1//EN" "http://www.w3.org/Graphics/SVG/1.1/DTD/svg11.dtd">
<svg version="1.1" id="Слой_1" xmlns="http://www.w3.org/2000/svg" xmlns:xlink="http://www.w3.org/1999/xlink" x="0px" y="0px"
	 width="500px" height="500px" viewBox="0 0 500 500" enable-background="new 0 0 500 500" xml:space="preserve">
<g>
	<path fill="#0E0E0E" d="M218.77,223.777c-1.181-4.611-1.026-9.316-0.898-14.006c0.049-1.805,0.038-3.591-0.181-5.379
		c-0.188-1.538-0.81-3.239,1.586-3.755c0.238-0.051,0.49-1.025,0.378-1.485c-0.168-0.69-0.847-0.428-1.365-0.33
		c-0.682,0.129-1.344,0.181-1.791-0.511c0.15-0.224,0.279-0.622,0.454-0.644c5.036-0.635,8.198-4.38,11.507-7.477
		c5.762-5.392,12.637-7.762,20.139-8.759c1.401-0.186,2.709-0.881,4.367-0.463c6.905,1.743,14.088,2.627,19.699,7.698
		c1.881,1.701,3.397,3.611,4.349,5.962c0.286,0.702-0.037,1.213-0.521,1.673c-6.257,0.032-12.544,0.276-18.611-1.705
		c-2.087-0.681-2.582-2.709-3.443-4.427c-0.674-1.345-1.327-2.966-3.115-2.98c-1.864-0.015-2.393,1.691-2.946,3.071
		c-1.475,3.684-4.174,5.292-8.077,5.151c-4.662-0.168-8.985,1.355-13.27,2.899c-3.602,1.298-4.808,4.443-5.186,7.858
		c-0.411,3.705-0.417,7.446,0.179,11.158c0.239,1.488,0.709,2.974,0.139,4.497c-0.521,1.083-1.502,1.6-2.529,2.061l0.021-0.052
		C219.334,224.273,219.038,224.256,218.77,223.777z"/>
	<path fill="#111111" d="M226.113,312.836c-0.189,0.915-0.378,1.831-0.639,3.097c4.482,0.64,8.81-0.165,13.577-0.041
		c-3.022-8.2,1.052-13.664,7.056-17.687c3.761-2.52,8.692-2.041,12.201,0.706c5.123,4.011,9.467,8.918,5.949,16.791
		c5.27-0.435,9.88,0.356,14.531,0.349c0.691-0.001,1.387-0.028,2.072,0.042c0.197,0.02,0.541,0.376,0.511,0.506
		c-0.086,0.368-0.302,0.975-0.518,0.998c-1.092,0.115-2.217,0.203-3.3,0.065c-5.103-0.652-10.173-0.94-15.32-0.185
		c-2.266,0.333-4.656-0.12-6.985-0.286c-9.282-0.661-18.512,0.666-27.776,0.702c-0.692,0.003-1.385,0.111-2.076,0.095
		c-2.56-0.06-2.808-0.301-1.715-2.842c0.788-1.832-0.196-3.895,1.016-5.586C226.897,309.905,225.166,311.949,226.113,312.836z"/>
	<path fill="#1D1D1D" d="M228.602,298.532c-0.256-0.823-2.384-1.71-0.491-2.413c2.359-0.876,3.033-2.743,3.689-4.606
		c2.782-7.906,6.485-15.468,8.784-23.552c0.163-0.427,0.385-0.44,0.658-0.094c1.348,2.028,2.752,4.022,4.031,6.093
		c2.06,3.335,2.342,6.854,0.835,10.493c-1.317,0.888-2.472,1.044-3.194-0.663c-0.435,1.33-1.12,2.497-1.711,3.709
		c-0.578,1.212-0.866,2.554-1.668,3.662c-2.293,0.148-1.893-1.355-1.717-2.762c0.226-1.807,1.337-3.309,1.645-4.9
		c-0.485,0.948-0.389,2.483-1.991,2.883c-1.345-0.951-1.61,0.258-2.07,1.046c-0.735,1.257-0.918,2.74-1.51,3.825
		c1.121-1.491,0.512-4.266,3.069-5.155c1.122,0.793,0.901,1.864,0.695,2.993c-0.227,1.246,0.069,2.229,1.635,2.208
		c0.935-0.734,1.023-1.923,1.545-2.88c0.372-0.656,0.44-1.477,1.084-1.986c1.366-0.339,2.777-0.761,2.695,1.499
		c-2.101,4.078-5.795,6.032-9.879,7.542c-2.112,0.781-4.768,0.945-5.32,3.902C228.659,299.562,228.255,299.409,228.602,298.532z"/>
	<path fill="#191919" d="M242.879,241.252c-5.795,0.18-5.779,0.18-5.601,6.233c0.141,4.821-0.084,9.665,0.992,14.423
		c0.449,1.986-0.472,2.17-2.07,1.57c-4.37-1.643-8.831-2.032-13.394-0.873c-0.12,0.03-0.34-0.335-0.8-0.813
		c1.851-0.678,3.704-1.105,3.279-3.924c-1.359-9.012-0.368-18.194-1.679-27.228c-0.383-0.753,0.013-1.179,0.634-1.512
		c1.22-0.297,2.165,0.188,2.832,1.155c2.797,4.057,6.89,6.004,11.447,7.375c1.613,0.485,3.591,0.574,4.574,2.391
		C243.221,240.485,243.149,240.886,242.879,241.252z"/>
	<path fill="#2F2F2F" d="M263.753,252.061c-0.815-3.435-0.698-7.068-2.058-10.386c-1.628,0.175-3.109,0.333-4.59,0.492
		c-0.899,0.274-1.14-0.266-1.228-0.994c0.26-1.229,1.209-1.921,2.251-2.155c5.317-1.195,9.831-3.927,14.151-7.087
		c0.44-0.322,1.058-0.197,1.601-0.218c0.641,0.004,1.278,0.042,1.889,0.244c3.251,2.58,3.076,6.414,3.103,9.879
		c0.034,4.432,0.01,8.852,0.498,13.258c0.207,1.87-0.16,3.479-2.15,3.903c-2.248,0.479-2.751-1.357-3.178-3.002
		c-1.043-4.015-1.163-8.158-1.663-11.627c-0.399,3.146,1.104,6.791,0.779,10.547c-0.182,2.107,0.412,5.071-2.719,5.188
		c-3.21,0.12-2.817-2.85-2.926-4.968c-0.149-2.895-0.1-5.798-0.905-8.491c-0.418,1.813,0.469,4.138-1.678,5.58
		C264.505,252.406,264.112,252.35,263.753,252.061z"/>
	<path fill="#383838" d="M259.508,268.736c0.673,0.446,1.432,0.775,1.788,1.6c2.003,4.635,4.75,8.891,6.72,13.565
		c1.501,3.56,3.635,6.858,4.841,10.574c-0.371,0.535-0.894,0.746-1.526,0.723c-1.621-0.901-3.112-2.41-5.214-1.143
		c-1.124-0.277-2.311-0.439-2.923-1.629c-0.529-1.003,1.268-2.032-0.075-3.018c-0.29-0.214-0.472-0.486-0.603-0.807
		c-0.007-0.424,0.116-0.814,0.214-1.21c0.081-0.325,0.036-0.265-0.09,0.192c-0.33,1.206-0.951,2.055-2.323,1.438
		c-1.167-0.525-1.131-1.617-1.171-2.756c-0.044-1.269,0.887-2.219,0.832-3.293c-0.696,1.353-0.351,3.349-2.127,4.337
		c-1.484-0.071-1.808-1.305-2.338-2.331c0.445-2.518,2.272-4.462,2.66-6.59c-0.951,0.999-0.232,3.723-2.923,3.924
		c-0.77-0.402-1.072-1.126-1.314-1.893c1.247-4.019,2.506-8.033,4.99-11.515C259.12,268.849,259.314,268.793,259.508,268.736z"/>
	<path fill="#161616" d="M262.956,288.691c0.309,0.001,0.619,0.003,0.928,0.004c0.735,1.107,0.685,2.176-0.157,3.206
		c0.671,0.933,1.651,1.338,2.72,1.591c1.83-1.289,3.151,0.001,4.55,0.898c0.621,0.029,1.241,0.057,1.861,0.086
		c0.591,0.368,0.777,0.958,0.873,1.597c0.294,0.895-0.102,1.106-0.906,0.913c-1.172-0.79-2.532-1.17-3.874-1.347
		c-4.638-0.614-8.109-3.273-11.378-6.289c-1.837-1.695-3.076-3.736-3.772-6.225c-1.99-7.115-1.627-13.873,2.443-20.22
		c0.347-0.72,1.119-0.426,1.656-0.694c0.535,2.176,1.071,4.351,1.606,6.526l0.023-0.098c-2.966,3.229-3.288,7.577-4.828,11.41
		c0.29,0.746,0.58,1.493,0.87,2.239c0.813,0.641,0.557,1.547,0.589,2.381c0.557,0.779,1.114,1.559,1.672,2.338
		C259.744,286.952,260.486,290.449,262.956,288.691z"/>
	<path fill="#323232" d="M263.753,252.061c0.256,0,0.512,0.001,0.768,0.002c2.705,0.221,2.556,2.381,2.871,4.226
		c0.743,4.347,1.081,4.557,5.097,2.8c0.954-0.417,1.809-0.296,2.764-0.163c1.497,0.207,3.013,0.223,4.041-1.227
		c0.51-1.729,1.02-3.457,3.418-3.107c0.102,0.676,0.239,1.349,0.3,2.028c0.488,5.403,0.485,5.377-4.966,4.997
		c-3.207-0.224-6.201,0.947-9.259,1.622c-3.538,0.781-3.519,0.867-4.422-2.886c-0.691-1.344,0.199-2.93-0.651-4.25
		C263.728,254.756,263.741,253.408,263.753,252.061z"/>
	<path fill="#444444" d="M282.712,254.591c-1.169,1.738-0.217,4.088-1.659,5.747c-0.9-0.71-1.6-1.751-1.61-2.755
		c-0.12-11.179-1.449-22.394,0.786-33.531c0.396-0.757,1.023-1.194,1.88-1.284c1.126,4.193,0.569,8.462,0.581,12.706
		c-0.447,5.523-0.558,11.046,0.052,16.566C282.732,252.89,282.722,253.741,282.712,254.591z"/>
	<path fill="#363636" d="M219.461,237.066c-0.215,7.06,0.399,14.078,1.009,21.099c0.085,0.975,0.694,2.656-0.661,2.769
		c-1.566,0.131-0.997-1.672-1.042-2.596c-0.344-7.026-1.681-14.036-0.476-21.095c0.068-0.398,0.232-0.779,0.352-1.169
		C219.21,236.161,219.209,236.718,219.461,237.066z"/>
	<path fill="#222222" d="M282.108,222.769c-0.281,0.329-0.562,0.657-0.843,0.986c-1.851-0.67-1.686-2.881-3.028-3.949
		c-0.674-0.671-0.942-1.485-0.905-2.418c0.228-3.844,0.123-7.742,1.945-11.311c0.53-0.588,1.126-0.978,1.959-0.655
		C282.31,211.166,282.111,216.972,282.108,222.769z"/>
	<path fill="#555555" d="M272.825,296.986c0.302-0.304,0.604-0.609,0.906-0.913c2.554,3.47,3.619,7.684,5.698,11.392
		c0.925,1.651,1.274,3.6,2.868,4.914c0.572,0.471,0.135,1.255-0.806,2.019C277.881,308.905,276.053,302.577,272.825,296.986z"/>
	<path fill="#646464" d="M241.242,267.867l-0.321,0.106l-0.338-0.012c0.513-3.14,2.038-5.916,3.16-8.838
		c1.123-2.926,2.14-5.893,3.203-8.841c0.802,0.32,0.314,1.255,0.82,1.716C246.121,257.505,244.066,262.844,241.242,267.867z"/>
	<path fill="#656565" d="M228.602,298.532c0.271,0.281,0.542,0.563,0.814,0.844c0.102,3.014-1.919,5.378-2.517,8.203
		c-0.37,1.75-0.893,3.446-0.786,5.257c-1.11-0.816-0.544-2.357-1.416-3.277C225.557,305.727,227.179,302.164,228.602,298.532z"/>
	<path fill="#464646" d="M281.237,205.423c-0.384,0.396-0.769,0.792-1.153,1.187c-3.495-1.94-5.509-7.547-3.981-11.086
		c0.304-0.299,0.608-0.598,0.913-0.897C279.437,197.829,280.022,201.749,281.237,205.423z"/>
	<path fill="#676767" d="M257.902,262.21c-0.552,0.231-1.104,0.463-1.656,0.694c-2.185-3.788-4.118-7.699-5.719-11.772
		c0.238-0.325,0.186-0.919,0.817-0.879c1.39,2.938,2.752,5.89,4.185,8.807C256.111,260.247,256.425,261.68,257.902,262.21z"/>
	<path fill="#252525" d="M251.343,250.253c-0.272,0.293-0.544,0.586-0.817,0.879c-0.302-0.584-0.382-1.659-1.077-1.562
		c-1.212,0.168-1.232,1.524-1.683,2.428c-0.273-0.572-0.546-1.144-0.82-1.716c-0.197-2.049,0.582-4.364,2.402-4.35
		C251.094,245.944,251.064,248.57,251.343,250.253z"/>
	<path fill="#323232" d="M282.742,252.04c-1.241-5.518-1.094-11.041-0.052-16.566C283.003,240.995,283.352,246.516,282.742,252.04z"
		/>
	<path fill="#484848" d="M243.625,283.558c0.865,0.196,1.883-0.033,2.483,0.896c-0.01,1.369-0.549,2.51-1.493,3.479
		c-0.808-0.295-1.615-0.59-2.423-0.885C241.231,285.294,241.796,284.166,243.625,283.558z"/>
	<path fill="#3B3B3B" d="M224.341,229.642c-0.245,0.333-0.49,0.666-0.736,0.999c-2.069-1.814-1.946-4.917-3.97-6.758
		c0.305-0.93,0.611-1.86,0.916-2.79C224.296,222.629,225.905,226.258,224.341,229.642z"/>
	<path fill="#6D6D6D" d="M256.24,241.374c0.288,0.264,0.577,0.529,0.865,0.793c-2.834,1.113-5.674,1.273-8.523,0.054
		c0.035-0.875,0.387-1.585,1.094-2.112C252.078,239.419,254.509,238.578,256.24,241.374z"/>
	<path fill="#2F2F2F" d="M219.461,237.066c-0.273-0.331-0.545-0.661-0.818-0.992c-0.147-4.101-0.498-8.204,0.127-12.297
		c0.296,0.018,0.592,0.035,0.887,0.053C219.592,228.242,219.526,232.654,219.461,237.066z"/>
	<path fill="#1B1B1B" d="M249.469,241.38c-0.296,0.281-0.591,0.561-0.887,0.842c-1.898-0.343-3.954,0.246-5.703-0.97
		c-0.002-0.214-0.002-0.428-0.001-0.642c0.264-1.091,1.057-1.577,2.071-1.81c1.508-0.131,2.969-0.106,4.042,1.214
		C249.274,240.423,249.432,240.881,249.469,241.38z"/>
	<path fill="#FCFCFC" d="M263.716,256.103c0.697,1.343,0.808,2.776,0.651,4.25C263.637,259.014,263.679,257.558,263.716,256.103z"/>
	<path fill="#FFFFFF" d="M245.063,240.501c-0.728,0.036-1.456,0.072-2.185,0.109c-4.39-1.049-8.838-1.636-12.834-4.234
		c-2.718-1.768-3.686-4.606-5.703-6.734c-1.263-2.85-2.526-5.7-3.789-8.549c-0.87-5.885-1.772-11.745-0.393-17.708
		c0.89-3.847,2.799-6.502,6.78-7.505c4.788-1.206,9.419-2.961,14.533-2.744c2.144,0.091,4.28-0.82,4.905-3.594
		c0.388-1.726,1.303-3.347,2.081-4.967c1.118-2.328,2.113-2.532,4.073-0.812c1.909,1.675,3.124,3.811,4.06,6.173
		c1.194,3.015,2.83,3.178,6.248,3.486c4.428,0.399,9.23-0.897,13.265,2.104c1.671,3.572,2.791,7.341,3.981,11.086
		c-0.271,3.676-0.542,7.353-0.813,11.029c0.787,6.083-1.268,11.109-5.677,15.259c-3.383,4.083-8.069,5.953-12.909,7.517
		c-1.435,0.464-2.961,0.647-4.445,0.96c-2.257,0.002-4.514,0.004-6.771,0.006c-0.267-0.094-0.534-0.188-0.802-0.282
		C247.524,240.547,246.196,241.111,245.063,240.501z"/>
	<path fill="#DDDDDD" d="M268.247,191.286c-3.838-0.019-4.496-0.893-4.502-5.981C265.653,186.246,266.897,187.898,268.247,191.286z"
		/>
	<path fill="#ABABAB" d="M260.118,183.366c1.233,2.347,2.246,4.231,3.209,6.14c0.239,0.473,0.433,1.077-0.197,1.447
		c-0.714,0.419-1.323,0.066-1.811-0.441c-0.9-0.936-1.006-2.226-1.406-3.382C259.569,186.135,258.825,185.163,260.118,183.366z"/>
	<path fill="#9F9F9F" d="M243.219,190.505c0.234-2.714,0.726-5.334,3.127-8.108C246.357,186.101,245.251,188.475,243.219,190.505z"
		/>
	<path fill="#D9D9D9" d="M241.879,184.068c0.515,2.743-0.745,4.641-1.073,6.674c-0.03,0.189-0.701,0.397-1.066,0.383
		c-0.725-0.029-0.877-0.551-0.651-1.157C239.786,188.099,239.998,185.983,241.879,184.068z"/>
	<path fill="#BDBDBD" d="M237.631,185.792c0.497,1.956,0.681,3.808-0.303,5.513c-0.357,0.619-1.025,0.972-1.735,0.549
		c-0.62-0.369-0.328-0.977-0.111-1.459C236.176,188.851,236.911,187.325,237.631,185.792z"/>
	<path fill="#C6C6C6" d="M234.357,188.756c-0.246,1.054-0.472,2.113-0.753,3.158c-0.064,0.238-0.276,0.513-0.493,0.614
		c-0.35,0.163-0.961,0.401-1.114,0.252c-1.303-1.269,0.358-2.415,0.268-3.693c-0.043-0.613,0.682-1.159,1.453-1.149
		C234.184,187.943,234.422,188.255,234.357,188.756z"/>
	<path fill="#8D8D8D" d="M258.071,187.452c-1.081-1.107-2.291-2.168-2.899-3.822C257.271,184.072,257.271,184.072,258.071,187.452z"
		/>
	<path fill="#BABABA" d="M272.181,192.033c-1.825-0.314-2.427-1.207-2.577-3.015C271.106,189.658,271.99,190.308,272.181,192.033z"
		/>
	<path fill="#F1F1F1" d="M253.074,314.522c-0.957,1.17-2.218,0.846-3.443,0.702c-1.268-0.973-0.913-2.216-0.403-3.338
		c1.87-4.106,3.881-8.131,7.88-10.674c2.513-0.519,1.393,1.291,1.488,2.322C258.201,307.923,256.753,311.783,253.074,314.522z"/>
	<path fill="#EEEEEE" d="M253.568,300.236c0.889-0.948,1.776-1.788,2.604,0.057c-1.934,5.459-5.242,10.162-8.269,15.019
		l-0.015,0.011c-2.46,0.713-3.268-0.773-2.545-2.59C247.212,308.039,248.996,303.189,253.568,300.236z"/>
	<path fill="#4D4D4D" d="M253.568,300.236c-1.872,3.219-3.78,6.417-5.599,9.665c-0.736,1.315-1.466,2.665-1.447,4.27
		c0.012,0.983,0.678,1.047,1.367,1.151c-1.939,1.13-3.913,1.096-5.914,0.18c0.117-0.945,0.795-1.591,1.258-2.354
		c0.197-0.313,0.399-0.621,0.608-0.926c3.095-4.205,4.777-9.363,8.771-12.957C252.931,299.589,253.25,299.912,253.568,300.236z"/>
	<path fill="#4E4E4E" d="M257.224,315.911c-0.758-0.177-1.134-0.793-1.555-1.356c-1.957-2.486,1.118-3.898,1.266-5.934
		c0.238-0.799,0.649-1.471,1.399-1.891c0.403-0.122,0.778-0.055,1.126,0.177c1.164,0.5,1.52-1.02,2.735-1.003
		c0.858,1.172-1.514,2.385-0.196,3.55c0.177,2.166,0.069,4.19-2.484,5c-0.231,0.039-0.464,0.059-0.698,0.06
		C257.124,313.654,257.868,315.574,257.224,315.911z"/>
	<path fill="#D7D7D7" d="M252.612,299.266c-2.788,4.747-5.706,9.421-8.098,14.391c-1.123-1.125-1.104-2.268-0.052-3.426
		c1.505-4.275,4.448-7.636,7.127-11.161C251.857,298.718,252.314,298.95,252.612,299.266z"/>
	<path fill="#4E4E4E" d="M247.904,315.311c2.268-5.275,5.051-10.267,8.269-15.019c0.312,0.306,0.623,0.613,0.935,0.919
		c-1.086,3.161-3.615,5.463-5.02,8.428c-0.871,1.837-2.228,3.465-2.457,5.585C249.055,315.253,248.48,315.282,247.904,315.311z"/>
	<path fill="#CECECE" d="M241.875,307.775c0.908-2.719,3.597-4.465,3.99-7.526c0.123-0.959,1.357-1.173,2.734-1.075
		c-0.8,3.961-3.596,6.524-5.912,9.371C241.993,308.736,241.692,308.512,241.875,307.775z"/>
	<path fill="#454545" d="M258.76,306.831c-0.293,0.553-0.586,1.107-0.878,1.66c-1.841,1.718-1.31,5.196-4.427,5.968l-0.381,0.063
		c1.32-3.925,3.602-7.366,5.523-10.988c0.24,0.28,0.481,0.561,0.721,0.841C260.273,305.452,259.034,306.032,258.76,306.831z"/>
	<path fill="#CECECE" d="M259.515,314.453c1.111-1.526,1.77-3.277,2.484-5c0.315-0.261,0.601-0.688,0.951-0.748
		c0.771-0.132,0.92,0.617,0.755,1.037c-0.747,1.899-1.369,3.919-2.511,5.566C260.242,316.681,259.676,315.574,259.515,314.453z"/>
	<path fill="#4D4D4D" d="M241.875,307.775c0.271,0.257,0.542,0.513,0.813,0.77c0.592,0.562,1.183,1.124,1.775,1.686
		c0.017,1.142,0.034,2.284,0.052,3.426l0.061-0.07c-0.583,0.782-1.253,1.748-2.308,1.008c-1.75-1.228,0.144-2.745-0.118-4.127
		C241.605,309.616,240.935,308.778,241.875,307.775z"/>
	<path fill="#C7C7C7" d="M257.224,315.911c0.027-3.046,0.027-3.046,2.587-6.407c0.461,1.99-1.3,3.325-0.994,5.01
		C258.286,314.979,257.755,315.445,257.224,315.911z"/>
	<path fill="#B9B9B9" d="M253.455,314.459c2.079-1.542,2.31-4.454,4.427-5.968c-0.044,2.274-1.885,3.893-2.213,6.063
		C254.861,316.149,254.136,315.823,253.455,314.459z"/>
	<path fill="#DADADA" d="M242.149,310.468c0.73,0.607,0.539,1.37,0.408,2.156c-0.435,2.607,1.098,1.155,2.018,0.963
		c0.045,1.876-1.361,1.784-2.601,1.916C240.053,312.915,240.053,312.915,242.149,310.468z"/>
	<path fill="#9C9C9C" d="M258.76,306.831c0.186-0.819,0.372-1.637,0.558-2.456c0.288-0.626,0.662-1.335,1.446-0.935
		c0.647,0.329,0.207,0.908-0.079,1.372c-0.425,0.688-0.818,1.396-1.225,2.095C259.222,306.924,258.989,306.899,258.76,306.831z"/>
	<path fill="#D7D7D7" d="M239.606,291.261c-1.038,1.165-2.273,1.92-3.977,1.91c-0.565-2.594,1.599-4.66,1.337-7.152l-0.053,0.11
		c2.017-2.41,2.291-5.811,4.957-8.694c-0.615,3.849-1.688,6.861-2.673,9.892c-0.466,1.434-1.226,2.875,0.498,4.026L239.606,291.261z
		"/>
	<path fill="#CCCCCC" d="M243.625,283.558c-0.854,1.009-1.237,2.211-1.432,3.49c-0.285,0.621-0.569,1.243-0.854,1.864
		c-0.856-0.369-0.346-1.337-0.821-1.872c0.922-3.317,1.903-6.608,4.416-9.247C244.601,279.751,243.807,281.592,243.625,283.558z"/>
	<path fill="#A7A7A7" d="M236.966,286.019c-1.254,2.678-2.507,5.355-3.761,8.033c-0.097-3.707,1.584-6.745,3.066-9.956
		c0.98,0.69,0.709,1.384,0.644,2.034C236.913,286.129,236.966,286.019,236.966,286.019z"/>
	<path fill="#D7D7D7" d="M240.518,287.039c0.274,0.624,0.547,1.248,0.821,1.872c-0.016,1.2-0.949,1.718-1.736,2.347
		c0.003,0.003,0.087,0.087,0.089,0.091C239.552,289.835,239.845,288.4,240.518,287.039z"/>
	<path fill="#F4F4F4" d="M225.666,235.293c3.319,1.778,3.913,4.086,3.977,6.911c0.105,4.694,0.575,9.378,0.857,14.069
		c0.058,0.962-0.025,1.934-0.067,2.901c-0.026,0.599-0.277,1.053-0.941,1.128c-0.683,0.077-1.436,0.215-1.898-0.429
		c-0.308-0.429-0.522-0.985-0.598-1.51C225.919,250.867,225.482,243.339,225.666,235.293z"/>
	<path fill="#E8E8E8" d="M236.016,250.956c0,2.76,0.027,5.52-0.015,8.279c-0.015,0.965-0.094,2.01-1.47,2.044
		c-1.161,0.029-1.603-0.484-1.776-1.705c-0.812-5.745-1.409-11.506-1.563-17.304c-0.025-0.957-0.407-2.402,1.236-2.636
		c1.397-0.199,2.978,1.108,3.037,2.632C235.577,245.16,236.002,248.05,236.016,250.956z"/>
	<path fill="#FCFCFC" d="M280.335,219.631c1.363,1.137,0.415,2.795,0.931,4.124c-0.67,6.717,0.279,13.428,0.053,20.147
		c-0.184,5.476-0.184,10.957-0.265,16.436c-4.195-0.9-8.236,0.22-12.274,1.045c-1.613,0.329-2.313-0.082-2.616-1.631
		c-0.504-2.572-1.09-5.127-1.642-7.69c-0.012-3.18-0.027-6.361-0.033-9.541c-0.001-0.796-0.306-1.683,0.589-2.246
		c0.838-0.527,1.741-0.979,2.718-0.556c0.926,0.401,0.781,1.386,0.832,2.176c0.308,4.83,0.579,9.663,0.861,14.494
		c0.04,0.686,0.032,1.377,0.131,2.054c0.027,0.185,0.34,0.41,0.561,0.467c0.462,0.12,0.918-0.207,0.956-0.558
		c0.089-0.811,0-1.643-0.041-2.466c-0.247-4.972-0.819-9.927-0.72-14.918c0.045-2.229,0.747-3.995,3.046-5.227
		c1.612,7.462,1.258,14.976,2.917,22.171c1.386,0.014,1.432-0.822,1.285-1.694c-0.778-4.62-1.326-9.205-0.762-13.947
		c0.374-3.142-0.758-6.269-1.659-9.32c-0.911-2.881,1.647-4.673,2.27-7.09C278.042,223.659,279.119,221.589,280.335,219.631z"/>
	<path fill="#4E4E4E" d="M280.335,219.631c-0.452,3.307-2.238,6.119-3.411,9.158c-0.541,1.4-1.145,2.776-1.72,4.163
		c-0.537-0.018-1.073-0.036-1.61-0.055c2.202-4.971,4.46-9.921,5.677-15.259C279.626,218.303,279.98,218.967,280.335,219.631z"/>
	<path fill="#E1E1E1" d="M262.956,288.691c-0.533,0.863-0.859,2.09-2.302,1.01c-1.056-0.79-2.195-1.465-2.82-2.695
		c-0.113-3.672,1.757-6.609,3.577-9.554c0.255-0.413,0.58-1.048,1.246-0.768c0.771,0.324,0.878,1.061,0.654,1.753
		c-0.384,1.182-0.88,2.328-1.322,3.491c-0.54,1.421-1.128,2.828-1.583,4.276c-0.235,0.747-0.585,1.913,0.377,2.165
		c1.077,0.283,1.055-0.779,1.173-1.654c0.297-2.192,1.313-4.103,2.561-6.199c1.175,1.054,0.935,1.907,0.556,2.796
		C264.317,285.086,263.254,286.738,262.956,288.691z"/>
	<path fill="#CCCCCC" d="M254.703,280.048c-0.57-4.013,1.359-7.387,2.788-10.887c0.431-1.055,1.241-0.81,2.04-0.523
		C258.185,272.553,257.436,276.72,254.703,280.048z"/>
	<path fill="#D9D9D9" d="M256.162,284.668c-0.733-0.661-0.416-1.582-0.589-2.381c1.304-2.898,2.595-5.802,3.921-8.69
		c0.304-0.663,0.824-1.191,1.597-0.669c0.477,0.322,0.715,0.999,0.311,1.452C258.748,277.357,258.492,281.54,256.162,284.668z"/>
	<path fill="#E2E2E2" d="M270.996,294.39c-1.517-0.299-3.033-0.599-4.55-0.898c0.917-1.517,0.005-3.651,1.949-5.243
		C269.306,290.399,270.151,292.395,270.996,294.39z"/>
	<path fill="#D6D6D6" d="M263.727,291.901c0.052-1.069,0.105-2.137,0.157-3.206c1.377-0.79,1.083-2.812,3.055-3.79
		C266,287.606,266.394,290.379,263.727,291.901z"/>
	<path fill="#7F7F7F" d="M256.394,266.796c-0.261,1.6,0.056,3.423-1.532,5.089C254.133,269.669,255.405,268.276,256.394,266.796z"/>
	<path fill="#FDFDFD" d="M245.063,240.501c1.247-0.075,2.472-0.017,3.605,0.597C247.425,241.146,246.188,241.159,245.063,240.501z"
		/>
	<path fill="#3E3E3E" d="M247.817,233.959c8.444,1.096,15.404-1.833,21.289-7.777c1.811-1.83,2.819-4.074,3.591-6.444
		c0.406-1.246,0.628-2.547,1.727-3.433c0.024,5.985-3.083,10.51-7.556,13.865c-6.14,4.606-12.983,7.316-20.867,4.53
		C246.368,233.867,247.27,234.347,247.817,233.959z"/>
	<path fill="#2A2A2A" d="M247.817,233.959c-0.605,0.247-1.21,0.494-1.815,0.74c-5.989-1.728-10.758-5.321-14.915-9.822
		c-0.552-0.598-0.955-1.342-1.379-2.048c-0.355-0.591-0.702-1.3,0.174-1.703c0.599-0.275,0.998,0.24,1.3,0.722
		C235.103,228.116,241.178,231.425,247.817,233.959z"/>
	<path fill="#191919" d="M235.184,202.923c-0.14-1.674,0.565-2.884,2.136-3.078c1.61-0.198,2.136,1.122,2.055,2.458
		c-0.092,1.524-0.447,3.324-2.221,3.525C235.174,206.052,235.406,204.162,235.184,202.923z"/>
	<path fill="#222222" d="M249.157,220.453c-1.623-0.196-3.279-0.35-4.702-1.257c-0.758-0.484-1.116-1.27-0.593-2.106
		c0.481-0.77,1.275-0.509,1.774-0.071c2.375,2.084,4.955,1.972,7.683,0.907c0.576-0.225,1.073-0.093,1.165,0.635
		c0.055,0.431-0.073,0.813-0.527,0.962C252.398,220.034,250.866,220.689,249.157,220.453z"/>
	<path fill="#0E0E0E" d="M262.504,203.841c-1.11-0.001-2.103-0.363-2.105-1.796c-0.002-1.554,2.048-3.575,3.464-3.505
		c1.237,0.062,1.58,0.878,1.598,1.952C265.495,202.415,264.365,203.748,262.504,203.841z"/>
</g>
</svg>
