<?xml version="1.0" encoding="utf-8"?>
<!-- Generator: Adobe Illustrator 17.0.0, SVG Export Plug-In . SVG Version: 6.00 Build 0)  -->
<!DOCTYPE svg PUBLIC "-//W3C//DTD SVG 1.1//EN" "http://www.w3.org/Graphics/SVG/1.1/DTD/svg11.dtd">
<svg version="1.1" id="Слой_1" xmlns="http://www.w3.org/2000/svg" xmlns:xlink="http://www.w3.org/1999/xlink" x="0px" y="0px"
	 width="500px" height="500px" viewBox="0 0 500 500" enable-background="new 0 0 500 500" xml:space="preserve">
<g>
	<path fill="#1C1C1C" d="M214.038,267.122c-1.397,1.441-0.259,2.958,0.041,4.32c3.535,16.025,5.214,32.228,5.645,48.635
		c0.224,8.528,0.145,17.011-0.333,25.512c-0.097,1.721,0.153,3.515-2.107,4.07c-0.998-1.192-0.765-2.463-0.243-3.753
		c0.543-10.544,1.038-21.095,0.498-31.647c-0.365-7.137-0.856-14.283-1.7-21.376c-0.703-5.912-1.989-11.755-3.045-17.624
		c-0.446-2.478-1.171-4.857-2.368-6.85c-1.739,0.003-1.933,1.266-2.675,1.886c-2.899,2.424-5.258,5.862-9.999,4.569
		c-1.117-0.305-2.648,0.536-3.88,1.089c-3.832,1.721-8.099,0.248-11.944,1.73c-2.406-1.788-4.875-2.838-7.804-1.053
		c-0.976,0.594-1.003-0.552-1.254-1.038c-0.69-1.337-2.095-1.659-3.187-2.433c-1.472-1.043-3.31-1.469-4.831-1.329
		c-2.095,0.192-1.481,2.676-2.191,4.097c-0.278,0.557-0.93,0.928-1.412,1.383l0.099,0.021c0.137-1.182,0.11-2.412,0.44-3.538
		c1.174-3.996,0.225-7.412-1.603-11.151c-2.377-4.864-3.191-10.375-3.527-15.812c-0.449-7.274-0.604-14.566-0.929-21.848
		c-0.099-2.206,0.782-3.198,3.021-2.811c0.224,0.148,0.449,0.296,0.673,0.445c0.71,0.846,0.82,1.864,0.692,2.884
		c-1.123,8.922,0.124,17.744,1.228,26.551c0.419,3.345,1.431,6.636,4.089,9.061c0.461,0.246,0.83,0.597,1.13,1.016
		c1.294,2.729,1.77,5.989,4.864,7.572c1.103,0.346,2.213,0.662,3.373,0.768c2.35,0.235,4.219,2.022,6.635,2.039
		c0.69,0.048,1.382,0.073,2.072,0.064c2.682-0.047,3.93-1.64,4.414-4.074c0.355-1.787,0.148-3.822,2.111-4.928
		c0.453-0.179,0.923-0.226,1.405-0.179c1.697,0.462,2.135,1.87,2.51,3.341c0.519,2.039,1.613,3.231,3.913,2.553
		c1.075-0.239,2.171-0.386,3.144-0.954c2.575-1.246,4.138-3.403,5.318-5.902c0.443-2.157,2.546-3.259,3.287-5.227
		c1.704-7.62,0.516-15.335,0.808-22.998c0.067-1.77-0.029-3.543,0.189-5.932c-0.224,1.564-0.259,2.556-1.064,3.262
		c-0.889,0.663-1.848,0.619-2.83,0.296c-0.464-0.067-0.904-0.228-1.319-0.437c-0.377-0.211-0.737-0.47-1.093-0.714
		c-1.181-0.542-2.494-0.802-3.592-1.564c-1.071-0.772-1.889-1.675-1.684-3.126c0.203-0.66,0.547-1.219,1.09-1.677
		c15.651-13.193,18.213-37.772,5.305-53.614c-6.631-8.138-15.902-9.947-25.855-9.212c-10.217,0.754-16.288,6.628-19.886,15.881
		c-1.46,3.756-2.381,8.303-7.405,9.425c-0.823-0.342-1.328-0.839-0.865-1.798c0.866-4.432,2.135-8.649,5.076-12.277
		c1.11-1.369,1.559-3.273,2.31-4.932c0.472-0.858,1.001-1.657,2.004-1.977c3.306-2.366,4.617-5.327,3.942-9.559
		c-0.471-2.952,0.171-6.094,0.432-9.141c0.054-0.628,0.629-1.204,1.489-0.99c0.798,0.198,1.084,0.739,0.962,1.507
		c-0.399,2.516-0.847,5.026-1.211,7.547c-0.238,1.647-0.745,3.334,0.258,4.924c5.365-1.353,5.323-1.352,5.192-6.463
		c-0.062-2.435-0.416-4.964,1.443-8.264c1.382,3.615,0.476,6.09-0.059,8.579c-0.254,1.183-0.342,2.521,0.791,3.258
		c1.042,0.678,2.329,0.355,3.466-0.017c1.412-0.463,1.477-1.718,1.5-2.933c0.043-2.212,0.021-4.427,0.114-6.637
		c0.042-0.998,0.129-2.099,1.823-2.288c1.216,2.589-0.179,5.161-0.277,7.718c-0.123,3.207,0.263,3.603,3.276,3.522
		c1.68-0.045,2.529-0.632,2.46-2.388c-0.08-2.039-0.113-4.08-0.115-6.12c-0.001-0.635,0-1.467,0.859-1.545
		c1.159-0.105,1.348,0.86,1.377,1.699c0.041,1.186-0.078,2.377-0.126,3.566c-0.041,1.018-0.112,2.037-0.108,3.055
		c0.006,1.652,1.314,1.851,2.478,1.955c1.5,0.134,1.45-1.092,1.502-2.097c0.114-2.21,0.172-4.423,0.296-6.632
		c0.053-0.94-0.315-2.081,0.991-2.582c1.427,0.226,1.266,1.401,1.246,2.309c-0.037,1.698,0.017,3.476-0.463,5.071
		c-1.033,3.438,0.224,5.522,3.339,6.811c1.351,0.711,3.406-0.089,4.147,1.932c1.119,0.3,1.843,1.58,3.192,1.308
		c1.414-3.836-0.346-7.754,0.364-11.602c0.152-0.822-0.031-1.701,0.057-2.541c0.053-0.504,0.423-0.918,0.991-0.967
		c0.591-0.05,0.982,0.339,1.133,0.832c0.564,1.843,0.232,3.719,0.084,5.578c-0.203,2.548-0.586,5.088-0.672,7.639
		c-0.111,3.27,1.273,5.8,4.465,7.797c0.966-2.083,0.533-3.92,0.512-5.71c-0.05-4.262-0.102-8.525-0.083-12.788
		c0.004-1.01,0.177-2.052,0.478-3.015c0.179-0.572,0.558-1.326,1.46-1.102c0.833,0.206,0.964,0.813,0.799,1.558
		c-1.639,7.402-0.825,14.966-1.485,22.431c-0.156,1.761,0.041,3.394,0.977,4.917c5.576,9.076,5.006,18.837,3.212,28.74
		c-0.267,1.475-1.045,2.891-0.41,5.099c2.849-4.034,5.805-7.48,8.801-10.892c6.104-6.952,12.463-13.549,20.811-17.934
		c7.683-4.035,11.846-3.856,18.119,4.836c3.726,5.164,5.597,11.273,7.974,17.113c1.537,3.775,2.842,7.653,5.633,10.828
		c4.951,5.631,8.838,5.89,14.248,0.887c4.206-3.891,7.172-8.615,9.829-13.62c3.726-7.019,8.803-12.858,15.617-17.081
		c1.455-0.901,2.902-1.789,4.697-1.874c0.664-0.032,1.662-0.041,1.925-0.442c2.964-4.523,7.945-3.814,12.244-4.859
		c1.13-0.379,1.393,0.153,1.211,1.153c-0.331,0.078-0.66,0.21-0.994,0.225c-8.449,0.385-10.572,6.649-12.26,13.256
		c-0.73,2.858-0.157,3.15,2.974,4.21c7.136,2.415,14.809,1.812,21.975,4.302c-0.334,1.831-1.701,1.566-3.027,1.24
		c-7.27-1.785-14.729-2.174-22.06-3.111c-0.273,0.34-0.578,0.567-0.673,0.861c-1.498,4.628-1.498,4.645,2.798,6.522
		c2.022,0.883,4.076,1.696,6.115,2.54c-0.123,1.868-1.389,1.174-2.392,1.068c-1.443-0.399-2.892-0.78-4.328-1.201
		c-1.217-0.356-2.468-1.6-3.676-0.379c-1.144,1.156-0.964,2.77-0.562,4.242c0.12,0.438,0.612,0.775,0.934,1.158
		c-3.691,1.821-3.469-1.909-4.844-3.387c-0.337-0.48-0.534-1.019-0.628-1.593c-0.175-3.565,0.2-6.956,2.37-10.036
		c0.93-1.321,1.632-2.949,1.393-4.723c-0.209-1.447,0.195-3.401-1.765-3.779c-1.991-0.384-3.006,1.362-3.782,2.816
		c-1.388,2.601-1.195,5.591-1.672,8.415c-0.307,1.814-0.155,3.827-2.37,4.659c-1.731,0.332-2.511-1.45-3.95-1.699
		c-4.144,3.623-6.061,8.308-6.985,13.529c-0.543,3.072-0.302,6.442-3.098,8.728c-0.472,0.171-0.959,0.207-1.456,0.146
		c-0.666-0.2-1.211-0.579-1.658-1.123c-3.127-3.806-5.843-3.672-8.65,0.454c-1.001,1.471-1.238,3.737-3.806,3.514
		c-2.095-0.982-3.213-2.659-3.512-4.915c-0.795-4.726-3.512-8.027-7.649-10.28c-2.364-2.065-2.633-4.909-2.902-7.751
		c-1.021-6.806-4.846-12.551-7.165-18.867c-0.445-1.211-1.676-1.63-2.562-2.39c-2.847-2.016-5.834-1.61-8.628-0.118
		c-2.671,1.426-5.491,2.586-8.006,4.305c-4.747,3.635-8.287,8.378-11.926,13.021c-1.535,1.958-1.468,4.416-1.95,6.723
		c-0.501,2.399-0.393,5.139-2.724,6.842c-1.566,0.769-2.73-0.708-4.153-0.711c-3.823,2.596-3.826,6.822-3.974,10.566
		c-0.291,7.316-0.578,14.657,0.419,21.99c0.739,5.433,0.79,10.919-2.047,15.959C214.438,264.36,214.667,265.86,214.038,267.122z"/>
	<path fill="#191919" d="M319.658,208.776c1.001,1.391,1.121,3.471,3.165,4.047c4.398,2.745,8.797,5.49,13.195,8.236
		c0.474,0.424,0.465,0.837-0.026,1.241c-4.176-1.12-7.668-3.62-11.394-5.647c-0.892-0.485-1.839-1.29-2.801-0.653
		c-1.146,0.758-0.769,2.166-0.71,3.302c0.032,0.617,0.412,1.398,0.893,1.781c4.016,3.194,6.584,7.873,10.958,10.677
		c1.737,1.114,3.321,2.307,3.959,4.378c-1.311,1.05-1.905-0.071-2.657-0.653c-5.221-4.048-9.796-8.871-15.386-12.509
		c-1.695-1.103-2.641-0.934-4.014,0.027c-3.345,2.339-5.052,5.931-7.128,9.232c-4.444,7.064-7.761,14.784-12.512,21.669
		c-2.323,3.366-4.738,6.671-8.468,8.688c-6.314,3.413-12.754,2.343-17.526-3.027c-1.239-1.395-2.273-2.975-3.362-4.499
		c-1.585-2.22-3.015-4.561-4.721-6.682c-5.551-6.904-9.008-7.802-17.215-4.692c-1.108,0.404-1.47-0.29-1.713-1.163
		c0.033-2.397,1.952-3.288,3.539-4.444c1.505-0.864,3.152-0.785,4.794-0.722c0.514,0.053,1.022,0.165,1.517,0.316
		c0.964,0.246,1.944,0.427,2.937,0.527c4.499,0.926,7.646,4.007,9.803,7.586c2.481,4.116,5.92,7.331,8.826,11.016
		c3.41,4.325,6.542,4.452,10.974,1.08c4.263-3.243,7.601-7.242,8.917-12.623c0.576-0.825,1.449-1.337,2.146-2.035
		c1.656-1.501,2.849-3.123,3.478-5.455c1.456-5.394,5.397-9.502,8.137-14.247c0.75-1.385,2.331-1.799,3.343-2.88
		c2.975-2.189,5.13-4.86,5.673-8.691C316.531,210.168,316.847,208.033,319.658,208.776z"/>
	<path fill="#141414" d="M199.703,226.371c0.681,0.553,1.362,1.107,2.043,1.66c0.258,0.798,0.697,1.52,0.978,2.309
		c0.408,3.687,0.545,7.284-3.187,9.591c-1.646,0.229-2.441-0.749-2.996-2.111c-0.422-1.036-0.457-2.697-2-2.484
		c-1.673,0.232-1.43,2.042-1.838,3.272c-0.541,1.931-1.808,3.09-3.73,3.561c-3.659-0.436-2.149-4.477-4.232-6.219
		c-1.938,0.806-1.184,2.445-1.285,3.772c0.072,2.615-0.639,4.845-3.025,6.258c-3.388,0.548-2.935-2.312-3.878-4.148
		c-1.135-2.21,0.792-5.639-2.733-6.751c-1.469,1.372-2.114,3.613-4.398,4.026c-2.588-0.234-2.634-2.524-3.432-4.228
		c-0.65-1.387-0.177-3.427-2.289-3.955c-1.35,0.065-2.785,0.552-3.847-0.775c-1.14-2.611,0.261-5.585-1.177-8.152l0.075,0.171
		c0.303-1.27-0.875-1.938-1.199-2.953c-0.383-0.972,0.092-1.565,0.888-2.017c2.419-0.857,3.87,0.933,5.378,2.168
		c9.216,7.549,19.754,8.393,30.898,6.262C196.506,225.284,198.332,224.131,199.703,226.371z"/>
	<path fill="#424242" d="M161.249,277.307c1.377,1.198,0.973,2.742,0.907,4.272c-0.782,18.223-0.774,36.407,3.397,54.312
		c0.88,3.78,0.62,7.837,2.74,11.332c0.429,0.708-0.153,1.285-0.799,1.555c-0.793,0.332-1.298-0.17-1.549-0.85
		c-0.352-0.957-0.805-1.935-0.874-2.928c-0.404-5.818-2.402-11.29-3.535-16.944c-1.436-7.163-1.592-14.49-1.647-21.762
		c-0.065-8.656-0.525-17.35,0.87-25.966c0.163-1.005,0.405-1.996,0.599-2.997C161.348,277.328,161.249,277.307,161.249,277.307z"/>
	<path fill="#3A3A3A" d="M217.04,345.905c0.081,1.251,0.162,2.502,0.243,3.753c-0.187,2.072-1.375,2.135-3.187,2.023
		c-8.601-0.531-17.213-0.924-25.826-1.223c-4.558-0.158-9.126-0.024-13.689-0.022c-1.069,0.372-1.556-0.021-1.49-1.137
		c6.847-1.608,13.78-0.798,20.679-0.672c6.082,0.111,12.179,0.236,18.234,0.759C215,349.647,216.391,348.559,217.04,345.905z"/>
	<path fill="#353535" d="M242.774,242.691c0.378,0.333,0.756,0.666,1.134,0.999c-2.282,2.123-4.383,4.351-7.182,5.987
		c-2.732,1.598-4.877,4.2-7.284,6.356c-0.634,0.568-1.284,1.116-1.927,1.674c-1.991,1.727-2.76,4.538-5.925,5.331
		c-2.712,0.68-4.705,3.286-7.552,4.085c-1.011-1.176-2.537-2.204-1.168-4.064c4.057-0.37,5.542-4.235,8.419-6.211
		c0.859-0.858,2.092-1.009,3.068-1.647c4.196-3.353,6.923-8.2,11.426-11.238c0.595-0.377,1.26-0.6,1.905-0.866
		c0.851-0.358,1.67-0.802,2.587-0.991C241.2,241.905,242.115,241.751,242.774,242.691z"/>
	<path fill="#3A3A3A" d="M158.75,217.975c-0.399,0.413-0.799,0.826-1.198,1.24c-5.758-9.011-8.775-18.762-7.916-29.539
		c0.136-1.705,0.86-3.244,1.77-4.685c0.34,0.401,0.679,0.802,1.019,1.203c1.771,0.751,1.839,2.275,1.689,3.847
		c-0.771,8.053,1.939,15.395,4.688,22.708C159.49,214.578,160.162,216.241,158.75,217.975z"/>
	<path fill="#2C2C2C" d="M339.147,188.206c3.387,0,6.773-0.007,10.16,0.005c0.789,0.003,1.843-0.235,1.993,0.884
		c0.16,1.193-0.909,1.244-1.714,1.243c-6.775-0.002-13.55-0.028-20.324-0.094c-0.932-0.009-2.36,0.145-2.205-1.304
		c0.138-1.284,1.51-1.032,2.446-0.995c3.214,0.128,6.426,0.333,9.638,0.509C339.143,188.372,339.145,188.289,339.147,188.206z"/>
	<path fill="#4E4E4E" d="M160.796,165.804c-0.668,0.659-1.336,1.318-2.004,1.977c-1.764-5.347-1.175-10.759-0.45-16.175
		c0.112-0.834,0.216-1.887,1.311-1.779c1.461,0.144,1.194,1.449,1.077,2.384c-0.377,3.037-0.922,6.053-1.285,9.092
		C159.25,162.948,158.864,164.752,160.796,165.804z"/>
	<path fill="#393939" d="M201.818,161.601c-1.382-0.644-2.765-1.288-4.147-1.932c2.586-0.296,2.066-2.295,1.973-3.87
		c-0.15-2.537-0.339-5.062,0.077-7.585c0.116-0.704,0.474-1.317,1.293-1.26c0.885,0.061,0.943,0.874,0.941,1.48
		C201.943,152.824,201.871,157.212,201.818,161.601z"/>
	<path fill="#3E3E3E" d="M330.455,209.003c0.797-0.356,1.595-0.712,2.392-1.068c3.825,1.682,8.067,2.352,11.591,4.767
		c-0.051,0.747-0.76,0.708-1.194,0.998C338.974,212.155,334.56,210.998,330.455,209.003z"/>
	<path fill="#414141" d="M173.09,349.301c0.496,0.379,0.993,0.757,1.489,1.136c-3.428,0.702-6.598,2.983-10.4,1.654
		C166.961,350.501,170.017,349.875,173.09,349.301z"/>
	<path fill="#585858" d="M338,177.891c-0.404-0.384-0.807-0.768-1.211-1.153c2.589-1.213,5.401-1.55,8.169-2.044
		c0.716-0.128,1.346,0.106,1.283,0.998c-0.035,0.499-0.319,0.967-0.887,1.029C342.883,176.993,340.538,178.054,338,177.891z"/>
	<path fill="#5A5A5A" d="M335.991,222.299c0.009-0.414,0.018-0.827,0.026-1.241c2.671,0.918,4.698,2.71,6.586,4.732
		C339.831,225.619,337.574,224.578,335.991,222.299z"/>
	<path fill="#222222" d="M343.244,213.699c0.398-0.332,0.796-0.665,1.194-0.998c0.89-0.024,2.279-1.04,2.492,0.422
		c0.195,1.333-1.207,1.283-2.252,1.108c-0.167-0.028-0.334-0.077-0.492-0.139C343.869,213.97,343.558,213.832,343.244,213.699z"/>
	<path fill="#FFFFFF" d="M158.75,217.975c-5.511-9.917-8.676-20.3-6.325-31.781c1.834-4.419,4.439-8.416,6.238-12.933
		c2.996-7.527,8.716-12.675,17.457-13.856c6.457-0.872,12.69-1.202,18.927,1.115c5.247,1.949,9.625,4.896,13.05,9.38
		c11.644,15.245,9.47,35.269,1.331,49.036c-2.123,3.591-5,6.906-9.725,7.436C189.639,231.845,167.833,230.249,158.75,217.975z"/>
	<path fill="#FFFFFF" d="M296.092,246.637c-1.427,4.606-4.264,8.428-7.497,11.778c-4.34,4.497-12.776,6.654-18.033-1.114
		c-2.004-2.961-4.018-5.92-6.163-8.777c-2.682-3.572-5.733-6.756-10.162-8.193c-3.383-5.495-1.437-11.096-0.347-16.677
		c1.578-2.995,1.731-6.247,1.674-9.54c0.002-1.062,0.002-2.121,0.003-3.185c-0.065-6.869,0.905-13.633,1.982-20.386
		c0.282-2.266-0.445-4.664,0.884-6.793c0.235-0.171,0.469-0.342,0.704-0.513c2.976,1.645,4.423,4.525,5.809,7.391
		c2.191,4.531,4.325,9.095,5.617,13.992c1.407,7.767,0.05,15.456-0.649,23.152c-0.625,3.934-0.536,7.942-1.042,11.219
		c0.117-2.415,0.711-5.479,0.623-8.598c1.208-5.828,0.36-11.987,2.919-17.58c0.194-0.432,0.523-1.281,0.882-0.923
		c2.784,2.782,5.471,5.661,8.123,8.57c0.262,0.287,0.089,0.97,0.119,1.469c-0.443,10.607-1.055,21.201-2.259,31.751
		c0.613-5.737,1.179-11.475,1.441-17.248c0.129-2.84-0.023-5.823,1.846-8.312c0.176-1.169,0.469-2.334,0.504-3.506
		c0.084-2.764,1.131-4.259,4.175-4.481c2.88-0.21,4.969-2.523,7.613-4.126c1.329,3.166,0.398,6.291,1.194,9.157
		c2.065,1.946,1.41,4.477,1.475,6.852C296.818,236.864,296.193,241.725,296.092,246.637z"/>
	<path fill="#FEFEFE" d="M242.774,242.691c-0.621,0.25-1.242,0.5-1.863,0.75c-4.257-5.359-2.947-11.699-2.509-17.599
		c0.428-5.769,0.726-11.517,0.766-17.286c-0.651-6.939,1.412-13.656,1.713-20.521c-0.028-0.252-0.056-0.505-0.084-0.757
		c2.656-2.999,6.236-4.526,9.784-6.079c3.33-1.457,6.275-1.043,8.556,2.035l0.078-0.156c-1.589,1.495-0.923,3.456-1.086,5.25
		c0.456,7.934-1.338,15.708-1.646,23.584c0.052,8.288-3.151,16.15-3.206,24.424c-0.008,1.236-0.36,2.32-1.308,3.163
		c-0.307,0.088-0.619,0.148-0.937,0.178c-1.29,0.811-2.949-0.21-4.19,0.844C245.488,241.251,243.876,241.493,242.774,242.691z"/>
	<path fill="#FFFFFF" d="M237.589,245.527c-4.017,3.745-8.034,7.491-12.051,11.236c-2.032-1.608-2.693-3.861-2.717-6.286
		c-0.101-10.486-0.072-20.974-0.018-31.461c0.008-1.539,0.113-3.065,1.425-4.168c0.13-3.747,1.411-7.369,1.229-11.148
		c-0.053-1.102,0.422-1.918,1.118-2.731c4.299-5.025,8.285-10.369,14.222-13.691l-0.141-0.088c2.216,2.505-0.296,4.971-0.064,7.46
		c-0.786,4.062-0.834,8.178-0.91,12.292c-0.012,4.711,0.024,9.421-0.021,14.127c-1.09,6.183-1.568,12.375-0.652,18.652
		C239.3,241.727,238.944,243.808,237.589,245.527z"/>
	<path fill="#FBFBFB" d="M223.359,258.989c-2.693,1.922-5.317,3.953-8.107,5.722c-1.602,1.016-2.448,0.146-2.382-1.654
		c1.912-4.142,1.982-8.532,1.827-12.976c-0.332-9.516-0.502-19.033-0.174-28.555c0.116-3.366,0.927-6.4,3.515-8.721
		c1.61-1.444,1.729-3.647,2.844-5.34c0.539-0.818,0.794-2.054,2.162-1c-0.389,12.837,1.489,25.64,0.691,38.471
		C223.443,249.627,225.258,254.361,223.359,258.989z"/>
	<path fill="#FEFEFE" d="M309.38,225.167c-3.72,5.882-7.702,11.607-10.585,17.986c-0.245,0.543-1.021,0.846-1.551,1.261
		c-2.063-2.099-0.857-4.747-1.197-7.135c0.257-4.051,0.306-8.117,0.934-12.139c0.058-0.334,0.192-0.674,0.163-1
		c-0.986-10.984,5.921-19.047,10.405-27.994c0.522-1.042,1.521-1.459,1.924,0.281c0.716,7.172,1.534,14.334,1.9,21.54
		C311.508,220.646,309.995,222.758,309.38,225.167z"/>
	<path fill="#FEFEFE" d="M170.891,231.279c3.82-2.353,7.484-0.899,7.501,3.194c0.016,3.735,0.714,7.37,0.983,11.06
		c3.497,8.595,3.202,17.638,3.1,26.65c-0.01,0.857-0.771,1.457-1.382,2.038c-2.611,0.213-5.07-0.176-7.214-1.818
		c-3.343-4.229-3.691-9.576-4.1-14.418C169.032,249.122,169.262,240.128,170.891,231.279z"/>
	<path fill="#FDFDFD" d="M190.367,237.423c0.085-0.998,0.104-2.007,0.268-2.992c0.496-2.979,3.147-4.74,6.126-4.176
		c1.291,0.245,1.478,1.252,1.564,2.228c0.204,2.324,0.297,4.657,0.436,6.986c2.146,1.85,1.53,4.389,1.4,6.639
		c-0.349,6.058,0.001,12.045,0.905,18.033c0.427,2.83,0.323,5.651-1.7,8.01c-2.123,0.492-4.017,1.805-6.379,1.774
		c-2.029-3.016-0.871-6.553-1.525-9.791c-3.191-6.848-2.804-14.099-2.081-21.292C189.557,241.085,189.655,239.156,190.367,237.423z"
		/>
	<path fill="#FCFCFC" d="M180.315,238.409c0.056-1.176,0.044-2.36,0.18-3.526c0.418-3.573,0.445-3.461,3.927-3.632
		c2.424-0.119,3.811,0.336,3.647,3.223c-0.132,2.33,0.266,4.689,0.43,7.036c1.242,7.477,2.243,14.975,1.969,22.584
		c-0.013,2.21-0.024,4.419-0.04,6.629c-0.031,4.235-0.588,4.783-4.671,4.359c-0.824-0.086-1.615-0.486-2.421-0.742
		c-1.763-4.281-1.46-8.894-1.984-13.35c-0.785-6.67-1.495-13.389-0.616-20.134C180.843,240.027,180.787,239.167,180.315,238.409z"/>
	<path fill="#F7F7F7" d="M200.592,229.252c0.384-0.407,0.769-0.814,1.153-1.221c1.701-0.924,3.403-1.848,5.104-2.771
		c0.883,1.301,0.659,2.648,0.167,4.006c0.033,0.335,0.066,0.671,0.1,1.006c2.585,11.169,4.711,22.363,1.774,33.822
		c-0.691,3.874-4.022,4.708-6.934,6.024c-3.316-5.738-2.256-12.139-2.388-18.242C199.406,244.346,199.937,236.781,200.592,229.252z"
		/>
	<path fill="#FDFDFD" d="M319.658,208.776c-1.221,3.138-1.481,6.433-1.506,9.895c-2.547,0.506-4.52,2.089-6.704,3.264
		c-1.544-5.76-1.765-11.524-0.055-17.295c0.173-2.695,0.891-5.493,0.4-8.061c-0.85-4.446,1.47-6.957,4.477-9.244
		c1.979-1.505,3.925-3.257,7.154-3.061c-0.773,2.623-0.94,5.217-0.928,7.822c-2.41,3.057-1.801,6.812-2.345,10.293
		c-0.279,1.785,0.35,3.65-0.387,5.413C319.688,208.123,319.653,208.448,319.658,208.776z"/>
	<path fill="#FCFCFC" d="M162.772,226.186c3.741,0.136,5.203,1.29,5.49,4.321c0.251,2.645,0.509,5.288,0.764,7.933
		c1.976,6.341,1.488,12.995,2.411,19.475c0.473,3.321,0.621,6.713,1.051,10.063c0.173,1.348,0.984,3.202-1.517,3.48
		c-3.964-1.344-6.266-3.938-6.227-8.289c-3.501-6.563-1.992-13.952-3.435-20.857C161.076,236.87,161.281,231.47,162.772,226.186z"/>
	<path fill="#E9E9E9" d="M158.676,221.997c2.242,2.344,1.832,5.393,2.187,8.239c1.497,3.862,1.425,7.914,1.45,11.952
		c0.486,6.984,1.602,13.923,1.59,20.947c-2.483-0.368-2.225-2.526-2.655-4.17C158.067,246.807,157.613,234.453,158.676,221.997z"/>
	<path fill="#EAEAEA" d="M208.799,231.258c0.955-3.463,0.498-7.31,3.076-10.4c0,12.555,0,25.111,0,37.666
		c-0.751,0.382-1.443,0.142-1.54-0.614c-1.059-8.237-2.646-16.428-2.313-24.793C208.049,232.425,208.385,231.813,208.799,231.258z"
		/>
	<path fill="#494949" d="M200.592,229.252c-0.029,8.358-0.116,16.717-0.065,25.075c0.033,5.296,0.506,10.568,1.429,15.792
		c-0.864,0.678-1.727,1.356-2.591,2.034c0.405-3.402-0.215-6.775-0.291-10.134c-0.1-4.445-1.16-8.848-0.434-13.369
		c0.48-2.989,0.109-6.115,0.12-9.18C200.372,236.244,198.697,232.428,200.592,229.252z"/>
	<path fill="#626262" d="M223.359,258.989c-0.341-16.011-0.685-32.021-1.021-48.032c-0.032-1.535-0.043-3.075,0.705-4.491
		c0.563,2.771-0.183,5.726,1.185,8.383c0.135,11.127,0.264,22.254,0.41,33.381c0.038,2.87,0.229,5.728,0.901,8.534
		C224.812,257.506,224.085,258.247,223.359,258.989z"/>
	<path fill="#666666" d="M170.972,271.459c1.385-1.472,0.678-3.128,0.5-4.787c-0.904-8.396-1.755-16.798-2.579-25.202
		c-0.098-0.996,0.082-2.019,0.133-3.03c1.606-2.13,0.038-5.087,1.865-7.16c0.226,13.087,0.633,26.16,2.923,39.094
		c0.117,0.66,0.048,1.353,0.066,2.03C172.874,272.2,171.786,272.253,170.972,271.459z"/>
	<path fill="#414141" d="M208.799,231.258c-0.228,8.259,1.176,16.383,2.022,24.553c0.104,1.009,0.143,2.026,1.053,2.713
		c-0.995,1.857-1.989,3.714-2.984,5.571c0.971-7.317-0.891-14.473-1.371-21.702c-0.269-4.049-0.653-8.064-0.403-12.12
		C207.677,230.601,208.238,230.929,208.799,231.258z"/>
	<path fill="#6A6A6A" d="M180.315,238.409c0.251,1.151,0.713,2.301,0.722,3.454c0.085,10.876,1.909,21.626,2.299,32.478
		c-0.747-0.04-1.494-0.08-2.242-0.12c0.425-7.443-0.831-14.775-1.506-22.143c-0.2-2.184-0.587-4.348-0.212-6.545
		C180.662,243.287,179.609,240.732,180.315,238.409z"/>
	<path fill="#696969" d="M282.564,228.118c-1.038,10.555-2.076,21.109-3.114,31.664c-0.539-12.709,0.112-25.324,2.086-37.855
		C282.119,223.951,281.566,226.163,282.564,228.118z"/>
	<path fill="#707070" d="M311.392,204.641c0.018,5.765,0.037,11.53,0.055,17.295c-0.689,1.077-1.378,2.155-2.067,3.232
		c0.031-9.58,0.061-19.159,0.092-28.739C311.05,198.947,309.583,202.177,311.392,204.641z"/>
	<path fill="#6A6A6A" d="M190.467,264.094c-1.681-7.439-1.943-15.001-1.969-22.584c0.623-1.362,1.246-2.724,1.869-4.087
		c0.365,8.904,0.73,17.808,1.094,26.713l-0.498,0.001L190.467,264.094z"/>
	<path fill="#6F6F6F" d="M272.413,212.811c-0.688,6.136-1.376,12.272-2.063,18.408c-2.001,0.219-1.367-1.047-1.165-2.069
		c-0.009-4.363,0.54-8.682,0.927-13.017c0.341-3.821,0.314-7.676,0.45-11.515C272.078,207.146,270.839,210.296,272.413,212.811z"/>
	<path fill="#808080" d="M163.902,263.134c-1.419-6.773-1.745-13.659-2.127-20.539c0.39-0.722,0.759-0.713,1.109,0.03
		c1.377,6.779,1.678,13.656,1.861,20.543l-0.422,0.005L163.902,263.134z"/>
	<path fill="#797979" d="M319.763,207.804c0.042-6.159-1.119-12.394,0.811-18.557c2.031,0.367,1.349,1.975,1.922,2.851
		C322.599,197.509,320.365,202.514,319.763,207.804z"/>
	<path fill="#434343" d="M296.981,225.141c0.473,4.072,0.089,8.142-0.034,12.213c-2.594-1.273-1.193-3.34-1.025-5.162
		c0.043-2.343,0.087-4.687,0.13-7.03C296.361,225.145,296.671,225.138,296.981,225.141z"/>
	<path fill="#414141" d="M207.017,229.266c-0.056-1.335-0.111-2.671-0.167-4.006C209.059,226.505,207.449,227.91,207.017,229.266z"
		/>
	<path fill="#7C7C7C" d="M251.968,239.5c1.158-7.52,1.483-15.151,3.035-22.619c0.344-1.654,0.615-3.323,0.919-4.985
		c0.356-0.422,0.734-0.424,1.132-0.062c-0.017,1.009-0.033,2.018-0.05,3.027c-1.199,2.649,0.76,5.643-0.898,8.243
		c-1.482,5.649-2.441,11.355-1.871,17.227C253.48,240.054,252.724,239.777,251.968,239.5z"/>
	<path fill="#7D7D7D" d="M295.921,232.192c0.45,1.699,0.12,3.554,1.025,5.162c0.099,2.354,0.199,4.707,0.298,7.061
		c-0.384,0.741-0.768,1.481-1.152,2.222C294.264,241.843,294.905,237.02,295.921,232.192z"/>
	<path fill="#7C7C7C" d="M246.841,240.522c1.255-0.987,2.664-1.206,4.19-0.844C249.719,240.382,248.329,240.692,246.841,240.522z"/>
	<path fill="#444444" d="M162.884,242.626c-0.37-0.01-0.739-0.02-1.109-0.03c0.082-4.149-1.389-8.183-0.912-12.36
		c0.636-1.35,1.273-2.7,1.909-4.049C162.809,231.666,162.847,237.146,162.884,242.626z"/>
	<path fill="#6A6A6A" d="M238.676,222.077c0.569-5.018-0.027-10.042,0.08-15.063c0.077-0.439,0.338-0.661,0.784-0.665
		c0.587,0.279,0.72,0.925,1.105,1.367c-0.166,6.813-0.294,13.627-0.511,20.438c-0.163,5.122-0.034,10.22,0.776,15.288
		c-0.727,0.408-1.454,0.815-2.181,1.223C236.777,237.14,238.199,229.607,238.676,222.077z"/>
	<path fill="#FEFEFE" d="M238.676,222.077c0.018,7.529,0.036,15.058,0.055,22.588c-0.38,0.288-0.761,0.575-1.141,0.863
		c-0.596-2.821-0.118-5.804-1.316-8.545c-0.187-0.427-0.235-1.102-0.025-1.486c1.818-3.336,1.176-6.993,1.512-10.524
		C237.854,223.987,238.359,223.041,238.676,222.077z"/>
	<path fill="#232323" d="M163.677,205.91c2.272,0.486,2.706,2.064,3.51,3.291c4.645,7.088,11.616,9.726,19.653,9.687
		c8.051-0.039,13.162-4.717,16.483-11.681c0.073-0.153,0.109-0.327,0.198-0.469c0.747-1.199,0.889-3.951,2.246-3.345
		c2.52,1.126,0.328,3.318-0.313,4.708c-6.215,13.489-21.449,17.023-34.459,8.123C166.481,213.137,164.986,211.1,163.677,205.91z"/>
	<path fill="#0E0E0E" d="M168.978,187.405c-1.868-0.119-3.425-2.247-3.219-4.399c0.191-1.992,2.418-3.814,4.676-3.824
		c1.531-0.007,2.669,1.717,2.45,3.712C172.603,185.466,170.822,187.523,168.978,187.405z"/>
	<path fill="#2F2F2F" d="M187.204,198.069c-4.235-0.232-7.955,1.392-11.603,3.32C178.624,196.471,182.802,195.306,187.204,198.069z"
		/>
	<path fill="#0C0C0C" d="M200.08,183.381c-0.066,1.57-0.642,2.906-2.561,2.881c-2.139-0.029-2.122-1.802-2.208-3.255
		c-0.097-1.657,0.439-2.983,2.481-2.929C199.968,180.136,199.866,181.813,200.08,183.381z"/>
	<path fill="#6E6E6E" d="M257.055,211.834c-0.377,0.021-0.755,0.041-1.132,0.062c0.443-8.229,0.886-16.458,1.329-24.687
		c2.478-0.102,0.674,2.349,1.815,3.044C259.154,197.517,257.911,204.658,257.055,211.834z"/>
	<path fill="#B0B0B0" d="M269.184,229.15c0.388,0.69,0.777,1.379,1.165,2.069c-0.484,5.419-0.644,10.885-1.493,16.251
		c-0.5-0.053-1.001-0.106-1.501-0.159C267.965,241.258,268.575,235.204,269.184,229.15z"/>
	<path fill="#212121" d="M259.067,190.253c-0.605-1.015-1.21-2.029-1.815-3.044c0.278-1.555-1.58-4.125,1.962-4.129
		C259.49,185.477,259.409,187.867,259.067,190.253z"/>
	<path fill="#FEFEFE" d="M256.107,223.104c0.025-2.777-0.174-5.579,0.899-8.243C256.906,217.63,258.83,220.62,256.107,223.104z"/>
	<path fill="#525252" d="M240.646,207.716c-0.375-0.418-0.75-0.837-1.125-1.255c-0.555-4.006-0.618-8.009,0.049-12.01
		c0.362-2.42,0.723-4.84,1.085-7.26c2.981-0.14,2.068,1.916,1.902,3.463C241.946,196.344,241.287,202.029,240.646,207.716z"/>
	<path fill="#FEFEFE" d="M239.57,194.451c-0.016,4.003-0.033,8.006-0.049,12.01c-0.253,0.186-0.508,0.37-0.765,0.552
		C238.882,202.817,237.915,198.549,239.57,194.451z"/>
</g>
</svg>
