<?xml version="1.0" encoding="utf-8"?>
<!-- Generator: Adobe Illustrator 17.0.0, SVG Export Plug-In . SVG Version: 6.00 Build 0)  -->
<!DOCTYPE svg PUBLIC "-//W3C//DTD SVG 1.1//EN" "http://www.w3.org/Graphics/SVG/1.1/DTD/svg11.dtd">
<svg version="1.1" id="Слой_1" xmlns="http://www.w3.org/2000/svg" xmlns:xlink="http://www.w3.org/1999/xlink" x="0px" y="0px"
	 width="500px" height="500px" viewBox="0 0 500 500" enable-background="new 0 0 500 500" xml:space="preserve">
<g>
	<path fill="#353535" d="M263.911,276.928c-0.94,6.141,0.906,12.078,1.386,18.113c0.292,3.672,1.129,7.3,1.721,10.947
		c-1.112,0.266-2.228,0.764-3.32-0.06c-0.652-0.602-0.949-1.369-1.025-2.234c-0.05-1.021-0.051-2.044,0.103-3.046
		c0.094-0.387,0.221-0.783,0.253-1.102c-0.002,0.096-0.042,0.073-0.04,0.155c-0.15,0.676-0.388,1.235-0.66,1.806
		c-1.095,1.97-3.306,3.22-3.51,5.716c-0.578,1.559-1.722,2.746-2.669,4.07c-0.258,0.508-0.558,0.985-0.889,1.447
		c-5.179,3.809-8.478,9.67-14.138,12.958c-0.807,0.341-1.609,0.695-2.52,0.598c-0.584-0.151-1.081-0.45-1.505-0.874
		c-1.259-1.548,0.872-3.471-0.553-5.002c2.035-13.778,2.931-27.654,3.539-41.554c0.862-2.72,0.175-5.561,0.651-8.31
		c0.157-0.538,0.392-1.041,0.692-1.514c2.593-3.227,4.11-7.348,7.931-9.558c2.938-0.273,4.846-2.55,7.308-3.741
		c3.54-1.713,6.201-1.313,6.793,3.257c-0.001,0.564-0.046,1.125-0.137,1.682c-1.231,3.197-3.471,5.756-5.393,8.515
		c-0.843,0.792-1.971,0.967-2.993,1.37c-0.395,1.185,1.35,0.717,1.284,1.654c0.516,1.543-0.203,2.85-0.781,4.186
		c-0.235,0.321-0.502,0.772-0.838,0.801c-9.177,0.796-10.128,6.988-9.767,14.382c0.339,6.949-1.587,13.73-1.907,20.168
		c-0.528,1.186,0.597,0.907-0.189,0.786c-0.112-0.017-0.084-0.202,0.08-0.556c3.115-6.706,8.677-11.755,12.27-18.153
		c2.247-4.001,4.629-7.822,3.842-12.769c-0.322-2.025,0.477-3.912,2.556-4.921C262.443,275.952,263.272,276.15,263.911,276.928z"/>
	<path fill="#1D1D1D" d="M264.508,305.542c0.924-0.344,1.78-0.3,2.51,0.446c0.961,8.537,1.923,17.073,2.884,25.61
		c0.573,1.143,0.403,2.203-0.355,3.199c-2.23,0.717-4.14,1.868-5.7,3.69c-1.368,1.598-2.757,3.394-5.331,2.877
		c-0.576-0.166-1.085-0.451-1.535-0.849c-0.573-0.667-0.867-1.443-0.89-2.313c-0.009-1.142,0.691-2.238,0.229-3.434
		c-0.174-0.468-0.231-0.94-0.239-1.43c-0.035-1.393,0.626-2.498,1.424-3.55c1.967-1.869,3.715-3.876,4.241-6.542
		c-6.86,4.421-10.157,11.901-15.632,17.432c-1.917,1.937-3.32,4.391-6.253,5.043c-0.604-0.03-1.167-0.186-1.701-0.47
		c-0.759-0.568-1.176-1.331-1.299-2.259c-0.034-0.581,0.011-1.162,0.117-1.734c0.545-1.612,0.881-3.282,1.282-4.937
		c5.032-8.865,13.569-14.859,19.091-23.344C259.232,310.088,260.434,306.385,264.508,305.542z"/>
	<path fill="#161616" d="M271.592,351.049c0.949,6.584,1.764,13.174,2.239,19.822c0.132,1.853-0.087,3.133-1.234,4.149
		c-5.54,4.903-8.921,11.348-12.748,17.481c-5.152,2.569-3.886-1.826-4.518-4.158c0.087-0.544,0.263-1.062,0.526-1.548
		c0.948-0.976,1.782-2.038,2.355-3.289c2.125-2.471,4.34-4.863,6.387-7.4c-3.282,3.945-6.864,7.652-9.546,12.075
		c-1.077,1.775-2.392,3.24-4.817,2.335c-1.939-1.533-1.186-3.736-1.423-5.693c-0.079-1.165-0.387-2.295-0.526-3.453
		c0.662-3.265,3.074-5.391,5.038-7.839c5.303-6.612,10.815-13.095,14.169-21.026c0.489-1.156,1.265-1.988,2.578-2.176
		C270.672,350.371,271.174,350.622,271.592,351.049z"/>
	<path fill="#343434" d="M250.7,381.47c-0.006,1.419-0.012,2.839-0.018,4.258c0.263,1.715-1.95,3.234-0.407,5.027
		c0.193,0.08,0.393,0.183,0.6,0.257c0.229-0.037,0.45-0.045,0.678-0.073c1.923-0.725,2.197-3.937,4.998-3.289
		c1.097,1.618,0.046,4.696,3.297,4.849c-1.519,2.76-3,5.542-4.57,8.273c-1.066,1.855-2.245,1.846-3.666,0.202
		c-3.198-3.697-5.758-7.9-8.514-11.868c-2.851-4.104-5.969-7.88-9.494-11.263c-1.902-1.826-3.357-3.584-3.954-6.09
		c2.239-1.426,3.312-3.507,3.435-6.121c-0.314-0.789-0.628-1.579-0.942-2.369c1.007-1.334,0.149-3.297,1.517-4.51
		c4.257-1.951,5.951-6.631,9.677-9.136c0.387-0.208,0.821-0.317,1.248-0.392c0.384-0.143,0.802-0.181,1.225-0.212
		c0.211-0.083,0.423-0.108,0.63-0.185c3.883-2.507,5.022-7.759,9.613-9.498c0.57,0.035,1.065,0.241,1.471,0.646
		c0.482,0.031,0.963,0.062,1.445,0.093c1.784,2.832-0.075,4.968-1.55,6.986c-4.439,6.073-9.072,12-13.741,17.901
		c-2.36,2.983-6.027,5.826-4.194,10.396c1.791,4.466,5.789,5.513,10.191,5.54C250.034,380.896,250.374,381.242,250.7,381.47z"/>
	<path fill="#3D3D3D" d="M239.165,141.221c15.24-5.21,38.172,0.3,46.447,11.162c12.707,16.678,13.609,37.015,2.368,53.38
		c-1.13,0.321-1.832-0.267-2.408-1.126c-1.147-2.784,0.707-4.971,1.524-7.342c4.486-13.025,4.887-25.493-3.231-37.623
		c-6.175-9.227-14.702-13.654-25.298-14.751c-4.738-0.49-9.535-0.404-14.307-0.314c-1.987,0.037-4.031,0.455-5.362-1.613
		C238.635,142.349,238.726,141.759,239.165,141.221z"/>
	<path fill="#343434" d="M239.165,141.221c0.014,0.454,0.027,0.908,0.041,1.362c0.263,2.836-1.828,3.709-3.875,4.51
		c-14.382,5.629-20.709,16.857-22.025,31.591c-0.238,1.63-1.365,2.631-2.525,3.607c-3.273,1.64-3.79,4.184-2.283,7.289
		c1.662,3.424,1.062,6.439-1.436,9.189c-0.728,0.575-1.5,0.873-2.395,0.374c-3.111-7.593-2.977-14.939,1.61-21.977
		c1.643-2.522,2.23-5.45,2.972-8.303c3.466-13.322,12.534-21.451,24.711-26.697C235.609,141.456,237.368,141.199,239.165,141.221z"
		/>
	<path fill="#535353" d="M204.667,199.144c0.481-0.517,0.962-1.033,1.443-1.55c2.154-0.733,3.208,0.839,4.523,2.048
		c2.955,2.718,5.454,5.883,7.346,9.315c4.558,8.264,12.515,10.307,20.702,11.817c3.663,0.675,7.478,0.587,11.143,1.567
		c1.203,1.068,2.494,2.1,1.854,4.013c-7.126,0.16-14.48,1.064-21.247-1.241C217.744,220.792,208.994,212.029,204.667,199.144z"/>
	<path fill="#232323" d="M234.21,359.724c-0.689,1.18-1.378,2.361-2.068,3.541c0.043-5.148-1.055-10.171,0.67-15.474
		c1.42-4.367,1.098-9.372,1.137-14.098c0.038-4.632,1.354-8.925,2.598-13.273c1.047,1.385,1.092,2.997,1.047,4.629
		c1.354,2.193,1.465,4.792,2.348,7.141c0.127,0.501,0.175,1.01,0.153,1.525c-0.624,1.802-2.446,3.407-0.92,5.567
		c0.278,1.039-0.005,1.933-0.709,2.717l0.052-0.085c-0.673,0.766-1.04,1.551-0.15,2.414c0.367,0.006,0.734,0.013,1.101,0.022
		c1.919,1.926,0.311,3.476-0.494,5.164c-0.81,1.699-2.499,3.055-2.127,5.235c-0.063,1.373,0.26,2.786-0.421,4.095
		C235.853,359.554,235.104,359.82,234.21,359.724z"/>
	<path fill="#707070" d="M261.812,258.989c-0.282-0.51-0.667-1.492-0.831-1.456c-1.782,0.386-4.829,0.592-5.065,1.493
		c-1.088,4.154-3.681,2.489-6.024,2.148c-1.732-2.196,0.37-3.634,1.052-5.351c0.584-1.487,3.601-2.737,0.416-4.566
		c-1.084-0.239-2.221-0.26-3.125-1.003c-0.961-0.866-1.367-1.912-1.051-3.195c0.924-1.663,2.822-0.449,4.003-1.355
		c1.006-0.101,1.946,0.025,2.701,0.787c2.321,2.166,5.225,0.387,7.757,1.147c1.411,0.572,0.752,2.897,2.631,3.084
		C264.097,253.669,267.708,257.756,261.812,258.989z"/>
	<path fill="#696969" d="M251.679,226.354c-1.14-0.904-2.539-1.101-3.89-1.428c0.018-2.988,2.319-3.434,4.453-3.71
		c11.79-1.524,21.951-5.965,29.335-15.729c1.282-1.695,3.15-2.362,5.209-0.989c0.398,0.422,0.796,0.844,1.194,1.266
		C279.274,218.613,267.017,225.199,251.679,226.354z"/>
	<path fill="#191919" d="M251.188,245.704c-1.003,1.003-2.387,0.903-3.616,1.253c-0.239,0.339-0.433,0.703-0.59,1.088
		c-0.102,0.408-0.25,0.797-0.446,1.171c-0.125,0.173-0.249,0.343-0.376,0.519c-0.241,0.376-0.454,0.761-0.634,1.169
		c-0.698,1.322-0.778,2.705-0.457,4.141c-1.36,3.152,0.904,6.563-0.708,9.693c-0.546,1.952-0.603,4.072-2.004,5.72l0.101-0.091
		c-5.149,1.178-1.803-3.591-3.42-4.886c-0.838-5.625,0.104-11.368-1.223-16.982c-0.426-1.803,0.741-2.902,2.702-3.015
		C244.083,245.28,247.642,245.117,251.188,245.704z"/>
	<path fill="#101010" d="M263.911,276.928c-0.896,0.022-1.791,0.043-2.687,0.064c-0.262,0.048-0.524,0.097-0.785,0.147
		c-1.581,0.424-3.16,0.966-4.778,0.131c-0.742-0.449-1.268-1.056-1.388-1.95c0.411-1.144,0.823-2.289,1.235-3.433
		c-0.612-0.572-1.646-0.871-1.329-2.046c0.963-0.576,1.926-1.152,2.89-1.728c0.391-0.308,0.809-0.573,1.251-0.799
		c0.702-0.255,1.382-0.56,2.03-0.936c1.281-0.836,2.268-2.266,4.076-2.047c2.2,0.733,0.759,2.988,1.765,4.223
		c-0.01,0.778-0.02,1.556-0.029,2.335c-0.185,0.103-0.37,0.206-0.555,0.309c-0.004,0.212-0.008,0.423-0.012,0.635
		c0.178,0.114,0.357,0.227,0.536,0.34C266.614,274.329,266.156,276.045,263.911,276.928z"/>
	<path fill="#101010" d="M261.812,258.989c2.924-2.509,2.068-5.502,1.09-8.51c-0.389-0.654-0.47-1.43-0.829-2.096
		c-2.082-0.128-4.166-0.23-6.245-0.394c-0.934-0.074-1.961-0.137-1.939-1.498c4.858,0.896,9.68,0.483,14.693-0.763
		c-2.986,5.016-2.203,10.356-3.13,15.362c0.494,1.142,0.601,2.202-0.63,2.98c-2.467,0.186-2.358-1.997-3.113-3.385
		C261.743,260.119,261.778,259.554,261.812,258.989z"/>
	<path fill="#424242" d="M218.913,127.664c-3.459-0.877-3.77-3.933-5.208-6.199c-1.92-3.024-1.536-7.371-5.586-9.243
		c-1.066-0.493-0.841-2.223,0.225-3.032c1.059-0.805,1.842,0.191,2.388,0.964c1.019,1.441,2.076,2.896,2.818,4.485
		C215.526,118.871,216.552,123.499,218.913,127.664z"/>
	<path fill="#515151" d="M246.263,119.172c-3.991-7.143-2.201-14.902-2.336-22.456C246.931,103.964,245.342,111.702,246.263,119.172
		z"/>
	<path fill="#2A2A2A" d="M194.772,151.312c-4.67-3.665-9.314-7.365-14.035-10.963c-0.944-0.72-1.452-1.52-0.864-2.439
		c0.808-1.262,1.538-0.19,2.346,0.318c5.206,3.273,9.218,7.916,13.794,11.908C196.221,151.184,195.961,151.738,194.772,151.312z"/>
	<path fill="#404040" d="M271.592,351.05c-0.432-0.049-0.865-0.097-1.297-0.146c-4.991-3.819-5.848-12.165-1.712-16.677
		c0.44-0.876,0.879-1.752,1.319-2.628C271.248,338.014,272.423,344.445,271.592,351.05z"/>
	<path fill="#4D4D4D" d="M280.367,102.303c-0.631,5.855-4.123,10.552-6.533,15.687C273.869,111.895,276.625,106.9,280.367,102.303z"
		/>
	<path fill="#494949" d="M308.401,133.398c5.11-6.553,8.7-9.966,12.509-11.567c-2.937,5.093-6.788,8.566-10.918,11.79
		C309.391,134.051,308.861,133.977,308.401,133.398z"/>
	<path fill="#949494" d="M233.085,365.634c0.831,0.929,1.798-0.118,3.116,0.333c-1.713,2.618-2.243,6.146-6.551,5.788
		C230.009,369.273,231.24,367.281,233.085,365.634z"/>
	<path fill="#A0A0A0" d="M239.038,265.481c0.978,0.812,1.008,1.968,1.061,3.084c0.074,1.581,1.238,1.642,2.359,1.802
		c-2.184,2.445-0.68,5.919-2.372,8.5C240.279,274.363,238.552,270.008,239.038,265.481z"/>
	<path fill="#353535" d="M264.262,263.658c0.397-0.856,0.793-1.712,1.19-2.568c1.387,2.375,1.019,4.924,0.738,7.463
		c-0.664-1.187-1.328-2.375-1.992-3.562c-0.297-0.311-0.386-0.612-0.268-0.904C264.046,263.799,264.157,263.656,264.262,263.658z"/>
	<path fill="#727272" d="M194.772,151.312c0.414-0.392,0.828-0.784,1.242-1.176c1.211,0.765,3.293,1.893,2.142,3.089
		C196.901,154.529,195.673,152.48,194.772,151.312z"/>
	<path fill="#919191" d="M308.401,133.398c0.53,0.074,1.06,0.148,1.591,0.223c-0.909,1.204-1.841,2.376-3.497,2.921
		C305.976,134.589,307.387,134.119,308.401,133.398z"/>
	<path fill="#353535" d="M266.129,272.172c-0.78,0.759-1.56,1.518-2.34,2.277c-1.31-1.529-0.962-3.074-0.047-4.626
		c0.806,0.355,1.612,0.709,2.418,1.064C266.15,271.316,266.14,271.744,266.129,272.172z"/>
	<path fill="#FEFEFE" d="M254.273,275.321c0.678,0.115,1.356,0.231,2.035,0.346c1.489,1.096,3.693-0.398,4.993,1.38l-0.077-0.055
		c2.018,7.405,0.029,13.712-4.403,19.888c-5.487,7.646-11.33,14.988-17.642,22.305c0.422-4.578,0.633-9.188,1.312-13.728
		c1.143-7.643,1.096-15.36,1.791-23.029c0.485-5.352,1.456-6.528,6.66-6.9C250.715,275.403,252.496,275.387,254.273,275.321z"/>
	<path fill="#4C4C4C" d="M238.897,333.628c-0.494-0.043-0.987-0.086-1.481-0.129c-0.372-2.957-0.248-5.829,1.448-8.43
		c0.578-0.208,1.156-0.415,1.734-0.623c4.612-4.527,8.545-9.659,12.872-14.44l-0.026,0.044c0.782-1.579,2.927-2.391,2.589-4.601
		c-0.244-1.328,0.299-2.083,1.545-2.65c1.192-0.542,2.232-1.421,3.339-2.151c1.067-0.653,1.997-1.688,3.459-1.233
		c0.002,1.239,0.004,2.477,0.006,3.716c-1.299,6.253-5.717,10.66-9.568,15.232c-3.943,4.681-8.126,9.213-12.519,13.512
		C241.357,332.794,240.667,334.286,238.897,333.628z"/>
	<path fill="#CDCDCD" d="M238.897,333.628c7.544-7.499,14.607-15.438,21.499-23.532c1.472-1.728,2.037-3.45,1.377-5.921
		c-0.504-1.89,1.146-2.069,2.61-1.044c0.042,0.804,0.083,1.608,0.125,2.412c-2.676,6.781-7.544,11.997-12.264,17.344
		c-4.184,4.74-8.973,8.947-12.575,14.201c-0.408,1.101-0.816,2.202-2.073,2.634c-0.853,0.618-1.831,1.204-1.71-0.58
		C236.038,336.895,238.21,335.646,238.897,333.628z"/>
	<path fill="#A0A0A0" d="M242.358,270.458c0.015-2.432,0.029-4.864,0.044-7.296c1.519-0.6,1.787-1.682,1.549-3.232
		c-0.289-1.881,0.492-3.376,2.343-4.161c0.547-0.092,1.1-0.153,1.654-0.187c1.093-0.057,2.18-0.315,3.283-0.118
		c0.527,0.206,0.903,0.573,1.15,1.079c-0.829,1.543-1.659,3.087-2.488,4.631C247.047,263.997,245.732,268.063,242.358,270.458z"/>
	<path fill="#959595" d="M264.262,263.658c-0.022,0.444-0.043,0.888-0.065,1.333c-0.27,1.639-0.699,3.165-2.591,3.653
		c-1.368,0.593-2.466-0.106-3.577-0.747c-0.31,0.118-0.631,0.191-0.962,0.217c0.499-3.133,2.407-5.387,4.642-7.432
		C263.942,260.489,263.713,262.408,264.262,263.658z"/>
	<path fill="#979797" d="M253.469,310.005c-2.946,5.973-7.918,10.316-12.238,15.183c-0.033,0.037-0.347-0.096-0.448-0.217
		c-0.113-0.136-0.133-0.35-0.19-0.528C244.426,319.22,248.019,313.785,253.469,310.005z"/>
	<path fill="#A1A1A1" d="M254.178,269.842c0.505,0.642,1.496,0.968,1.329,2.046c-2.439,0.614-4.861,1.709-7.505,0.235
		c-0.101-2.135,1.237-3.515,2.618-5.024c1.684,1.057-0.959,3.211,0.966,3.802C252.276,271.113,253.304,270.227,254.178,269.842z"/>
	<path fill="#818181" d="M238.863,325.068c0.41,2.963-0.79,5.651-1.447,8.431c-1.807-2.856-0.808-5.652,0.179-8.449
		C238.018,325.056,238.44,325.062,238.863,325.068z"/>
	<path fill="#A9A9A9" d="M262.194,297.028c-0.911,0.321-1.506,1.341-2.68,1.177c-1.142-1.28,0.237-2.081,0.708-2.978
		c0.423-0.804,1.115-2.023,2.201-1.25c1.383,0.984-0.041,2.082-0.322,3.123L262.194,297.028z"/>
	<path fill="#9F9F9F" d="M256.033,305.449c1.071,2.622-0.999,3.476-2.589,4.601C253.353,307.979,255.217,307.009,256.033,305.449z"
		/>
	<path fill="#B1B1B1" d="M264.377,299.415c-1.059,0.676-2.159,1.236-3.459,1.233c0.425-1.206,0.851-2.412,1.276-3.619
		c0-0.001-0.093,0.073-0.093,0.072C263.285,297.453,264.024,298.244,264.377,299.415z"/>
	<path fill="#FEFEFE" d="M268.583,334.226c0.185,5.599,0.395,11.195,1.712,16.677c0.198,3.448-1.135,6.223-3.07,9.092
		c-5.07,7.512-10.98,14.346-16.524,21.475c-2.409,0.972-2.948,4.828-5.777,4.533c-2.422-0.252-3.165-3.297-4.811-4.961
		c-2.199-2.223-5.504-4.337-6.033-6.962c-0.577-2.861,3.171-5.094,4.969-7.642c6.354-9.005,13.88-17.125,19.92-26.369
		c2.555-3.177,5.109-6.353,7.602-9.453C268.533,331.368,268.047,333.048,268.583,334.226z"/>
	<path fill="#E4E4E4" d="M234.41,354.987c0.419-4.148,3.677-6.946,5.059-10.636c4.109-2.274,6.249-6.425,9.176-9.797
		c5.257-6.056,10.235-12.352,15.358-18.525c0.171-0.206,0.648-0.156,0.972-0.224c0.92,0.887,0.356,1.834,0.172,2.76
		c-0.931,4.82-4.587,7.924-7.325,11.608c-0.276,0.473-0.583,0.922-0.935,1.343c-4.032,6.246-8.758,11.964-13.427,17.728
		c-0.33,0.453-0.687,0.881-1.069,1.29c-1.637,1.206-2.288,3.231-3.743,4.56C237.281,356.342,235.739,358.003,234.41,354.987z"/>
	<path fill="#626262" d="M256.529,330.374c1.926-4.627,5.446-8.091,8.618-11.809c0.347,1.082,1.312,2.299,0.55,3.288
		c-2.209,2.868-3.159,6.719-6.628,8.606C258.199,331.112,257.349,331.198,256.529,330.374z"/>
	<path fill="#424242" d="M257.524,339.977c-0.292-0.001-0.584,0.002-0.876,0.007c-3.648,0.514-3.179,6.451-7.687,5.835
		c-2.292-2.506,0.435-3.883,1.275-5.684c0.224-0.497,0.496-0.969,0.809-1.416c1.185-1.134,2.257-2.355,2.949-3.868
		c0.339-0.439,0.745-0.8,1.22-1.085c0.821-0.309,1.608-0.288,2.347,0.229c0.464,0.017,0.927,0.033,1.391,0.05
		c0.631,1.729-1.088,2.734-1.295,4.205C257.613,338.826,257.568,339.402,257.524,339.977z"/>
	<path fill="#888888" d="M257.658,338.251c-0.001-1.535,0.572-2.893,1.295-4.205c0.705-0.931,1.411-1.861,2.116-2.792
		c0.33,0.276,0.661,0.552,0.991,0.828C261.412,334.636,259.545,336.45,257.658,338.251z"/>
	<path fill="#505050" d="M237.596,339.721c0.396-1.11,1.145-1.943,2.073-2.634c1.219,2.034,0.996,3.714-1.203,4.912
		C238.176,341.24,237.886,340.481,237.596,339.721z"/>
	<path fill="#505050" d="M238.368,344.328c-0.318,0.205-0.625,0.429-0.956,0.609c-0.635,0.344-1.39,0.96-1.984,0.243
		c-0.598-0.721,0.038-1.424,0.64-1.853c0.764-0.545,1.629-0.949,2.45-1.413C238.469,342.719,238.419,343.524,238.368,344.328z"/>
	<path fill="#ABABAB" d="M257.562,333.995c-0.737,0.409-1.475,0.818-2.212,1.228c-1.648-2.167,0.609-3.319,1.27-4.886l-0.091,0.037
		c0.847,0.029,1.693,0.057,2.54,0.086C258.567,331.638,258.064,332.817,257.562,333.995z"/>
	<path fill="#B2B2B2" d="M250.456,394.871c-1.086-0.539-1.31-1.47-1.167-2.567c0.751-0.613,0.229-1.921,1.29-2.364
		c6.905-6.706,12.841-14.306,19.791-21.113c-0.237,2.88-2.16,4.928-3.853,6.985c-2.37,2.879-4.983,5.558-7.493,8.322
		c-0.428,1.455-0.756,2.981-2.48,3.524l0.008-0.007c-2.457,1.291-3.383,3.903-5.063,5.865
		C251.278,394.069,251.213,394.734,250.456,394.871z"/>
	<path fill="#A6A6A6" d="M263.893,367.261c1.813-2.438,3.626-4.876,5.44-7.314c0.233,3.947-2.702,5.559-4.273,8.175
		C264.671,367.835,264.282,367.548,263.893,367.261z"/>
	<path fill="#818181" d="M250.578,389.94c-0.43,0.788-0.86,1.576-1.29,2.364c-3.016-2.931,0.605-4.456,1.394-6.579
		C251.919,387.163,250.464,388.532,250.578,389.94z"/>
	<path fill="#343434" d="M256.544,387.658c0.506-1.401,1.359-2.557,2.48-3.524C260.606,387.104,260.586,387.133,256.544,387.658z"/>
	<path fill="#B9B9B9" d="M234.21,359.724c0.426-0.468,0.851-0.937,1.277-1.405c1.707-3.37,4.328-6.104,6.414-9.21l-0.067,0.052
		c0.712-0.654,1.497-0.704,2.339-0.283c0.295,0.317,0.405,0.642,0.327,0.977c-0.079,0.341-0.164,0.51-0.256,0.508
		c-2.929,4.023-5.858,8.045-8.766,12.039C234.174,361.654,234.271,360.659,234.21,359.724z"/>
	<path fill="#868686" d="M249.091,345.743c1.9-1.151,3.392-2.691,4.631-4.54c0.648-0.968,1.47-1.977,2.926-1.219
		c-4.024,4.037-6.103,9.79-11.289,12.803l0.085,0.078c0.003-0.826,0.007-1.652,0.01-2.478c0.035-0.261,0.071-0.522,0.107-0.783
		c0.41-1.614,1.388-2.807,2.754-3.712C248.573,345.842,248.832,345.792,249.091,345.743z"/>
	<path fill="#B8B8B8" d="M244.244,350.363c-0.021-0.48-0.041-0.96-0.062-1.44c0.066-5.026,3.057-7.655,7.471-9.118
		c-0.027,2.336-2.599,3.574-2.562,5.938l0.067-0.055c-1.115,1.705-2.563,3.148-3.766,4.783c0,0,0.061-0.085,0.061-0.084
		C245.05,350.379,244.647,350.371,244.244,350.363z"/>
	<path fill="#818181" d="M250.456,394.871c0.345-0.452,0.689-0.904,1.034-1.355c0.502,0.285,1.007,0.564,1.505,0.856
		c1.294,0.759,2.453,1.916,1.163,3.205c-1.088,1.088-2.042-0.365-2.789-1.201C250.983,395.946,250.755,395.377,250.456,394.871z"/>
	<path fill="#949494" d="M239.973,361.503c-0.247,0.227-0.474,0.568-0.787,0.689c-0.425,0.164-0.822-0.123-0.73-0.541
		c0.064-0.291,0.444-0.6,0.754-0.727C239.635,360.749,239.921,361.008,239.973,361.503z"/>
	<path fill="#8E8E8E" d="M245.359,352.787c-0.02,0.379-0.005,0.764-0.069,1.135c-0.099,0.575-0.322,1.101-0.975,1.229
		c-0.142,0.028-0.47-0.197-0.464-0.214c0.187-0.503,0.338-1.041,0.642-1.471c0.2-0.283,0.626-0.406,0.95-0.601L245.359,352.787z"/>
	<path fill="#FFFFFF" d="M286.786,204.498c-1.526,1.538-3.172,2.975-4.557,4.631c-6.747,8.068-15.085,13.128-25.718,14.178
		c-2.932,0.29-5.815,1.067-8.721,1.62c-3.675-0.756-7.355-1.15-11.138-1.008c-3.123,0.118-5.828-0.41-8.49-3.078
		c-1.593-1.597-5.189-1.78-7.505-3.611c-2.168-1.715-3.804-3.467-5.059-6.191c-1.342-2.912-3.697-5.714-5.991-8.11
		c-1.591-1.661-2.146-3.698-3.497-5.333c0.146-2.663,0.153-5.153-0.848-7.862c-1.212-3.282,0.028-6.513,3.388-8.434
		c0.461,0.273,0.851,0.672,1.4,0.788c0.234-1.498,0.649-3.001-0.131-4.47c1.959-9.875,4.316-19.492,12.674-26.367
		c4.969-4.088,10.746-6.409,16.611-8.667c7.475-1.482,15.11-1.423,22.504-0.431c9.432,1.266,17.542,5.672,23.382,13.695
		C296.652,171.73,295.14,187.972,286.786,204.498z"/>
	<path fill="#575757" d="M209.92,177.617c0.958,3.715,2.455,7.108,6.881,9.464c-5.316,0.22-7.605-1.739-8.151-5.783
		C209.074,180.071,209.497,178.844,209.92,177.617z"/>
	<path fill="#505050" d="M241.901,349.108c-0.685,4.082-3.678,6.556-6.413,9.21c-0.922-0.929-2.038-1.795-1.078-3.332
		c1.451,1.363,2.024-0.104,2.688-0.909C238.572,352.293,239.445,349.943,241.901,349.108z"/>
	<path fill="#353535" d="M247.026,257.341c-1.2,1.117-1.969,2.407-1.845,4.136c0.166,2.31-1.371,1.915-2.779,1.686
		c0.01-2.901-0.396-5.812,0.233-8.696c-0.499-4.976,3.391-4.6,6.424-5.268c1.069-0.019,2.137-0.038,3.206-0.056
		C254.304,254.293,249.756,255.236,247.026,257.341z"/>
	<path fill="#D5D5D5" d="M247.026,257.341c1.392-2.96,4.407-4.882,5.24-8.2c1.969-0.167,3.929-0.245,6.265,0.746
		c-1.589,2.745-3.247,5.217-6.15,6.652c0.001,0.003-0.371-0.159-0.371-0.159c-1.468-0.792-2.186,0.921-3.388,1.016
		C248.089,257.378,247.558,257.359,247.026,257.341z"/>
	<path fill="#BCBCBC" d="M249.059,249.197c-1.224,1.326-1.938,3.251-4.371,3.005c-1.342-0.135-1.81,1.098-2.053,2.263
		c-2.587,0.411-2.711-0.849-1.695-2.651c0.673-1.194,2.449-1.296,2.967-2.729c-0.46-2.429,1.728-1.546,2.712-2.169
		c0.32-0.035,0.638-0.021,0.954,0.04C248.068,247.704,248.564,248.451,249.059,249.197z"/>
	<path fill="#B3B3B3" d="M262.073,248.382c0.711-0.141,1.665-0.304,1.908,0.371c0.142,0.395-0.687,1.138-1.079,1.725
		C260.114,250.773,261.839,249.283,262.073,248.382z"/>
	<path fill="#707070" d="M246.619,246.917c-0.957,0.657-2.16,1.005-2.712,2.169c-0.764-0.087-1.528-0.174-2.291-0.26
		c-0.624-0.746-0.608-1.478,0.046-2.196C243.314,246.725,244.967,246.821,246.619,246.917z"/>
	<path fill="#BBBBBB" d="M241.662,246.629c-0.015,0.732-0.031,1.464-0.046,2.196c-1.021,0.032-2.082-0.087-1.834-1.434
		C239.941,246.524,240.874,246.51,241.662,246.629z"/>
	<path fill="#464646" d="M258.029,267.896c1.725-2.302,2.53-0.198,3.577,0.747c-0.76,0.852-1.324,2.275-2.711,1.848
		C257.796,270.153,258.138,268.838,258.029,267.896z"/>
	<path fill="#989898" d="M263.742,269.824c0.016,1.542,0.031,3.084,0.047,4.625c-1.106-0.224-2.726-0.062-2.893-1.403
		C260.671,271.24,262.307,270.487,263.742,269.824z"/>
	<path fill="#353535" d="M261.3,277.047c-1.659-0.48-3.52-0.228-4.993-1.38C258.148,275.489,259.931,275.52,261.3,277.047z"/>
	<path fill="#707070" d="M248.621,257.397c0.776-0.899,1.505-1.847,2.348-2.679c0.508-0.501,1.263-1.377,1.884-0.42
		c0.234,0.361-0.528,1.369-0.84,2.083C250.825,256.537,250.095,258.208,248.621,257.397z"/>
	<path fill="#5E5E5E" d="M251.653,339.805c-3.301,2.377-6.159,5.116-7.47,9.121c-0.783,0.077-1.566,0.156-2.349,0.235
		c3.884-7.095,8.84-13.348,14.786-18.824c-0.423,1.629-0.847,3.257-1.27,4.886l0.034-0.039c-1.499,1.371-2.515,3.125-3.737,4.714
		L251.653,339.805z"/>
	<path fill="#A4A4A4" d="M251.647,339.899c0.648-2.045,1.132-4.221,3.737-4.714C254.952,337.401,253.472,338.786,251.647,339.899z"
		/>
	<path fill="#343434" d="M245.392,350.471c0.419-2.253,1.753-3.786,3.766-4.783C248.704,347.913,247.47,349.525,245.392,350.471z"/>
	<path fill="#1B1B1B" d="M230.304,197.668c2.914,3.853,7.131,4.097,10.282,6.43c1.497,1.108,3.67,1.586,5.596,1.787
		c12.083,1.26,22.709-1.588,31.07-11.061c1.324-1.501,2.609-5.367,5.03-3.279c1.562,1.346-2.005,3.087-3.205,4.697
		c-3.532,4.738-8.495,7.583-13.562,10.316c-8.456,4.562-26.826,2.404-33.828-4.024C230.654,201.585,229.64,200.629,230.304,197.668z
		"/>
	<path fill="#373737" d="M242.936,186.844c0.066-4.585,1.935-6.157,4.42-7.09c2.25-0.844,4.6-1.212,6.889,0.047
		c0.76,0.418,1.226,1.034,1,1.894c-0.213,0.81-0.846,1.559-1.699,1.132C249.322,180.716,246.573,183.456,242.936,186.844z"/>
	<path fill="#4B4B4B" d="M229.03,174.513c-2.495-0.026-3.815-1.372-5.098-2.45c-1.35-1.134-0.764-4.186,0.857-5.207
		c1.96-1.234,2.837,0.358,3.665,1.699C229.548,170.324,229.519,172.241,229.03,174.513z"/>
	<path fill="#515151" d="M270.322,167.138c1.033-0.101,1.708,0.325,1.809,1.175c0.291,2.448-0.37,4.639-2.332,6.225
		c-0.951,0.768-2.277,1.095-3.199,0.113c-1.155-1.229-0.335-1.946,0.987-2.461c1.413-0.55,0.95-1.938,1.105-3.037
		C268.841,168.104,269.395,167.386,270.322,167.138z"/>
</g>
</svg>
