<?xml version="1.0" encoding="utf-8"?>
<!-- Generator: Adobe Illustrator 17.0.0, SVG Export Plug-In . SVG Version: 6.00 Build 0)  -->
<!DOCTYPE svg PUBLIC "-//W3C//DTD SVG 1.1//EN" "http://www.w3.org/Graphics/SVG/1.1/DTD/svg11.dtd">
<svg version="1.1" id="Слой_1" xmlns="http://www.w3.org/2000/svg" xmlns:xlink="http://www.w3.org/1999/xlink" x="0px" y="0px"
	 width="500px" height="500px" viewBox="0 0 500 500" enable-background="new 0 0 500 500" xml:space="preserve">
<g>
	<path fill="#080808" d="M175.926,245.431c0.558-3.708,1.117-7.416,1.685-11.186c4.523-0.135,7.092,2.563,10.066,4.233
		c5.961,3.348,8.758,2.821,12.341-2.975c3.972-6.424,7.727-12.982,11.706-19.701c4.036,2.244,5.157,6.014,6.867,9.333
		c1.614,3.131,2.945,6.436,4.824,9.396c2.538,3.996,6.106,6.112,11.155,4.911c4.576-1.089,9.211-1.936,13.835-2.812
		c1.661-0.315,3.609-1.116,4.762,0.838c0.961,1.628,0.593,3.312-0.403,4.98c-4.519,7.573-8.952,15.198-13.415,22.804
		c0.154,1.535,0.079,3.021-0.919,4.308c-4.736,3.592-9.403,1.529-14.021-0.264c-10.681-4.147-20.059-10.615-29.498-16.92
		c-4.232-2.827-8.425-5.216-13.733-4.557C179.257,247.398,177.165,247.343,175.926,245.431z"/>
	<path fill="#353535" d="M292.979,122.956c14.609,8.699,21.479,22.305,23.232,38.525c1.921,17.774-3.235,33.335-14.947,47.334
		c-8.494,10.153-18.233,17.137-30.81,20.916c-14.921,4.483-28.017,0.143-40.2-7.825c-5.584-3.653-11.113-7.685-15.426-13.082
		c-7.857-9.834-8.711-21.63-9.586-33.371c-1-13.412,2.148-25.664,11.192-36.049c0.728-0.836,0.899-2.156,1.329-3.251
		c1.585-1.114,3.209-1.773,5.005-0.433c3.017,4.464,0.047,7.868-2.205,11.216c-11.025,16.395-9.964,34.124-2.943,50.865
		c12.081,28.804,52.857,33.837,73.44,10.405c10.93-12.444,18.725-25.532,17.529-42.854c-1.073-15.534-7.705-27.559-20.553-36.264
		c-3.025-2.049-7.405-3.151-6.408-8.342C286.339,116.73,289.397,121.185,292.979,122.956z"/>
	<path fill="#2D2D2D" d="M175.189,375.321c-6.663,8.181-13.382,16.316-19.969,24.557c-4.394,5.497-9.217,10.716-12.091,17.28
		c-0.987,2.255-2.778,3.079-4.936,2.254c-1.874-0.717-1.086-2.529-0.659-3.816c8.737-26.302,12.321-53.842,19.383-80.533
		c4.438-16.773,8.672-33.541,10.769-50.791c0.175-1.436,0.795-2.817,1.209-4.224c0.216-1.968,0.725-3.687,3.179-3.753
		c5.225,3.199,3.478,8.401,3.058,12.73c-1.334,13.755-4.583,27.247-7.947,40.58c-5.021,19.897-8.964,39.985-12.414,58.852
		c3.301-5.449,8.963-10.687,13.73-16.636c2.038-2.543,4.715-3.445,7.763-1.408C177.615,372.424,176.584,373.913,175.189,375.321z"/>
	<path fill="#181818" d="M222.076,135.988c-1.437,0.055-2.875,0.11-4.313,0.165c-0.436-0.205-0.846-0.453-1.229-0.744
		c-0.331-0.585-0.328-0.983,0.01-1.194c0.324-0.203,0.576-0.262,0.758-0.175c8.611-4.028,14.883-10.996,21.71-17.266
		c-0.215-2.902,2.059-3.342,4.033-4.081c2.719-0.97,4.79,0.955,7.149,1.601c4.918-0.691,10.088-0.009,14.668-2.527
		c1.733-0.953,2.51-0.016,3.644,1.095c1.46,1.432,3.341,2.267,6.301,1.293c-4.708-5.977-1.302-11.581,0.756-17.165
		c1.9-5.155,5.874-8.46,11.583-11.396c0.874,7.767-2.324,12.247-7.84,15.581l0.175-0.483l0.106,0.373
		c-4.957,8.329-3.195,13.099,5.989,15.966c2.463,0.769,5.009,1.271,7.517,1.896l-0.076-0.223c-0.65,1.413-0.846,2.829-0.037,4.255
		c-3.792,0.411-7.009-2.574-10.856-1.834c-2.921,3.96-6.949,2.356-10.509,1.773c-12.963-2.126-24.858-0.906-35.36,8.216
		C232.513,134.359,228.111,138.24,222.076,135.988z"/>
	<path fill="#3F3F3F" d="M175.189,375.321c0.015-1.557,0.031-3.113,0.046-4.67c-2.832-4.353,0.372-7.388,2.701-10.118
		c21.536-25.247,43.086-50.492,67.209-73.373c2.596-2.462,5.145-5.003,9.238-3.459c1.457,0.876,1.915,2.17,1.586,3.793
		c-9.327,11.353-21.202,20.182-30.881,31.189C208.471,337.577,191.823,356.443,175.189,375.321z"/>
	<path fill="#474747" d="M326.268,156.19c-1.217-5.457,2.052-10.173,2.76-15.569c-1.848-0.362-3.522-0.679-5.191-1.02
		c-10.035-2.049-14.578-6.642-16.536-16.65c-0.383-1.959,0.145-4.157-1.475-5.803c-1.068,0.437-1.7,0.086-1.895-1.051
		c4.915-2.399,5.228-7.952,8.068-11.773c1.541,0.171,2.264,1.193,2.661,2.554c0.091,2.257-0.349,4.385-1.539,6.331
		c-0.855,0.995-1.946,1.792-2.547,3.003c-0.812,11.586,2.673,17.451,12.354,20.31c4.686,1.384,8.86,1.498,12.715-2.97
		c4.029-4.67,9.319-8.155,15.672-9.342c2.271-0.424,5.283-1.402,6.417,1.092c1.346,2.959-1.132,4.764-3.722,5.92
		c-0.268,0.12-0.552,0.205-0.829,0.306c-0.506-0.602-0.952-1.509-1.892-0.78c-0.166,0.128,0.305,0.997,0.574,1.527
		c-1.946,3.4-5.516,4.604-8.814,5.084c-9.556,1.392-12.693,8.107-14.605,16.145c-0.268,1.127-0.455,2.274-0.68,3.412
		C326.884,157.461,326.365,157.26,326.268,156.19z"/>
	<path fill="#363636" d="M326.268,156.19c0.495,0.25,0.994,0.492,1.497,0.726c0.925,2.756,1.035,5.722,2.565,8.344
		c2.322,3.982,4.755,3.519,7.493,0.579c4.276,1.882,3.489,4.739,1.505,7.825c-2.786-0.374-5.312-0.232-6.499,2.961
		c-1.282,3.447-1.472,6.896,0.171,10.239c0.993,2.021,3.012,1.414,4.696,1.312c2.96-0.18,5.848-0.149,8.608,1.174
		c2.255,1.081,4.035,2.509,4.055,5.231c0.022,3.047-2.383,3.785-4.641,4.463c-3.866,1.16-7.831,1.322-10.456-2.226
		c-2.421-3.272-4.968-4.875-8.842-2.992c-2.85,1.385-7.145,0.639-7.212,6.052c-0.035,2.827-2.611,1.435-3.683,0.186
		c-1.604-1.87-1.233-4.084,0.821-5.289c2.246-1.318,4.764-2.384,7.3-2.953c4.743-1.064,7.287-3.064,5.588-8.415
		c-1.334-4.201,2.549-8.156,1.623-11.919c-0.851-3.458-4.34-6.18-4.909-10.13C325.695,159.616,325.385,157.865,326.268,156.19z"/>
	<path fill="#464646" d="M243.836,115.359c-1.608,0.471-3.216,0.942-4.824,1.414c-9.175-6.298-11.885-12.099-9.487-21.394
		c2.244-8.7,8.896-12.723,16.988-14.748c4.362-1.092,8.255-0.495,9.718,4.726c0.109,1.517-0.964,2.209-2.024,2.906
		c-1.943,0.644-4.001,0.512-5.988,0.839c-9.378,1.543-13.298,10.02-8.352,18.1c1.199,1.959,2.992,3.535,3.868,5.728
		C243.956,113.733,243.989,114.542,243.836,115.359z"/>
	<path fill="#2B2B2B" d="M255.968,287.494c-0.288-0.825-0.575-1.651-0.863-2.476c-1.17-5-5.196-6.401-9.403-8.042
		c-3.781-1.475-8.906-2.205-8.312-8.303c0.653-1.14,1.306-2.281,1.959-3.421c7.276,5.569,16.499,5.824,24.657,8.994
		c1.625,0.631,3.436,0.789,5.167,1.138c1.245,0.251,2.225,0.934,2.535,2.126c0.367,1.412-0.746,2.303-1.823,2.596
		C264.673,281.524,261.137,286.044,255.968,287.494z"/>
	<path fill="#4E4E4E" d="M217.301,134.039c-0.139,0.522-0.395,0.978-0.767,1.369c-8.779,2.933-14.03,1.969-18.093-3.319
		c-4.809-6.26-5.014-14.347-0.54-21.304c4.369-6.793,7.853-8.651,15.347-6.855c-4.721,1.852-8.237,3.33-10.832,6.262
		c-4.528,5.117-5.962,10.582-3.038,16.965c2.702,5.899,6.068,7.601,14.423,7.134C214.969,134.227,216.135,134.124,217.301,134.039z"
		/>
	<path fill="#515151" d="M339.328,173.664c-1.591-2.399-1.406-5.139-1.505-7.825c4.52-4.63,10.546-6.017,16.488-7.392
		c2.78-0.643,6.372-1.218,7.862,1.923c1.731,3.651-1.439,5.961-3.965,7.822C352.634,172.3,346.287,174.135,339.328,173.664z"/>
	<path fill="#494949" d="M172.28,277.101c-1.128,0.982-2.257,1.964-3.385,2.946c1.799-11.649,3.875-23.242,7.031-34.616
		c1.111-0.851,2.221-1.702,3.332-2.553c0.816,0.318,1.782,0.542,2.152,1.398C184.515,251.453,178.75,272.095,172.28,277.101z"/>
	<path fill="#6D6D6D" d="M253.204,86.389c1.009-0.344,2.018-0.688,3.027-1.032c1.309,7.475-1.083,14.23-3.869,20.976
		c-1.04,2.518-3.744,4.696-2.169,7.96c-2.119,0.355-4.238,0.711-6.357,1.066l0.037-0.78
		C244.979,104.519,246.634,94.64,253.204,86.389z"/>
	<path fill="#6B6B6B" d="M310.575,116.212c0.406-1.297,0.811-2.594,1.217-3.891c3.987-5.522,12.287-7.268,13.401-15.304
		c1.114-1.624,2.872-1.621,4.556-1.807c1.602,6.983,0.241,11.05-5.744,14.577C319.745,112.297,315.067,114.096,310.575,116.212z"/>
	<path fill="#DEDEDE" d="M351.864,132.274c-4.296-0.389-7.669,3.847-13.253,2.446c3.856-3.718,7.35-6.548,11.937-7.347
		c3.29-0.573,4.168,1.226,2.636,4.151C352.864,131.985,352.424,132.234,351.864,132.274z"/>
	<path fill="#3E3E3E" d="M329.749,95.21c-0.997,0.724-1.993,1.449-2.99,2.173c-4.443,3.522-5.566,12.066-14.135,9.347
		c-0.208-0.802-0.417-1.604-0.625-2.406c2.721-2.623,5.236-5.515,8.221-7.791C322.965,94.441,326.12,92.29,329.749,95.21z"/>
	<path fill="#6B6B6B" d="M303.931,116.096c0.632,0.35,1.263,0.701,1.895,1.051c-2.01,0.922-4.069,1.566-6.321,1.121
		c-0.09-0.333-0.18-0.667-0.271-1.001C300.673,116.369,302.182,115.75,303.931,116.096z"/>
	<path fill="#6B6B6B" d="M299.505,118.269c-2.097,1.134-4.224,1.832-6.49,0.433c0.001-0.001,0.074,0.223,0.075,0.222
		c1.494-2.613,3.831-2.091,6.144-1.654C299.323,117.602,299.413,117.936,299.505,118.269z"/>
	<path fill="#FFFFFF" d="M172.28,277.101c2.954-11.28,5.033-22.738,6.977-34.223c0.614-2.506,1.482-4.474,4.742-3.104
		c2.717,1.141,5.142,2.662,7.512,4.411c10.07,7.432,20.298,14.577,31.886,19.619c4.577,1.991,9.177,3.68,13.993,4.869
		c7.173,4.757,16.198,4.775,23.736,8.935c-0.822,3.723-4.242,4.902-6.021,7.41c-3.782,1.857-6.492,4.989-9.5,7.808
		c-14.833,13.9-28.352,29.017-41.555,44.438c-9.561,11.167-19.208,22.261-28.816,33.387c-7.967,9.414-15.942,18.821-23.889,28.251
		c-0.923,1.096-1.472,2.627-3.24,2.404C153.186,359.322,167.403,319.124,172.28,277.101z"/>
	<path fill="#F6F6F6" d="M232.994,263.2c-11.924-2.848-21.652-9.238-31.436-15.505c-1.068-0.684-1.454-1.85-1.04-3.058
		c0.425-1.24,1.404-1.818,2.732-1.474c1.488,0.386,2.826-0.102,4.267-0.389c11.428-2.277,16.319,1.548,22.219,13.737
		C230.782,258.673,230.098,261.604,232.994,263.2z"/>
	<path fill="#4E4E4E" d="M209.709,228.645c1.162,1.968,4.518,2.884,2.853,6.21c-0.646,1.291-1.244,2.733-2.826,3.163
		c-1.974,0.536-2.466-3.619-4.961-1.627c-0.727-1.634,0.405-2.805,1.122-3.995C206.797,230.902,207.763,229.382,209.709,228.645z"/>
	<path fill="#8F8F8F" d="M245.297,242.556c-0.857,4.287-2.079,7.696-5.733,10.414C239.497,246.727,239.497,246.727,245.297,242.556z
		"/>
	<path fill="#8F8F8F" d="M236.257,259.823c-0.962-0.369-1.309-1.183-0.863-1.969c0.361-0.636,1.117-1.271,1.811-1.441
		c0.981-0.24,1.399,0.581,1.251,1.48C238.26,259.088,237.587,259.867,236.257,259.823z"/>
	<path fill="#FFFFFF" d="M222.076,135.988c6.029-4.988,13.38-8.256,18.556-14.393c0.844-1.001,2.514-1.568,3.895-1.814
		c11.423-2.033,22.869-4.353,34.221,0.432c1.064,0.448,2.247,0.613,3.375,0.909c34.116,13.228,38.426,56.598,21.578,78.598
		c-8.302,10.84-16.494,21.464-30.284,25.979c-9.325,3.053-18.294,3.34-27.668,0.134c-10.349-3.539-18.779-9.881-26.474-17.182
		c-8.502-8.067-9.705-19.156-10.809-30.094c-1.463-14.496,2.526-27.331,11.65-38.652
		C221.01,138.794,221.433,137.303,222.076,135.988z"/>
	<path fill="#FDFDFD" d="M279.586,101.063c-2.426-4.146,0.241-6.137,3.907-9.118c-0.069,4.611-2.398,6.782-4.169,9.22
		C279.305,101.174,279.586,101.063,279.586,101.063z"/>
	<path fill="#F1F1F1" d="M312.624,106.73c3.144,0.064,4.152-2.857,6.116-4.424c2.479-1.979,4.587-4.513,8.019-4.923
		c1.779,4.677-0.815,7.699-4.23,10.008c-3.262,2.205-6.628,4.45-10.737,4.93C310.325,110.198,311.745,108.504,312.624,106.73z"/>
	<path fill="#F0F0F0" d="M347.475,194.778c-4.57,3.419-7.657,2.077-10.994-2.066C340.974,189.883,344.012,191.516,347.475,194.778z"
		/>
	<path fill="#FDFDFD" d="M253.204,86.389c0.495,10.59-1.815,20.251-9.331,28.19c-13.006-2.557-14.085-16.164-8.06-23.993
		C240.74,84.183,245.252,82.933,253.204,86.389z"/>
	<path fill="#F4F4F4" d="M340.274,169.802c4.728-6.402,10.965-8.518,20.021-7.815C354.388,169.64,347.669,170.619,340.274,169.802z"
		/>
	<path fill="#1D1D1D" d="M285.541,201.733c1.252,2.308,0.096,3.405-1.437,4.526c-7.171,5.243-15.237,7.659-24.038,7.33
		c-16.201-0.606-34.305-9.37-39.461-29.54c-0.365-1.427-0.721-2.861-0.974-4.311c-0.28-1.602,0.165-3.239,1.845-3.456
		c1.82-0.235,2.146,1.55,2.486,2.985c0.406,1.716,0.703,3.474,1.28,5.132c7.673,22.057,33.841,31.668,54.16,19.979
		C281.325,203.272,283.01,201.28,285.541,201.733z"/>
	<path fill="#262626" d="M247.55,175.276c0.437-1.268,1.445-1.817,2.11-1.456c3.581,1.943,7.094,4.019,10.533,6.204
		c0.61,0.387,0.919,1.547,0.19,2.331c-0.343,0.368-1.041,0.819-1.397,0.698c-3.874-1.313-7.758-2.681-10.727-5.665
		C247.737,176.865,247.724,175.836,247.55,175.276z"/>
	<path fill="#212121" d="M245.779,149.057c-1.909,2.197-3.937,4.121-6.748,2.568c-1.84-1.017-1.316-3.117-0.298-4.637
		c1.36-2.031,3.217-3.677,5.833-2.386C246.456,145.536,246.234,147.409,245.779,149.057z"/>
	<path fill="#252525" d="M288.319,166.373c1.703,1.189,2.514,2.724,1.292,4.474c-1.147,1.642-2.585,3.37-5.009,2.603
		c-2.046-0.647-2.62-2.27-1.834-4.157C283.788,166.844,285.671,165.754,288.319,166.373z"/>
</g>
</svg>
