<?xml version="1.0" encoding="utf-8"?>
<!-- Generator: Adobe Illustrator 17.0.0, SVG Export Plug-In . SVG Version: 6.00 Build 0)  -->
<!DOCTYPE svg PUBLIC "-//W3C//DTD SVG 1.1//EN" "http://www.w3.org/Graphics/SVG/1.1/DTD/svg11.dtd">
<svg version="1.1" id="Слой_1" xmlns="http://www.w3.org/2000/svg" xmlns:xlink="http://www.w3.org/1999/xlink" x="0px" y="0px"
	 width="500px" height="500px" viewBox="0 0 500 500" enable-background="new 0 0 500 500" xml:space="preserve">
<g>
	<g>
		<path fill="none" stroke="#B0B3B4" stroke-width="0.7677" stroke-miterlimit="10" d="M0.03,93.261
			c57.495-59.303,91.559-39.44,111.269-40.342c18.472-0.845,43.585-25.583,52.788-19.884c4.063,2.516,6.802,6.18,9.064,6.455
			c2.564,0.312,2.721-7.726,5.745-8.684c3.003-0.951,8.574,5.288,9.245,3.53c2.205-5.779,5.089-1.667,6.845-5.366
			c1.121-2.36,0-3.568,4.252-4.326c3.018-0.538,26.185,15.886,41.093,12.209c5.292-1.305,67.005-15.639-0.19-41.837"/>
		<path fill="none" stroke="#B0B3B4" stroke-width="0.7677" stroke-miterlimit="10" d="M1.336,76.409
			C63.877,22.096,91.965,43.2,110.002,42.402c16.903-0.748,41.566-23.982,49.997-18.759c3.722,2.306,7.289,7.213,9.36,7.467
			c2.347,0.288,2.566-5.831,5.332-6.703c2.747-0.866,8.226,4.488,8.838,2.881c2.01-5.281,3.602-1.576,5.205-4.956
			c1.022-2.156,2.933-3.833,6.889-3.027c15.374,3.132,21.759,13.644,35.397,10.303c4.841-1.186,63.115-8.202-0.782-35.36"/>
		<path fill="none" stroke="#B0B3B4" stroke-width="0.7677" stroke-miterlimit="10" d="M285.002-1.507
			c82.867,31.97-12.343,62.246-18.721,64.732c-30.529,11.9-59.576-21.384-77.745-7.653c-3.151,2.381-6.096,10.904-8.073,13.317
			c-8.518,10.392-13.446,3.269-18.587,0.085c-11.647-7.213-27.808,25-51.184,26.069c-20.36,0.932-38.037-5.301-62.964,11.777
			c-16.352,11.203-44.158,56.349-55.202,83.276"/>
		<path fill="none" stroke="#B0B3B4" stroke-width="0.7677" stroke-miterlimit="10" d="M-2.157,121.476
			C54.241,52.341,86.471,70.627,107.89,69.647c20.074-0.919,41.626-23.835,51.628-17.641c4.415,2.734,6.386,7.037,11.864,2.98
			c2.164-1.603,3.647-10.394,6.933-11.435c3.264-1.034,13.814,3.51,15.722-0.51c1.218-2.565,1.762-5.362,6.383-6.186
			c3.279-0.585,28.455,17.264,44.656,13.268c5.751-1.418,97.807-22.355,8.078-54.097"/>
	</g>
	<g>
		<path fill="none" stroke="#B0B3B4" stroke-width="0.7677" stroke-miterlimit="10" d="M2.291,64.084
			c61.136-47.948,91.484-31.12,103.883-31.63c14.893-0.612,41.976-24.441,52.985-12.126c2.029,2.27,4.344,3.922,5.775,4.112
			c1.621,0.216,0.783-2.728,2.023-3.234c0.838-0.342-0.369-1.577,1.533-2.152c1.888-0.571,4.431,3.08,5.15,2.937
			c0.705-0.139,0.775-1.718,1.685-2.453c0.915-0.739,2.229,0.798,3.307-1.502c0.688-1.468-0.029-2.232,2.649-2.672
			c1.901-0.312,1.93,0.863,3.24,1.08c4.179,0.694,6.089-2.318,8.816-2.243c6.076,0.167,18.545,7.49,19.783,7.877
			c4.695,1.465,25.058-4.221,20.083-10.864c-2.537-3.387-35.382-19.013-37.319-19.629"/>
	</g>
</g>
</svg>
